G04 #@! TF.GenerationSoftware,KiCad,Pcbnew,5.1.10-88a1d61d58~88~ubuntu18.04.1*
G04 #@! TF.CreationDate,2021-06-12T18:10:01+08:00*
G04 #@! TF.ProjectId,kit-dev-coldfire-xilinx_5213,6b69742d-6465-4762-9d63-6f6c64666972,2*
G04 #@! TF.SameCoordinates,Original*
G04 #@! TF.FileFunction,Copper,L1,Top*
G04 #@! TF.FilePolarity,Positive*
%FSLAX46Y46*%
G04 Gerber Fmt 4.6, Leading zero omitted, Abs format (unit mm)*
G04 Created by KiCad (PCBNEW 5.1.10-88a1d61d58~88~ubuntu18.04.1) date 2021-06-12 18:10:01*
%MOMM*%
%LPD*%
G01*
G04 APERTURE LIST*
G04 #@! TA.AperFunction,NonConductor*
%ADD10C,0.304800*%
G04 #@! TD*
G04 #@! TA.AperFunction,SMDPad,CuDef*
%ADD11R,0.900000X0.800000*%
G04 #@! TD*
G04 #@! TA.AperFunction,ComponentPad*
%ADD12O,2.400000X2.400000*%
G04 #@! TD*
G04 #@! TA.AperFunction,ComponentPad*
%ADD13R,2.400000X2.400000*%
G04 #@! TD*
G04 #@! TA.AperFunction,ComponentPad*
%ADD14O,1.600000X1.600000*%
G04 #@! TD*
G04 #@! TA.AperFunction,ComponentPad*
%ADD15C,1.600000*%
G04 #@! TD*
G04 #@! TA.AperFunction,SMDPad,CuDef*
%ADD16R,1.550000X0.600000*%
G04 #@! TD*
G04 #@! TA.AperFunction,SMDPad,CuDef*
%ADD17R,1.100000X4.600000*%
G04 #@! TD*
G04 #@! TA.AperFunction,SMDPad,CuDef*
%ADD18R,10.800000X9.400000*%
G04 #@! TD*
G04 #@! TA.AperFunction,ComponentPad*
%ADD19R,1.600000X1.600000*%
G04 #@! TD*
G04 #@! TA.AperFunction,SMDPad,CuDef*
%ADD20R,1.500000X0.600000*%
G04 #@! TD*
G04 #@! TA.AperFunction,SMDPad,CuDef*
%ADD21R,1.070000X1.800000*%
G04 #@! TD*
G04 #@! TA.AperFunction,SMDPad,CuDef*
%ADD22R,1.800000X1.070000*%
G04 #@! TD*
G04 #@! TA.AperFunction,SMDPad,CuDef*
%ADD23R,2.032000X1.524000*%
G04 #@! TD*
G04 #@! TA.AperFunction,SMDPad,CuDef*
%ADD24R,1.524000X2.032000*%
G04 #@! TD*
G04 #@! TA.AperFunction,ComponentPad*
%ADD25R,1.700000X1.700000*%
G04 #@! TD*
G04 #@! TA.AperFunction,SMDPad,CuDef*
%ADD26R,1.500000X0.280000*%
G04 #@! TD*
G04 #@! TA.AperFunction,SMDPad,CuDef*
%ADD27R,0.280000X1.500000*%
G04 #@! TD*
G04 #@! TA.AperFunction,SMDPad,CuDef*
%ADD28R,1.245000X1.800000*%
G04 #@! TD*
G04 #@! TA.AperFunction,ComponentPad*
%ADD29C,1.000000*%
G04 #@! TD*
G04 #@! TA.AperFunction,ComponentPad*
%ADD30R,1.000000X1.000000*%
G04 #@! TD*
G04 #@! TA.AperFunction,SMDPad,CuDef*
%ADD31R,1.450000X0.250000*%
G04 #@! TD*
G04 #@! TA.AperFunction,SMDPad,CuDef*
%ADD32R,0.250000X1.450000*%
G04 #@! TD*
G04 #@! TA.AperFunction,ComponentPad*
%ADD33O,1.700000X1.700000*%
G04 #@! TD*
G04 #@! TA.AperFunction,SMDPad,CuDef*
%ADD34R,1.500000X0.970000*%
G04 #@! TD*
G04 #@! TA.AperFunction,SMDPad,CuDef*
%ADD35R,0.970000X1.500000*%
G04 #@! TD*
G04 #@! TA.AperFunction,ComponentPad*
%ADD36C,1.500000*%
G04 #@! TD*
G04 #@! TA.AperFunction,SMDPad,CuDef*
%ADD37R,3.556000X4.191000*%
G04 #@! TD*
G04 #@! TA.AperFunction,ComponentPad*
%ADD38C,4.800600*%
G04 #@! TD*
G04 #@! TA.AperFunction,ComponentPad*
%ADD39R,4.800600X4.800600*%
G04 #@! TD*
G04 #@! TA.AperFunction,SMDPad,CuDef*
%ADD40R,0.914400X0.914400*%
G04 #@! TD*
G04 #@! TA.AperFunction,ComponentPad*
%ADD41R,2.540000X3.810000*%
G04 #@! TD*
G04 #@! TA.AperFunction,ComponentPad*
%ADD42R,2.540000X2.540000*%
G04 #@! TD*
G04 #@! TA.AperFunction,ComponentPad*
%ADD43C,2.540000*%
G04 #@! TD*
G04 #@! TA.AperFunction,SMDPad,CuDef*
%ADD44R,0.508000X0.304800*%
G04 #@! TD*
G04 #@! TA.AperFunction,ComponentPad*
%ADD45C,3.810000*%
G04 #@! TD*
G04 #@! TA.AperFunction,ComponentPad*
%ADD46R,1.524000X1.524000*%
G04 #@! TD*
G04 #@! TA.AperFunction,ComponentPad*
%ADD47C,1.524000*%
G04 #@! TD*
G04 #@! TA.AperFunction,ComponentPad*
%ADD48C,1.397000*%
G04 #@! TD*
G04 #@! TA.AperFunction,ViaPad*
%ADD49C,0.635000*%
G04 #@! TD*
G04 #@! TA.AperFunction,ViaPad*
%ADD50C,0.889000*%
G04 #@! TD*
G04 #@! TA.AperFunction,ViaPad*
%ADD51C,0.800000*%
G04 #@! TD*
G04 #@! TA.AperFunction,ViaPad*
%ADD52C,1.143000*%
G04 #@! TD*
G04 #@! TA.AperFunction,Conductor*
%ADD53C,0.254000*%
G04 #@! TD*
G04 #@! TA.AperFunction,Conductor*
%ADD54C,0.431800*%
G04 #@! TD*
G04 #@! TA.AperFunction,Conductor*
%ADD55C,0.381000*%
G04 #@! TD*
G04 #@! TA.AperFunction,Conductor*
%ADD56C,0.400000*%
G04 #@! TD*
G04 #@! TA.AperFunction,Conductor*
%ADD57C,0.762000*%
G04 #@! TD*
G04 #@! TA.AperFunction,Conductor*
%ADD58C,0.200000*%
G04 #@! TD*
G04 #@! TA.AperFunction,Conductor*
%ADD59C,1.524000*%
G04 #@! TD*
G04 #@! TA.AperFunction,Conductor*
%ADD60C,0.558800*%
G04 #@! TD*
G04 #@! TA.AperFunction,Conductor*
%ADD61C,0.203200*%
G04 #@! TD*
G04 APERTURE END LIST*
D10*
X205794428Y-59145714D02*
X205721857Y-59242476D01*
X205504142Y-59339238D01*
X205359000Y-59339238D01*
X205141285Y-59242476D01*
X204996142Y-59048952D01*
X204923571Y-58855428D01*
X204851000Y-58468380D01*
X204851000Y-58178095D01*
X204923571Y-57791047D01*
X204996142Y-57597523D01*
X205141285Y-57404000D01*
X205359000Y-57307238D01*
X205504142Y-57307238D01*
X205721857Y-57404000D01*
X205794428Y-57500761D01*
X206375000Y-58758666D02*
X207100714Y-58758666D01*
X206229857Y-59339238D02*
X206737857Y-57307238D01*
X207245857Y-59339238D01*
X208624714Y-59339238D02*
X208116714Y-58371619D01*
X207753857Y-59339238D02*
X207753857Y-57307238D01*
X208334428Y-57307238D01*
X208479571Y-57404000D01*
X208552142Y-57500761D01*
X208624714Y-57694285D01*
X208624714Y-57984571D01*
X208552142Y-58178095D01*
X208479571Y-58274857D01*
X208334428Y-58371619D01*
X207753857Y-58371619D01*
X209060142Y-57307238D02*
X209931000Y-57307238D01*
X209495571Y-59339238D02*
X209495571Y-57307238D01*
X210439000Y-58274857D02*
X210947000Y-58274857D01*
X211164714Y-59339238D02*
X210439000Y-59339238D01*
X210439000Y-57307238D01*
X211164714Y-57307238D01*
X213849857Y-59145714D02*
X213777285Y-59242476D01*
X213559571Y-59339238D01*
X213414428Y-59339238D01*
X213196714Y-59242476D01*
X213051571Y-59048952D01*
X212979000Y-58855428D01*
X212906428Y-58468380D01*
X212906428Y-58178095D01*
X212979000Y-57791047D01*
X213051571Y-57597523D01*
X213196714Y-57404000D01*
X213414428Y-57307238D01*
X213559571Y-57307238D01*
X213777285Y-57404000D01*
X213849857Y-57500761D01*
X214793285Y-57307238D02*
X215083571Y-57307238D01*
X215228714Y-57404000D01*
X215373857Y-57597523D01*
X215446428Y-57984571D01*
X215446428Y-58661904D01*
X215373857Y-59048952D01*
X215228714Y-59242476D01*
X215083571Y-59339238D01*
X214793285Y-59339238D01*
X214648142Y-59242476D01*
X214503000Y-59048952D01*
X214430428Y-58661904D01*
X214430428Y-57984571D01*
X214503000Y-57597523D01*
X214648142Y-57404000D01*
X214793285Y-57307238D01*
X216825285Y-59339238D02*
X216099571Y-59339238D01*
X216099571Y-57307238D01*
X217333285Y-59339238D02*
X217333285Y-57307238D01*
X217696142Y-57307238D01*
X217913857Y-57404000D01*
X218059000Y-57597523D01*
X218131571Y-57791047D01*
X218204142Y-58178095D01*
X218204142Y-58468380D01*
X218131571Y-58855428D01*
X218059000Y-59048952D01*
X217913857Y-59242476D01*
X217696142Y-59339238D01*
X217333285Y-59339238D01*
X219365285Y-58274857D02*
X218857285Y-58274857D01*
X218857285Y-59339238D02*
X218857285Y-57307238D01*
X219583000Y-57307238D01*
X220163571Y-59339238D02*
X220163571Y-57307238D01*
X221760142Y-59339238D02*
X221252142Y-58371619D01*
X220889285Y-59339238D02*
X220889285Y-57307238D01*
X221469857Y-57307238D01*
X221615000Y-57404000D01*
X221687571Y-57500761D01*
X221760142Y-57694285D01*
X221760142Y-57984571D01*
X221687571Y-58178095D01*
X221615000Y-58274857D01*
X221469857Y-58371619D01*
X220889285Y-58371619D01*
X222413285Y-58274857D02*
X222921285Y-58274857D01*
X223139000Y-59339238D02*
X222413285Y-59339238D01*
X222413285Y-57307238D01*
X223139000Y-57307238D01*
D11*
X161401000Y-102489000D03*
X159401000Y-103439000D03*
X159401000Y-101539000D03*
X162798000Y-95631000D03*
X160798000Y-96581000D03*
X160798000Y-94681000D03*
D12*
X80772000Y-77089000D03*
D13*
X93472000Y-77089000D03*
D14*
X217170000Y-134620000D03*
D15*
X207010000Y-134620000D03*
D16*
X103218000Y-90297000D03*
X103218000Y-89027000D03*
X103218000Y-87757000D03*
X103218000Y-86487000D03*
X108618000Y-86487000D03*
X108618000Y-87757000D03*
X108618000Y-89027000D03*
X108618000Y-90297000D03*
D17*
X74705000Y-94040000D03*
X76405000Y-94040000D03*
X78105000Y-94040000D03*
X79805000Y-94040000D03*
X81505000Y-94040000D03*
D18*
X78105000Y-84890000D03*
D15*
X88900000Y-95330000D03*
D19*
X88900000Y-100330000D03*
D15*
X88900000Y-82630000D03*
D19*
X88900000Y-87630000D03*
D20*
X102903000Y-113792000D03*
X102903000Y-115062000D03*
X102903000Y-116332000D03*
X102903000Y-117602000D03*
X102903000Y-118872000D03*
X102903000Y-120142000D03*
X102903000Y-121412000D03*
X97503000Y-121412000D03*
X97503000Y-120142000D03*
X97503000Y-118872000D03*
X97503000Y-117602000D03*
X97503000Y-116332000D03*
X97503000Y-115062000D03*
X97503000Y-113792000D03*
D21*
X86887000Y-121158000D03*
X89897000Y-121158000D03*
X86887000Y-117094000D03*
X89897000Y-117094000D03*
X213595000Y-80645000D03*
X210585000Y-80645000D03*
X213595000Y-76835000D03*
X210585000Y-76835000D03*
D22*
X104140000Y-139681000D03*
X104140000Y-136671000D03*
D21*
X86887000Y-125349000D03*
X89897000Y-125349000D03*
X86887000Y-129540000D03*
X89897000Y-129540000D03*
D23*
X164846000Y-87630000D03*
X164846000Y-90932000D03*
X164846000Y-98806000D03*
X164846000Y-102108000D03*
D24*
X148590000Y-120015000D03*
X151892000Y-120015000D03*
D23*
X120777000Y-107696000D03*
X120777000Y-104394000D03*
D25*
X152019000Y-102489000D03*
X83439000Y-134239000D03*
X89535000Y-140970000D03*
X100457000Y-95758000D03*
X83439000Y-138557000D03*
X103505000Y-83820000D03*
D26*
X143282000Y-95473000D03*
X143282000Y-95973000D03*
X143282000Y-96473000D03*
X143282000Y-96973000D03*
X143282000Y-97473000D03*
X143282000Y-97973000D03*
X143282000Y-98473000D03*
X143282000Y-98973000D03*
X143282000Y-99473000D03*
X143282000Y-99973000D03*
X143282000Y-100473000D03*
X143282000Y-100973000D03*
X143282000Y-101473000D03*
X143282000Y-101973000D03*
X143282000Y-102473000D03*
X143282000Y-102973000D03*
X143282000Y-103473000D03*
X143282000Y-103973000D03*
X143282000Y-104473000D03*
X143282000Y-104973000D03*
X143282000Y-105473000D03*
X143282000Y-105973000D03*
X143282000Y-106473000D03*
X143282000Y-106973000D03*
X143282000Y-107473000D03*
D27*
X141382000Y-109373000D03*
X140882000Y-109373000D03*
X140382000Y-109373000D03*
X139882000Y-109373000D03*
X139382000Y-109373000D03*
X138882000Y-109373000D03*
X138382000Y-109373000D03*
X137882000Y-109373000D03*
X137382000Y-109373000D03*
X136882000Y-109373000D03*
X136382000Y-109373000D03*
X135882000Y-109373000D03*
X135382000Y-109373000D03*
X134882000Y-109373000D03*
X134382000Y-109373000D03*
X133882000Y-109373000D03*
X133382000Y-109373000D03*
X132882000Y-109373000D03*
X132382000Y-109373000D03*
X131882000Y-109373000D03*
X131382000Y-109373000D03*
X130882000Y-109373000D03*
X130382000Y-109373000D03*
X129882000Y-109373000D03*
X129382000Y-109373000D03*
D26*
X127482000Y-107473000D03*
X127482000Y-106973000D03*
X127482000Y-106473000D03*
X127482000Y-105973000D03*
X127482000Y-105473000D03*
X127482000Y-104973000D03*
X127482000Y-104473000D03*
X127482000Y-103973000D03*
X127482000Y-103473000D03*
X127482000Y-102973000D03*
X127482000Y-102473000D03*
X127482000Y-101973000D03*
X127482000Y-101473000D03*
X127482000Y-100973000D03*
X127482000Y-100473000D03*
X127482000Y-99973000D03*
X127482000Y-99473000D03*
X127482000Y-98973000D03*
X127482000Y-98473000D03*
X127482000Y-97973000D03*
X127482000Y-97473000D03*
X127482000Y-96973000D03*
X127482000Y-96473000D03*
X127482000Y-95973000D03*
X127482000Y-95473000D03*
D27*
X129382000Y-93573000D03*
X129882000Y-93573000D03*
X130382000Y-93573000D03*
X130882000Y-93573000D03*
X131382000Y-93573000D03*
X131882000Y-93573000D03*
X132382000Y-93573000D03*
X132882000Y-93573000D03*
X133382000Y-93573000D03*
X133882000Y-93573000D03*
X134382000Y-93573000D03*
X134882000Y-93573000D03*
X135382000Y-93573000D03*
X135882000Y-93573000D03*
X136382000Y-93573000D03*
X136882000Y-93573000D03*
X137382000Y-93573000D03*
X137882000Y-93573000D03*
X138382000Y-93573000D03*
X138882000Y-93573000D03*
X139382000Y-93573000D03*
X139882000Y-93573000D03*
X140382000Y-93573000D03*
X140882000Y-93573000D03*
X141382000Y-93573000D03*
D28*
X118041500Y-101346000D03*
X121226500Y-101346000D03*
X120591500Y-110236000D03*
X117406500Y-110236000D03*
X150299500Y-109220000D03*
X153484500Y-109220000D03*
D29*
X187960000Y-88138000D03*
X189230000Y-89408000D03*
D30*
X186690000Y-89408000D03*
D31*
X212480000Y-103010000D03*
X212480000Y-103510000D03*
X212480000Y-104010000D03*
X212480000Y-104510000D03*
X212480000Y-105010000D03*
X212480000Y-105510000D03*
X212480000Y-106010000D03*
X212480000Y-106510000D03*
X212480000Y-107010000D03*
X212480000Y-107510000D03*
X212480000Y-108010000D03*
X212480000Y-108510000D03*
X212480000Y-109010000D03*
X212480000Y-109510000D03*
X212480000Y-110010000D03*
X212480000Y-110510000D03*
X212480000Y-111010000D03*
X212480000Y-111510000D03*
X212480000Y-112010000D03*
X212480000Y-112510000D03*
X212480000Y-113010000D03*
X212480000Y-113510000D03*
X212480000Y-114010000D03*
X212480000Y-114510000D03*
X212480000Y-115010000D03*
X212480000Y-115510000D03*
X212480000Y-116010000D03*
X212480000Y-116510000D03*
X212480000Y-117010000D03*
X212480000Y-117510000D03*
X212480000Y-118010000D03*
X212480000Y-118510000D03*
X212480000Y-119010000D03*
X212480000Y-119510000D03*
X212480000Y-120010000D03*
X212480000Y-120510000D03*
D32*
X210680000Y-122310000D03*
X210180000Y-122310000D03*
X209680000Y-122310000D03*
X209180000Y-122310000D03*
X208680000Y-122310000D03*
X208180000Y-122310000D03*
X207680000Y-122310000D03*
X207180000Y-122310000D03*
X206680000Y-122310000D03*
X206180000Y-122310000D03*
X205680000Y-122310000D03*
X205180000Y-122310000D03*
X204680000Y-122310000D03*
X204180000Y-122310000D03*
X203680000Y-122310000D03*
X203180000Y-122310000D03*
X202680000Y-122310000D03*
X202180000Y-122310000D03*
X201680000Y-122310000D03*
X201180000Y-122310000D03*
X200680000Y-122310000D03*
X200180000Y-122310000D03*
X199680000Y-122310000D03*
X199180000Y-122310000D03*
X198680000Y-122310000D03*
X198180000Y-122310000D03*
X197680000Y-122310000D03*
X197180000Y-122310000D03*
X196680000Y-122310000D03*
X196180000Y-122310000D03*
X195680000Y-122310000D03*
X195180000Y-122310000D03*
X194680000Y-122310000D03*
X194180000Y-122310000D03*
X193680000Y-122310000D03*
X193180000Y-122310000D03*
D31*
X191380000Y-120510000D03*
X191380000Y-120010000D03*
X191380000Y-119510000D03*
X191380000Y-119010000D03*
X191380000Y-118510000D03*
X191380000Y-118010000D03*
X191380000Y-117510000D03*
X191380000Y-117010000D03*
X191380000Y-116510000D03*
X191380000Y-116010000D03*
X191380000Y-115510000D03*
X191380000Y-115010000D03*
X191380000Y-114510000D03*
X191380000Y-114010000D03*
X191380000Y-113510000D03*
X191380000Y-113010000D03*
X191380000Y-112510000D03*
X191380000Y-112010000D03*
X191380000Y-111510000D03*
X191380000Y-111010000D03*
X191380000Y-110510000D03*
X191380000Y-110010000D03*
X191380000Y-109510000D03*
X191380000Y-109010000D03*
X191380000Y-108510000D03*
X191380000Y-108010000D03*
X191380000Y-107510000D03*
X191380000Y-107010000D03*
X191380000Y-106510000D03*
X191380000Y-106010000D03*
X191380000Y-105510000D03*
X191380000Y-105010000D03*
X191380000Y-104510000D03*
X191380000Y-104010000D03*
X191380000Y-103510000D03*
X191380000Y-103010000D03*
D32*
X193180000Y-101210000D03*
X193680000Y-101210000D03*
X194180000Y-101210000D03*
X194680000Y-101210000D03*
X195180000Y-101210000D03*
X195680000Y-101210000D03*
X196180000Y-101210000D03*
X196680000Y-101210000D03*
X197180000Y-101210000D03*
X197680000Y-101210000D03*
X198180000Y-101210000D03*
X198680000Y-101210000D03*
X199180000Y-101210000D03*
X199680000Y-101210000D03*
X200180000Y-101210000D03*
X200680000Y-101210000D03*
X201180000Y-101210000D03*
X201680000Y-101210000D03*
X202180000Y-101210000D03*
X202680000Y-101210000D03*
X203180000Y-101210000D03*
X203680000Y-101210000D03*
X204180000Y-101210000D03*
X204680000Y-101210000D03*
X205180000Y-101210000D03*
X205680000Y-101210000D03*
X206180000Y-101210000D03*
X206680000Y-101210000D03*
X207180000Y-101210000D03*
X207680000Y-101210000D03*
X208180000Y-101210000D03*
X208680000Y-101210000D03*
X209180000Y-101210000D03*
X209680000Y-101210000D03*
X210180000Y-101210000D03*
X210680000Y-101210000D03*
D20*
X189390000Y-73406000D03*
X189390000Y-74676000D03*
X189390000Y-75946000D03*
X189390000Y-77216000D03*
X189390000Y-78486000D03*
X189390000Y-79756000D03*
X189390000Y-81026000D03*
X189390000Y-82296000D03*
X183990000Y-82296000D03*
X183990000Y-81026000D03*
X183990000Y-79756000D03*
X183990000Y-78486000D03*
X183990000Y-77216000D03*
X183990000Y-75946000D03*
X183990000Y-74676000D03*
X183990000Y-73406000D03*
X161450000Y-73406000D03*
X161450000Y-74676000D03*
X161450000Y-75946000D03*
X161450000Y-77216000D03*
X161450000Y-78486000D03*
X161450000Y-79756000D03*
X161450000Y-81026000D03*
X161450000Y-82296000D03*
X156050000Y-82296000D03*
X156050000Y-81026000D03*
X156050000Y-79756000D03*
X156050000Y-78486000D03*
X156050000Y-77216000D03*
X156050000Y-75946000D03*
X156050000Y-74676000D03*
X156050000Y-73406000D03*
X128430000Y-73406000D03*
X128430000Y-74676000D03*
X128430000Y-75946000D03*
X128430000Y-77216000D03*
X128430000Y-78486000D03*
X128430000Y-79756000D03*
X128430000Y-81026000D03*
X128430000Y-82296000D03*
X123030000Y-82296000D03*
X123030000Y-81026000D03*
X123030000Y-79756000D03*
X123030000Y-78486000D03*
X123030000Y-77216000D03*
X123030000Y-75946000D03*
X123030000Y-74676000D03*
X123030000Y-73406000D03*
D33*
X113284000Y-73533000D03*
X113284000Y-76073000D03*
D25*
X113284000Y-78613000D03*
D33*
X110744000Y-73533000D03*
X110744000Y-76073000D03*
D25*
X110744000Y-78613000D03*
D33*
X108204000Y-73533000D03*
X108204000Y-76073000D03*
D25*
X108204000Y-78613000D03*
D34*
X136652000Y-118684000D03*
X136652000Y-116774000D03*
X136652000Y-122108000D03*
X136652000Y-124018000D03*
X164846000Y-93406000D03*
X164846000Y-95316000D03*
D35*
X140650000Y-91059000D03*
X142560000Y-91059000D03*
X133538000Y-91440000D03*
X135448000Y-91440000D03*
D34*
X125349000Y-100777000D03*
X125349000Y-98867000D03*
D35*
X123632000Y-103505000D03*
X125542000Y-103505000D03*
X130998000Y-112268000D03*
X132908000Y-112268000D03*
X136713000Y-111760000D03*
X138623000Y-111760000D03*
X161356000Y-105537000D03*
X159446000Y-105537000D03*
X159446000Y-111252000D03*
X161356000Y-111252000D03*
X124780000Y-108712000D03*
X122870000Y-108712000D03*
D34*
X141732000Y-113350000D03*
X141732000Y-111440000D03*
X143891000Y-113350000D03*
X143891000Y-111440000D03*
X192532000Y-75123000D03*
X192532000Y-73213000D03*
D35*
X188275000Y-71247000D03*
X190185000Y-71247000D03*
D34*
X181102000Y-74869000D03*
X181102000Y-72959000D03*
X181102000Y-79187000D03*
X181102000Y-77277000D03*
D35*
X103571000Y-111252000D03*
X101661000Y-111252000D03*
D34*
X178562000Y-77150000D03*
X178562000Y-79060000D03*
X164592000Y-75123000D03*
X164592000Y-73213000D03*
D35*
X160335000Y-71247000D03*
X162245000Y-71247000D03*
D34*
X153162000Y-74742000D03*
X153162000Y-72832000D03*
X153035000Y-79060000D03*
X153035000Y-77150000D03*
X150876000Y-77150000D03*
X150876000Y-79060000D03*
D35*
X109413000Y-84328000D03*
X107503000Y-84328000D03*
X127315000Y-71247000D03*
X129225000Y-71247000D03*
D34*
X120142000Y-79060000D03*
X120142000Y-77150000D03*
X104267000Y-72197000D03*
X104267000Y-74107000D03*
D35*
X184724000Y-125730000D03*
X182814000Y-125730000D03*
D34*
X120142000Y-74742000D03*
X120142000Y-72832000D03*
X117602000Y-77150000D03*
X117602000Y-79060000D03*
X130937000Y-75504000D03*
X130937000Y-73594000D03*
X128270000Y-120330000D03*
X128270000Y-122240000D03*
D35*
X105222000Y-96647000D03*
X103312000Y-96647000D03*
X182814000Y-121158000D03*
X184724000Y-121158000D03*
X182814000Y-123444000D03*
X184724000Y-123444000D03*
X153990000Y-93853000D03*
X152080000Y-93853000D03*
D34*
X163957000Y-113223000D03*
X163957000Y-111313000D03*
D35*
X170627000Y-117094000D03*
X168717000Y-117094000D03*
D34*
X141478000Y-84897000D03*
X141478000Y-86807000D03*
D35*
X172908000Y-117094000D03*
X174818000Y-117094000D03*
X153990000Y-98298000D03*
X152080000Y-98298000D03*
X159446000Y-114046000D03*
X161356000Y-114046000D03*
X153990000Y-96012000D03*
X152080000Y-96012000D03*
D34*
X164846000Y-106365000D03*
X164846000Y-104455000D03*
X158623000Y-93914000D03*
X158623000Y-95824000D03*
D35*
X119187000Y-97282000D03*
X121097000Y-97282000D03*
X82357000Y-104267000D03*
X84267000Y-104267000D03*
X82357000Y-106553000D03*
X84267000Y-106553000D03*
X82357000Y-119126000D03*
X84267000Y-119126000D03*
X82357000Y-121412000D03*
X84267000Y-121412000D03*
D34*
X158623000Y-89342000D03*
X158623000Y-91252000D03*
D35*
X162499000Y-86995000D03*
X160589000Y-86995000D03*
X126934000Y-84455000D03*
X128844000Y-84455000D03*
X105222000Y-98933000D03*
X103312000Y-98933000D03*
D34*
X84836000Y-114747000D03*
X84836000Y-112837000D03*
D35*
X94173000Y-117094000D03*
X92263000Y-117094000D03*
D34*
X192532000Y-81341000D03*
X192532000Y-83251000D03*
D35*
X94173000Y-121158000D03*
X92263000Y-121158000D03*
X94173000Y-125349000D03*
X92263000Y-125349000D03*
X94173000Y-129413000D03*
X92263000Y-129413000D03*
X95565000Y-109728000D03*
X97475000Y-109728000D03*
D34*
X164592000Y-81341000D03*
X164592000Y-83251000D03*
D35*
X102809000Y-92837000D03*
X100899000Y-92837000D03*
X98740000Y-85471000D03*
X100650000Y-85471000D03*
D34*
X100584000Y-100518000D03*
X100584000Y-102428000D03*
X134874000Y-114366000D03*
X134874000Y-112456000D03*
X157734000Y-124521000D03*
X157734000Y-126431000D03*
X160274000Y-124521000D03*
X160274000Y-126431000D03*
X162814000Y-124521000D03*
X162814000Y-126431000D03*
X165354000Y-124521000D03*
X165354000Y-126431000D03*
D35*
X106365000Y-133858000D03*
X104455000Y-133858000D03*
D34*
X218440000Y-68265000D03*
X218440000Y-66355000D03*
D35*
X207330000Y-76835000D03*
X205420000Y-76835000D03*
X207330000Y-80645000D03*
X205420000Y-80645000D03*
X100650000Y-87757000D03*
X98740000Y-87757000D03*
X100650000Y-90043000D03*
X98740000Y-90043000D03*
D36*
X123444000Y-125677000D03*
X123444000Y-120777000D03*
D33*
X115062000Y-93345000D03*
D25*
X112522000Y-93345000D03*
D33*
X96647000Y-93218000D03*
D25*
X96647000Y-95758000D03*
D33*
X115062000Y-98425000D03*
D25*
X112522000Y-98425000D03*
D33*
X115062000Y-95885000D03*
D25*
X112522000Y-95885000D03*
D33*
X88900000Y-134620000D03*
D25*
X91440000Y-134620000D03*
D33*
X94234000Y-112903000D03*
D25*
X91694000Y-112903000D03*
D33*
X114554000Y-108458000D03*
D25*
X112014000Y-108458000D03*
D33*
X184404000Y-130302000D03*
D25*
X181864000Y-130302000D03*
D33*
X223520000Y-76200000D03*
X223520000Y-73660000D03*
X223520000Y-71120000D03*
X223520000Y-68580000D03*
X223520000Y-66040000D03*
D25*
X223520000Y-63500000D03*
D33*
X115062000Y-88773000D03*
X112522000Y-88773000D03*
X115062000Y-86233000D03*
D25*
X112522000Y-86233000D03*
D33*
X200025000Y-89535000D03*
X197485000Y-89535000D03*
X200025000Y-86995000D03*
D25*
X197485000Y-86995000D03*
D33*
X157607000Y-120523000D03*
X157607000Y-117983000D03*
X160147000Y-120523000D03*
X160147000Y-117983000D03*
X162687000Y-120523000D03*
X162687000Y-117983000D03*
X165227000Y-120523000D03*
D25*
X165227000Y-117983000D03*
D33*
X200025000Y-82169000D03*
X197485000Y-82169000D03*
X200025000Y-79629000D03*
X197485000Y-79629000D03*
X200025000Y-77089000D03*
X197485000Y-77089000D03*
X200025000Y-74549000D03*
D25*
X197485000Y-74549000D03*
D33*
X172085000Y-82169000D03*
X169545000Y-82169000D03*
X172085000Y-79629000D03*
X169545000Y-79629000D03*
X172085000Y-77089000D03*
X169545000Y-77089000D03*
X172085000Y-74549000D03*
D25*
X169545000Y-74549000D03*
D33*
X138303000Y-82169000D03*
X135763000Y-82169000D03*
X138303000Y-79629000D03*
X135763000Y-79629000D03*
X138303000Y-77089000D03*
X135763000Y-77089000D03*
X138303000Y-74549000D03*
D25*
X135763000Y-74549000D03*
D33*
X78867000Y-136779000D03*
X76327000Y-136779000D03*
X78867000Y-134239000D03*
X76327000Y-134239000D03*
X78867000Y-131699000D03*
X76327000Y-131699000D03*
X78867000Y-129159000D03*
X76327000Y-129159000D03*
X78867000Y-126619000D03*
X76327000Y-126619000D03*
X78867000Y-124079000D03*
X76327000Y-124079000D03*
X78867000Y-121539000D03*
X76327000Y-121539000D03*
X78867000Y-118999000D03*
X76327000Y-118999000D03*
X78867000Y-116459000D03*
X76327000Y-116459000D03*
X78867000Y-113919000D03*
X76327000Y-113919000D03*
X78867000Y-111379000D03*
X76327000Y-111379000D03*
X78867000Y-108839000D03*
X76327000Y-108839000D03*
X78867000Y-106299000D03*
D25*
X76327000Y-106299000D03*
D33*
X110744000Y-139446000D03*
X110744000Y-136906000D03*
X113284000Y-139446000D03*
X113284000Y-136906000D03*
X115824000Y-139446000D03*
X115824000Y-136906000D03*
X118364000Y-139446000D03*
X118364000Y-136906000D03*
X120904000Y-139446000D03*
X120904000Y-136906000D03*
X123444000Y-139446000D03*
X123444000Y-136906000D03*
X125984000Y-139446000D03*
X125984000Y-136906000D03*
X128524000Y-139446000D03*
X128524000Y-136906000D03*
X131064000Y-139446000D03*
X131064000Y-136906000D03*
X133604000Y-139446000D03*
X133604000Y-136906000D03*
X136144000Y-139446000D03*
X136144000Y-136906000D03*
X138684000Y-139446000D03*
X138684000Y-136906000D03*
X141224000Y-139446000D03*
X141224000Y-136906000D03*
X143764000Y-139446000D03*
X143764000Y-136906000D03*
X146304000Y-139446000D03*
X146304000Y-136906000D03*
X148844000Y-139446000D03*
X148844000Y-136906000D03*
X151384000Y-139446000D03*
X151384000Y-136906000D03*
X153924000Y-139446000D03*
X153924000Y-136906000D03*
X156464000Y-139446000D03*
X156464000Y-136906000D03*
X159004000Y-139446000D03*
X159004000Y-136906000D03*
X161544000Y-139446000D03*
X161544000Y-136906000D03*
X164084000Y-139446000D03*
X164084000Y-136906000D03*
X166624000Y-139446000D03*
X166624000Y-136906000D03*
X169164000Y-139446000D03*
X169164000Y-136906000D03*
X171704000Y-139446000D03*
X171704000Y-136906000D03*
X174244000Y-139446000D03*
X174244000Y-136906000D03*
X176784000Y-139446000D03*
X176784000Y-136906000D03*
X179324000Y-139446000D03*
X179324000Y-136906000D03*
X181864000Y-139446000D03*
X181864000Y-136906000D03*
X184404000Y-139446000D03*
D25*
X184404000Y-136906000D03*
D33*
X224790000Y-137160000D03*
X222250000Y-137160000D03*
X224790000Y-134620000D03*
X222250000Y-134620000D03*
X224790000Y-132080000D03*
X222250000Y-132080000D03*
X224790000Y-129540000D03*
X222250000Y-129540000D03*
X224790000Y-127000000D03*
X222250000Y-127000000D03*
X224790000Y-124460000D03*
X222250000Y-124460000D03*
X224790000Y-121920000D03*
X222250000Y-121920000D03*
X224790000Y-119380000D03*
X222250000Y-119380000D03*
X224790000Y-116840000D03*
X222250000Y-116840000D03*
X224790000Y-114300000D03*
X222250000Y-114300000D03*
X224790000Y-111760000D03*
X222250000Y-111760000D03*
X224790000Y-109220000D03*
X222250000Y-109220000D03*
X224790000Y-106680000D03*
X222250000Y-106680000D03*
X224790000Y-104140000D03*
X222250000Y-104140000D03*
X224790000Y-101600000D03*
X222250000Y-101600000D03*
X224790000Y-99060000D03*
X222250000Y-99060000D03*
X224790000Y-96520000D03*
X222250000Y-96520000D03*
X224790000Y-93980000D03*
X222250000Y-93980000D03*
X224790000Y-91440000D03*
X222250000Y-91440000D03*
X224790000Y-88900000D03*
D25*
X222250000Y-88900000D03*
D37*
X99800000Y-74425000D03*
X99800000Y-80775000D03*
D38*
X100965000Y-60833000D03*
D39*
X100865000Y-68733000D03*
D38*
X94765000Y-63933000D03*
D40*
X160782000Y-90932000D03*
X160782000Y-89154000D03*
X162814000Y-90043000D03*
D41*
X86614000Y-71374000D03*
X81534000Y-71374000D03*
X91694000Y-71374000D03*
D42*
X75438000Y-67945000D03*
D43*
X75438000Y-73025000D03*
D44*
X159512000Y-107696000D03*
X159512000Y-108966000D03*
X161544000Y-107696000D03*
X159512000Y-108331000D03*
X161544000Y-108966000D03*
D45*
X201930000Y-66040000D03*
X176530000Y-66040000D03*
D46*
X183642000Y-68580000D03*
D47*
X186436000Y-68580000D03*
X189103000Y-68580000D03*
X191897000Y-68580000D03*
X194691000Y-68580000D03*
X185039000Y-66040000D03*
X187833000Y-66040000D03*
X190500000Y-66040000D03*
X193294000Y-66040000D03*
D45*
X168402000Y-66040000D03*
X143002000Y-66040000D03*
D46*
X150114000Y-68580000D03*
D47*
X152908000Y-68580000D03*
X155575000Y-68580000D03*
X158369000Y-68580000D03*
X161163000Y-68580000D03*
X151511000Y-66040000D03*
X154305000Y-66040000D03*
X156972000Y-66040000D03*
X159766000Y-66040000D03*
D45*
X134874000Y-66040000D03*
X109474000Y-66040000D03*
D46*
X116586000Y-68580000D03*
D47*
X119380000Y-68580000D03*
X122047000Y-68580000D03*
X124841000Y-68580000D03*
X127635000Y-68580000D03*
X117983000Y-66040000D03*
X120777000Y-66040000D03*
X123444000Y-66040000D03*
X126238000Y-66040000D03*
D48*
X176149000Y-97790000D03*
X176149000Y-102870000D03*
X168529000Y-97790000D03*
X168529000Y-102870000D03*
X168529000Y-92329000D03*
X168529000Y-87249000D03*
X176149000Y-92329000D03*
X176149000Y-87249000D03*
X176149000Y-108077000D03*
X176149000Y-113157000D03*
X168529000Y-108077000D03*
X168529000Y-113157000D03*
X176276000Y-119761000D03*
X176276000Y-124841000D03*
X168656000Y-119761000D03*
X168656000Y-124841000D03*
D49*
X129540000Y-105410000D03*
X129540000Y-106299000D03*
X131064000Y-106426000D03*
D50*
X129159000Y-112014000D03*
X146685000Y-109855000D03*
X87630000Y-112141000D03*
X142621000Y-116205000D03*
X139446000Y-116205000D03*
D49*
X84836000Y-108585000D03*
D50*
X146558000Y-107950000D03*
D49*
X83820000Y-108585000D03*
D50*
X146558000Y-106680000D03*
X139827000Y-102743000D03*
D49*
X81788000Y-108585000D03*
D50*
X140970000Y-103124000D03*
D49*
X80264000Y-108585000D03*
D50*
X140970000Y-101854000D03*
X141478000Y-106426000D03*
D49*
X141478000Y-105283000D03*
X104013000Y-103378000D03*
X130937000Y-95250000D03*
X134112000Y-106045000D03*
X135382000Y-135001000D03*
X137160000Y-135001000D03*
X135001000Y-106934000D03*
X150495000Y-98171000D03*
D50*
X138811000Y-96266000D03*
X140335000Y-96139000D03*
D49*
X150495000Y-97282000D03*
D50*
X141605000Y-96266000D03*
D49*
X150495000Y-96393000D03*
X125476000Y-92964000D03*
D50*
X135700000Y-105600000D03*
D49*
X136906000Y-105918000D03*
X138700000Y-106500000D03*
X139065000Y-107442000D03*
X153035000Y-92710000D03*
D50*
X136271000Y-97282000D03*
X122428000Y-115316000D03*
X83312000Y-115316000D03*
X109474000Y-71374000D03*
X112014000Y-71628000D03*
X205661260Y-78740000D03*
X197104000Y-98679000D03*
X204566520Y-85211920D03*
X199390000Y-96139000D03*
X204144880Y-116954300D03*
X210431380Y-103477060D03*
X209379820Y-113860580D03*
X216689940Y-115280440D03*
X210073240Y-125275340D03*
X214914480Y-108005880D03*
X207619600Y-102565200D03*
X220002100Y-115755420D03*
X206502000Y-126238000D03*
D51*
X141478000Y-82423000D03*
X214454740Y-110502700D03*
X199644000Y-97536000D03*
X111252000Y-83820000D03*
X131699000Y-82804000D03*
X209677000Y-98694240D03*
X189156340Y-116509800D03*
X146812000Y-103886000D03*
X146812000Y-100076000D03*
X150876000Y-75311000D03*
X163068000Y-75311000D03*
X106680000Y-90424000D03*
X132715000Y-75438000D03*
X86741000Y-132588000D03*
X100965000Y-139827000D03*
X117729000Y-75184000D03*
X103632000Y-76708000D03*
X97282000Y-90043000D03*
X152400000Y-115570000D03*
X159512000Y-115697000D03*
X103378000Y-112522000D03*
X193929000Y-83947000D03*
X194691000Y-73406000D03*
X123571000Y-99060000D03*
X121158000Y-102616000D03*
X129032000Y-89789000D03*
X191152780Y-96906080D03*
X133731000Y-89535000D03*
X141605000Y-89027000D03*
X136652000Y-120396000D03*
X137287000Y-113538000D03*
X142240000Y-108839000D03*
X194678300Y-99253040D03*
X212237320Y-76248260D03*
X212194140Y-80645000D03*
X145415000Y-112903000D03*
X177165000Y-77089000D03*
X209166460Y-124264420D03*
X199174100Y-124272040D03*
X203454000Y-98673920D03*
X189438280Y-110502700D03*
X203794360Y-124617480D03*
X209748120Y-112008920D03*
X211074000Y-107442000D03*
D50*
X166751000Y-105791000D03*
X166878000Y-95758000D03*
D51*
X118872000Y-105029000D03*
X123444000Y-105283000D03*
X123571000Y-110363000D03*
D50*
X186182000Y-71120000D03*
D49*
X186182000Y-74676000D03*
X158242000Y-71247000D03*
X158242000Y-74676000D03*
X125222000Y-74676000D03*
X125222000Y-71247000D03*
D50*
X95758000Y-115062000D03*
X101092000Y-115062000D03*
X101092000Y-118872000D03*
X95758000Y-117602000D03*
D49*
X131318000Y-104902000D03*
X130429000Y-104902000D03*
D50*
X131826000Y-96393000D03*
X155829000Y-88138000D03*
X130048000Y-107188000D03*
X128397000Y-113665000D03*
X138811000Y-98933000D03*
D49*
X150495000Y-99060000D03*
X104013000Y-101600000D03*
X130048000Y-95250000D03*
X129159000Y-95250000D03*
X104013000Y-102489000D03*
D50*
X122936000Y-90043000D03*
D49*
X104013000Y-100711000D03*
X134493000Y-135001000D03*
X134112000Y-105156000D03*
X134112000Y-106934000D03*
X136271000Y-135001000D03*
D52*
X178689000Y-118872000D03*
X191008000Y-73025000D03*
X97155000Y-87757000D03*
X107950000Y-114173000D03*
X146050000Y-74676000D03*
X164592000Y-71247000D03*
X162306000Y-106807000D03*
X163449000Y-100330000D03*
X107823000Y-83185000D03*
X100838000Y-113030000D03*
X97409000Y-112141000D03*
X131572000Y-71247000D03*
X193675000Y-109855000D03*
X130937000Y-89916000D03*
X157734000Y-97536000D03*
X121666000Y-98425000D03*
D49*
X133985000Y-104267000D03*
D52*
X168275000Y-115062000D03*
X85090000Y-119126000D03*
X138800000Y-113200000D03*
X146812000Y-105410000D03*
X161163000Y-92329000D03*
D49*
X131699000Y-102870000D03*
D52*
X146812000Y-98679000D03*
X194691000Y-125222000D03*
X211414360Y-102567740D03*
X199009000Y-102976680D03*
X209732880Y-118094760D03*
X98298000Y-100584000D03*
X141859000Y-119253000D03*
X192333880Y-123845320D03*
X218440000Y-65102740D03*
X190047880Y-101206300D03*
X202481180Y-102997000D03*
X206834740Y-109987080D03*
X84582000Y-102235000D03*
X143100000Y-94000000D03*
X193903600Y-107111800D03*
X210820000Y-109982000D03*
X200660000Y-120269000D03*
X204216000Y-120777000D03*
X205613000Y-120777000D03*
X210947000Y-113538000D03*
X193167000Y-113538000D03*
D50*
X117729000Y-116332000D03*
X181610000Y-118999000D03*
X172466000Y-92964000D03*
X150495000Y-95250000D03*
D49*
X181610000Y-110236000D03*
D50*
X188798200Y-105321100D03*
D49*
X179705000Y-92202000D03*
X181610000Y-104902000D03*
X149352000Y-95250000D03*
D50*
X184531000Y-118872000D03*
D49*
X148463000Y-95250000D03*
D50*
X179959000Y-91059000D03*
D49*
X181610000Y-104013000D03*
D50*
X102870000Y-100711000D03*
D49*
X132080000Y-91313000D03*
D50*
X163322000Y-93472000D03*
D49*
X179197000Y-93726000D03*
D50*
X181991000Y-90170000D03*
D49*
X147574000Y-95250000D03*
D50*
X180721000Y-111457740D03*
X154813000Y-87757000D03*
X179197000Y-86487000D03*
X178054000Y-105664000D03*
D49*
X132461000Y-92075000D03*
D50*
X151511000Y-83947000D03*
X179705000Y-102870000D03*
D49*
X181610000Y-107569000D03*
D50*
X152400000Y-84836000D03*
X193126360Y-108455460D03*
D49*
X178308000Y-87884000D03*
D50*
X157226000Y-87884000D03*
X132588000Y-95250000D03*
X174625000Y-106045000D03*
X193294000Y-105410000D03*
D49*
X157099000Y-89662000D03*
D50*
X133350000Y-96012000D03*
D49*
X181610000Y-108458000D03*
X178308000Y-88773000D03*
D50*
X188374020Y-108021120D03*
D49*
X181610000Y-109347000D03*
X157099000Y-90551000D03*
X177038000Y-89408000D03*
D50*
X134112000Y-97028000D03*
D49*
X154432000Y-91948000D03*
D50*
X178054000Y-110363000D03*
X135890000Y-96139000D03*
X174752000Y-89408000D03*
X148844000Y-84836000D03*
X149860000Y-84201000D03*
D49*
X138938000Y-135001000D03*
X135128000Y-110871000D03*
X134239000Y-110871000D03*
X138049000Y-135001000D03*
X132588000Y-102870000D03*
X133604000Y-135001000D03*
X132715000Y-135001000D03*
D50*
X129159000Y-99060000D03*
X134366000Y-82550000D03*
D49*
X122174000Y-93980000D03*
X123063000Y-93980000D03*
X123952000Y-93980000D03*
D50*
X140208000Y-82169000D03*
D49*
X124841000Y-93980000D03*
D50*
X134747000Y-85217000D03*
X150622000Y-88900000D03*
D49*
X135636000Y-88646000D03*
D50*
X153035000Y-88392000D03*
X136017000Y-85344000D03*
D49*
X136525000Y-88646000D03*
D50*
X123190000Y-85598000D03*
X137160000Y-85344000D03*
D49*
X138176000Y-85598000D03*
D50*
X124587000Y-85852000D03*
X121793000Y-85598000D03*
D49*
X139065000Y-85598000D03*
D50*
X120269000Y-85598000D03*
D49*
X139954000Y-85598000D03*
D53*
X152019000Y-102489000D02*
X143129000Y-102463600D01*
X128803400Y-104978200D02*
X127635000Y-104978200D01*
X129540000Y-105410000D02*
X129032000Y-105156000D01*
X129032000Y-105156000D02*
X128803400Y-104978200D01*
X128727200Y-105486200D02*
X127635000Y-105486200D01*
X129032000Y-105791000D02*
X128727200Y-105486200D01*
X129032000Y-106299000D02*
X129032000Y-105791000D01*
X129540000Y-106299000D02*
X129032000Y-106299000D01*
X130886200Y-107619800D02*
X131064000Y-107442000D01*
X131064000Y-107442000D02*
X131064000Y-106426000D01*
X130886200Y-107619800D02*
X130886200Y-109220000D01*
X129895600Y-110388400D02*
X129895600Y-109220000D01*
X129159000Y-111125000D02*
X129895600Y-110388400D01*
X129159000Y-112014000D02*
X129159000Y-111125000D01*
D54*
X82359500Y-104267000D02*
X80899000Y-104267000D01*
X80899000Y-104267000D02*
X80391000Y-104775000D01*
D55*
X78867000Y-106299000D02*
X80391000Y-104775000D01*
D53*
X145288000Y-108204000D02*
X144551400Y-107467400D01*
X145288000Y-108712000D02*
X145288000Y-108204000D01*
X146431000Y-109855000D02*
X145288000Y-108712000D01*
X146685000Y-109855000D02*
X146431000Y-109855000D01*
X144551400Y-107467400D02*
X143129000Y-107467400D01*
D55*
X138874500Y-116776500D02*
X139446000Y-116205000D01*
X136652000Y-116776500D02*
X138874500Y-116776500D01*
D53*
X140385800Y-111048800D02*
X140589000Y-111379000D01*
X140385800Y-109220000D02*
X140385800Y-111048800D01*
D55*
X131826000Y-116776500D02*
X128270000Y-120332500D01*
X136652000Y-116776500D02*
X131826000Y-116776500D01*
X140589000Y-114046000D02*
X140589000Y-111379000D01*
X142621000Y-116205000D02*
X142621000Y-115316000D01*
X142621000Y-115316000D02*
X141859000Y-114554000D01*
X141859000Y-114554000D02*
X141097000Y-114554000D01*
X141097000Y-114554000D02*
X140589000Y-114046000D01*
D56*
X125156000Y-120777000D02*
X125603000Y-120330000D01*
X123444000Y-120777000D02*
X125156000Y-120777000D01*
X125603000Y-120330000D02*
X128270000Y-120330000D01*
D53*
X115062000Y-98425000D02*
X113792000Y-97155000D01*
X113792000Y-97155000D02*
X108966000Y-97155000D01*
X108966000Y-97155000D02*
X107188000Y-98933000D01*
X107188000Y-98933000D02*
X105219500Y-98933000D01*
X116586000Y-98425000D02*
X115062000Y-98425000D01*
X118110000Y-99949000D02*
X116586000Y-98425000D01*
X122174000Y-99949000D02*
X118110000Y-99949000D01*
X123190000Y-100965000D02*
X122174000Y-99949000D01*
X123190000Y-101981000D02*
X123190000Y-100965000D01*
X127635000Y-102489000D02*
X126365000Y-102489000D01*
X126365000Y-102489000D02*
X126111000Y-102235000D01*
X126111000Y-102235000D02*
X123444000Y-102235000D01*
X123444000Y-102235000D02*
X123190000Y-101981000D01*
X106934000Y-96647000D02*
X105219500Y-96647000D01*
X108966000Y-94615000D02*
X106934000Y-96647000D01*
X113792000Y-94615000D02*
X108966000Y-94615000D01*
X115062000Y-95885000D02*
X113792000Y-94615000D01*
X118618000Y-99441000D02*
X115062000Y-95885000D01*
X122555000Y-99441000D02*
X118618000Y-99441000D01*
X122809000Y-99695000D02*
X122555000Y-99441000D01*
X122809000Y-99949000D02*
X122809000Y-99695000D01*
X127635000Y-101981000D02*
X126492000Y-101981000D01*
X126492000Y-101981000D02*
X126238000Y-101727000D01*
X126238000Y-101727000D02*
X124587000Y-101727000D01*
X124587000Y-101727000D02*
X122809000Y-99949000D01*
X145796000Y-107950000D02*
X146558000Y-107950000D01*
X144907000Y-107061000D02*
X145796000Y-107950000D01*
X144780000Y-106959400D02*
X144907000Y-107061000D01*
X143129000Y-106959400D02*
X144780000Y-106959400D01*
X143129000Y-106476800D02*
X145211800Y-106476800D01*
X145211800Y-106476800D02*
X145415000Y-106680000D01*
X145415000Y-106680000D02*
X146558000Y-106680000D01*
X139827000Y-103378000D02*
X139827000Y-102743000D01*
X141351000Y-103982520D02*
X143129000Y-103962200D01*
X141351000Y-103982520D02*
X140431520Y-103982520D01*
X140431520Y-103982520D02*
X139827000Y-103378000D01*
X140970000Y-103124000D02*
X141300200Y-103454200D01*
X141300200Y-103454200D02*
X143129000Y-103479600D01*
D54*
X82359500Y-106553000D02*
X81153000Y-106553000D01*
X81153000Y-106553000D02*
X80645000Y-107061000D01*
D55*
X78867000Y-108839000D02*
X80645000Y-107061000D01*
D53*
X142087600Y-102971600D02*
X143129000Y-102971600D01*
X140970000Y-101854000D02*
X142087600Y-102971600D01*
D54*
X82359500Y-119126000D02*
X82359500Y-117411500D01*
D53*
X141478000Y-106426000D02*
X141935200Y-105968800D01*
X141935200Y-105968800D02*
X143129000Y-105968800D01*
D54*
X82359500Y-117411500D02*
X78867000Y-113919000D01*
D55*
X78867000Y-116459000D02*
X80391000Y-117983000D01*
X80391000Y-117983000D02*
X80391000Y-120269000D01*
D54*
X82359500Y-121412000D02*
X81534000Y-121412000D01*
X81534000Y-121412000D02*
X80391000Y-120269000D01*
D53*
X141478000Y-105283000D02*
X142011400Y-105486200D01*
X142011400Y-105486200D02*
X143129000Y-105460800D01*
X127635000Y-100990400D02*
X129159000Y-100965000D01*
X129159000Y-100965000D02*
X130937000Y-99187000D01*
D55*
X99822000Y-107569000D02*
X104013000Y-103378000D01*
X99822000Y-117729000D02*
X99822000Y-107569000D01*
X98679000Y-118872000D02*
X99822000Y-117729000D01*
X97409000Y-118872000D02*
X98679000Y-118872000D01*
D53*
X130937000Y-99187000D02*
X130937000Y-95250000D01*
X133731000Y-106299000D02*
X133375400Y-106654600D01*
X134112000Y-106045000D02*
X133731000Y-106299000D01*
X133375400Y-106654600D02*
X133375400Y-109220000D01*
X134874000Y-107569000D02*
X134899400Y-109220000D01*
X135001000Y-106934000D02*
X134874000Y-107569000D01*
D54*
X176276000Y-119761000D02*
X176276000Y-118554500D01*
X176276000Y-118554500D02*
X174815500Y-117094000D01*
X176276000Y-119761000D02*
X168656000Y-119761000D01*
D53*
X138811000Y-97282000D02*
X138811000Y-96266000D01*
D55*
X160909000Y-100457000D02*
X163830000Y-97536000D01*
X163830000Y-97536000D02*
X166116000Y-97536000D01*
X150495000Y-100457000D02*
X160909000Y-100457000D01*
X166497000Y-117602000D02*
X168656000Y-119761000D01*
D53*
X149987000Y-98171000D02*
X150495000Y-98171000D01*
D55*
X166116000Y-97536000D02*
X166497000Y-97917000D01*
D53*
X149733000Y-98425000D02*
X149987000Y-98171000D01*
X149733000Y-99695000D02*
X149733000Y-98425000D01*
X150495000Y-100457000D02*
X149733000Y-99695000D01*
D55*
X166497000Y-108331000D02*
X166497000Y-117602000D01*
X168021000Y-106807000D02*
X166497000Y-108331000D01*
X168021000Y-105283000D02*
X168021000Y-106807000D01*
X166497000Y-103759000D02*
X168021000Y-105283000D01*
X166497000Y-97917000D02*
X166497000Y-103759000D01*
D53*
X138811000Y-97282000D02*
X141503400Y-99974400D01*
X141503400Y-99974400D02*
X143129000Y-99974400D01*
X150495000Y-97282000D02*
X151066500Y-97282000D01*
X140335000Y-96139000D02*
X140716000Y-96520000D01*
X151066500Y-97282000D02*
X152082500Y-98298000D01*
X140716000Y-96520000D02*
X140716000Y-97663000D01*
X140716000Y-97663000D02*
X141528800Y-98475800D01*
X141528800Y-98475800D02*
X143129000Y-98475800D01*
X149860000Y-96647000D02*
X149225000Y-97282000D01*
X150495000Y-96393000D02*
X149860000Y-96647000D01*
X141782800Y-97967800D02*
X143129000Y-97967800D01*
X141605000Y-97790000D02*
X141782800Y-97967800D01*
X141605000Y-96266000D02*
X141605000Y-97790000D01*
X150876000Y-96012000D02*
X150495000Y-96393000D01*
X152082500Y-96012000D02*
X150876000Y-96012000D01*
X149225000Y-97282000D02*
X149225000Y-100203000D01*
X149225000Y-100203000D02*
X150241000Y-101219000D01*
D55*
X150241000Y-101219000D02*
X157607000Y-101219000D01*
X157607000Y-101219000D02*
X157924500Y-101536500D01*
X157924500Y-101536500D02*
X159448500Y-101536500D01*
D54*
X119189500Y-95186500D02*
X117348000Y-93345000D01*
D53*
X126517400Y-95275400D02*
X127635000Y-95478600D01*
D54*
X117348000Y-93345000D02*
X115062000Y-93345000D01*
D53*
X125603000Y-93345000D02*
X125603000Y-94361000D01*
X125476000Y-92964000D02*
X125603000Y-93345000D01*
X125603000Y-94361000D02*
X126517400Y-95275400D01*
D54*
X119189500Y-97282000D02*
X119189500Y-95186500D01*
D53*
X136377680Y-107817920D02*
X136377680Y-107100000D01*
X136398000Y-109220000D02*
X136377680Y-107817920D01*
X135700000Y-106400000D02*
X135700000Y-105600000D01*
X136377680Y-107077680D02*
X135700000Y-106400000D01*
X136377680Y-107100000D02*
X136377680Y-107077680D01*
X136880600Y-105943400D02*
X136906000Y-105918000D01*
X136880600Y-109220000D02*
X136880600Y-105943400D01*
X138379200Y-109220000D02*
X138379200Y-107975400D01*
X138379200Y-106820800D02*
X138700000Y-106500000D01*
X138379200Y-107975400D02*
X138379200Y-106820800D01*
X138887200Y-109220000D02*
X138887200Y-107899200D01*
X138887200Y-107899200D02*
X139065000Y-107442000D01*
X135880068Y-94422060D02*
X135864600Y-93726000D01*
X136271000Y-97282000D02*
X136398000Y-97282000D01*
X136779000Y-96901000D02*
X136779000Y-95700000D01*
X136398000Y-97282000D02*
X136779000Y-96901000D01*
X136779000Y-95321000D02*
X135880068Y-94422068D01*
X135880068Y-94422068D02*
X135880068Y-94422060D01*
X136779000Y-95700000D02*
X136779000Y-95321000D01*
D54*
X83312000Y-115316000D02*
X83312000Y-134112000D01*
X83312000Y-134112000D02*
X83439000Y-134239000D01*
X122428000Y-115316000D02*
X122555000Y-115189000D01*
X122555000Y-115189000D02*
X134048500Y-115189000D01*
X134048500Y-115189000D02*
X134874000Y-114363500D01*
X83883500Y-112839500D02*
X84836000Y-112839500D01*
X83312000Y-113411000D02*
X83883500Y-112839500D01*
X83312000Y-115316000D02*
X83312000Y-113411000D01*
D55*
X149733000Y-111696500D02*
X150114000Y-112077500D01*
D53*
X140893800Y-109220000D02*
X140893800Y-110794800D01*
D55*
X141986000Y-111696500D02*
X141732000Y-111442500D01*
X143891000Y-111442500D02*
X141986000Y-111696500D01*
D53*
X140893800Y-110794800D02*
X141732000Y-111442500D01*
X150241000Y-109220000D02*
X150241000Y-111950500D01*
X150241000Y-111950500D02*
X150114000Y-112077500D01*
D55*
X143891000Y-111442500D02*
X149733000Y-111696500D01*
X104775000Y-89027000D02*
X105618000Y-88184000D01*
X105618000Y-88184000D02*
X105618000Y-82596000D01*
X105618000Y-82596000D02*
X108077000Y-80137000D01*
X108077000Y-80137000D02*
X111760000Y-80137000D01*
X111760000Y-80137000D02*
X113284000Y-78613000D01*
X103251000Y-89027000D02*
X104775000Y-89027000D01*
X97917000Y-95758000D02*
X96647000Y-95758000D01*
X98552000Y-95123000D02*
X97917000Y-95758000D01*
X98552000Y-93091000D02*
X98552000Y-95123000D01*
X100457000Y-91186000D02*
X98552000Y-93091000D01*
X100457000Y-90551000D02*
X100457000Y-91186000D01*
X100647500Y-90043000D02*
X100457000Y-90551000D01*
X103251000Y-89027000D02*
X102489000Y-89027000D01*
X102489000Y-89027000D02*
X102108000Y-89408000D01*
X102108000Y-89408000D02*
X101219000Y-89408000D01*
X101219000Y-89408000D02*
X100647500Y-90043000D01*
X108204000Y-78613000D02*
X104956000Y-81861000D01*
D54*
X100647500Y-87757000D02*
X103251000Y-87757000D01*
D57*
X100647500Y-85471000D02*
X100647500Y-87757000D01*
D55*
X104956000Y-81861000D02*
X104956000Y-87449000D01*
X104956000Y-87449000D02*
X104648000Y-87757000D01*
X104648000Y-87757000D02*
X103251000Y-87757000D01*
X178816000Y-80518000D02*
X177038000Y-80518000D01*
X175006000Y-63754000D02*
X185801000Y-63754000D01*
X184150000Y-82296000D02*
X180594000Y-82296000D01*
X173482000Y-65278000D02*
X175006000Y-63754000D01*
X177038000Y-80518000D02*
X176022000Y-79502000D01*
X176022000Y-79502000D02*
X176022000Y-71120000D01*
X176022000Y-71120000D02*
X173482000Y-68580000D01*
X173482000Y-68580000D02*
X173482000Y-65278000D01*
X185801000Y-63754000D02*
X187833000Y-66040000D01*
X180594000Y-82296000D02*
X178816000Y-80518000D01*
X150241000Y-63754000D02*
X148717000Y-65278000D01*
X148717000Y-65278000D02*
X148717000Y-79121000D01*
X154305000Y-65151000D02*
X152908000Y-63754000D01*
X152908000Y-63754000D02*
X150241000Y-63754000D01*
X148717000Y-79121000D02*
X151892000Y-82296000D01*
X151892000Y-82296000D02*
X156210000Y-82296000D01*
X154305000Y-66040000D02*
X154305000Y-65151000D01*
X120777000Y-66040000D02*
X120523000Y-66040000D01*
X115443000Y-67183000D02*
X112776000Y-69850000D01*
X112776000Y-69850000D02*
X110998000Y-69850000D01*
X110998000Y-69850000D02*
X109474000Y-71374000D01*
X120523000Y-66040000D02*
X119380000Y-67183000D01*
X119380000Y-67183000D02*
X115443000Y-67183000D01*
X176403000Y-81280000D02*
X178435000Y-81280000D01*
X187579000Y-62865000D02*
X174498000Y-62865000D01*
X174498000Y-62865000D02*
X172720000Y-64643000D01*
X172720000Y-64643000D02*
X172720000Y-68961000D01*
X172720000Y-68961000D02*
X175260000Y-71501000D01*
X175260000Y-71501000D02*
X175260000Y-80137000D01*
D54*
X185039000Y-81026000D02*
X184150000Y-81026000D01*
X190500000Y-65786000D02*
X187579000Y-62865000D01*
X190500000Y-66040000D02*
X190500000Y-65786000D01*
D55*
X185674000Y-81661000D02*
X185039000Y-81026000D01*
X185674000Y-82804000D02*
X185674000Y-81661000D01*
X185420000Y-83058000D02*
X185674000Y-82804000D01*
X180213000Y-83058000D02*
X185420000Y-83058000D01*
X178435000Y-81280000D02*
X180213000Y-83058000D01*
X175260000Y-80137000D02*
X176403000Y-81280000D01*
X157734000Y-82804000D02*
X157480000Y-83058000D01*
X147955000Y-79756000D02*
X147955000Y-64770000D01*
X147955000Y-79756000D02*
X151257000Y-83058000D01*
X151257000Y-83058000D02*
X157480000Y-83058000D01*
X156972000Y-65532000D02*
X156972000Y-66040000D01*
X157734000Y-82042000D02*
X157734000Y-82804000D01*
X156718000Y-81026000D02*
X157734000Y-82042000D01*
X156210000Y-81026000D02*
X156718000Y-81026000D01*
X147955000Y-64770000D02*
X149860000Y-62865000D01*
X149860000Y-62865000D02*
X154305000Y-62865000D01*
X154305000Y-62865000D02*
X156972000Y-65532000D01*
X123444000Y-70485000D02*
X126746000Y-73787000D01*
X123444000Y-66040000D02*
X123444000Y-70485000D01*
X127381000Y-75946000D02*
X128270000Y-75946000D01*
X126746000Y-75311000D02*
X127381000Y-75946000D01*
X126746000Y-73787000D02*
X126746000Y-75311000D01*
X189103000Y-68580000D02*
X189103000Y-68453000D01*
X185039000Y-69723000D02*
X184404000Y-70358000D01*
X185039000Y-67818000D02*
X185039000Y-69723000D01*
X184404000Y-70358000D02*
X184404000Y-71501000D01*
X187198000Y-67183000D02*
X185674000Y-67183000D01*
X187452000Y-67437000D02*
X187198000Y-67183000D01*
X184404000Y-71501000D02*
X186944000Y-74041000D01*
X186944000Y-74041000D02*
X186944000Y-76327000D01*
X186944000Y-76327000D02*
X187833000Y-77216000D01*
X187833000Y-77216000D02*
X189230000Y-77216000D01*
X188087000Y-67437000D02*
X187452000Y-67437000D01*
X189103000Y-68453000D02*
X188087000Y-67437000D01*
X185674000Y-67183000D02*
X185039000Y-67818000D01*
X159004000Y-76581000D02*
X159639000Y-77216000D01*
X159004000Y-74041000D02*
X159004000Y-76581000D01*
X155702000Y-70739000D02*
X159004000Y-74041000D01*
X155575000Y-68580000D02*
X154305000Y-67310000D01*
X154305000Y-67310000D02*
X152019000Y-67310000D01*
X153035000Y-70739000D02*
X155702000Y-70739000D01*
X151511000Y-69215000D02*
X153035000Y-70739000D01*
X151511000Y-67818000D02*
X151511000Y-69215000D01*
X159639000Y-77216000D02*
X161290000Y-77216000D01*
X152019000Y-67310000D02*
X151511000Y-67818000D01*
X122047000Y-68580000D02*
X120269000Y-70358000D01*
X120269000Y-70358000D02*
X118110000Y-70358000D01*
X118110000Y-70358000D02*
X117221000Y-71628000D01*
X117221000Y-71628000D02*
X112014000Y-71628000D01*
D58*
X115062000Y-86233000D02*
X115062000Y-85090000D01*
X111252000Y-84709000D02*
X110998000Y-84963000D01*
X114681000Y-84709000D02*
X111252000Y-84709000D01*
X115062000Y-85090000D02*
X114681000Y-84709000D01*
X108585000Y-86487000D02*
X109474000Y-86487000D01*
X109474000Y-86487000D02*
X110998000Y-84963000D01*
D55*
X187706000Y-73787000D02*
X185293000Y-71374000D01*
X187706000Y-75311000D02*
X187706000Y-73787000D01*
X188341000Y-75946000D02*
X187706000Y-75311000D01*
X189230000Y-75946000D02*
X188341000Y-75946000D01*
X186182000Y-69723000D02*
X186436000Y-68580000D01*
X185293000Y-70612000D02*
X186182000Y-69723000D01*
X185293000Y-71374000D02*
X185293000Y-70612000D01*
X159766000Y-73787000D02*
X159766000Y-75311000D01*
X155956000Y-69977000D02*
X159766000Y-73787000D01*
X159766000Y-75311000D02*
X160401000Y-75946000D01*
X160401000Y-75946000D02*
X161290000Y-75946000D01*
X152908000Y-68580000D02*
X154305000Y-69977000D01*
X154305000Y-69977000D02*
X155956000Y-69977000D01*
X120650000Y-67945000D02*
X122097800Y-66497200D01*
X109220000Y-68834000D02*
X106807000Y-71247000D01*
X122097800Y-66497200D02*
X122097800Y-65074800D01*
X122097800Y-65074800D02*
X120523000Y-63500000D01*
X106807000Y-74676000D02*
X108204000Y-76073000D01*
X106807000Y-71247000D02*
X106807000Y-74676000D01*
X120523000Y-63500000D02*
X117856000Y-63500000D01*
X112522000Y-68834000D02*
X109220000Y-68834000D01*
X117856000Y-63500000D02*
X112522000Y-68834000D01*
X119380000Y-68580000D02*
X120650000Y-67945000D01*
D58*
X108585000Y-90297000D02*
X109601000Y-90297000D01*
X111125000Y-88773000D02*
X112522000Y-88773000D01*
X109601000Y-90297000D02*
X111125000Y-88773000D01*
D53*
X197180200Y-98755200D02*
X197180200Y-100774500D01*
X197104000Y-98679000D02*
X197180200Y-98755200D01*
X205422500Y-76835000D02*
X205422500Y-77830680D01*
X205661260Y-78069440D02*
X205661260Y-78740000D01*
X205422500Y-77830680D02*
X205661260Y-78069440D01*
X205422500Y-80645000D02*
X205422500Y-84355940D01*
X205422500Y-84355940D02*
X204566520Y-85211920D01*
X197675500Y-99377500D02*
X198247000Y-98806000D01*
X197675500Y-100774500D02*
X197675500Y-99377500D01*
X198247000Y-98806000D02*
X198247000Y-97282000D01*
X198247000Y-97282000D02*
X199390000Y-96139000D01*
D58*
X218440000Y-68265000D02*
X218440000Y-71374000D01*
X220726000Y-73660000D02*
X223520000Y-73660000D01*
X218440000Y-71374000D02*
X220726000Y-73660000D01*
D53*
X204144880Y-118435120D02*
X204144880Y-116954300D01*
X201180700Y-121399300D02*
X204144880Y-118435120D01*
X201180700Y-122745500D02*
X201180700Y-121399300D01*
X210004660Y-103477060D02*
X210431380Y-103477060D01*
X209181700Y-102654100D02*
X210004660Y-103477060D01*
X209181700Y-100774500D02*
X209181700Y-102654100D01*
X208673700Y-122745500D02*
X208673700Y-114566700D01*
X208673700Y-114566700D02*
X209379820Y-113860580D01*
X201180700Y-96446340D02*
X201180700Y-100774500D01*
D58*
X223520000Y-68580000D02*
X224536000Y-68580000D01*
X224536000Y-68580000D02*
X225298000Y-69342000D01*
X225298000Y-69342000D02*
X225298000Y-74422000D01*
X224790000Y-74930000D02*
X222697040Y-74930000D01*
X225298000Y-74422000D02*
X224790000Y-74930000D01*
D53*
X222697040Y-74930000D02*
X201180700Y-96446340D01*
X205181200Y-98493580D02*
X205181200Y-100774500D01*
X214774780Y-88900000D02*
X205181200Y-98493580D01*
X222250000Y-88900000D02*
X214774780Y-88900000D01*
X205676500Y-100774500D02*
X205676500Y-98600260D01*
X212836760Y-91440000D02*
X222250000Y-91440000D01*
X205676500Y-98600260D02*
X212836760Y-91440000D01*
X212915500Y-114007900D02*
X221957900Y-114007900D01*
X221957900Y-114007900D02*
X222250000Y-114300000D01*
X216463880Y-115506500D02*
X216689940Y-115280440D01*
X212915500Y-115506500D02*
X216463880Y-115506500D01*
X219544900Y-118008400D02*
X220916500Y-119380000D01*
X220916500Y-119380000D02*
X222250000Y-119380000D01*
X212915500Y-118008400D02*
X219544900Y-118008400D01*
D58*
X221234000Y-121920000D02*
X218821000Y-119507000D01*
X222250000Y-121920000D02*
X221234000Y-121920000D01*
D53*
X212915500Y-119507000D02*
X218821000Y-119507000D01*
X212915500Y-120510300D02*
X218300300Y-120510300D01*
X218300300Y-120510300D02*
X222250000Y-124460000D01*
X218186000Y-123825000D02*
X221361000Y-127000000D01*
X210680300Y-122745500D02*
X210680300Y-123804680D01*
X210680300Y-123804680D02*
X218186000Y-123804680D01*
X218186000Y-123804680D02*
X218186000Y-123825000D01*
X221361000Y-127000000D02*
X222250000Y-127000000D01*
X206679800Y-122745500D02*
X206679800Y-123804680D01*
X222250000Y-129540000D02*
X212415120Y-129540000D01*
X212415120Y-129540000D02*
X206679800Y-123804680D01*
X207175100Y-123652280D02*
X207175100Y-122745500D01*
X208798160Y-125275340D02*
X207175100Y-123652280D01*
X210073240Y-125275340D02*
X208798160Y-125275340D01*
X205181200Y-126763780D02*
X211559140Y-133141720D01*
X211559140Y-133141720D02*
X220771720Y-133141720D01*
X220771720Y-133141720D02*
X222250000Y-134620000D01*
X205181200Y-122745500D02*
X205181200Y-126763780D01*
X204685900Y-127505460D02*
X214340440Y-137160000D01*
X204685900Y-122745500D02*
X204685900Y-127505460D01*
X214340440Y-137160000D02*
X222250000Y-137160000D01*
X211500720Y-93980000D02*
X207683100Y-97797620D01*
X207683100Y-97797620D02*
X207683100Y-100774500D01*
X222250000Y-93980000D02*
X211500720Y-93980000D01*
X211023200Y-95059500D02*
X208178400Y-97904300D01*
X208178400Y-97904300D02*
X208178400Y-100774500D01*
D58*
X224790000Y-91440000D02*
X225933000Y-91440000D01*
X225933000Y-91440000D02*
X226187000Y-91694000D01*
X226187000Y-91694000D02*
X226187000Y-95123000D01*
X226187000Y-95123000D02*
X226060000Y-95250000D01*
X219265500Y-95250000D02*
X219075000Y-95059500D01*
X226060000Y-95250000D02*
X219265500Y-95250000D01*
D53*
X219075000Y-95059500D02*
X211023200Y-95059500D01*
X223520000Y-92710000D02*
X212168740Y-92710000D01*
X206184500Y-98694240D02*
X206184500Y-100774500D01*
X224790000Y-93980000D02*
X223520000Y-92710000D01*
X212168740Y-92710000D02*
X206184500Y-98694240D01*
X208673700Y-98409760D02*
X209293460Y-97790000D01*
X209293460Y-97790000D02*
X223520000Y-97790000D01*
X208673700Y-100774500D02*
X208673700Y-98409760D01*
X223520000Y-97790000D02*
X224790000Y-96520000D01*
X223520000Y-100330000D02*
X224790000Y-99060000D01*
X210680300Y-100774500D02*
X211124800Y-100330000D01*
X211124800Y-100330000D02*
X223520000Y-100330000D01*
X212915500Y-104013000D02*
X220441520Y-104013000D01*
X220441520Y-104013000D02*
X221584520Y-102870000D01*
X221584520Y-102870000D02*
X223520000Y-102870000D01*
X223520000Y-102870000D02*
X224790000Y-101600000D01*
X223418400Y-105511600D02*
X224790000Y-104140000D01*
X212915500Y-105511600D02*
X223418400Y-105511600D01*
X218531440Y-106514900D02*
X219966540Y-107950000D01*
X223520000Y-107950000D02*
X224790000Y-106680000D01*
X219966540Y-107950000D02*
X223520000Y-107950000D01*
X212915500Y-106514900D02*
X218531440Y-106514900D01*
X212915500Y-108013500D02*
X213974680Y-108013500D01*
X213974680Y-108013500D02*
X213982300Y-108005880D01*
X213982300Y-108005880D02*
X214914480Y-108005880D01*
X212915500Y-109004100D02*
X217101420Y-109004100D01*
D58*
X224790000Y-111760000D02*
X224790000Y-111252000D01*
X224134680Y-110596680D02*
X218694000Y-110596680D01*
X224790000Y-111252000D02*
X224134680Y-110596680D01*
D53*
X217101420Y-109004100D02*
X218694000Y-110596680D01*
X221653100Y-115570000D02*
X223520000Y-115570000D01*
X219384880Y-116573300D02*
X219456000Y-116644420D01*
X214038180Y-116573300D02*
X219384880Y-116573300D01*
X213974680Y-116509800D02*
X214038180Y-116573300D01*
X223520000Y-115570000D02*
X224790000Y-114300000D01*
X212915500Y-116509800D02*
X213974680Y-116509800D01*
X220578680Y-116644420D02*
X221653100Y-115570000D01*
X219456000Y-116644420D02*
X220578680Y-116644420D01*
X207175100Y-102222300D02*
X207175100Y-100774500D01*
X207360520Y-102407720D02*
X207175100Y-102222300D01*
X207462120Y-102407720D02*
X207360520Y-102407720D01*
X207619600Y-102565200D02*
X207462120Y-102407720D01*
X216329260Y-116149120D02*
X219608400Y-116149120D01*
X216194640Y-116014500D02*
X216329260Y-116149120D01*
X219608400Y-116149120D02*
X220002100Y-115755420D01*
X212915500Y-116014500D02*
X216194640Y-116014500D01*
X219214700Y-117005100D02*
X220319600Y-118110000D01*
X223520000Y-118110000D02*
X224790000Y-119380000D01*
X220319600Y-118110000D02*
X223520000Y-118110000D01*
X212915500Y-117005100D02*
X219214700Y-117005100D01*
X206502000Y-125585220D02*
X205676500Y-124759720D01*
X206502000Y-126238000D02*
X206502000Y-125585220D01*
X205676500Y-122745500D02*
X205676500Y-124759720D01*
X212915500Y-119011700D02*
X219943680Y-119011700D01*
D58*
X221615000Y-120683020D02*
X223172020Y-120683020D01*
D53*
X219943680Y-119011700D02*
X221615000Y-120683020D01*
D58*
X223520000Y-121031000D02*
X223520000Y-123190000D01*
X223172020Y-120683020D02*
X223520000Y-121031000D01*
D53*
X223520000Y-123190000D02*
X224790000Y-124460000D01*
X223520000Y-125730000D02*
X224790000Y-127000000D01*
X212328760Y-121361200D02*
X217215720Y-121361200D01*
X217215720Y-121361200D02*
X221584520Y-125730000D01*
X221584520Y-125730000D02*
X223520000Y-125730000D01*
X212328760Y-121361200D02*
X211658200Y-121361200D01*
X211658200Y-121361200D02*
X211455000Y-121158000D01*
X212461000Y-118491000D02*
X212480000Y-118510000D01*
X211709000Y-118491000D02*
X211455000Y-118745000D01*
X211709000Y-118491000D02*
X212461000Y-118491000D01*
X211455000Y-121158000D02*
X211455000Y-118745000D01*
X223520000Y-128270000D02*
X224790000Y-129540000D01*
X210172300Y-122745500D02*
X210172300Y-124139960D01*
X214302340Y-128270000D02*
X223520000Y-128270000D01*
X210172300Y-124139960D02*
X214302340Y-128270000D01*
X223520000Y-130810000D02*
X212958680Y-130810000D01*
X224790000Y-132080000D02*
X223520000Y-130810000D01*
X206184500Y-124035820D02*
X206184500Y-122745500D01*
X212958680Y-130810000D02*
X206184500Y-124035820D01*
X210172300Y-99715320D02*
X221594680Y-99715320D01*
X210172300Y-100774500D02*
X210172300Y-99715320D01*
X221594680Y-99715320D02*
X222250000Y-99060000D01*
X220332300Y-103517700D02*
X222250000Y-101600000D01*
X212915500Y-103517700D02*
X220332300Y-103517700D01*
X212915500Y-105016300D02*
X221373700Y-105016300D01*
X221373700Y-105016300D02*
X222250000Y-104140000D01*
X212915500Y-106006900D02*
X221576900Y-106006900D01*
X221576900Y-106006900D02*
X222250000Y-106680000D01*
X222250000Y-109220000D02*
X218673680Y-109220000D01*
X218673680Y-109220000D02*
X216463880Y-107010200D01*
X216463880Y-107010200D02*
X212915500Y-107010200D01*
X212915500Y-109512100D02*
X215392000Y-109512100D01*
X215392000Y-109512100D02*
X217639900Y-111760000D01*
X217639900Y-111760000D02*
X222250000Y-111760000D01*
D56*
X109410500Y-84328000D02*
X109601000Y-84328000D01*
X76327000Y-111379000D02*
X75311000Y-111379000D01*
X75311000Y-111379000D02*
X74549000Y-112141000D01*
X74549000Y-112141000D02*
X74549000Y-117221000D01*
X74549000Y-117221000D02*
X76327000Y-118999000D01*
X134391400Y-94945200D02*
X135001000Y-95554800D01*
X135001000Y-95554800D02*
X135001000Y-97663000D01*
X137388600Y-109220000D02*
X137388600Y-108077000D01*
X137388600Y-108077000D02*
X137668000Y-107823000D01*
X137668000Y-107823000D02*
X137668000Y-105029000D01*
X97409000Y-121412000D02*
X96901000Y-121412000D01*
X96901000Y-121412000D02*
X95250000Y-123063000D01*
X95250000Y-123063000D02*
X88646000Y-123063000D01*
X88646000Y-123063000D02*
X86741000Y-121158000D01*
X100965000Y-60833000D02*
X100965000Y-66929000D01*
X189230000Y-74676000D02*
X191008000Y-74676000D01*
X191008000Y-74676000D02*
X191008000Y-75438000D01*
X191008000Y-75438000D02*
X191897000Y-75438000D01*
X191897000Y-75438000D02*
X192532000Y-75120500D01*
D53*
X127635000Y-99974400D02*
X126441200Y-99974400D01*
D56*
X141478000Y-82423000D02*
X141478000Y-84899500D01*
X131876800Y-108127800D02*
X131826000Y-107950000D01*
X176149000Y-87249000D02*
X168529000Y-87249000D01*
X140652500Y-90487500D02*
X140652500Y-91059000D01*
X141605000Y-89535000D02*
X140652500Y-90487500D01*
X141605000Y-89027000D02*
X141605000Y-89535000D01*
X183134000Y-128270000D02*
X183134000Y-133604000D01*
X86741000Y-117094000D02*
X86741000Y-115570000D01*
X128968500Y-91440000D02*
X128968500Y-89852500D01*
X129870200Y-92341700D02*
X128968500Y-91440000D01*
D53*
X129870200Y-93726000D02*
X129870200Y-92341700D01*
D56*
X194691000Y-73660000D02*
X194691000Y-73406000D01*
X194183000Y-74168000D02*
X194691000Y-73660000D01*
X194183000Y-75311000D02*
X194183000Y-74168000D01*
X193167000Y-75311000D02*
X194183000Y-75311000D01*
X192532000Y-75120500D02*
X193167000Y-75311000D01*
X86741000Y-117094000D02*
X86741000Y-121158000D01*
X80772000Y-77089000D02*
X75438000Y-73025000D01*
X93599000Y-106934000D02*
X93599000Y-96774000D01*
X92075000Y-95250000D02*
X88900000Y-95250000D01*
X93599000Y-96774000D02*
X92075000Y-95250000D01*
X131826000Y-107950000D02*
X131826000Y-105537000D01*
X131826000Y-105537000D02*
X132588000Y-104775000D01*
X132588000Y-104775000D02*
X132588000Y-103632000D01*
D53*
X131876800Y-109220000D02*
X131876800Y-108127800D01*
D56*
X126441200Y-99974400D02*
X125349000Y-100774500D01*
X109410500Y-84328000D02*
X109410500Y-82867500D01*
D53*
X189885320Y-116509800D02*
X190944500Y-116509800D01*
D56*
X189156340Y-116509800D02*
X189885320Y-116509800D01*
D53*
X189885320Y-116509800D02*
X189885320Y-114007900D01*
X189885320Y-114007900D02*
X190944500Y-114007900D01*
X189885320Y-113017300D02*
X189885320Y-114007900D01*
X209181700Y-122745500D02*
X209181700Y-124249180D01*
D56*
X209181700Y-124249180D02*
X209166460Y-124264420D01*
X91694000Y-108839000D02*
X91694000Y-112903000D01*
X213974680Y-110502700D02*
X214454740Y-110502700D01*
D53*
X213446360Y-111506000D02*
X213974680Y-111506000D01*
X212915500Y-111506000D02*
X213446360Y-111506000D01*
D56*
X213446360Y-112014000D02*
X213974680Y-112014000D01*
X212915500Y-112014000D02*
X213446360Y-112014000D01*
D53*
X213446360Y-111506000D02*
X213446360Y-112014000D01*
D56*
X213832440Y-112509300D02*
X213974680Y-112367060D01*
X213974680Y-112367060D02*
X213974680Y-112014000D01*
X212915500Y-112509300D02*
X213832440Y-112509300D01*
X213832440Y-112509300D02*
X213974680Y-112651540D01*
X213974680Y-112651540D02*
X213974680Y-113017300D01*
D53*
X212915500Y-113017300D02*
X213974680Y-113017300D01*
X209677000Y-98694240D02*
X209677000Y-100774500D01*
X203454000Y-99715320D02*
X202679300Y-99715320D01*
X204685900Y-99715320D02*
X203454000Y-99715320D01*
X203454000Y-98673920D02*
X203454000Y-99715320D01*
X190944500Y-113017300D02*
X189885320Y-113017300D01*
D56*
X93599000Y-106934000D02*
X91694000Y-108839000D01*
X102108000Y-66929000D02*
X100965000Y-66929000D01*
X104267000Y-72199500D02*
X104267000Y-69088000D01*
X104140000Y-139827000D02*
X104140000Y-140462000D01*
X128270000Y-74676000D02*
X130111500Y-74676000D01*
X85915500Y-114744500D02*
X84836000Y-114744500D01*
X86741000Y-115570000D02*
X85915500Y-114744500D01*
X144805400Y-104470200D02*
X145288000Y-103822500D01*
X143129000Y-104470200D02*
X144805400Y-104470200D01*
X140385800Y-94919800D02*
X140208000Y-95123000D01*
D53*
X140385800Y-93726000D02*
X140385800Y-94919800D01*
D56*
X77597000Y-130429000D02*
X74422000Y-130429000D01*
X78867000Y-129159000D02*
X77597000Y-130429000D01*
X145415000Y-100076000D02*
X146812000Y-100076000D01*
D53*
X144805400Y-99466400D02*
X145415000Y-100076000D01*
X143129000Y-99466400D02*
X144805400Y-99466400D01*
D56*
X110744000Y-141859000D02*
X115951000Y-141859000D01*
X109601000Y-84328000D02*
X110109000Y-83820000D01*
X152400000Y-119507000D02*
X152400000Y-115570000D01*
X151892000Y-120015000D02*
X152400000Y-119507000D01*
X159448500Y-115633500D02*
X159512000Y-115697000D01*
X159448500Y-114046000D02*
X159448500Y-115633500D01*
X123634500Y-103505000D02*
X124587000Y-104521000D01*
X158623000Y-108966000D02*
X159512000Y-108966000D01*
X158242000Y-108585000D02*
X158623000Y-108966000D01*
X158242000Y-106045000D02*
X158242000Y-108585000D01*
X158750000Y-105537000D02*
X158242000Y-106045000D01*
X98742500Y-90043000D02*
X97282000Y-90043000D01*
X75438000Y-82677000D02*
X78105000Y-85344000D01*
X75438000Y-73025000D02*
X75438000Y-82677000D01*
X78105000Y-94107000D02*
X78105000Y-85344000D01*
X131064000Y-111252000D02*
X131064000Y-112204500D01*
X131064000Y-112204500D02*
X131000500Y-112268000D01*
D53*
X131876800Y-110439200D02*
X131064000Y-111252000D01*
D56*
X110744000Y-141859000D02*
X110744000Y-139446000D01*
X135001000Y-97663000D02*
X135636000Y-98298000D01*
X135636000Y-98298000D02*
X137668000Y-98298000D01*
X141859000Y-109220000D02*
X142240000Y-108839000D01*
D55*
X141376400Y-109220000D02*
X141859000Y-109220000D01*
D56*
X81280000Y-140843000D02*
X79375000Y-138938000D01*
X79375000Y-138938000D02*
X78740000Y-138938000D01*
X78740000Y-138938000D02*
X77597000Y-137795000D01*
X77597000Y-137795000D02*
X77597000Y-135509000D01*
X77597000Y-135509000D02*
X76327000Y-134239000D01*
X140335000Y-107823000D02*
X140335000Y-104495600D01*
X141376400Y-108077000D02*
X141351000Y-108077000D01*
X141351000Y-108077000D02*
X141097000Y-107823000D01*
X141097000Y-107823000D02*
X140335000Y-107823000D01*
D53*
X139395200Y-108102400D02*
X139395200Y-109220000D01*
X141376400Y-109220000D02*
X141376400Y-108077000D01*
D56*
X140335000Y-107823000D02*
X139700000Y-107823000D01*
X146748500Y-103822500D02*
X146812000Y-103886000D01*
X145288000Y-103822500D02*
X146748500Y-103822500D01*
X150876000Y-77152500D02*
X150876000Y-75311000D01*
X164592000Y-83312000D02*
X168529000Y-87249000D01*
X164592000Y-83248500D02*
X164592000Y-83312000D01*
X108077000Y-89027000D02*
X108585000Y-89027000D01*
X106680000Y-90424000D02*
X108077000Y-89027000D01*
X193230500Y-83248500D02*
X193929000Y-83947000D01*
X192532000Y-83248500D02*
X193230500Y-83248500D01*
X192532000Y-83248500D02*
X192532000Y-87503000D01*
X105664000Y-74676000D02*
X103632000Y-76708000D01*
X105664000Y-72898000D02*
X105664000Y-74676000D01*
X104965500Y-72199500D02*
X105664000Y-72898000D01*
X104267000Y-72199500D02*
X104965500Y-72199500D01*
X80772000Y-77089000D02*
X85979000Y-77089000D01*
X106480000Y-82931000D02*
X106480000Y-88192000D01*
X107242000Y-82169000D02*
X106480000Y-82931000D01*
X108712000Y-82169000D02*
X107242000Y-82169000D01*
X177228500Y-77152500D02*
X177165000Y-77089000D01*
X178562000Y-77152500D02*
X177228500Y-77152500D01*
X123571000Y-99695000D02*
X123571000Y-99060000D01*
X124587000Y-100711000D02*
X123571000Y-99695000D01*
X140208000Y-95123000D02*
X138049000Y-95123000D01*
X166243000Y-89535000D02*
X168529000Y-87249000D01*
X166243000Y-90932000D02*
X166243000Y-89535000D01*
X159448500Y-109029500D02*
X159512000Y-108966000D01*
X164846000Y-90932000D02*
X166243000Y-90932000D01*
X135763000Y-102997000D02*
X137668000Y-105029000D01*
X135763000Y-102997000D02*
X132588000Y-103632000D01*
D53*
X129311400Y-103454200D02*
X129540000Y-103632000D01*
X127635000Y-103479600D02*
X129311400Y-103454200D01*
D56*
X139700000Y-107823000D02*
X139446000Y-108077000D01*
X139446000Y-108077000D02*
X139420600Y-108077000D01*
X139420600Y-108077000D02*
X139395200Y-108102400D01*
X137668000Y-95504000D02*
X137668000Y-98298000D01*
X137668000Y-98298000D02*
X137668000Y-105029000D01*
X131699000Y-82804000D02*
X130048000Y-84455000D01*
X130048000Y-84455000D02*
X128841500Y-84455000D01*
X91694000Y-112903000D02*
X89408000Y-112903000D01*
X89408000Y-112903000D02*
X86741000Y-115570000D01*
X104267000Y-69088000D02*
X102108000Y-66929000D01*
X164846000Y-90932000D02*
X164846000Y-93408500D01*
X159448500Y-105537000D02*
X158750000Y-105537000D01*
X104140000Y-140462000D02*
X105537000Y-141859000D01*
X130111500Y-74676000D02*
X130937000Y-75501500D01*
X105537000Y-141859000D02*
X110744000Y-141859000D01*
X121285000Y-102489000D02*
X121285000Y-101346000D01*
X121158000Y-102616000D02*
X121285000Y-102489000D01*
X85979000Y-77089000D02*
X88900000Y-80010000D01*
X88900000Y-80010000D02*
X88900000Y-82550000D01*
X163068000Y-74676000D02*
X161290000Y-74676000D01*
X115951000Y-141859000D02*
X118364000Y-139446000D01*
X86741000Y-125349000D02*
X86741000Y-129540000D01*
X163068000Y-75311000D02*
X163068000Y-74676000D01*
X165925500Y-75120500D02*
X164592000Y-75120500D01*
X110109000Y-83820000D02*
X111252000Y-83820000D01*
X166624000Y-74422000D02*
X165925500Y-75120500D01*
X166624000Y-71247000D02*
X166624000Y-74422000D01*
X163957000Y-68580000D02*
X166624000Y-71247000D01*
X161163000Y-68580000D02*
X163957000Y-68580000D01*
D53*
X131876800Y-109220000D02*
X131876800Y-110439200D01*
D56*
X140385800Y-91325700D02*
X140652500Y-91059000D01*
D53*
X140385800Y-93726000D02*
X140385800Y-91325700D01*
D56*
X74422000Y-120015000D02*
X74422000Y-130429000D01*
X75438000Y-118999000D02*
X74422000Y-120015000D01*
X76327000Y-118999000D02*
X75438000Y-118999000D01*
X103568500Y-112331500D02*
X103378000Y-112522000D01*
X81280000Y-140970000D02*
X81280000Y-140843000D01*
X89535000Y-140970000D02*
X81280000Y-140970000D01*
X86741000Y-121158000D02*
X86741000Y-125349000D01*
X159448500Y-114046000D02*
X159448500Y-111252000D01*
X159448500Y-111252000D02*
X159448500Y-109029500D01*
D53*
X199174100Y-124272040D02*
X199174100Y-122745500D01*
X213974680Y-110502700D02*
X213974680Y-111506000D01*
D56*
X129540000Y-103632000D02*
X132588000Y-103632000D01*
X104140000Y-139827000D02*
X100965000Y-139827000D01*
X133731000Y-91249500D02*
X133540500Y-91440000D01*
X133731000Y-89535000D02*
X133731000Y-91249500D01*
X117602000Y-75311000D02*
X117729000Y-75184000D01*
X117602000Y-77152500D02*
X117602000Y-75311000D01*
X163957000Y-75311000D02*
X164592000Y-75120500D01*
X163068000Y-75311000D02*
X163957000Y-75311000D01*
D53*
X212915500Y-110502700D02*
X213974680Y-110502700D01*
X194678300Y-100774500D02*
X194678300Y-99253040D01*
X204685900Y-100774500D02*
X204685900Y-99715320D01*
X202679300Y-100774500D02*
X202679300Y-99715320D01*
D56*
X212681820Y-76835000D02*
X213741000Y-76835000D01*
X138049000Y-95123000D02*
X137668000Y-95504000D01*
X212681820Y-76692760D02*
X212681820Y-76835000D01*
X212237320Y-76248260D02*
X212681820Y-76692760D01*
X213741000Y-80645000D02*
X212194140Y-80645000D01*
X103568500Y-111252000D02*
X103568500Y-112331500D01*
X132651500Y-75501500D02*
X130937000Y-75501500D01*
X132715000Y-75438000D02*
X132651500Y-75501500D01*
X109410500Y-82867500D02*
X108712000Y-82169000D01*
X86741000Y-132588000D02*
X86741000Y-129540000D01*
D53*
X134366000Y-93726000D02*
X134391400Y-94945200D01*
D56*
X176276000Y-124841000D02*
X168656000Y-124841000D01*
X136652000Y-118681500D02*
X136652000Y-120396000D01*
X136652000Y-120396000D02*
X136652000Y-122110500D01*
X138938000Y-104495600D02*
X140335000Y-104495600D01*
X138938000Y-104495600D02*
X137668000Y-105029000D01*
X140335000Y-104495600D02*
X143129000Y-104470200D01*
X182816500Y-125730000D02*
X177165000Y-125730000D01*
X177165000Y-125730000D02*
X176276000Y-124841000D01*
X182816500Y-125730000D02*
X182816500Y-127952500D01*
D53*
X189438280Y-110502700D02*
X190944500Y-110502700D01*
D56*
X128968500Y-89852500D02*
X129032000Y-89789000D01*
D53*
X129387600Y-93726000D02*
X129870200Y-93726000D01*
D56*
X123634500Y-103505000D02*
X123190000Y-103505000D01*
X123190000Y-103505000D02*
X122301000Y-102616000D01*
X122301000Y-102616000D02*
X121158000Y-102616000D01*
D58*
X137388600Y-109220000D02*
X137388600Y-110769400D01*
D56*
X182816500Y-127952500D02*
X183134000Y-128270000D01*
X183134000Y-133604000D02*
X181864000Y-134874000D01*
X181864000Y-134874000D02*
X181864000Y-136906000D01*
X168529000Y-113157000D02*
X176149000Y-113157000D01*
X74422000Y-130429000D02*
X74422000Y-133477000D01*
X74422000Y-133477000D02*
X75184000Y-134239000D01*
X75184000Y-134239000D02*
X76327000Y-134239000D01*
X137388600Y-110769400D02*
X136715500Y-111760000D01*
D53*
X134366000Y-93726000D02*
X134366000Y-92265500D01*
D56*
X134366000Y-92265500D02*
X133540500Y-91440000D01*
X125349000Y-100774500D02*
X124587000Y-100711000D01*
X106480000Y-88192000D02*
X107315000Y-89027000D01*
X107315000Y-89027000D02*
X108585000Y-89027000D01*
X137287000Y-112334000D02*
X136713000Y-111760000D01*
X137287000Y-113538000D02*
X137287000Y-112334000D01*
X141732000Y-113350000D02*
X143891000Y-113350000D01*
X144338000Y-112903000D02*
X143891000Y-113350000D01*
X145415000Y-112903000D02*
X144338000Y-112903000D01*
X124587000Y-104521000D02*
X124968000Y-104902000D01*
D58*
X126365000Y-103759000D02*
X126365000Y-104775000D01*
D56*
X126238000Y-104902000D02*
X124968000Y-104902000D01*
D58*
X126365000Y-104775000D02*
X126238000Y-104902000D01*
D53*
X211137500Y-107505500D02*
X212915500Y-107505500D01*
X211074000Y-107442000D02*
X211137500Y-107505500D01*
D56*
X190627000Y-89408000D02*
X192532000Y-87503000D01*
X189230000Y-89408000D02*
X190627000Y-89408000D01*
D58*
X127450000Y-103505000D02*
X127482000Y-103473000D01*
X126365000Y-103759000D02*
X126619000Y-103505000D01*
X126619000Y-103505000D02*
X127450000Y-103505000D01*
D56*
X102809000Y-92837000D02*
X104140000Y-92837000D01*
X106553000Y-90424000D02*
X106680000Y-90424000D01*
X104140000Y-92837000D02*
X106553000Y-90424000D01*
D54*
X166751000Y-106934000D02*
X166751000Y-105791000D01*
D57*
X176149000Y-97790000D02*
X168529000Y-97790000D01*
D54*
X163957000Y-109728000D02*
X166751000Y-106934000D01*
X163957000Y-111315500D02*
X163957000Y-109728000D01*
D53*
X82423000Y-136398000D02*
X81280000Y-135255000D01*
X77597000Y-124714000D02*
X77597000Y-112649000D01*
X80264000Y-125349000D02*
X81280000Y-126365000D01*
X91440000Y-135382000D02*
X90424000Y-136398000D01*
X81280000Y-135255000D02*
X81280000Y-126365000D01*
X78232000Y-125349000D02*
X77597000Y-124714000D01*
X80264000Y-125349000D02*
X78232000Y-125349000D01*
X90424000Y-136398000D02*
X82423000Y-136398000D01*
X91440000Y-134620000D02*
X91440000Y-135382000D01*
X77597000Y-112649000D02*
X78867000Y-111379000D01*
D55*
X176149000Y-92075000D02*
X175641000Y-91567000D01*
X169291000Y-91567000D02*
X168529000Y-92329000D01*
D53*
X164846000Y-95313500D02*
X165290500Y-95758000D01*
D55*
X176149000Y-92329000D02*
X176149000Y-92075000D01*
X165290500Y-95758000D02*
X166878000Y-95758000D01*
X166878000Y-92964000D02*
X166878000Y-95758000D01*
X167513000Y-92329000D02*
X166878000Y-92964000D01*
X168529000Y-92329000D02*
X167513000Y-92329000D01*
D54*
X175641000Y-91567000D02*
X169291000Y-91567000D01*
D56*
X162798000Y-95631000D02*
X163576000Y-95631000D01*
X163891000Y-95316000D02*
X164846000Y-95316000D01*
X163576000Y-95631000D02*
X163891000Y-95316000D01*
D53*
X161353500Y-110553500D02*
X160401000Y-109601000D01*
X160401000Y-109601000D02*
X160401000Y-108712000D01*
X160401000Y-108712000D02*
X160020000Y-108331000D01*
X160020000Y-108331000D02*
X159512000Y-108331000D01*
X161353500Y-111252000D02*
X161353500Y-110553500D01*
D57*
X163957000Y-113220500D02*
X163957000Y-113284000D01*
X161353500Y-111252000D02*
X161353500Y-114046000D01*
X163957000Y-113284000D02*
X163195000Y-114046000D01*
X163195000Y-114046000D02*
X161353500Y-114046000D01*
D56*
X124714000Y-110363000D02*
X124777500Y-110299500D01*
X124777500Y-110299500D02*
X124777500Y-108712000D01*
X126492000Y-105968800D02*
X126492000Y-106426000D01*
D53*
X126542800Y-106476800D02*
X127635000Y-106476800D01*
X126492000Y-106426000D02*
X126542800Y-106476800D01*
D56*
X123444000Y-105283000D02*
X124206000Y-106045000D01*
X125806200Y-106045000D02*
X125882400Y-105968800D01*
X124206000Y-106045000D02*
X125806200Y-106045000D01*
X123444000Y-105283000D02*
X121666000Y-105283000D01*
X121666000Y-105283000D02*
X120777000Y-104394000D01*
X123571000Y-110363000D02*
X124714000Y-110363000D01*
X126492000Y-105968800D02*
X125882400Y-105968800D01*
D53*
X127635000Y-105968800D02*
X126492000Y-105968800D01*
D56*
X117983000Y-104140000D02*
X118872000Y-105029000D01*
X117983000Y-101346000D02*
X117983000Y-104140000D01*
X119507000Y-104394000D02*
X118872000Y-105029000D01*
X120777000Y-104394000D02*
X119507000Y-104394000D01*
D55*
X187579000Y-71120000D02*
X186182000Y-71120000D01*
X187706000Y-71247000D02*
X187579000Y-71120000D01*
X188277500Y-71247000D02*
X187706000Y-71247000D01*
X184150000Y-74676000D02*
X186182000Y-74676000D01*
D54*
X183705500Y-72961500D02*
X184150000Y-73406000D01*
X181102000Y-72961500D02*
X183705500Y-72961500D01*
D55*
X181610000Y-75438000D02*
X181102000Y-74930000D01*
X182245000Y-75438000D02*
X181610000Y-75438000D01*
X184150000Y-75946000D02*
X182753000Y-75946000D01*
X181102000Y-74930000D02*
X181102000Y-74866500D01*
X182753000Y-75946000D02*
X182245000Y-75438000D01*
D54*
X181102000Y-77279500D02*
X184086500Y-77279500D01*
X184086500Y-77279500D02*
X184150000Y-77216000D01*
X184150000Y-78486000D02*
X181800500Y-78486000D01*
X181800500Y-78486000D02*
X181102000Y-79184500D01*
D55*
X183007000Y-79756000D02*
X182245000Y-80518000D01*
D54*
X178562000Y-79121000D02*
X179959000Y-80518000D01*
X178562000Y-79057500D02*
X178562000Y-79121000D01*
D55*
X182245000Y-80518000D02*
X179959000Y-80518000D01*
X184150000Y-79756000D02*
X183007000Y-79756000D01*
X160337500Y-71247000D02*
X158242000Y-71247000D01*
X156210000Y-74676000D02*
X158242000Y-74676000D01*
X154368500Y-72834500D02*
X154940000Y-73406000D01*
X153162000Y-72834500D02*
X154368500Y-72834500D01*
X154940000Y-73406000D02*
X156210000Y-73406000D01*
D53*
X153162000Y-74930000D02*
X153670000Y-75438000D01*
X153162000Y-74739500D02*
X153162000Y-74930000D01*
D55*
X154305000Y-75438000D02*
X153670000Y-75438000D01*
X156210000Y-75946000D02*
X154813000Y-75946000D01*
X154813000Y-75946000D02*
X154305000Y-75438000D01*
X153860500Y-77152500D02*
X153924000Y-77216000D01*
X153035000Y-77152500D02*
X153860500Y-77152500D01*
X153924000Y-77216000D02*
X156210000Y-77216000D01*
X153035000Y-79057500D02*
X153606500Y-79057500D01*
X154178000Y-78486000D02*
X156210000Y-78486000D01*
X153606500Y-79057500D02*
X154178000Y-78486000D01*
X150876000Y-79756000D02*
X151638000Y-80518000D01*
X150876000Y-79057500D02*
X150876000Y-79756000D01*
X155067000Y-79756000D02*
X156210000Y-79756000D01*
X151638000Y-80518000D02*
X154305000Y-80518000D01*
X154305000Y-80518000D02*
X155067000Y-79756000D01*
X125222000Y-71247000D02*
X127317500Y-71247000D01*
X123190000Y-74676000D02*
X125222000Y-74676000D01*
X120142000Y-77152500D02*
X121729500Y-77152500D01*
X121793000Y-77216000D02*
X123190000Y-77216000D01*
X121729500Y-77152500D02*
X121793000Y-77216000D01*
X121539000Y-78486000D02*
X120967500Y-79057500D01*
X123190000Y-78486000D02*
X121539000Y-78486000D01*
X120967500Y-79057500D02*
X120142000Y-79057500D01*
D57*
X87693500Y-88836500D02*
X88900000Y-87630000D01*
X87693500Y-90233500D02*
X87693500Y-88836500D01*
D54*
X104267000Y-74104500D02*
X104267000Y-74168000D01*
D57*
X99800000Y-83632500D02*
X99800000Y-80775000D01*
X99739500Y-83693000D02*
X99800000Y-83632500D01*
X92837000Y-83693000D02*
X99739500Y-83693000D01*
X88900000Y-87630000D02*
X92837000Y-83693000D01*
X95507000Y-80775000D02*
X99800000Y-80775000D01*
X93472000Y-78740000D02*
X95507000Y-80775000D01*
X93472000Y-77089000D02*
X93472000Y-78740000D01*
D54*
X99949000Y-80626000D02*
X99800000Y-80775000D01*
X99949000Y-78486000D02*
X99949000Y-80626000D01*
X102600000Y-75835000D02*
X102600000Y-77300000D01*
X104267000Y-74168000D02*
X102600000Y-75835000D01*
X102065000Y-77835000D02*
X100600000Y-77835000D01*
X102600000Y-77300000D02*
X102065000Y-77835000D01*
X100600000Y-77835000D02*
X99949000Y-78486000D01*
D57*
X87693500Y-90233500D02*
X87693500Y-92011500D01*
X85665000Y-94040000D02*
X81505000Y-94040000D01*
X87693500Y-92011500D02*
X85665000Y-94040000D01*
D54*
X184404000Y-126047500D02*
X184721500Y-125730000D01*
X184404000Y-130302000D02*
X184404000Y-126047500D01*
D55*
X123190000Y-73406000D02*
X120713500Y-73406000D01*
X120713500Y-73406000D02*
X120142000Y-72834500D01*
X123190000Y-75946000D02*
X121793000Y-75946000D01*
D53*
X120142000Y-74930000D02*
X120650000Y-75438000D01*
D55*
X121285000Y-75438000D02*
X120650000Y-75438000D01*
D53*
X120142000Y-74739500D02*
X120142000Y-74930000D01*
D55*
X121793000Y-75946000D02*
X121285000Y-75438000D01*
X123190000Y-79756000D02*
X122047000Y-79756000D01*
X122047000Y-79756000D02*
X121285000Y-80518000D01*
X118999000Y-80518000D02*
X117602000Y-79057500D01*
X121285000Y-80518000D02*
X118999000Y-80518000D01*
X95885000Y-92456000D02*
X96647000Y-93218000D01*
X95885000Y-86741000D02*
X95885000Y-92456000D01*
X97155000Y-85471000D02*
X95885000Y-86741000D01*
X98742500Y-85471000D02*
X97155000Y-85471000D01*
X125984000Y-74041000D02*
X123317000Y-71374000D01*
X116459000Y-73533000D02*
X113284000Y-73533000D01*
X118618000Y-71374000D02*
X116459000Y-73533000D01*
X123317000Y-71374000D02*
X118618000Y-71374000D01*
X125984000Y-76581000D02*
X125984000Y-74041000D01*
X126619000Y-77216000D02*
X125984000Y-76581000D01*
X128270000Y-77216000D02*
X126619000Y-77216000D01*
X116078000Y-75311000D02*
X115570000Y-74803000D01*
X119634000Y-82296000D02*
X117856000Y-80518000D01*
X112014000Y-74803000D02*
X110744000Y-73533000D01*
X123190000Y-82296000D02*
X119634000Y-82296000D01*
X115570000Y-74803000D02*
X112014000Y-74803000D01*
X116078000Y-80137000D02*
X116078000Y-75311000D01*
X116459000Y-80518000D02*
X116078000Y-80137000D01*
X117856000Y-80518000D02*
X116459000Y-80518000D01*
X109474000Y-76835000D02*
X109474000Y-74803000D01*
X123190000Y-81026000D02*
X124079000Y-81026000D01*
X109982000Y-77343000D02*
X109474000Y-76835000D01*
X114808000Y-77343000D02*
X109982000Y-77343000D01*
X115316000Y-77851000D02*
X114808000Y-77343000D01*
X124079000Y-81026000D02*
X124841000Y-81788000D01*
X124841000Y-81788000D02*
X124841000Y-82804000D01*
X119253000Y-83058000D02*
X117475000Y-81280000D01*
X124841000Y-82804000D02*
X124587000Y-83058000D01*
X109474000Y-74803000D02*
X108204000Y-73533000D01*
X124587000Y-83058000D02*
X119253000Y-83058000D01*
X115316000Y-80645000D02*
X115316000Y-77851000D01*
X115951000Y-81280000D02*
X115316000Y-80645000D01*
X117475000Y-81280000D02*
X115951000Y-81280000D01*
D53*
X210439000Y-76835000D02*
X207327500Y-76835000D01*
X210439000Y-80645000D02*
X207327500Y-80645000D01*
D57*
X89540000Y-74300000D02*
X86614000Y-71374000D01*
X89665000Y-74425000D02*
X89540000Y-74300000D01*
X99800000Y-74425000D02*
X89665000Y-74425000D01*
D59*
X91694000Y-71374000D02*
X91694000Y-67004000D01*
X91694000Y-67004000D02*
X94765000Y-63933000D01*
X86741000Y-63119000D02*
X87555000Y-63933000D01*
X87555000Y-63933000D02*
X94765000Y-63933000D01*
X79248000Y-63119000D02*
X86741000Y-63119000D01*
X75438000Y-66929000D02*
X79248000Y-63119000D01*
X75438000Y-67945000D02*
X75438000Y-66929000D01*
D58*
X117406500Y-110236000D02*
X117406500Y-108770500D01*
X117094000Y-108458000D02*
X114554000Y-108458000D01*
X117406500Y-108770500D02*
X117094000Y-108458000D01*
D54*
X92265500Y-117094000D02*
X90043000Y-117094000D01*
X92265500Y-121158000D02*
X90043000Y-121158000D01*
X92265500Y-125349000D02*
X90043000Y-125349000D01*
X92265500Y-129413000D02*
X90170000Y-129413000D01*
X90170000Y-129413000D02*
X90043000Y-129540000D01*
X104457500Y-136207500D02*
X104140000Y-136525000D01*
X104457500Y-133858000D02*
X104457500Y-136207500D01*
X164846000Y-102108000D02*
X164846000Y-104457500D01*
D55*
X96139000Y-113792000D02*
X97409000Y-113792000D01*
X101092000Y-115062000D02*
X102743000Y-115062000D01*
X101092000Y-118872000D02*
X102743000Y-118872000D01*
X95123000Y-113792000D02*
X94234000Y-112903000D01*
X96139000Y-113792000D02*
X95123000Y-113792000D01*
X95567500Y-111569500D02*
X94234000Y-112903000D01*
X95567500Y-109728000D02*
X95567500Y-111569500D01*
X95758000Y-114173000D02*
X96139000Y-113792000D01*
X95758000Y-115062000D02*
X95758000Y-114173000D01*
X97409000Y-117602000D02*
X95758000Y-117602000D01*
D53*
X131318000Y-104267000D02*
X131318000Y-104902000D01*
X127635000Y-103987600D02*
X129057400Y-103962200D01*
X129057400Y-103962200D02*
X129286000Y-104140000D01*
X129286000Y-104140000D02*
X131191000Y-104140000D01*
X131191000Y-104140000D02*
X131318000Y-104267000D01*
X130048000Y-104648000D02*
X130429000Y-104902000D01*
X129159000Y-104648000D02*
X130048000Y-104648000D01*
X128930400Y-104470200D02*
X129159000Y-104648000D01*
X127635000Y-104470200D02*
X128930400Y-104470200D01*
X131876800Y-93726000D02*
X131876800Y-94361000D01*
X131826000Y-96393000D02*
X131826000Y-94361000D01*
X131826000Y-94361000D02*
X131876800Y-94361000D01*
X130378200Y-107746800D02*
X130048000Y-107188000D01*
X130378200Y-109220000D02*
X130378200Y-107746800D01*
X128905000Y-109220000D02*
X128397000Y-109728000D01*
X129387600Y-109220000D02*
X128905000Y-109220000D01*
X128397000Y-109728000D02*
X128397000Y-113665000D01*
X138811000Y-98933000D02*
X140360400Y-100482400D01*
D54*
X168783000Y-107823000D02*
X168783000Y-104902000D01*
D53*
X140360400Y-100482400D02*
X141249400Y-100482400D01*
D54*
X176149000Y-108077000D02*
X168529000Y-108077000D01*
D55*
X167259000Y-110490000D02*
X168275000Y-109474000D01*
X167259000Y-115570000D02*
X167259000Y-110490000D01*
D54*
X168275000Y-108331000D02*
X168529000Y-108077000D01*
X168275000Y-109474000D02*
X168275000Y-108331000D01*
D53*
X143129000Y-100457000D02*
X141249400Y-100482400D01*
D54*
X168529000Y-108077000D02*
X168783000Y-107823000D01*
D55*
X150622000Y-99441000D02*
X150495000Y-99060000D01*
X150876000Y-99695000D02*
X150622000Y-99441000D01*
X160528000Y-99695000D02*
X150876000Y-99695000D01*
X163449000Y-96774000D02*
X160528000Y-99695000D01*
X166751000Y-96774000D02*
X163449000Y-96774000D01*
X167259000Y-97282000D02*
X166751000Y-96774000D01*
X167259000Y-103378000D02*
X167259000Y-97282000D01*
X168783000Y-104902000D02*
X167259000Y-103378000D01*
D54*
X168719500Y-117030500D02*
X167259000Y-115570000D01*
X168719500Y-117094000D02*
X168719500Y-117030500D01*
D55*
X102235000Y-103886000D02*
X102235000Y-102743000D01*
X102235000Y-102743000D02*
X103378000Y-101600000D01*
X103378000Y-101600000D02*
X104013000Y-101600000D01*
X99060000Y-107061000D02*
X102235000Y-103886000D01*
D53*
X127635000Y-100482400D02*
X128905000Y-100457000D01*
X128905000Y-100457000D02*
X130048000Y-99314000D01*
X130048000Y-99314000D02*
X130048000Y-95250000D01*
D55*
X99060000Y-114808000D02*
X99060000Y-107061000D01*
X98806000Y-115062000D02*
X99060000Y-114808000D01*
X97409000Y-115062000D02*
X98806000Y-115062000D01*
X104775000Y-102489000D02*
X104013000Y-102489000D01*
X105283000Y-102997000D02*
X104775000Y-102489000D01*
X105283000Y-115062000D02*
X105283000Y-102997000D01*
X104013000Y-116332000D02*
X105283000Y-115062000D01*
X102743000Y-116332000D02*
X104013000Y-116332000D01*
D53*
X128727200Y-97967800D02*
X127635000Y-97967800D01*
X129159000Y-97536000D02*
X128727200Y-97967800D01*
X129159000Y-95250000D02*
X129159000Y-97536000D01*
X121412000Y-91821000D02*
X122936000Y-90043000D01*
X121412000Y-94234000D02*
X121412000Y-91821000D01*
X125120400Y-97942400D02*
X121412000Y-94234000D01*
X126085600Y-97942400D02*
X125120400Y-97942400D01*
X126619000Y-98475800D02*
X126085600Y-97942400D01*
D55*
X105029000Y-100711000D02*
X104013000Y-100711000D01*
X106045000Y-101727000D02*
X105029000Y-100711000D01*
X106045000Y-118237000D02*
X106045000Y-101727000D01*
X104140000Y-120142000D02*
X106045000Y-118237000D01*
X102743000Y-120142000D02*
X104140000Y-120142000D01*
D53*
X127635000Y-98475800D02*
X126619000Y-98475800D01*
X132892800Y-108127800D02*
X132842000Y-107823000D01*
X132892800Y-109220000D02*
X132892800Y-108127800D01*
X133731000Y-105410000D02*
X134112000Y-105156000D01*
X132842000Y-106299000D02*
X133731000Y-105410000D01*
X132842000Y-107823000D02*
X132842000Y-106299000D01*
X134391400Y-109220000D02*
X134391400Y-107823000D01*
X134391400Y-107823000D02*
X134112000Y-106934000D01*
X192755520Y-101762560D02*
X192755520Y-97312480D01*
X192755520Y-97312480D02*
X198755000Y-91313000D01*
X198755000Y-91313000D02*
X198755000Y-88265000D01*
X198755000Y-88265000D02*
X200025000Y-86995000D01*
X192755520Y-101762560D02*
X192755520Y-102077520D01*
X192755520Y-102077520D02*
X193040000Y-102362000D01*
X195199000Y-101229000D02*
X195180000Y-101210000D01*
X195199000Y-102108000D02*
X194945000Y-102362000D01*
X195199000Y-102108000D02*
X195199000Y-101229000D01*
X193040000Y-102362000D02*
X194945000Y-102362000D01*
X200025000Y-89535000D02*
X200025000Y-93174820D01*
X200025000Y-93174820D02*
X195681600Y-97518220D01*
X195681600Y-97518220D02*
X195681600Y-100774500D01*
D55*
X164719000Y-121412000D02*
X165227000Y-120523000D01*
X164719000Y-124206000D02*
X164719000Y-121412000D01*
X165354000Y-124523500D02*
X164719000Y-124206000D01*
X162687000Y-120523000D02*
X162687000Y-124206000D01*
X162687000Y-124206000D02*
X162814000Y-124523500D01*
D54*
X160147000Y-120523000D02*
X160147000Y-124396500D01*
X160147000Y-124396500D02*
X160274000Y-124523500D01*
X157607000Y-120523000D02*
X157607000Y-124396500D01*
X157607000Y-124396500D02*
X157734000Y-124523500D01*
D55*
X158813500Y-89154000D02*
X158623000Y-89344500D01*
X160782000Y-89154000D02*
X158813500Y-89154000D01*
X161925000Y-88392000D02*
X162433000Y-88392000D01*
X162814000Y-88773000D02*
X162814000Y-90043000D01*
X162433000Y-88392000D02*
X162814000Y-88773000D01*
X160591500Y-87058500D02*
X161925000Y-88392000D01*
X160591500Y-86995000D02*
X160591500Y-87058500D01*
D53*
X141478000Y-86804500D02*
X141478000Y-87376000D01*
X141351000Y-87503000D02*
X139954000Y-87503000D01*
X141478000Y-87376000D02*
X141351000Y-87503000D01*
X139369800Y-92303600D02*
X139369800Y-93726000D01*
X139319000Y-91948000D02*
X139369800Y-92303600D01*
X139319000Y-88138000D02*
X139319000Y-91948000D01*
X139954000Y-87503000D02*
X139319000Y-88138000D01*
D55*
X164211000Y-86995000D02*
X164846000Y-87630000D01*
X162496500Y-86995000D02*
X164211000Y-86995000D01*
D53*
X126492000Y-83820000D02*
X126492000Y-80137000D01*
X126873000Y-79756000D02*
X128270000Y-79756000D01*
X126936500Y-84455000D02*
X126936500Y-84264500D01*
X126936500Y-84264500D02*
X126936500Y-84010500D01*
X133477000Y-79629000D02*
X135763000Y-79629000D01*
X126936500Y-84264500D02*
X126492000Y-83820000D01*
X127889000Y-83058000D02*
X129800000Y-83058000D01*
X126936500Y-84010500D02*
X127889000Y-83058000D01*
X126492000Y-80137000D02*
X126873000Y-79756000D01*
X129842000Y-83058000D02*
X133271000Y-79629000D01*
X133271000Y-79629000D02*
X133477000Y-79629000D01*
X129800000Y-83058000D02*
X129842000Y-83058000D01*
D55*
X97409000Y-116332000D02*
X94932500Y-116332000D01*
X94932500Y-116332000D02*
X94170500Y-117094000D01*
X192532000Y-81343500D02*
X191071500Y-81343500D01*
X191071500Y-81343500D02*
X190754000Y-81026000D01*
X197485000Y-79629000D02*
X196088000Y-81026000D01*
X196088000Y-81026000D02*
X194183000Y-81026000D01*
X194183000Y-81026000D02*
X193865500Y-81343500D01*
X190754000Y-81026000D02*
X189230000Y-81026000D01*
X193865500Y-81343500D02*
X192532000Y-81343500D01*
D54*
X97409000Y-120142000D02*
X95186500Y-120142000D01*
X95186500Y-120142000D02*
X94170500Y-121158000D01*
D55*
X99314000Y-122428000D02*
X100203000Y-121539000D01*
X100203000Y-121539000D02*
X100203000Y-118491000D01*
X94170500Y-125349000D02*
X95377000Y-125349000D01*
X98298000Y-122428000D02*
X99314000Y-122428000D01*
X101092000Y-117602000D02*
X102743000Y-117602000D01*
X100203000Y-118491000D02*
X101092000Y-117602000D01*
X95377000Y-125349000D02*
X98298000Y-122428000D01*
X102743000Y-121793000D02*
X101346000Y-123190000D01*
X95885000Y-126111000D02*
X95885000Y-127762000D01*
X95885000Y-127762000D02*
X94234000Y-129413000D01*
X98806000Y-123190000D02*
X95885000Y-126111000D01*
X94234000Y-129413000D02*
X94170500Y-129413000D01*
X102743000Y-121412000D02*
X102743000Y-121793000D01*
X101346000Y-123190000D02*
X98806000Y-123190000D01*
D54*
X167068500Y-81343500D02*
X164592000Y-81343500D01*
X168783000Y-79629000D02*
X167068500Y-81343500D01*
X169545000Y-79629000D02*
X168783000Y-79629000D01*
X161290000Y-81026000D02*
X164274500Y-81026000D01*
X164274500Y-81026000D02*
X164592000Y-81343500D01*
D55*
X100901500Y-92837000D02*
X100901500Y-95313500D01*
X100901500Y-95313500D02*
X100457000Y-95758000D01*
X103251000Y-90297000D02*
X102489000Y-90297000D01*
X102489000Y-90297000D02*
X102235000Y-90297000D01*
X100899000Y-91633000D02*
X100899000Y-92837000D01*
X102235000Y-90297000D02*
X100899000Y-91633000D01*
D53*
X135763000Y-111506000D02*
X135768080Y-111506000D01*
X135763000Y-110744000D02*
X135763000Y-111506000D01*
X135890000Y-109220000D02*
X135890000Y-110617000D01*
X135890000Y-110617000D02*
X135763000Y-110744000D01*
X135768080Y-111506000D02*
X134874000Y-112458500D01*
D55*
X189230000Y-82296000D02*
X197358000Y-82296000D01*
X197358000Y-82296000D02*
X197485000Y-82169000D01*
X196215000Y-78359000D02*
X198247000Y-78359000D01*
X198755000Y-77851000D02*
X198755000Y-75819000D01*
X198755000Y-75819000D02*
X197485000Y-74549000D01*
X194818000Y-79756000D02*
X196215000Y-78359000D01*
X189230000Y-79756000D02*
X194818000Y-79756000D01*
X198247000Y-78359000D02*
X198755000Y-77851000D01*
X196088000Y-77089000D02*
X197485000Y-77089000D01*
X189230000Y-78486000D02*
X194691000Y-78486000D01*
X194691000Y-78486000D02*
X196088000Y-77089000D01*
D54*
X169418000Y-82296000D02*
X169545000Y-82169000D01*
X161290000Y-82296000D02*
X169418000Y-82296000D01*
D55*
X169545000Y-74549000D02*
X170815000Y-75819000D01*
X170307000Y-78359000D02*
X168275000Y-78359000D01*
X166878000Y-79756000D02*
X161290000Y-79756000D01*
X168275000Y-78359000D02*
X166878000Y-79756000D01*
X170815000Y-77851000D02*
X170307000Y-78359000D01*
X170815000Y-75819000D02*
X170815000Y-77851000D01*
X168148000Y-77089000D02*
X169545000Y-77089000D01*
X166751000Y-78486000D02*
X168148000Y-77089000D01*
X161290000Y-78486000D02*
X166751000Y-78486000D01*
D56*
X103218000Y-86487000D02*
X103218000Y-85885000D01*
X103505000Y-85598000D02*
X103505000Y-83820000D01*
X103218000Y-85885000D02*
X103505000Y-85598000D01*
D53*
X134874000Y-77089000D02*
X135763000Y-77089000D01*
X128270000Y-82296000D02*
X129667000Y-82296000D01*
X129667000Y-82296000D02*
X134874000Y-77089000D01*
X134493000Y-75819000D02*
X135763000Y-74549000D01*
X134493000Y-76327000D02*
X134493000Y-75819000D01*
X129794000Y-81026000D02*
X134493000Y-76327000D01*
X128270000Y-81026000D02*
X129794000Y-81026000D01*
X130048000Y-85725000D02*
X133985000Y-81788000D01*
X125476000Y-85344000D02*
X125857000Y-85725000D01*
X134874000Y-81788000D02*
X135763000Y-82169000D01*
X128270000Y-78486000D02*
X126111000Y-78486000D01*
X125857000Y-85725000D02*
X130048000Y-85725000D01*
X133985000Y-81788000D02*
X134874000Y-81788000D01*
X125476000Y-79121000D02*
X125476000Y-85344000D01*
X126111000Y-78486000D02*
X125476000Y-79121000D01*
D54*
X183642000Y-67437000D02*
X185039000Y-66040000D01*
X183642000Y-68580000D02*
X183642000Y-67437000D01*
D55*
X150114000Y-68580000D02*
X150114000Y-67437000D01*
X150114000Y-67437000D02*
X151511000Y-66040000D01*
D53*
X132384800Y-110413800D02*
X132905500Y-110934500D01*
D60*
X132905500Y-110934500D02*
X132905500Y-112268000D01*
X192595500Y-122745500D02*
X192333880Y-123007120D01*
X192333880Y-123007120D02*
X192333880Y-123845320D01*
D53*
X193179700Y-122745500D02*
X192595500Y-122745500D01*
X132384800Y-109220000D02*
X132384800Y-110413800D01*
D60*
X191198500Y-73215500D02*
X191008000Y-73025000D01*
X192532000Y-73215500D02*
X191198500Y-73215500D01*
X98742500Y-87757000D02*
X97155000Y-87757000D01*
X143002000Y-71628000D02*
X146050000Y-74676000D01*
X134747000Y-71628000D02*
X143002000Y-71628000D01*
X132778500Y-73596500D02*
X134747000Y-71628000D01*
X130937000Y-73596500D02*
X132778500Y-73596500D01*
X161544000Y-106807000D02*
X162306000Y-106807000D01*
X161353500Y-104711500D02*
X161036000Y-104394000D01*
X161353500Y-105537000D02*
X161353500Y-104711500D01*
X107505500Y-83502500D02*
X107823000Y-83185000D01*
X107505500Y-84328000D02*
X107505500Y-83502500D01*
X162242500Y-72453500D02*
X161290000Y-73406000D01*
X162242500Y-71247000D02*
X162242500Y-72453500D01*
X164592000Y-71247000D02*
X164592000Y-73215500D01*
X74701400Y-96291400D02*
X74701400Y-94107000D01*
X78740000Y-100330000D02*
X88900000Y-100330000D01*
X78740000Y-100330000D02*
X74701400Y-96291400D01*
X107696000Y-133858000D02*
X110744000Y-136906000D01*
X106362500Y-133858000D02*
X107696000Y-133858000D01*
X162814000Y-126428500D02*
X165354000Y-126428500D01*
X160274000Y-126428500D02*
X162814000Y-126428500D01*
X190182500Y-72453500D02*
X189230000Y-73406000D01*
X190182500Y-71247000D02*
X190182500Y-72453500D01*
X164592000Y-71247000D02*
X162242500Y-71247000D01*
X192532000Y-71247000D02*
X190182500Y-71247000D01*
X192532000Y-73215500D02*
X192532000Y-71247000D01*
X129222500Y-72453500D02*
X128270000Y-73406000D01*
X129222500Y-71247000D02*
X129222500Y-72453500D01*
X157734000Y-126428500D02*
X160274000Y-126428500D01*
X131572000Y-72644000D02*
X130937000Y-73596500D01*
X131572000Y-71247000D02*
X131572000Y-72644000D01*
X107569000Y-87757000D02*
X108585000Y-87757000D01*
X107505500Y-87693500D02*
X107569000Y-87757000D01*
D56*
X107505500Y-87600000D02*
X107505500Y-87693500D01*
D60*
X169227500Y-130302000D02*
X165354000Y-126428500D01*
X181864000Y-130302000D02*
X169227500Y-130302000D01*
X131572000Y-71247000D02*
X129222500Y-71247000D01*
X168529000Y-102870000D02*
X176149000Y-102870000D01*
X101663500Y-111252000D02*
X101663500Y-113030000D01*
X97472500Y-112077500D02*
X97472500Y-109728000D01*
X97409000Y-112141000D02*
X97472500Y-112077500D01*
X101663500Y-113030000D02*
X100838000Y-113030000D01*
X164846000Y-98933000D02*
X163449000Y-100330000D01*
X164846000Y-98806000D02*
X164846000Y-98933000D01*
X101854000Y-113792000D02*
X102743000Y-113792000D01*
X101663500Y-113601500D02*
X101854000Y-113792000D01*
X101663500Y-113030000D02*
X101663500Y-113601500D01*
X130873500Y-89916000D02*
X130937000Y-89916000D01*
D53*
X130886200Y-93726000D02*
X130378200Y-93726000D01*
D60*
X123444000Y-97282000D02*
X121094500Y-97282000D01*
X125173740Y-99011740D02*
X123444000Y-97282000D01*
X125349000Y-98869500D02*
X125173740Y-99011740D01*
X103314500Y-98933000D02*
X103314500Y-96647000D01*
X84264500Y-121412000D02*
X84264500Y-119126000D01*
X126072900Y-102971600D02*
X125539500Y-103505000D01*
D53*
X127635000Y-102971600D02*
X126072900Y-102971600D01*
D60*
X170624500Y-117094000D02*
X172910500Y-117094000D01*
D53*
X137939780Y-110998000D02*
X138620500Y-111760000D01*
X137896600Y-110947200D02*
X137939780Y-110998000D01*
X137896600Y-109220000D02*
X137896600Y-110947200D01*
D60*
X84264500Y-119126000D02*
X85090000Y-119126000D01*
X155829000Y-97536000D02*
X157734000Y-97536000D01*
X155067000Y-98298000D02*
X155829000Y-97536000D01*
X153987500Y-98298000D02*
X155067000Y-98298000D01*
X182816500Y-121158000D02*
X182816500Y-123444000D01*
X175641000Y-115824000D02*
X173863000Y-115824000D01*
X173863000Y-115824000D02*
X173863000Y-116141500D01*
X173863000Y-116141500D02*
X172910500Y-117094000D01*
X180975000Y-121158000D02*
X178689000Y-118872000D01*
X182816500Y-121158000D02*
X180975000Y-121158000D01*
X141351000Y-92265500D02*
X142557500Y-91059000D01*
X141351000Y-92456000D02*
X141351000Y-92265500D01*
D53*
X140868400Y-92938600D02*
X141351000Y-92456000D01*
X140868400Y-93726000D02*
X140868400Y-92938600D01*
X132384800Y-108127800D02*
X132384800Y-109220000D01*
X132334000Y-107823000D02*
X132384800Y-108127800D01*
X132334000Y-105791000D02*
X132334000Y-107823000D01*
X133096000Y-105029000D02*
X132334000Y-105791000D01*
X133096000Y-104648000D02*
X133096000Y-105029000D01*
X133477000Y-104267000D02*
X133096000Y-104648000D01*
D60*
X133985000Y-104267000D02*
X133477000Y-104267000D01*
D53*
X140868400Y-93726000D02*
X141376400Y-93726000D01*
D60*
X138863500Y-113263500D02*
X138800000Y-113200000D01*
X138620500Y-111760000D02*
X138863500Y-113263500D01*
D53*
X144678400Y-104978200D02*
X143129000Y-104978200D01*
X145288000Y-105727500D02*
X144678400Y-104978200D01*
D60*
X146494500Y-105727500D02*
X145288000Y-105727500D01*
X146812000Y-105410000D02*
X146494500Y-105727500D01*
X153987500Y-93853000D02*
X153987500Y-96012000D01*
X98361500Y-100520500D02*
X100584000Y-100520500D01*
X98298000Y-100584000D02*
X98361500Y-100520500D01*
X84264500Y-106553000D02*
X84264500Y-104267000D01*
X102171500Y-98933000D02*
X100584000Y-100520500D01*
X103314500Y-98933000D02*
X102171500Y-98933000D01*
X153987500Y-96012000D02*
X153987500Y-98298000D01*
X161163000Y-91313000D02*
X160782000Y-90932000D01*
X161163000Y-92329000D02*
X161163000Y-91313000D01*
D53*
X134874000Y-92710000D02*
X134874000Y-93726000D01*
X135572500Y-92011500D02*
X134874000Y-92710000D01*
D60*
X135445500Y-91440000D02*
X135572500Y-92011500D01*
X142621000Y-120015000D02*
X148590000Y-120015000D01*
X141859000Y-119253000D02*
X142621000Y-120015000D01*
X121094500Y-97853500D02*
X121666000Y-98425000D01*
X121094500Y-97282000D02*
X121094500Y-97853500D01*
D53*
X129438400Y-102946200D02*
X127635000Y-102971600D01*
X129667000Y-103124000D02*
X129438400Y-102946200D01*
X131318000Y-103124000D02*
X129667000Y-103124000D01*
X131699000Y-102870000D02*
X131318000Y-103124000D01*
X130378200Y-92887800D02*
X130378200Y-93726000D01*
X130873500Y-92392500D02*
X130378200Y-92887800D01*
X130873500Y-89979500D02*
X130873500Y-92392500D01*
D60*
X125780800Y-99466400D02*
X125349000Y-98869500D01*
D53*
X127635000Y-99466400D02*
X125780800Y-99466400D01*
D60*
X145288000Y-98679000D02*
X146812000Y-98679000D01*
D53*
X145008600Y-98958400D02*
X145288000Y-98679000D01*
X143129000Y-98958400D02*
X145008600Y-98958400D01*
D60*
X170624500Y-115887500D02*
X170624500Y-117094000D01*
X169799000Y-115062000D02*
X170624500Y-115887500D01*
X168275000Y-115062000D02*
X169799000Y-115062000D01*
X121158000Y-95885000D02*
X121094500Y-97282000D01*
X117094000Y-91821000D02*
X121158000Y-95885000D01*
X110490000Y-91821000D02*
X117094000Y-91821000D01*
X107315000Y-94996000D02*
X110490000Y-91821000D01*
X161544000Y-107696000D02*
X161544000Y-106807000D01*
X161544000Y-105727500D02*
X161353500Y-105537000D01*
X161544000Y-106807000D02*
X161544000Y-105727500D01*
D56*
X134212000Y-88392000D02*
X132461000Y-88392000D01*
X132461000Y-88392000D02*
X130937000Y-89916000D01*
X135445500Y-91440000D02*
X135445500Y-89625500D01*
X135445500Y-89625500D02*
X134212000Y-88392000D01*
D60*
X130937000Y-89916000D02*
X130873500Y-89979500D01*
X130873500Y-89916000D02*
X130873500Y-89979500D01*
X153416000Y-106426000D02*
X155448000Y-104394000D01*
X153416000Y-109093000D02*
X153416000Y-106426000D01*
X153543000Y-109220000D02*
X153416000Y-109093000D01*
D53*
X194691000Y-125222000D02*
X194678300Y-122745500D01*
X190944500Y-110007400D02*
X192003680Y-110007400D01*
D61*
X190944500Y-109512100D02*
X191861440Y-109512100D01*
D60*
X193332100Y-109512100D02*
X193675000Y-109855000D01*
D61*
X191861440Y-109512100D02*
X193332100Y-109512100D01*
D56*
X192003680Y-109654340D02*
X192003680Y-110007400D01*
D53*
X191861440Y-109512100D02*
X192003680Y-109654340D01*
X212915500Y-103009700D02*
X211856320Y-103009700D01*
D56*
X211414360Y-102567740D02*
X211856320Y-103009700D01*
D60*
X218440000Y-66357500D02*
X218440000Y-65102740D01*
X158623000Y-96647000D02*
X158623000Y-95821500D01*
X157734000Y-97536000D02*
X158623000Y-96647000D01*
D53*
X199174100Y-102811580D02*
X199174100Y-100774500D01*
D60*
X199009000Y-102976680D02*
X199174100Y-102811580D01*
D56*
X131254500Y-113919000D02*
X132905500Y-112268000D01*
X130556000Y-113919000D02*
X131254500Y-113919000D01*
X130048000Y-113411000D02*
X130556000Y-113919000D01*
X130048000Y-111125000D02*
X130048000Y-113411000D01*
D60*
X178689000Y-118872000D02*
X175641000Y-115824000D01*
D53*
X210314540Y-117513100D02*
X212915500Y-117513100D01*
D60*
X209732880Y-118094760D02*
X210314540Y-117513100D01*
X84264500Y-102552500D02*
X84582000Y-102235000D01*
X84264500Y-104267000D02*
X84264500Y-102552500D01*
D56*
X107300000Y-84533500D02*
X107505500Y-84328000D01*
X107500000Y-87600000D02*
X107300000Y-87400000D01*
X107300000Y-87400000D02*
X107300000Y-84533500D01*
X107505500Y-87600000D02*
X107500000Y-87600000D01*
X142826000Y-93726000D02*
X143100000Y-94000000D01*
X141376400Y-93726000D02*
X142826000Y-93726000D01*
D58*
X156337000Y-104394000D02*
X160655000Y-104394000D01*
D60*
X156337000Y-104394000D02*
X155448000Y-104394000D01*
D56*
X161356000Y-104714000D02*
X161036000Y-104394000D01*
X161356000Y-105537000D02*
X161356000Y-104714000D01*
X161036000Y-104394000D02*
X156337000Y-104394000D01*
D53*
X210845400Y-110007400D02*
X210820000Y-109982000D01*
X212915500Y-110007400D02*
X210845400Y-110007400D01*
X204177900Y-120815100D02*
X204216000Y-120777000D01*
X204177900Y-122745500D02*
X204177900Y-120815100D01*
X210972400Y-113512600D02*
X210947000Y-113538000D01*
X212915500Y-113512600D02*
X210972400Y-113512600D01*
X193141600Y-113512600D02*
X190944500Y-113512600D01*
X193167000Y-113538000D02*
X193141600Y-113512600D01*
X130175000Y-110998000D02*
X130048000Y-111125000D01*
X130556000Y-110998000D02*
X130175000Y-110998000D01*
X131394200Y-110159800D02*
X130556000Y-110998000D01*
X131394200Y-109220000D02*
X131394200Y-110159800D01*
D60*
X104963000Y-94996000D02*
X103312000Y-96647000D01*
X105029000Y-94996000D02*
X104963000Y-94996000D01*
X105029000Y-94996000D02*
X107315000Y-94996000D01*
X109093000Y-108458000D02*
X112014000Y-108458000D01*
X108013500Y-109537500D02*
X109093000Y-108458000D01*
X108013500Y-114109500D02*
X108013500Y-109537500D01*
X107950000Y-114173000D02*
X108013500Y-114109500D01*
D56*
X74705000Y-94040000D02*
X76405000Y-94040000D01*
D55*
X161353500Y-102489000D02*
X162179000Y-102489000D01*
X163195000Y-103505000D02*
X163195000Y-105918000D01*
X163195000Y-105918000D02*
X163639500Y-106362500D01*
X163639500Y-106362500D02*
X164846000Y-106362500D01*
D53*
X162242500Y-108966000D02*
X164846000Y-106362500D01*
D55*
X162179000Y-102489000D02*
X163195000Y-103505000D01*
D53*
X161544000Y-108966000D02*
X162242500Y-108966000D01*
D55*
X122872500Y-108712000D02*
X121793000Y-108712000D01*
X121793000Y-108712000D02*
X120777000Y-107696000D01*
D53*
X125984000Y-107569000D02*
X126301500Y-107251500D01*
X125984000Y-110490000D02*
X125984000Y-107569000D01*
X127635000Y-107467400D02*
X126517400Y-107467400D01*
X126563120Y-106984800D02*
X126301500Y-107251500D01*
X127635000Y-106984800D02*
X126563120Y-106984800D01*
D55*
X120650000Y-111506000D02*
X120650000Y-113411000D01*
X120650000Y-113411000D02*
X117729000Y-116332000D01*
X120777000Y-107696000D02*
X120777000Y-110109000D01*
X120777000Y-110109000D02*
X120650000Y-110236000D01*
D53*
X125984000Y-110490000D02*
X124968000Y-111506000D01*
X124968000Y-111506000D02*
X120650000Y-111506000D01*
X126517400Y-107467400D02*
X126301500Y-107251500D01*
D55*
X120650000Y-110236000D02*
X120650000Y-111506000D01*
X181610000Y-118999000D02*
X182372000Y-119761000D01*
D53*
X188798200Y-105321100D02*
X188988700Y-105511600D01*
X188988700Y-105511600D02*
X190944500Y-105511600D01*
D55*
X182372000Y-119761000D02*
X183769000Y-119761000D01*
X183769000Y-119761000D02*
X184721500Y-121158000D01*
D53*
X147574000Y-101981000D02*
X143129000Y-101955600D01*
X148717000Y-100838000D02*
X147574000Y-101981000D01*
X148717000Y-97028000D02*
X148717000Y-100838000D01*
X150495000Y-95250000D02*
X148717000Y-97028000D01*
X188437520Y-106189780D02*
X189161420Y-106189780D01*
X147320000Y-101473000D02*
X143129000Y-101473000D01*
X148209000Y-100584000D02*
X147320000Y-101473000D01*
X189344300Y-106006900D02*
X190944500Y-106006900D01*
X189161420Y-106189780D02*
X189344300Y-106006900D01*
X148209000Y-96647000D02*
X148209000Y-100584000D01*
X149098000Y-95758000D02*
X148209000Y-96647000D01*
X149352000Y-95250000D02*
X149098000Y-95758000D01*
X181610000Y-104902000D02*
X187149740Y-104902000D01*
X184721500Y-123444000D02*
X185928000Y-122237500D01*
X185928000Y-122237500D02*
X185928000Y-119253000D01*
X185928000Y-119253000D02*
X185547000Y-118872000D01*
X185547000Y-118872000D02*
X184531000Y-118872000D01*
X187149740Y-104902000D02*
X188437520Y-106189780D01*
X183321960Y-106613960D02*
X189339220Y-106613960D01*
X182455820Y-105747820D02*
X183321960Y-106613960D01*
X181587140Y-105747820D02*
X182455820Y-105747820D01*
X180769260Y-104929940D02*
X181587140Y-105747820D01*
X180769260Y-104853740D02*
X180769260Y-104929940D01*
X181610000Y-104013000D02*
X180769260Y-104853740D01*
D55*
X152082500Y-93853000D02*
X148971000Y-93853000D01*
X148463000Y-94361000D02*
X148463000Y-95250000D01*
D53*
X143129000Y-100965000D02*
X147066000Y-100965000D01*
X147066000Y-100965000D02*
X147701000Y-100330000D01*
X147701000Y-100330000D02*
X147701000Y-96393000D01*
X147701000Y-96393000D02*
X148463000Y-95631000D01*
X148463000Y-95631000D02*
X148463000Y-95250000D01*
D55*
X148971000Y-93853000D02*
X148463000Y-94361000D01*
D53*
X189438280Y-106514900D02*
X190944500Y-106514900D01*
X189339220Y-106613960D02*
X189438280Y-106514900D01*
X139877800Y-109220000D02*
X139877800Y-111048800D01*
X178196240Y-123002040D02*
X179636420Y-124442220D01*
D55*
X136652000Y-124015500D02*
X130048000Y-124015500D01*
D53*
X139877800Y-111048800D02*
X139954000Y-111379000D01*
X202476100Y-111010700D02*
X212915500Y-111010700D01*
X168417900Y-123002040D02*
X178196240Y-123002040D01*
D55*
X137350500Y-124015500D02*
X136652000Y-124015500D01*
X137627360Y-123738640D02*
X137350500Y-124015500D01*
D53*
X189044580Y-124442220D02*
X202476100Y-111010700D01*
D55*
X130048000Y-124015500D02*
X128270000Y-122237500D01*
X128270000Y-122237500D02*
X127063500Y-122237500D01*
X127063500Y-122237500D02*
X123444000Y-125857000D01*
D53*
X137627360Y-123738640D02*
X139156440Y-125267720D01*
D58*
X181356000Y-124442220D02*
X181356000Y-124460000D01*
D53*
X179636420Y-124442220D02*
X181356000Y-124442220D01*
D58*
X181356000Y-124460000D02*
X181483000Y-124587000D01*
X186545220Y-124587000D02*
X186690000Y-124442220D01*
X181483000Y-124587000D02*
X186545220Y-124587000D01*
D53*
X186690000Y-124442220D02*
X189044580Y-124442220D01*
D55*
X138049000Y-123317000D02*
X137627360Y-123738640D01*
X138049000Y-121031000D02*
X138049000Y-123317000D01*
X139954000Y-111379000D02*
X139954000Y-114681000D01*
X139954000Y-114681000D02*
X141224000Y-115951000D01*
X141224000Y-115951000D02*
X141224000Y-117856000D01*
X141224000Y-117856000D02*
X138049000Y-121031000D01*
D53*
X139156440Y-125267720D02*
X152019000Y-125267720D01*
D58*
X152019000Y-125267720D02*
X153461720Y-125267720D01*
X153461720Y-125267720D02*
X153797000Y-125603000D01*
X153797000Y-125603000D02*
X166370000Y-125603000D01*
X167086940Y-124886060D02*
X167086940Y-124333000D01*
X166370000Y-125603000D02*
X167086940Y-124886060D01*
D53*
X167086940Y-124333000D02*
X168417900Y-123002040D01*
X131368800Y-93726000D02*
X131368800Y-92506800D01*
X131368800Y-92506800D02*
X131699000Y-92202000D01*
X131699000Y-92202000D02*
X131699000Y-91694000D01*
X131699000Y-91694000D02*
X132080000Y-91313000D01*
D55*
X102870000Y-100711000D02*
X102298500Y-100711000D01*
X102298500Y-100711000D02*
X100584000Y-102425500D01*
D53*
X146685000Y-95250000D02*
X146812000Y-94869000D01*
X144957800Y-96977200D02*
X146685000Y-95250000D01*
X143129000Y-96977200D02*
X144957800Y-96977200D01*
D55*
X158369000Y-91440000D02*
X158623000Y-91249500D01*
X156337000Y-91440000D02*
X158369000Y-91440000D01*
X154813000Y-89916000D02*
X156337000Y-91440000D01*
X149352000Y-89916000D02*
X154813000Y-89916000D01*
X146812000Y-92456000D02*
X149352000Y-89916000D01*
D53*
X146812000Y-94869000D02*
X146812000Y-92456000D01*
D55*
X160782000Y-93472000D02*
X163322000Y-93472000D01*
X158623000Y-91249500D02*
X160782000Y-93472000D01*
D53*
X145237200Y-97459800D02*
X143129000Y-97459800D01*
X147193000Y-95504000D02*
X145237200Y-97459800D01*
X147574000Y-95250000D02*
X147193000Y-95504000D01*
X147574000Y-95250000D02*
X147574000Y-92710000D01*
D55*
X147574000Y-92710000D02*
X149225000Y-91059000D01*
X149225000Y-91059000D02*
X154940000Y-91059000D01*
X154940000Y-91059000D02*
X157797500Y-93916500D01*
X157797500Y-93916500D02*
X158623000Y-93916500D01*
D54*
X160845500Y-94678500D02*
X159385000Y-94678500D01*
X159385000Y-94678500D02*
X158623000Y-93916500D01*
D53*
X132384800Y-93726000D02*
X132384800Y-92557600D01*
X132384800Y-92557600D02*
X132461000Y-92075000D01*
X190944500Y-111506000D02*
X189885320Y-111506000D01*
X189837060Y-111457740D02*
X189885320Y-111506000D01*
X180721000Y-111457740D02*
X189837060Y-111457740D01*
X151511000Y-83947000D02*
X151447500Y-83883500D01*
X151447500Y-83883500D02*
X150812500Y-83883500D01*
X139890500Y-92303600D02*
X139827000Y-91948000D01*
X139827000Y-91948000D02*
X139827000Y-88519000D01*
X139827000Y-88519000D02*
X140208000Y-88138000D01*
X140208000Y-88138000D02*
X143002000Y-88138000D01*
X143002000Y-88138000D02*
X143383000Y-87757000D01*
X143383000Y-87757000D02*
X143383000Y-84074000D01*
X143383000Y-84074000D02*
X144145000Y-83312000D01*
X144145000Y-83312000D02*
X150241000Y-83312000D01*
X150241000Y-83312000D02*
X150812500Y-83883500D01*
X139877800Y-93726000D02*
X139890500Y-92303600D01*
X180246020Y-102328980D02*
X179705000Y-102870000D01*
X192168780Y-102328980D02*
X180246020Y-102328980D01*
X190944500Y-111010700D02*
X194033140Y-111010700D01*
X194033140Y-111010700D02*
X194917060Y-110126780D01*
X194917060Y-110126780D02*
X194917060Y-105077260D01*
X194917060Y-105077260D02*
X192168780Y-102328980D01*
X152400000Y-85852000D02*
X152400000Y-84836000D01*
X146177000Y-92075000D02*
X152400000Y-85852000D01*
X144703800Y-96469200D02*
X146177000Y-94996000D01*
X143129000Y-96469200D02*
X144703800Y-96469200D01*
X183045100Y-109004100D02*
X190944500Y-109004100D01*
X146177000Y-94996000D02*
X146177000Y-92075000D01*
X181610000Y-107569000D02*
X183045100Y-109004100D01*
X192003680Y-108508800D02*
X192003680Y-108506260D01*
X192003680Y-108506260D02*
X193075560Y-108506260D01*
X193075560Y-108506260D02*
X193126360Y-108455460D01*
X190944500Y-108508800D02*
X192003680Y-108508800D01*
X132867400Y-95097600D02*
X132588000Y-95250000D01*
X132867400Y-93726000D02*
X132867400Y-95097600D01*
X133375400Y-93726000D02*
X133400800Y-95529400D01*
X133400800Y-95529400D02*
X133350000Y-96012000D01*
X192481200Y-108013500D02*
X190944500Y-108013500D01*
X192481200Y-106222800D02*
X192481200Y-108013500D01*
X193294000Y-105410000D02*
X192481200Y-106222800D01*
X188374020Y-108021120D02*
X188889640Y-107505500D01*
X188889640Y-107505500D02*
X190944500Y-107505500D01*
X134112000Y-97028000D02*
X134112000Y-95631000D01*
X133883400Y-95402400D02*
X134112000Y-95631000D01*
X133883400Y-93726000D02*
X133883400Y-95402400D01*
X182516780Y-106680000D02*
X182874920Y-107038140D01*
X135382000Y-93726000D02*
X135382000Y-94682000D01*
X190944500Y-107010200D02*
X189885320Y-107010200D01*
X189857380Y-107038140D02*
X189885320Y-107010200D01*
X178054000Y-108077000D02*
X179451000Y-106680000D01*
X178054000Y-110363000D02*
X178054000Y-108077000D01*
X182874920Y-107038140D02*
X189857380Y-107038140D01*
X179451000Y-106680000D02*
X182516780Y-106680000D01*
D58*
X135890000Y-95190000D02*
X135382000Y-94682000D01*
X135890000Y-96139000D02*
X135890000Y-95190000D01*
D53*
X148844000Y-87884000D02*
X145161000Y-91567000D01*
X148844000Y-84836000D02*
X148844000Y-87884000D01*
X143916400Y-95478600D02*
X143129000Y-95478600D01*
X145161000Y-94234000D02*
X143916400Y-95478600D01*
X145161000Y-91567000D02*
X145161000Y-94234000D01*
X145669000Y-94742000D02*
X144449800Y-95961200D01*
X144449800Y-95961200D02*
X143129000Y-95961200D01*
X145669000Y-91821000D02*
X145669000Y-94742000D01*
X149860000Y-87630000D02*
X145669000Y-91821000D01*
X149860000Y-84201000D02*
X149860000Y-87630000D01*
X135382000Y-110490000D02*
X135128000Y-110871000D01*
X135382000Y-109220000D02*
X135382000Y-110490000D01*
X134239000Y-110871000D02*
X133883400Y-110464600D01*
X133883400Y-110464600D02*
X133883400Y-109220000D01*
X131445000Y-102108000D02*
X130937000Y-102616000D01*
X129921000Y-102616000D02*
X128778000Y-101473000D01*
X128778000Y-101473000D02*
X127635000Y-101473000D01*
X130937000Y-102616000D02*
X129921000Y-102616000D01*
X132334000Y-102489000D02*
X131953000Y-102108000D01*
X132588000Y-102870000D02*
X132334000Y-102489000D01*
X131953000Y-102108000D02*
X131445000Y-102108000D01*
X127635000Y-98983800D02*
X128752600Y-98958400D01*
X128752600Y-98958400D02*
X129159000Y-99060000D01*
X122428000Y-94488000D02*
X122174000Y-93980000D01*
X122174000Y-93980000D02*
X122174000Y-92456000D01*
X122174000Y-92456000D02*
X128397000Y-86233000D01*
X128397000Y-86233000D02*
X130302000Y-86233000D01*
X130302000Y-86233000D02*
X133858000Y-82677000D01*
X133858000Y-82677000D02*
X134366000Y-82550000D01*
X127635000Y-97485200D02*
X125425200Y-97485200D01*
X125425200Y-97485200D02*
X122428000Y-94488000D01*
X123063000Y-93980000D02*
X123063000Y-92329000D01*
X123063000Y-93980000D02*
X123190000Y-94488000D01*
X123190000Y-94488000D02*
X125679200Y-96977200D01*
X125679200Y-96977200D02*
X127635000Y-96977200D01*
X123063000Y-92329000D02*
X128651000Y-86741000D01*
X128651000Y-86741000D02*
X130556000Y-86741000D01*
X130556000Y-86741000D02*
X133985000Y-83312000D01*
X133985000Y-83312000D02*
X136271000Y-83312000D01*
X136271000Y-83312000D02*
X137033000Y-82550000D01*
X137033000Y-82550000D02*
X137033000Y-75819000D01*
X137033000Y-75819000D02*
X138303000Y-74549000D01*
X125907800Y-96443800D02*
X127635000Y-96469200D01*
X123952000Y-94488000D02*
X125907800Y-96443800D01*
X134239000Y-83820000D02*
X130810000Y-87249000D01*
X130810000Y-87249000D02*
X128905000Y-87249000D01*
X128905000Y-87249000D02*
X123952000Y-92202000D01*
X123952000Y-92202000D02*
X123952000Y-93980000D01*
X138303000Y-83820000D02*
X134239000Y-83820000D01*
X139446000Y-82677000D02*
X138303000Y-83820000D01*
X138303000Y-77089000D02*
X139446000Y-78232000D01*
X139446000Y-78232000D02*
X139446000Y-82677000D01*
X123952000Y-93980000D02*
X123952000Y-94488000D01*
X140208000Y-82169000D02*
X140208000Y-82804000D01*
X131064000Y-87757000D02*
X129159000Y-87757000D01*
X129159000Y-87757000D02*
X124714000Y-92202000D01*
X124714000Y-92202000D02*
X124714000Y-93472000D01*
X124714000Y-93472000D02*
X124841000Y-93980000D01*
X134493000Y-84328000D02*
X131064000Y-87757000D01*
X138684000Y-84328000D02*
X134493000Y-84328000D01*
X140208000Y-82804000D02*
X138684000Y-84328000D01*
X126441200Y-95961200D02*
X127635000Y-95986600D01*
X124968000Y-94488000D02*
X126441200Y-95961200D01*
X124841000Y-93980000D02*
X124968000Y-94488000D01*
X136372600Y-93726000D02*
X136385300Y-92329000D01*
X134747000Y-85217000D02*
X135636000Y-86106000D01*
X135636000Y-86106000D02*
X135636000Y-88646000D01*
X136385300Y-92329000D02*
X136271000Y-91940380D01*
X136271000Y-91940380D02*
X136271000Y-89535000D01*
X136271000Y-89535000D02*
X135763000Y-89027000D01*
X135763000Y-89027000D02*
X135636000Y-88646000D01*
X136779000Y-89027000D02*
X136525000Y-88646000D01*
X136779000Y-91948000D02*
X136779000Y-89027000D01*
X136893300Y-92316300D02*
X136779000Y-91948000D01*
X136880600Y-93726000D02*
X136893300Y-92316300D01*
X136017000Y-85344000D02*
X136525000Y-86106000D01*
X136525000Y-86106000D02*
X136525000Y-88646000D01*
X137388600Y-92303600D02*
X137287000Y-91948000D01*
X137287000Y-91948000D02*
X137160000Y-85344000D01*
X137388600Y-93726000D02*
X137388600Y-92303600D01*
X138176000Y-86614000D02*
X138176000Y-85598000D01*
X137795000Y-86995000D02*
X138176000Y-86614000D01*
X137795000Y-91948000D02*
X137795000Y-86995000D01*
X137883900Y-92303600D02*
X137795000Y-91948000D01*
X137871200Y-93726000D02*
X137883900Y-92303600D01*
X139065000Y-86741000D02*
X139065000Y-85598000D01*
X138303000Y-87503000D02*
X139065000Y-86741000D01*
X138303000Y-91948000D02*
X138303000Y-87503000D01*
X138391900Y-92303600D02*
X138303000Y-91948000D01*
X138379200Y-93726000D02*
X138391900Y-92303600D01*
X139954000Y-86741000D02*
X139954000Y-85598000D01*
X138811000Y-87884000D02*
X139954000Y-86741000D01*
X138811000Y-91948000D02*
X138811000Y-87884000D01*
X138887200Y-92303600D02*
X138811000Y-91948000D01*
X138887200Y-93726000D02*
X138887200Y-92303600D01*
M02*
