G04 #@! TF.GenerationSoftware,KiCad,Pcbnew,5.1.10-88a1d61d58~88~ubuntu18.04.1*
G04 #@! TF.CreationDate,2021-06-12T18:10:02+08:00*
G04 #@! TF.ProjectId,kit-dev-coldfire-xilinx_5213,6b69742d-6465-4762-9d63-6f6c64666972,2*
G04 #@! TF.SameCoordinates,Original*
G04 #@! TF.FileFunction,Legend,Bot*
G04 #@! TF.FilePolarity,Positive*
%FSLAX46Y46*%
G04 Gerber Fmt 4.6, Leading zero omitted, Abs format (unit mm)*
G04 Created by KiCad (PCBNEW 5.1.10-88a1d61d58~88~ubuntu18.04.1) date 2021-06-12 18:10:02*
%MOMM*%
%LPD*%
G01*
G04 APERTURE LIST*
%ADD10C,0.120000*%
%ADD11C,0.150000*%
%ADD12O,2.800000X2.800000*%
%ADD13O,2.000000X2.000000*%
%ADD14C,2.000000*%
%ADD15C,1.400000*%
%ADD16O,2.100000X2.100000*%
%ADD17C,1.900000*%
%ADD18C,5.200600*%
%ADD19C,2.940000*%
%ADD20C,4.210000*%
%ADD21C,1.924000*%
%ADD22C,1.797000*%
G04 APERTURE END LIST*
D10*
X130071000Y-90730000D02*
X129771000Y-90730000D01*
X130071000Y-92150000D02*
X129771000Y-92150000D01*
X145998000Y-104925000D02*
X145998000Y-104625000D01*
X144578000Y-104925000D02*
X144578000Y-104625000D01*
X144705000Y-99164000D02*
X144705000Y-99464000D01*
X146125000Y-99164000D02*
X146125000Y-99464000D01*
X210006000Y-100988000D02*
X210006000Y-100688000D01*
X208586000Y-100988000D02*
X208586000Y-100688000D01*
X191158000Y-106605000D02*
X190858000Y-106605000D01*
X191158000Y-108025000D02*
X190858000Y-108025000D01*
X204164000Y-100988000D02*
X204164000Y-100688000D01*
X202744000Y-100988000D02*
X202744000Y-100688000D01*
X207570000Y-110340000D02*
X207570000Y-110640000D01*
X208990000Y-110340000D02*
X208990000Y-110640000D01*
X200712000Y-123294000D02*
X200712000Y-123594000D01*
X202132000Y-123294000D02*
X202132000Y-123594000D01*
X207570000Y-119230000D02*
X207570000Y-119530000D01*
X208990000Y-119230000D02*
X208990000Y-119530000D01*
X191210000Y-99210000D02*
X191210000Y-98910000D01*
X189790000Y-99210000D02*
X189790000Y-98910000D01*
X199719000Y-100988000D02*
X199719000Y-100688000D01*
X198299000Y-100988000D02*
X198299000Y-100688000D01*
X204649000Y-123294000D02*
X204649000Y-123594000D01*
X206069000Y-123294000D02*
X206069000Y-123594000D01*
X196775000Y-123294000D02*
X196775000Y-123594000D01*
X198195000Y-123294000D02*
X198195000Y-123594000D01*
X191158000Y-114479000D02*
X190858000Y-114479000D01*
X191158000Y-115899000D02*
X190858000Y-115899000D01*
D11*
X130087666Y-89947142D02*
X130135285Y-89994761D01*
X130278142Y-90042380D01*
X130373380Y-90042380D01*
X130516238Y-89994761D01*
X130611476Y-89899523D01*
X130659095Y-89804285D01*
X130706714Y-89613809D01*
X130706714Y-89470952D01*
X130659095Y-89280476D01*
X130611476Y-89185238D01*
X130516238Y-89090000D01*
X130373380Y-89042380D01*
X130278142Y-89042380D01*
X130135285Y-89090000D01*
X130087666Y-89137619D01*
X129230523Y-89042380D02*
X129421000Y-89042380D01*
X129516238Y-89090000D01*
X129563857Y-89137619D01*
X129659095Y-89280476D01*
X129706714Y-89470952D01*
X129706714Y-89851904D01*
X129659095Y-89947142D01*
X129611476Y-89994761D01*
X129516238Y-90042380D01*
X129325761Y-90042380D01*
X129230523Y-89994761D01*
X129182904Y-89947142D01*
X129135285Y-89851904D01*
X129135285Y-89613809D01*
X129182904Y-89518571D01*
X129230523Y-89470952D01*
X129325761Y-89423333D01*
X129516238Y-89423333D01*
X129611476Y-89470952D01*
X129659095Y-89518571D01*
X129706714Y-89613809D01*
X147495142Y-104132142D02*
X147542761Y-104084523D01*
X147590380Y-103941666D01*
X147590380Y-103846428D01*
X147542761Y-103703571D01*
X147447523Y-103608333D01*
X147352285Y-103560714D01*
X147161809Y-103513095D01*
X147018952Y-103513095D01*
X146828476Y-103560714D01*
X146733238Y-103608333D01*
X146638000Y-103703571D01*
X146590380Y-103846428D01*
X146590380Y-103941666D01*
X146638000Y-104084523D01*
X146685619Y-104132142D01*
X147590380Y-105084523D02*
X147590380Y-104513095D01*
X147590380Y-104798809D02*
X146590380Y-104798809D01*
X146733238Y-104703571D01*
X146828476Y-104608333D01*
X146876095Y-104513095D01*
X147590380Y-106036904D02*
X147590380Y-105465476D01*
X147590380Y-105751190D02*
X146590380Y-105751190D01*
X146733238Y-105655952D01*
X146828476Y-105560714D01*
X146876095Y-105465476D01*
X143922142Y-98671142D02*
X143969761Y-98623523D01*
X144017380Y-98480666D01*
X144017380Y-98385428D01*
X143969761Y-98242571D01*
X143874523Y-98147333D01*
X143779285Y-98099714D01*
X143588809Y-98052095D01*
X143445952Y-98052095D01*
X143255476Y-98099714D01*
X143160238Y-98147333D01*
X143065000Y-98242571D01*
X143017380Y-98385428D01*
X143017380Y-98480666D01*
X143065000Y-98623523D01*
X143112619Y-98671142D01*
X144017380Y-99623523D02*
X144017380Y-99052095D01*
X144017380Y-99337809D02*
X143017380Y-99337809D01*
X143160238Y-99242571D01*
X143255476Y-99147333D01*
X143303095Y-99052095D01*
X143112619Y-100004476D02*
X143065000Y-100052095D01*
X143017380Y-100147333D01*
X143017380Y-100385428D01*
X143065000Y-100480666D01*
X143112619Y-100528285D01*
X143207857Y-100575904D01*
X143303095Y-100575904D01*
X143445952Y-100528285D01*
X144017380Y-99956857D01*
X144017380Y-100575904D01*
X211503142Y-100195142D02*
X211550761Y-100147523D01*
X211598380Y-100004666D01*
X211598380Y-99909428D01*
X211550761Y-99766571D01*
X211455523Y-99671333D01*
X211360285Y-99623714D01*
X211169809Y-99576095D01*
X211026952Y-99576095D01*
X210836476Y-99623714D01*
X210741238Y-99671333D01*
X210646000Y-99766571D01*
X210598380Y-99909428D01*
X210598380Y-100004666D01*
X210646000Y-100147523D01*
X210693619Y-100195142D01*
X210598380Y-101099904D02*
X210598380Y-100623714D01*
X211074571Y-100576095D01*
X211026952Y-100623714D01*
X210979333Y-100718952D01*
X210979333Y-100957047D01*
X211026952Y-101052285D01*
X211074571Y-101099904D01*
X211169809Y-101147523D01*
X211407904Y-101147523D01*
X211503142Y-101099904D01*
X211550761Y-101052285D01*
X211598380Y-100957047D01*
X211598380Y-100718952D01*
X211550761Y-100623714D01*
X211503142Y-100576095D01*
X211598380Y-102099904D02*
X211598380Y-101528476D01*
X211598380Y-101814190D02*
X210598380Y-101814190D01*
X210741238Y-101718952D01*
X210836476Y-101623714D01*
X210884095Y-101528476D01*
X191650857Y-105822142D02*
X191698476Y-105869761D01*
X191841333Y-105917380D01*
X191936571Y-105917380D01*
X192079428Y-105869761D01*
X192174666Y-105774523D01*
X192222285Y-105679285D01*
X192269904Y-105488809D01*
X192269904Y-105345952D01*
X192222285Y-105155476D01*
X192174666Y-105060238D01*
X192079428Y-104965000D01*
X191936571Y-104917380D01*
X191841333Y-104917380D01*
X191698476Y-104965000D01*
X191650857Y-105012619D01*
X190746095Y-104917380D02*
X191222285Y-104917380D01*
X191269904Y-105393571D01*
X191222285Y-105345952D01*
X191127047Y-105298333D01*
X190888952Y-105298333D01*
X190793714Y-105345952D01*
X190746095Y-105393571D01*
X190698476Y-105488809D01*
X190698476Y-105726904D01*
X190746095Y-105822142D01*
X190793714Y-105869761D01*
X190888952Y-105917380D01*
X191127047Y-105917380D01*
X191222285Y-105869761D01*
X191269904Y-105822142D01*
X190317523Y-105012619D02*
X190269904Y-104965000D01*
X190174666Y-104917380D01*
X189936571Y-104917380D01*
X189841333Y-104965000D01*
X189793714Y-105012619D01*
X189746095Y-105107857D01*
X189746095Y-105203095D01*
X189793714Y-105345952D01*
X190365142Y-105917380D01*
X189746095Y-105917380D01*
X205661142Y-100195142D02*
X205708761Y-100147523D01*
X205756380Y-100004666D01*
X205756380Y-99909428D01*
X205708761Y-99766571D01*
X205613523Y-99671333D01*
X205518285Y-99623714D01*
X205327809Y-99576095D01*
X205184952Y-99576095D01*
X204994476Y-99623714D01*
X204899238Y-99671333D01*
X204804000Y-99766571D01*
X204756380Y-99909428D01*
X204756380Y-100004666D01*
X204804000Y-100147523D01*
X204851619Y-100195142D01*
X204756380Y-101099904D02*
X204756380Y-100623714D01*
X205232571Y-100576095D01*
X205184952Y-100623714D01*
X205137333Y-100718952D01*
X205137333Y-100957047D01*
X205184952Y-101052285D01*
X205232571Y-101099904D01*
X205327809Y-101147523D01*
X205565904Y-101147523D01*
X205661142Y-101099904D01*
X205708761Y-101052285D01*
X205756380Y-100957047D01*
X205756380Y-100718952D01*
X205708761Y-100623714D01*
X205661142Y-100576095D01*
X204756380Y-101480857D02*
X204756380Y-102099904D01*
X205137333Y-101766571D01*
X205137333Y-101909428D01*
X205184952Y-102004666D01*
X205232571Y-102052285D01*
X205327809Y-102099904D01*
X205565904Y-102099904D01*
X205661142Y-102052285D01*
X205708761Y-102004666D01*
X205756380Y-101909428D01*
X205756380Y-101623714D01*
X205708761Y-101528476D01*
X205661142Y-101480857D01*
X206787142Y-109847142D02*
X206834761Y-109799523D01*
X206882380Y-109656666D01*
X206882380Y-109561428D01*
X206834761Y-109418571D01*
X206739523Y-109323333D01*
X206644285Y-109275714D01*
X206453809Y-109228095D01*
X206310952Y-109228095D01*
X206120476Y-109275714D01*
X206025238Y-109323333D01*
X205930000Y-109418571D01*
X205882380Y-109561428D01*
X205882380Y-109656666D01*
X205930000Y-109799523D01*
X205977619Y-109847142D01*
X205882380Y-110751904D02*
X205882380Y-110275714D01*
X206358571Y-110228095D01*
X206310952Y-110275714D01*
X206263333Y-110370952D01*
X206263333Y-110609047D01*
X206310952Y-110704285D01*
X206358571Y-110751904D01*
X206453809Y-110799523D01*
X206691904Y-110799523D01*
X206787142Y-110751904D01*
X206834761Y-110704285D01*
X206882380Y-110609047D01*
X206882380Y-110370952D01*
X206834761Y-110275714D01*
X206787142Y-110228095D01*
X206215714Y-111656666D02*
X206882380Y-111656666D01*
X205834761Y-111418571D02*
X206549047Y-111180476D01*
X206549047Y-111799523D01*
X199929142Y-122801142D02*
X199976761Y-122753523D01*
X200024380Y-122610666D01*
X200024380Y-122515428D01*
X199976761Y-122372571D01*
X199881523Y-122277333D01*
X199786285Y-122229714D01*
X199595809Y-122182095D01*
X199452952Y-122182095D01*
X199262476Y-122229714D01*
X199167238Y-122277333D01*
X199072000Y-122372571D01*
X199024380Y-122515428D01*
X199024380Y-122610666D01*
X199072000Y-122753523D01*
X199119619Y-122801142D01*
X199024380Y-123705904D02*
X199024380Y-123229714D01*
X199500571Y-123182095D01*
X199452952Y-123229714D01*
X199405333Y-123324952D01*
X199405333Y-123563047D01*
X199452952Y-123658285D01*
X199500571Y-123705904D01*
X199595809Y-123753523D01*
X199833904Y-123753523D01*
X199929142Y-123705904D01*
X199976761Y-123658285D01*
X200024380Y-123563047D01*
X200024380Y-123324952D01*
X199976761Y-123229714D01*
X199929142Y-123182095D01*
X199024380Y-124658285D02*
X199024380Y-124182095D01*
X199500571Y-124134476D01*
X199452952Y-124182095D01*
X199405333Y-124277333D01*
X199405333Y-124515428D01*
X199452952Y-124610666D01*
X199500571Y-124658285D01*
X199595809Y-124705904D01*
X199833904Y-124705904D01*
X199929142Y-124658285D01*
X199976761Y-124610666D01*
X200024380Y-124515428D01*
X200024380Y-124277333D01*
X199976761Y-124182095D01*
X199929142Y-124134476D01*
X206787142Y-118737142D02*
X206834761Y-118689523D01*
X206882380Y-118546666D01*
X206882380Y-118451428D01*
X206834761Y-118308571D01*
X206739523Y-118213333D01*
X206644285Y-118165714D01*
X206453809Y-118118095D01*
X206310952Y-118118095D01*
X206120476Y-118165714D01*
X206025238Y-118213333D01*
X205930000Y-118308571D01*
X205882380Y-118451428D01*
X205882380Y-118546666D01*
X205930000Y-118689523D01*
X205977619Y-118737142D01*
X205882380Y-119641904D02*
X205882380Y-119165714D01*
X206358571Y-119118095D01*
X206310952Y-119165714D01*
X206263333Y-119260952D01*
X206263333Y-119499047D01*
X206310952Y-119594285D01*
X206358571Y-119641904D01*
X206453809Y-119689523D01*
X206691904Y-119689523D01*
X206787142Y-119641904D01*
X206834761Y-119594285D01*
X206882380Y-119499047D01*
X206882380Y-119260952D01*
X206834761Y-119165714D01*
X206787142Y-119118095D01*
X205882380Y-120546666D02*
X205882380Y-120356190D01*
X205930000Y-120260952D01*
X205977619Y-120213333D01*
X206120476Y-120118095D01*
X206310952Y-120070476D01*
X206691904Y-120070476D01*
X206787142Y-120118095D01*
X206834761Y-120165714D01*
X206882380Y-120260952D01*
X206882380Y-120451428D01*
X206834761Y-120546666D01*
X206787142Y-120594285D01*
X206691904Y-120641904D01*
X206453809Y-120641904D01*
X206358571Y-120594285D01*
X206310952Y-120546666D01*
X206263333Y-120451428D01*
X206263333Y-120260952D01*
X206310952Y-120165714D01*
X206358571Y-120118095D01*
X206453809Y-120070476D01*
X192707142Y-98417142D02*
X192754761Y-98369523D01*
X192802380Y-98226666D01*
X192802380Y-98131428D01*
X192754761Y-97988571D01*
X192659523Y-97893333D01*
X192564285Y-97845714D01*
X192373809Y-97798095D01*
X192230952Y-97798095D01*
X192040476Y-97845714D01*
X191945238Y-97893333D01*
X191850000Y-97988571D01*
X191802380Y-98131428D01*
X191802380Y-98226666D01*
X191850000Y-98369523D01*
X191897619Y-98417142D01*
X191802380Y-99321904D02*
X191802380Y-98845714D01*
X192278571Y-98798095D01*
X192230952Y-98845714D01*
X192183333Y-98940952D01*
X192183333Y-99179047D01*
X192230952Y-99274285D01*
X192278571Y-99321904D01*
X192373809Y-99369523D01*
X192611904Y-99369523D01*
X192707142Y-99321904D01*
X192754761Y-99274285D01*
X192802380Y-99179047D01*
X192802380Y-98940952D01*
X192754761Y-98845714D01*
X192707142Y-98798095D01*
X191802380Y-99702857D02*
X191802380Y-100369523D01*
X192802380Y-99940952D01*
X201216142Y-100195142D02*
X201263761Y-100147523D01*
X201311380Y-100004666D01*
X201311380Y-99909428D01*
X201263761Y-99766571D01*
X201168523Y-99671333D01*
X201073285Y-99623714D01*
X200882809Y-99576095D01*
X200739952Y-99576095D01*
X200549476Y-99623714D01*
X200454238Y-99671333D01*
X200359000Y-99766571D01*
X200311380Y-99909428D01*
X200311380Y-100004666D01*
X200359000Y-100147523D01*
X200406619Y-100195142D01*
X200311380Y-101099904D02*
X200311380Y-100623714D01*
X200787571Y-100576095D01*
X200739952Y-100623714D01*
X200692333Y-100718952D01*
X200692333Y-100957047D01*
X200739952Y-101052285D01*
X200787571Y-101099904D01*
X200882809Y-101147523D01*
X201120904Y-101147523D01*
X201216142Y-101099904D01*
X201263761Y-101052285D01*
X201311380Y-100957047D01*
X201311380Y-100718952D01*
X201263761Y-100623714D01*
X201216142Y-100576095D01*
X200739952Y-101718952D02*
X200692333Y-101623714D01*
X200644714Y-101576095D01*
X200549476Y-101528476D01*
X200501857Y-101528476D01*
X200406619Y-101576095D01*
X200359000Y-101623714D01*
X200311380Y-101718952D01*
X200311380Y-101909428D01*
X200359000Y-102004666D01*
X200406619Y-102052285D01*
X200501857Y-102099904D01*
X200549476Y-102099904D01*
X200644714Y-102052285D01*
X200692333Y-102004666D01*
X200739952Y-101909428D01*
X200739952Y-101718952D01*
X200787571Y-101623714D01*
X200835190Y-101576095D01*
X200930428Y-101528476D01*
X201120904Y-101528476D01*
X201216142Y-101576095D01*
X201263761Y-101623714D01*
X201311380Y-101718952D01*
X201311380Y-101909428D01*
X201263761Y-102004666D01*
X201216142Y-102052285D01*
X201120904Y-102099904D01*
X200930428Y-102099904D01*
X200835190Y-102052285D01*
X200787571Y-102004666D01*
X200739952Y-101909428D01*
X203866142Y-122801142D02*
X203913761Y-122753523D01*
X203961380Y-122610666D01*
X203961380Y-122515428D01*
X203913761Y-122372571D01*
X203818523Y-122277333D01*
X203723285Y-122229714D01*
X203532809Y-122182095D01*
X203389952Y-122182095D01*
X203199476Y-122229714D01*
X203104238Y-122277333D01*
X203009000Y-122372571D01*
X202961380Y-122515428D01*
X202961380Y-122610666D01*
X203009000Y-122753523D01*
X203056619Y-122801142D01*
X202961380Y-123705904D02*
X202961380Y-123229714D01*
X203437571Y-123182095D01*
X203389952Y-123229714D01*
X203342333Y-123324952D01*
X203342333Y-123563047D01*
X203389952Y-123658285D01*
X203437571Y-123705904D01*
X203532809Y-123753523D01*
X203770904Y-123753523D01*
X203866142Y-123705904D01*
X203913761Y-123658285D01*
X203961380Y-123563047D01*
X203961380Y-123324952D01*
X203913761Y-123229714D01*
X203866142Y-123182095D01*
X203961380Y-124229714D02*
X203961380Y-124420190D01*
X203913761Y-124515428D01*
X203866142Y-124563047D01*
X203723285Y-124658285D01*
X203532809Y-124705904D01*
X203151857Y-124705904D01*
X203056619Y-124658285D01*
X203009000Y-124610666D01*
X202961380Y-124515428D01*
X202961380Y-124324952D01*
X203009000Y-124229714D01*
X203056619Y-124182095D01*
X203151857Y-124134476D01*
X203389952Y-124134476D01*
X203485190Y-124182095D01*
X203532809Y-124229714D01*
X203580428Y-124324952D01*
X203580428Y-124515428D01*
X203532809Y-124610666D01*
X203485190Y-124658285D01*
X203389952Y-124705904D01*
X195992142Y-122801142D02*
X196039761Y-122753523D01*
X196087380Y-122610666D01*
X196087380Y-122515428D01*
X196039761Y-122372571D01*
X195944523Y-122277333D01*
X195849285Y-122229714D01*
X195658809Y-122182095D01*
X195515952Y-122182095D01*
X195325476Y-122229714D01*
X195230238Y-122277333D01*
X195135000Y-122372571D01*
X195087380Y-122515428D01*
X195087380Y-122610666D01*
X195135000Y-122753523D01*
X195182619Y-122801142D01*
X195087380Y-123658285D02*
X195087380Y-123467809D01*
X195135000Y-123372571D01*
X195182619Y-123324952D01*
X195325476Y-123229714D01*
X195515952Y-123182095D01*
X195896904Y-123182095D01*
X195992142Y-123229714D01*
X196039761Y-123277333D01*
X196087380Y-123372571D01*
X196087380Y-123563047D01*
X196039761Y-123658285D01*
X195992142Y-123705904D01*
X195896904Y-123753523D01*
X195658809Y-123753523D01*
X195563571Y-123705904D01*
X195515952Y-123658285D01*
X195468333Y-123563047D01*
X195468333Y-123372571D01*
X195515952Y-123277333D01*
X195563571Y-123229714D01*
X195658809Y-123182095D01*
X195087380Y-124372571D02*
X195087380Y-124467809D01*
X195135000Y-124563047D01*
X195182619Y-124610666D01*
X195277857Y-124658285D01*
X195468333Y-124705904D01*
X195706428Y-124705904D01*
X195896904Y-124658285D01*
X195992142Y-124610666D01*
X196039761Y-124563047D01*
X196087380Y-124467809D01*
X196087380Y-124372571D01*
X196039761Y-124277333D01*
X195992142Y-124229714D01*
X195896904Y-124182095D01*
X195706428Y-124134476D01*
X195468333Y-124134476D01*
X195277857Y-124182095D01*
X195182619Y-124229714D01*
X195135000Y-124277333D01*
X195087380Y-124372571D01*
X191650857Y-113696142D02*
X191698476Y-113743761D01*
X191841333Y-113791380D01*
X191936571Y-113791380D01*
X192079428Y-113743761D01*
X192174666Y-113648523D01*
X192222285Y-113553285D01*
X192269904Y-113362809D01*
X192269904Y-113219952D01*
X192222285Y-113029476D01*
X192174666Y-112934238D01*
X192079428Y-112839000D01*
X191936571Y-112791380D01*
X191841333Y-112791380D01*
X191698476Y-112839000D01*
X191650857Y-112886619D01*
X190793714Y-112791380D02*
X190984190Y-112791380D01*
X191079428Y-112839000D01*
X191127047Y-112886619D01*
X191222285Y-113029476D01*
X191269904Y-113219952D01*
X191269904Y-113600904D01*
X191222285Y-113696142D01*
X191174666Y-113743761D01*
X191079428Y-113791380D01*
X190888952Y-113791380D01*
X190793714Y-113743761D01*
X190746095Y-113696142D01*
X190698476Y-113600904D01*
X190698476Y-113362809D01*
X190746095Y-113267571D01*
X190793714Y-113219952D01*
X190888952Y-113172333D01*
X191079428Y-113172333D01*
X191174666Y-113219952D01*
X191222285Y-113267571D01*
X191269904Y-113362809D01*
X189746095Y-113791380D02*
X190317523Y-113791380D01*
X190031809Y-113791380D02*
X190031809Y-112791380D01*
X190127047Y-112934238D01*
X190222285Y-113029476D01*
X190317523Y-113077095D01*
%LPC*%
D12*
X80772000Y-77089000D03*
G36*
G01*
X94872000Y-75889000D02*
X94872000Y-78289000D01*
G75*
G02*
X94672000Y-78489000I-200000J0D01*
G01*
X92272000Y-78489000D01*
G75*
G02*
X92072000Y-78289000I0J200000D01*
G01*
X92072000Y-75889000D01*
G75*
G02*
X92272000Y-75689000I200000J0D01*
G01*
X94672000Y-75689000D01*
G75*
G02*
X94872000Y-75889000I0J-200000D01*
G01*
G37*
D13*
X217170000Y-134620000D03*
D14*
X207010000Y-134620000D03*
X88900000Y-95330000D03*
G36*
G01*
X89700000Y-101330000D02*
X88100000Y-101330000D01*
G75*
G02*
X87900000Y-101130000I0J200000D01*
G01*
X87900000Y-99530000D01*
G75*
G02*
X88100000Y-99330000I200000J0D01*
G01*
X89700000Y-99330000D01*
G75*
G02*
X89900000Y-99530000I0J-200000D01*
G01*
X89900000Y-101130000D01*
G75*
G02*
X89700000Y-101330000I-200000J0D01*
G01*
G37*
X88900000Y-82630000D03*
G36*
G01*
X89700000Y-88630000D02*
X88100000Y-88630000D01*
G75*
G02*
X87900000Y-88430000I0J200000D01*
G01*
X87900000Y-86830000D01*
G75*
G02*
X88100000Y-86630000I200000J0D01*
G01*
X89700000Y-86630000D01*
G75*
G02*
X89900000Y-86830000I0J-200000D01*
G01*
X89900000Y-88430000D01*
G75*
G02*
X89700000Y-88630000I-200000J0D01*
G01*
G37*
G36*
G01*
X151169000Y-101439000D02*
X152869000Y-101439000D01*
G75*
G02*
X153069000Y-101639000I0J-200000D01*
G01*
X153069000Y-103339000D01*
G75*
G02*
X152869000Y-103539000I-200000J0D01*
G01*
X151169000Y-103539000D01*
G75*
G02*
X150969000Y-103339000I0J200000D01*
G01*
X150969000Y-101639000D01*
G75*
G02*
X151169000Y-101439000I200000J0D01*
G01*
G37*
G36*
G01*
X82589000Y-133189000D02*
X84289000Y-133189000D01*
G75*
G02*
X84489000Y-133389000I0J-200000D01*
G01*
X84489000Y-135089000D01*
G75*
G02*
X84289000Y-135289000I-200000J0D01*
G01*
X82589000Y-135289000D01*
G75*
G02*
X82389000Y-135089000I0J200000D01*
G01*
X82389000Y-133389000D01*
G75*
G02*
X82589000Y-133189000I200000J0D01*
G01*
G37*
G36*
G01*
X88685000Y-139920000D02*
X90385000Y-139920000D01*
G75*
G02*
X90585000Y-140120000I0J-200000D01*
G01*
X90585000Y-141820000D01*
G75*
G02*
X90385000Y-142020000I-200000J0D01*
G01*
X88685000Y-142020000D01*
G75*
G02*
X88485000Y-141820000I0J200000D01*
G01*
X88485000Y-140120000D01*
G75*
G02*
X88685000Y-139920000I200000J0D01*
G01*
G37*
G36*
G01*
X99607000Y-94708000D02*
X101307000Y-94708000D01*
G75*
G02*
X101507000Y-94908000I0J-200000D01*
G01*
X101507000Y-96608000D01*
G75*
G02*
X101307000Y-96808000I-200000J0D01*
G01*
X99607000Y-96808000D01*
G75*
G02*
X99407000Y-96608000I0J200000D01*
G01*
X99407000Y-94908000D01*
G75*
G02*
X99607000Y-94708000I200000J0D01*
G01*
G37*
G36*
G01*
X82589000Y-137507000D02*
X84289000Y-137507000D01*
G75*
G02*
X84489000Y-137707000I0J-200000D01*
G01*
X84489000Y-139407000D01*
G75*
G02*
X84289000Y-139607000I-200000J0D01*
G01*
X82589000Y-139607000D01*
G75*
G02*
X82389000Y-139407000I0J200000D01*
G01*
X82389000Y-137707000D01*
G75*
G02*
X82589000Y-137507000I200000J0D01*
G01*
G37*
G36*
G01*
X102655000Y-82770000D02*
X104355000Y-82770000D01*
G75*
G02*
X104555000Y-82970000I0J-200000D01*
G01*
X104555000Y-84670000D01*
G75*
G02*
X104355000Y-84870000I-200000J0D01*
G01*
X102655000Y-84870000D01*
G75*
G02*
X102455000Y-84670000I0J200000D01*
G01*
X102455000Y-82970000D01*
G75*
G02*
X102655000Y-82770000I200000J0D01*
G01*
G37*
D15*
X187960000Y-88138000D03*
X189230000Y-89408000D03*
G36*
G01*
X187190000Y-90108000D02*
X186190000Y-90108000D01*
G75*
G02*
X185990000Y-89908000I0J200000D01*
G01*
X185990000Y-88908000D01*
G75*
G02*
X186190000Y-88708000I200000J0D01*
G01*
X187190000Y-88708000D01*
G75*
G02*
X187390000Y-88908000I0J-200000D01*
G01*
X187390000Y-89908000D01*
G75*
G02*
X187190000Y-90108000I-200000J0D01*
G01*
G37*
D16*
X113284000Y-73533000D03*
X113284000Y-76073000D03*
G36*
G01*
X114334000Y-77763000D02*
X114334000Y-79463000D01*
G75*
G02*
X114134000Y-79663000I-200000J0D01*
G01*
X112434000Y-79663000D01*
G75*
G02*
X112234000Y-79463000I0J200000D01*
G01*
X112234000Y-77763000D01*
G75*
G02*
X112434000Y-77563000I200000J0D01*
G01*
X114134000Y-77563000D01*
G75*
G02*
X114334000Y-77763000I0J-200000D01*
G01*
G37*
X110744000Y-73533000D03*
X110744000Y-76073000D03*
G36*
G01*
X111794000Y-77763000D02*
X111794000Y-79463000D01*
G75*
G02*
X111594000Y-79663000I-200000J0D01*
G01*
X109894000Y-79663000D01*
G75*
G02*
X109694000Y-79463000I0J200000D01*
G01*
X109694000Y-77763000D01*
G75*
G02*
X109894000Y-77563000I200000J0D01*
G01*
X111594000Y-77563000D01*
G75*
G02*
X111794000Y-77763000I0J-200000D01*
G01*
G37*
X108204000Y-73533000D03*
X108204000Y-76073000D03*
G36*
G01*
X109254000Y-77763000D02*
X109254000Y-79463000D01*
G75*
G02*
X109054000Y-79663000I-200000J0D01*
G01*
X107354000Y-79663000D01*
G75*
G02*
X107154000Y-79463000I0J200000D01*
G01*
X107154000Y-77763000D01*
G75*
G02*
X107354000Y-77563000I200000J0D01*
G01*
X109054000Y-77563000D01*
G75*
G02*
X109254000Y-77763000I0J-200000D01*
G01*
G37*
G36*
G01*
X129651000Y-90689999D02*
X129651000Y-92190001D01*
G75*
G02*
X129451001Y-92390000I-199999J0D01*
G01*
X128480999Y-92390000D01*
G75*
G02*
X128281000Y-92190001I0J199999D01*
G01*
X128281000Y-90689999D01*
G75*
G02*
X128480999Y-90490000I199999J0D01*
G01*
X129451001Y-90490000D01*
G75*
G02*
X129651000Y-90689999I0J-199999D01*
G01*
G37*
G36*
G01*
X131561000Y-90689999D02*
X131561000Y-92190001D01*
G75*
G02*
X131361001Y-92390000I-199999J0D01*
G01*
X130390999Y-92390000D01*
G75*
G02*
X130191000Y-92190001I0J199999D01*
G01*
X130191000Y-90689999D01*
G75*
G02*
X130390999Y-90490000I199999J0D01*
G01*
X131361001Y-90490000D01*
G75*
G02*
X131561000Y-90689999I0J-199999D01*
G01*
G37*
G36*
G01*
X146038001Y-104505000D02*
X144537999Y-104505000D01*
G75*
G02*
X144338000Y-104305001I0J199999D01*
G01*
X144338000Y-103334999D01*
G75*
G02*
X144537999Y-103135000I199999J0D01*
G01*
X146038001Y-103135000D01*
G75*
G02*
X146238000Y-103334999I0J-199999D01*
G01*
X146238000Y-104305001D01*
G75*
G02*
X146038001Y-104505000I-199999J0D01*
G01*
G37*
G36*
G01*
X146038001Y-106415000D02*
X144537999Y-106415000D01*
G75*
G02*
X144338000Y-106215001I0J199999D01*
G01*
X144338000Y-105244999D01*
G75*
G02*
X144537999Y-105045000I199999J0D01*
G01*
X146038001Y-105045000D01*
G75*
G02*
X146238000Y-105244999I0J-199999D01*
G01*
X146238000Y-106215001D01*
G75*
G02*
X146038001Y-106415000I-199999J0D01*
G01*
G37*
G36*
G01*
X144664999Y-99584000D02*
X146165001Y-99584000D01*
G75*
G02*
X146365000Y-99783999I0J-199999D01*
G01*
X146365000Y-100754001D01*
G75*
G02*
X146165001Y-100954000I-199999J0D01*
G01*
X144664999Y-100954000D01*
G75*
G02*
X144465000Y-100754001I0J199999D01*
G01*
X144465000Y-99783999D01*
G75*
G02*
X144664999Y-99584000I199999J0D01*
G01*
G37*
G36*
G01*
X144664999Y-97674000D02*
X146165001Y-97674000D01*
G75*
G02*
X146365000Y-97873999I0J-199999D01*
G01*
X146365000Y-98844001D01*
G75*
G02*
X146165001Y-99044000I-199999J0D01*
G01*
X144664999Y-99044000D01*
G75*
G02*
X144465000Y-98844001I0J199999D01*
G01*
X144465000Y-97873999D01*
G75*
G02*
X144664999Y-97674000I199999J0D01*
G01*
G37*
G36*
G01*
X210046001Y-100568000D02*
X208545999Y-100568000D01*
G75*
G02*
X208346000Y-100368001I0J199999D01*
G01*
X208346000Y-99397999D01*
G75*
G02*
X208545999Y-99198000I199999J0D01*
G01*
X210046001Y-99198000D01*
G75*
G02*
X210246000Y-99397999I0J-199999D01*
G01*
X210246000Y-100368001D01*
G75*
G02*
X210046001Y-100568000I-199999J0D01*
G01*
G37*
G36*
G01*
X210046001Y-102478000D02*
X208545999Y-102478000D01*
G75*
G02*
X208346000Y-102278001I0J199999D01*
G01*
X208346000Y-101307999D01*
G75*
G02*
X208545999Y-101108000I199999J0D01*
G01*
X210046001Y-101108000D01*
G75*
G02*
X210246000Y-101307999I0J-199999D01*
G01*
X210246000Y-102278001D01*
G75*
G02*
X210046001Y-102478000I-199999J0D01*
G01*
G37*
G36*
G01*
X190738000Y-106564999D02*
X190738000Y-108065001D01*
G75*
G02*
X190538001Y-108265000I-199999J0D01*
G01*
X189567999Y-108265000D01*
G75*
G02*
X189368000Y-108065001I0J199999D01*
G01*
X189368000Y-106564999D01*
G75*
G02*
X189567999Y-106365000I199999J0D01*
G01*
X190538001Y-106365000D01*
G75*
G02*
X190738000Y-106564999I0J-199999D01*
G01*
G37*
G36*
G01*
X192648000Y-106564999D02*
X192648000Y-108065001D01*
G75*
G02*
X192448001Y-108265000I-199999J0D01*
G01*
X191477999Y-108265000D01*
G75*
G02*
X191278000Y-108065001I0J199999D01*
G01*
X191278000Y-106564999D01*
G75*
G02*
X191477999Y-106365000I199999J0D01*
G01*
X192448001Y-106365000D01*
G75*
G02*
X192648000Y-106564999I0J-199999D01*
G01*
G37*
G36*
G01*
X204204001Y-100568000D02*
X202703999Y-100568000D01*
G75*
G02*
X202504000Y-100368001I0J199999D01*
G01*
X202504000Y-99397999D01*
G75*
G02*
X202703999Y-99198000I199999J0D01*
G01*
X204204001Y-99198000D01*
G75*
G02*
X204404000Y-99397999I0J-199999D01*
G01*
X204404000Y-100368001D01*
G75*
G02*
X204204001Y-100568000I-199999J0D01*
G01*
G37*
G36*
G01*
X204204001Y-102478000D02*
X202703999Y-102478000D01*
G75*
G02*
X202504000Y-102278001I0J199999D01*
G01*
X202504000Y-101307999D01*
G75*
G02*
X202703999Y-101108000I199999J0D01*
G01*
X204204001Y-101108000D01*
G75*
G02*
X204404000Y-101307999I0J-199999D01*
G01*
X204404000Y-102278001D01*
G75*
G02*
X204204001Y-102478000I-199999J0D01*
G01*
G37*
G36*
G01*
X207529999Y-110760000D02*
X209030001Y-110760000D01*
G75*
G02*
X209230000Y-110959999I0J-199999D01*
G01*
X209230000Y-111930001D01*
G75*
G02*
X209030001Y-112130000I-199999J0D01*
G01*
X207529999Y-112130000D01*
G75*
G02*
X207330000Y-111930001I0J199999D01*
G01*
X207330000Y-110959999D01*
G75*
G02*
X207529999Y-110760000I199999J0D01*
G01*
G37*
G36*
G01*
X207529999Y-108850000D02*
X209030001Y-108850000D01*
G75*
G02*
X209230000Y-109049999I0J-199999D01*
G01*
X209230000Y-110020001D01*
G75*
G02*
X209030001Y-110220000I-199999J0D01*
G01*
X207529999Y-110220000D01*
G75*
G02*
X207330000Y-110020001I0J199999D01*
G01*
X207330000Y-109049999D01*
G75*
G02*
X207529999Y-108850000I199999J0D01*
G01*
G37*
G36*
G01*
X200671999Y-123714000D02*
X202172001Y-123714000D01*
G75*
G02*
X202372000Y-123913999I0J-199999D01*
G01*
X202372000Y-124884001D01*
G75*
G02*
X202172001Y-125084000I-199999J0D01*
G01*
X200671999Y-125084000D01*
G75*
G02*
X200472000Y-124884001I0J199999D01*
G01*
X200472000Y-123913999D01*
G75*
G02*
X200671999Y-123714000I199999J0D01*
G01*
G37*
G36*
G01*
X200671999Y-121804000D02*
X202172001Y-121804000D01*
G75*
G02*
X202372000Y-122003999I0J-199999D01*
G01*
X202372000Y-122974001D01*
G75*
G02*
X202172001Y-123174000I-199999J0D01*
G01*
X200671999Y-123174000D01*
G75*
G02*
X200472000Y-122974001I0J199999D01*
G01*
X200472000Y-122003999D01*
G75*
G02*
X200671999Y-121804000I199999J0D01*
G01*
G37*
G36*
G01*
X207529999Y-119650000D02*
X209030001Y-119650000D01*
G75*
G02*
X209230000Y-119849999I0J-199999D01*
G01*
X209230000Y-120820001D01*
G75*
G02*
X209030001Y-121020000I-199999J0D01*
G01*
X207529999Y-121020000D01*
G75*
G02*
X207330000Y-120820001I0J199999D01*
G01*
X207330000Y-119849999D01*
G75*
G02*
X207529999Y-119650000I199999J0D01*
G01*
G37*
G36*
G01*
X207529999Y-117740000D02*
X209030001Y-117740000D01*
G75*
G02*
X209230000Y-117939999I0J-199999D01*
G01*
X209230000Y-118910001D01*
G75*
G02*
X209030001Y-119110000I-199999J0D01*
G01*
X207529999Y-119110000D01*
G75*
G02*
X207330000Y-118910001I0J199999D01*
G01*
X207330000Y-117939999D01*
G75*
G02*
X207529999Y-117740000I199999J0D01*
G01*
G37*
G36*
G01*
X191250001Y-98790000D02*
X189749999Y-98790000D01*
G75*
G02*
X189550000Y-98590001I0J199999D01*
G01*
X189550000Y-97619999D01*
G75*
G02*
X189749999Y-97420000I199999J0D01*
G01*
X191250001Y-97420000D01*
G75*
G02*
X191450000Y-97619999I0J-199999D01*
G01*
X191450000Y-98590001D01*
G75*
G02*
X191250001Y-98790000I-199999J0D01*
G01*
G37*
G36*
G01*
X191250001Y-100700000D02*
X189749999Y-100700000D01*
G75*
G02*
X189550000Y-100500001I0J199999D01*
G01*
X189550000Y-99529999D01*
G75*
G02*
X189749999Y-99330000I199999J0D01*
G01*
X191250001Y-99330000D01*
G75*
G02*
X191450000Y-99529999I0J-199999D01*
G01*
X191450000Y-100500001D01*
G75*
G02*
X191250001Y-100700000I-199999J0D01*
G01*
G37*
G36*
G01*
X199759001Y-100568000D02*
X198258999Y-100568000D01*
G75*
G02*
X198059000Y-100368001I0J199999D01*
G01*
X198059000Y-99397999D01*
G75*
G02*
X198258999Y-99198000I199999J0D01*
G01*
X199759001Y-99198000D01*
G75*
G02*
X199959000Y-99397999I0J-199999D01*
G01*
X199959000Y-100368001D01*
G75*
G02*
X199759001Y-100568000I-199999J0D01*
G01*
G37*
G36*
G01*
X199759001Y-102478000D02*
X198258999Y-102478000D01*
G75*
G02*
X198059000Y-102278001I0J199999D01*
G01*
X198059000Y-101307999D01*
G75*
G02*
X198258999Y-101108000I199999J0D01*
G01*
X199759001Y-101108000D01*
G75*
G02*
X199959000Y-101307999I0J-199999D01*
G01*
X199959000Y-102278001D01*
G75*
G02*
X199759001Y-102478000I-199999J0D01*
G01*
G37*
G36*
G01*
X204608999Y-123714000D02*
X206109001Y-123714000D01*
G75*
G02*
X206309000Y-123913999I0J-199999D01*
G01*
X206309000Y-124884001D01*
G75*
G02*
X206109001Y-125084000I-199999J0D01*
G01*
X204608999Y-125084000D01*
G75*
G02*
X204409000Y-124884001I0J199999D01*
G01*
X204409000Y-123913999D01*
G75*
G02*
X204608999Y-123714000I199999J0D01*
G01*
G37*
G36*
G01*
X204608999Y-121804000D02*
X206109001Y-121804000D01*
G75*
G02*
X206309000Y-122003999I0J-199999D01*
G01*
X206309000Y-122974001D01*
G75*
G02*
X206109001Y-123174000I-199999J0D01*
G01*
X204608999Y-123174000D01*
G75*
G02*
X204409000Y-122974001I0J199999D01*
G01*
X204409000Y-122003999D01*
G75*
G02*
X204608999Y-121804000I199999J0D01*
G01*
G37*
G36*
G01*
X196734999Y-123714000D02*
X198235001Y-123714000D01*
G75*
G02*
X198435000Y-123913999I0J-199999D01*
G01*
X198435000Y-124884001D01*
G75*
G02*
X198235001Y-125084000I-199999J0D01*
G01*
X196734999Y-125084000D01*
G75*
G02*
X196535000Y-124884001I0J199999D01*
G01*
X196535000Y-123913999D01*
G75*
G02*
X196734999Y-123714000I199999J0D01*
G01*
G37*
G36*
G01*
X196734999Y-121804000D02*
X198235001Y-121804000D01*
G75*
G02*
X198435000Y-122003999I0J-199999D01*
G01*
X198435000Y-122974001D01*
G75*
G02*
X198235001Y-123174000I-199999J0D01*
G01*
X196734999Y-123174000D01*
G75*
G02*
X196535000Y-122974001I0J199999D01*
G01*
X196535000Y-122003999D01*
G75*
G02*
X196734999Y-121804000I199999J0D01*
G01*
G37*
G36*
G01*
X190738000Y-114438999D02*
X190738000Y-115939001D01*
G75*
G02*
X190538001Y-116139000I-199999J0D01*
G01*
X189567999Y-116139000D01*
G75*
G02*
X189368000Y-115939001I0J199999D01*
G01*
X189368000Y-114438999D01*
G75*
G02*
X189567999Y-114239000I199999J0D01*
G01*
X190538001Y-114239000D01*
G75*
G02*
X190738000Y-114438999I0J-199999D01*
G01*
G37*
G36*
G01*
X192648000Y-114438999D02*
X192648000Y-115939001D01*
G75*
G02*
X192448001Y-116139000I-199999J0D01*
G01*
X191477999Y-116139000D01*
G75*
G02*
X191278000Y-115939001I0J199999D01*
G01*
X191278000Y-114438999D01*
G75*
G02*
X191477999Y-114239000I199999J0D01*
G01*
X192448001Y-114239000D01*
G75*
G02*
X192648000Y-114438999I0J-199999D01*
G01*
G37*
D17*
X123444000Y-125677000D03*
X123444000Y-120777000D03*
D16*
X115062000Y-93345000D03*
G36*
G01*
X113372000Y-94395000D02*
X111672000Y-94395000D01*
G75*
G02*
X111472000Y-94195000I0J200000D01*
G01*
X111472000Y-92495000D01*
G75*
G02*
X111672000Y-92295000I200000J0D01*
G01*
X113372000Y-92295000D01*
G75*
G02*
X113572000Y-92495000I0J-200000D01*
G01*
X113572000Y-94195000D01*
G75*
G02*
X113372000Y-94395000I-200000J0D01*
G01*
G37*
X96647000Y-93218000D03*
G36*
G01*
X97697000Y-94908000D02*
X97697000Y-96608000D01*
G75*
G02*
X97497000Y-96808000I-200000J0D01*
G01*
X95797000Y-96808000D01*
G75*
G02*
X95597000Y-96608000I0J200000D01*
G01*
X95597000Y-94908000D01*
G75*
G02*
X95797000Y-94708000I200000J0D01*
G01*
X97497000Y-94708000D01*
G75*
G02*
X97697000Y-94908000I0J-200000D01*
G01*
G37*
X115062000Y-98425000D03*
G36*
G01*
X113372000Y-99475000D02*
X111672000Y-99475000D01*
G75*
G02*
X111472000Y-99275000I0J200000D01*
G01*
X111472000Y-97575000D01*
G75*
G02*
X111672000Y-97375000I200000J0D01*
G01*
X113372000Y-97375000D01*
G75*
G02*
X113572000Y-97575000I0J-200000D01*
G01*
X113572000Y-99275000D01*
G75*
G02*
X113372000Y-99475000I-200000J0D01*
G01*
G37*
X115062000Y-95885000D03*
G36*
G01*
X113372000Y-96935000D02*
X111672000Y-96935000D01*
G75*
G02*
X111472000Y-96735000I0J200000D01*
G01*
X111472000Y-95035000D01*
G75*
G02*
X111672000Y-94835000I200000J0D01*
G01*
X113372000Y-94835000D01*
G75*
G02*
X113572000Y-95035000I0J-200000D01*
G01*
X113572000Y-96735000D01*
G75*
G02*
X113372000Y-96935000I-200000J0D01*
G01*
G37*
X88900000Y-134620000D03*
G36*
G01*
X90590000Y-133570000D02*
X92290000Y-133570000D01*
G75*
G02*
X92490000Y-133770000I0J-200000D01*
G01*
X92490000Y-135470000D01*
G75*
G02*
X92290000Y-135670000I-200000J0D01*
G01*
X90590000Y-135670000D01*
G75*
G02*
X90390000Y-135470000I0J200000D01*
G01*
X90390000Y-133770000D01*
G75*
G02*
X90590000Y-133570000I200000J0D01*
G01*
G37*
X94234000Y-112903000D03*
G36*
G01*
X92544000Y-113953000D02*
X90844000Y-113953000D01*
G75*
G02*
X90644000Y-113753000I0J200000D01*
G01*
X90644000Y-112053000D01*
G75*
G02*
X90844000Y-111853000I200000J0D01*
G01*
X92544000Y-111853000D01*
G75*
G02*
X92744000Y-112053000I0J-200000D01*
G01*
X92744000Y-113753000D01*
G75*
G02*
X92544000Y-113953000I-200000J0D01*
G01*
G37*
X114554000Y-108458000D03*
G36*
G01*
X112864000Y-109508000D02*
X111164000Y-109508000D01*
G75*
G02*
X110964000Y-109308000I0J200000D01*
G01*
X110964000Y-107608000D01*
G75*
G02*
X111164000Y-107408000I200000J0D01*
G01*
X112864000Y-107408000D01*
G75*
G02*
X113064000Y-107608000I0J-200000D01*
G01*
X113064000Y-109308000D01*
G75*
G02*
X112864000Y-109508000I-200000J0D01*
G01*
G37*
X184404000Y-130302000D03*
G36*
G01*
X182714000Y-131352000D02*
X181014000Y-131352000D01*
G75*
G02*
X180814000Y-131152000I0J200000D01*
G01*
X180814000Y-129452000D01*
G75*
G02*
X181014000Y-129252000I200000J0D01*
G01*
X182714000Y-129252000D01*
G75*
G02*
X182914000Y-129452000I0J-200000D01*
G01*
X182914000Y-131152000D01*
G75*
G02*
X182714000Y-131352000I-200000J0D01*
G01*
G37*
X223520000Y-76200000D03*
X223520000Y-73660000D03*
X223520000Y-71120000D03*
X223520000Y-68580000D03*
X223520000Y-66040000D03*
G36*
G01*
X222470000Y-64350000D02*
X222470000Y-62650000D01*
G75*
G02*
X222670000Y-62450000I200000J0D01*
G01*
X224370000Y-62450000D01*
G75*
G02*
X224570000Y-62650000I0J-200000D01*
G01*
X224570000Y-64350000D01*
G75*
G02*
X224370000Y-64550000I-200000J0D01*
G01*
X222670000Y-64550000D01*
G75*
G02*
X222470000Y-64350000I0J200000D01*
G01*
G37*
X115062000Y-88773000D03*
X112522000Y-88773000D03*
X115062000Y-86233000D03*
G36*
G01*
X111472000Y-87083000D02*
X111472000Y-85383000D01*
G75*
G02*
X111672000Y-85183000I200000J0D01*
G01*
X113372000Y-85183000D01*
G75*
G02*
X113572000Y-85383000I0J-200000D01*
G01*
X113572000Y-87083000D01*
G75*
G02*
X113372000Y-87283000I-200000J0D01*
G01*
X111672000Y-87283000D01*
G75*
G02*
X111472000Y-87083000I0J200000D01*
G01*
G37*
X200025000Y-89535000D03*
X197485000Y-89535000D03*
X200025000Y-86995000D03*
G36*
G01*
X196435000Y-87845000D02*
X196435000Y-86145000D01*
G75*
G02*
X196635000Y-85945000I200000J0D01*
G01*
X198335000Y-85945000D01*
G75*
G02*
X198535000Y-86145000I0J-200000D01*
G01*
X198535000Y-87845000D01*
G75*
G02*
X198335000Y-88045000I-200000J0D01*
G01*
X196635000Y-88045000D01*
G75*
G02*
X196435000Y-87845000I0J200000D01*
G01*
G37*
X157607000Y-120523000D03*
X157607000Y-117983000D03*
X160147000Y-120523000D03*
X160147000Y-117983000D03*
X162687000Y-120523000D03*
X162687000Y-117983000D03*
X165227000Y-120523000D03*
G36*
G01*
X164377000Y-116933000D02*
X166077000Y-116933000D01*
G75*
G02*
X166277000Y-117133000I0J-200000D01*
G01*
X166277000Y-118833000D01*
G75*
G02*
X166077000Y-119033000I-200000J0D01*
G01*
X164377000Y-119033000D01*
G75*
G02*
X164177000Y-118833000I0J200000D01*
G01*
X164177000Y-117133000D01*
G75*
G02*
X164377000Y-116933000I200000J0D01*
G01*
G37*
X200025000Y-82169000D03*
X197485000Y-82169000D03*
X200025000Y-79629000D03*
X197485000Y-79629000D03*
X200025000Y-77089000D03*
X197485000Y-77089000D03*
X200025000Y-74549000D03*
G36*
G01*
X196435000Y-75399000D02*
X196435000Y-73699000D01*
G75*
G02*
X196635000Y-73499000I200000J0D01*
G01*
X198335000Y-73499000D01*
G75*
G02*
X198535000Y-73699000I0J-200000D01*
G01*
X198535000Y-75399000D01*
G75*
G02*
X198335000Y-75599000I-200000J0D01*
G01*
X196635000Y-75599000D01*
G75*
G02*
X196435000Y-75399000I0J200000D01*
G01*
G37*
X172085000Y-82169000D03*
X169545000Y-82169000D03*
X172085000Y-79629000D03*
X169545000Y-79629000D03*
X172085000Y-77089000D03*
X169545000Y-77089000D03*
X172085000Y-74549000D03*
G36*
G01*
X168495000Y-75399000D02*
X168495000Y-73699000D01*
G75*
G02*
X168695000Y-73499000I200000J0D01*
G01*
X170395000Y-73499000D01*
G75*
G02*
X170595000Y-73699000I0J-200000D01*
G01*
X170595000Y-75399000D01*
G75*
G02*
X170395000Y-75599000I-200000J0D01*
G01*
X168695000Y-75599000D01*
G75*
G02*
X168495000Y-75399000I0J200000D01*
G01*
G37*
X138303000Y-82169000D03*
X135763000Y-82169000D03*
X138303000Y-79629000D03*
X135763000Y-79629000D03*
X138303000Y-77089000D03*
X135763000Y-77089000D03*
X138303000Y-74549000D03*
G36*
G01*
X134713000Y-75399000D02*
X134713000Y-73699000D01*
G75*
G02*
X134913000Y-73499000I200000J0D01*
G01*
X136613000Y-73499000D01*
G75*
G02*
X136813000Y-73699000I0J-200000D01*
G01*
X136813000Y-75399000D01*
G75*
G02*
X136613000Y-75599000I-200000J0D01*
G01*
X134913000Y-75599000D01*
G75*
G02*
X134713000Y-75399000I0J200000D01*
G01*
G37*
X78867000Y-136779000D03*
X76327000Y-136779000D03*
X78867000Y-134239000D03*
X76327000Y-134239000D03*
X78867000Y-131699000D03*
X76327000Y-131699000D03*
X78867000Y-129159000D03*
X76327000Y-129159000D03*
X78867000Y-126619000D03*
X76327000Y-126619000D03*
X78867000Y-124079000D03*
X76327000Y-124079000D03*
X78867000Y-121539000D03*
X76327000Y-121539000D03*
X78867000Y-118999000D03*
X76327000Y-118999000D03*
X78867000Y-116459000D03*
X76327000Y-116459000D03*
X78867000Y-113919000D03*
X76327000Y-113919000D03*
X78867000Y-111379000D03*
X76327000Y-111379000D03*
X78867000Y-108839000D03*
X76327000Y-108839000D03*
X78867000Y-106299000D03*
G36*
G01*
X75277000Y-107149000D02*
X75277000Y-105449000D01*
G75*
G02*
X75477000Y-105249000I200000J0D01*
G01*
X77177000Y-105249000D01*
G75*
G02*
X77377000Y-105449000I0J-200000D01*
G01*
X77377000Y-107149000D01*
G75*
G02*
X77177000Y-107349000I-200000J0D01*
G01*
X75477000Y-107349000D01*
G75*
G02*
X75277000Y-107149000I0J200000D01*
G01*
G37*
X110744000Y-139446000D03*
X110744000Y-136906000D03*
X113284000Y-139446000D03*
X113284000Y-136906000D03*
X115824000Y-139446000D03*
X115824000Y-136906000D03*
X118364000Y-139446000D03*
X118364000Y-136906000D03*
X120904000Y-139446000D03*
X120904000Y-136906000D03*
X123444000Y-139446000D03*
X123444000Y-136906000D03*
X125984000Y-139446000D03*
X125984000Y-136906000D03*
X128524000Y-139446000D03*
X128524000Y-136906000D03*
X131064000Y-139446000D03*
X131064000Y-136906000D03*
X133604000Y-139446000D03*
X133604000Y-136906000D03*
X136144000Y-139446000D03*
X136144000Y-136906000D03*
X138684000Y-139446000D03*
X138684000Y-136906000D03*
X141224000Y-139446000D03*
X141224000Y-136906000D03*
X143764000Y-139446000D03*
X143764000Y-136906000D03*
X146304000Y-139446000D03*
X146304000Y-136906000D03*
X148844000Y-139446000D03*
X148844000Y-136906000D03*
X151384000Y-139446000D03*
X151384000Y-136906000D03*
X153924000Y-139446000D03*
X153924000Y-136906000D03*
X156464000Y-139446000D03*
X156464000Y-136906000D03*
X159004000Y-139446000D03*
X159004000Y-136906000D03*
X161544000Y-139446000D03*
X161544000Y-136906000D03*
X164084000Y-139446000D03*
X164084000Y-136906000D03*
X166624000Y-139446000D03*
X166624000Y-136906000D03*
X169164000Y-139446000D03*
X169164000Y-136906000D03*
X171704000Y-139446000D03*
X171704000Y-136906000D03*
X174244000Y-139446000D03*
X174244000Y-136906000D03*
X176784000Y-139446000D03*
X176784000Y-136906000D03*
X179324000Y-139446000D03*
X179324000Y-136906000D03*
X181864000Y-139446000D03*
X181864000Y-136906000D03*
X184404000Y-139446000D03*
G36*
G01*
X183554000Y-135856000D02*
X185254000Y-135856000D01*
G75*
G02*
X185454000Y-136056000I0J-200000D01*
G01*
X185454000Y-137756000D01*
G75*
G02*
X185254000Y-137956000I-200000J0D01*
G01*
X183554000Y-137956000D01*
G75*
G02*
X183354000Y-137756000I0J200000D01*
G01*
X183354000Y-136056000D01*
G75*
G02*
X183554000Y-135856000I200000J0D01*
G01*
G37*
X224790000Y-137160000D03*
X222250000Y-137160000D03*
X224790000Y-134620000D03*
X222250000Y-134620000D03*
X224790000Y-132080000D03*
X222250000Y-132080000D03*
X224790000Y-129540000D03*
X222250000Y-129540000D03*
X224790000Y-127000000D03*
X222250000Y-127000000D03*
X224790000Y-124460000D03*
X222250000Y-124460000D03*
X224790000Y-121920000D03*
X222250000Y-121920000D03*
X224790000Y-119380000D03*
X222250000Y-119380000D03*
X224790000Y-116840000D03*
X222250000Y-116840000D03*
X224790000Y-114300000D03*
X222250000Y-114300000D03*
X224790000Y-111760000D03*
X222250000Y-111760000D03*
X224790000Y-109220000D03*
X222250000Y-109220000D03*
X224790000Y-106680000D03*
X222250000Y-106680000D03*
X224790000Y-104140000D03*
X222250000Y-104140000D03*
X224790000Y-101600000D03*
X222250000Y-101600000D03*
X224790000Y-99060000D03*
X222250000Y-99060000D03*
X224790000Y-96520000D03*
X222250000Y-96520000D03*
X224790000Y-93980000D03*
X222250000Y-93980000D03*
X224790000Y-91440000D03*
X222250000Y-91440000D03*
X224790000Y-88900000D03*
G36*
G01*
X221200000Y-89750000D02*
X221200000Y-88050000D01*
G75*
G02*
X221400000Y-87850000I200000J0D01*
G01*
X223100000Y-87850000D01*
G75*
G02*
X223300000Y-88050000I0J-200000D01*
G01*
X223300000Y-89750000D01*
G75*
G02*
X223100000Y-89950000I-200000J0D01*
G01*
X221400000Y-89950000D01*
G75*
G02*
X221200000Y-89750000I0J200000D01*
G01*
G37*
D18*
X100965000Y-60833000D03*
G36*
G01*
X98464700Y-66132700D02*
X103265300Y-66132700D01*
G75*
G02*
X103465300Y-66332700I0J-200000D01*
G01*
X103465300Y-71133300D01*
G75*
G02*
X103265300Y-71333300I-200000J0D01*
G01*
X98464700Y-71333300D01*
G75*
G02*
X98264700Y-71133300I0J200000D01*
G01*
X98264700Y-66332700D01*
G75*
G02*
X98464700Y-66132700I200000J0D01*
G01*
G37*
X94765000Y-63933000D03*
G36*
G01*
X87884000Y-73479000D02*
X85344000Y-73479000D01*
G75*
G02*
X85144000Y-73279000I0J200000D01*
G01*
X85144000Y-69469000D01*
G75*
G02*
X85344000Y-69269000I200000J0D01*
G01*
X87884000Y-69269000D01*
G75*
G02*
X88084000Y-69469000I0J-200000D01*
G01*
X88084000Y-73279000D01*
G75*
G02*
X87884000Y-73479000I-200000J0D01*
G01*
G37*
G36*
G01*
X82804000Y-73479000D02*
X80264000Y-73479000D01*
G75*
G02*
X80064000Y-73279000I0J200000D01*
G01*
X80064000Y-69469000D01*
G75*
G02*
X80264000Y-69269000I200000J0D01*
G01*
X82804000Y-69269000D01*
G75*
G02*
X83004000Y-69469000I0J-200000D01*
G01*
X83004000Y-73279000D01*
G75*
G02*
X82804000Y-73479000I-200000J0D01*
G01*
G37*
G36*
G01*
X92964000Y-73479000D02*
X90424000Y-73479000D01*
G75*
G02*
X90224000Y-73279000I0J200000D01*
G01*
X90224000Y-69469000D01*
G75*
G02*
X90424000Y-69269000I200000J0D01*
G01*
X92964000Y-69269000D01*
G75*
G02*
X93164000Y-69469000I0J-200000D01*
G01*
X93164000Y-73279000D01*
G75*
G02*
X92964000Y-73479000I-200000J0D01*
G01*
G37*
G36*
G01*
X74168000Y-66475000D02*
X76708000Y-66475000D01*
G75*
G02*
X76908000Y-66675000I0J-200000D01*
G01*
X76908000Y-69215000D01*
G75*
G02*
X76708000Y-69415000I-200000J0D01*
G01*
X74168000Y-69415000D01*
G75*
G02*
X73968000Y-69215000I0J200000D01*
G01*
X73968000Y-66675000D01*
G75*
G02*
X74168000Y-66475000I200000J0D01*
G01*
G37*
D19*
X75438000Y-73025000D03*
D20*
X201930000Y-66040000D03*
X176530000Y-66040000D03*
G36*
G01*
X182680000Y-69342000D02*
X182680000Y-67818000D01*
G75*
G02*
X182880000Y-67618000I200000J0D01*
G01*
X184404000Y-67618000D01*
G75*
G02*
X184604000Y-67818000I0J-200000D01*
G01*
X184604000Y-69342000D01*
G75*
G02*
X184404000Y-69542000I-200000J0D01*
G01*
X182880000Y-69542000D01*
G75*
G02*
X182680000Y-69342000I0J200000D01*
G01*
G37*
D21*
X186436000Y-68580000D03*
X189103000Y-68580000D03*
X191897000Y-68580000D03*
X194691000Y-68580000D03*
X185039000Y-66040000D03*
X187833000Y-66040000D03*
X190500000Y-66040000D03*
X193294000Y-66040000D03*
D20*
X168402000Y-66040000D03*
X143002000Y-66040000D03*
G36*
G01*
X149152000Y-69342000D02*
X149152000Y-67818000D01*
G75*
G02*
X149352000Y-67618000I200000J0D01*
G01*
X150876000Y-67618000D01*
G75*
G02*
X151076000Y-67818000I0J-200000D01*
G01*
X151076000Y-69342000D01*
G75*
G02*
X150876000Y-69542000I-200000J0D01*
G01*
X149352000Y-69542000D01*
G75*
G02*
X149152000Y-69342000I0J200000D01*
G01*
G37*
D21*
X152908000Y-68580000D03*
X155575000Y-68580000D03*
X158369000Y-68580000D03*
X161163000Y-68580000D03*
X151511000Y-66040000D03*
X154305000Y-66040000D03*
X156972000Y-66040000D03*
X159766000Y-66040000D03*
D20*
X134874000Y-66040000D03*
X109474000Y-66040000D03*
G36*
G01*
X115624000Y-69342000D02*
X115624000Y-67818000D01*
G75*
G02*
X115824000Y-67618000I200000J0D01*
G01*
X117348000Y-67618000D01*
G75*
G02*
X117548000Y-67818000I0J-200000D01*
G01*
X117548000Y-69342000D01*
G75*
G02*
X117348000Y-69542000I-200000J0D01*
G01*
X115824000Y-69542000D01*
G75*
G02*
X115624000Y-69342000I0J200000D01*
G01*
G37*
D21*
X119380000Y-68580000D03*
X122047000Y-68580000D03*
X124841000Y-68580000D03*
X127635000Y-68580000D03*
X117983000Y-66040000D03*
X120777000Y-66040000D03*
X123444000Y-66040000D03*
X126238000Y-66040000D03*
D22*
X176149000Y-97790000D03*
X176149000Y-102870000D03*
X168529000Y-97790000D03*
X168529000Y-102870000D03*
X168529000Y-92329000D03*
X168529000Y-87249000D03*
X176149000Y-92329000D03*
X176149000Y-87249000D03*
X176149000Y-108077000D03*
X176149000Y-113157000D03*
X168529000Y-108077000D03*
X168529000Y-113157000D03*
X176276000Y-119761000D03*
X176276000Y-124841000D03*
X168656000Y-119761000D03*
X168656000Y-124841000D03*
M02*
