G04 #@! TF.GenerationSoftware,KiCad,Pcbnew,5.1.10-88a1d61d58~88~ubuntu18.04.1*
G04 #@! TF.CreationDate,2021-06-12T18:10:02+08:00*
G04 #@! TF.ProjectId,kit-dev-coldfire-xilinx_5213,6b69742d-6465-4762-9d63-6f6c64666972,2*
G04 #@! TF.SameCoordinates,Original*
G04 #@! TF.FileFunction,Soldermask,Top*
G04 #@! TF.FilePolarity,Negative*
%FSLAX46Y46*%
G04 Gerber Fmt 4.6, Leading zero omitted, Abs format (unit mm)*
G04 Created by KiCad (PCBNEW 5.1.10-88a1d61d58~88~ubuntu18.04.1) date 2021-06-12 18:10:02*
%MOMM*%
%LPD*%
G01*
G04 APERTURE LIST*
%ADD10O,2.800000X2.800000*%
%ADD11O,2.000000X2.000000*%
%ADD12C,2.000000*%
%ADD13C,1.400000*%
%ADD14O,2.100000X2.100000*%
%ADD15C,1.900000*%
%ADD16C,5.200600*%
%ADD17C,2.940000*%
%ADD18C,4.210000*%
%ADD19C,1.924000*%
%ADD20C,1.797000*%
G04 APERTURE END LIST*
G36*
G01*
X160751000Y-102889000D02*
X160751000Y-102089000D01*
G75*
G02*
X160951000Y-101889000I200000J0D01*
G01*
X161851000Y-101889000D01*
G75*
G02*
X162051000Y-102089000I0J-200000D01*
G01*
X162051000Y-102889000D01*
G75*
G02*
X161851000Y-103089000I-200000J0D01*
G01*
X160951000Y-103089000D01*
G75*
G02*
X160751000Y-102889000I0J200000D01*
G01*
G37*
G36*
G01*
X158751000Y-103839000D02*
X158751000Y-103039000D01*
G75*
G02*
X158951000Y-102839000I200000J0D01*
G01*
X159851000Y-102839000D01*
G75*
G02*
X160051000Y-103039000I0J-200000D01*
G01*
X160051000Y-103839000D01*
G75*
G02*
X159851000Y-104039000I-200000J0D01*
G01*
X158951000Y-104039000D01*
G75*
G02*
X158751000Y-103839000I0J200000D01*
G01*
G37*
G36*
G01*
X158751000Y-101939000D02*
X158751000Y-101139000D01*
G75*
G02*
X158951000Y-100939000I200000J0D01*
G01*
X159851000Y-100939000D01*
G75*
G02*
X160051000Y-101139000I0J-200000D01*
G01*
X160051000Y-101939000D01*
G75*
G02*
X159851000Y-102139000I-200000J0D01*
G01*
X158951000Y-102139000D01*
G75*
G02*
X158751000Y-101939000I0J200000D01*
G01*
G37*
G36*
G01*
X162148000Y-96031000D02*
X162148000Y-95231000D01*
G75*
G02*
X162348000Y-95031000I200000J0D01*
G01*
X163248000Y-95031000D01*
G75*
G02*
X163448000Y-95231000I0J-200000D01*
G01*
X163448000Y-96031000D01*
G75*
G02*
X163248000Y-96231000I-200000J0D01*
G01*
X162348000Y-96231000D01*
G75*
G02*
X162148000Y-96031000I0J200000D01*
G01*
G37*
G36*
G01*
X160148000Y-96981000D02*
X160148000Y-96181000D01*
G75*
G02*
X160348000Y-95981000I200000J0D01*
G01*
X161248000Y-95981000D01*
G75*
G02*
X161448000Y-96181000I0J-200000D01*
G01*
X161448000Y-96981000D01*
G75*
G02*
X161248000Y-97181000I-200000J0D01*
G01*
X160348000Y-97181000D01*
G75*
G02*
X160148000Y-96981000I0J200000D01*
G01*
G37*
G36*
G01*
X160148000Y-95081000D02*
X160148000Y-94281000D01*
G75*
G02*
X160348000Y-94081000I200000J0D01*
G01*
X161248000Y-94081000D01*
G75*
G02*
X161448000Y-94281000I0J-200000D01*
G01*
X161448000Y-95081000D01*
G75*
G02*
X161248000Y-95281000I-200000J0D01*
G01*
X160348000Y-95281000D01*
G75*
G02*
X160148000Y-95081000I0J200000D01*
G01*
G37*
D10*
X80772000Y-77089000D03*
G36*
G01*
X94872000Y-75889000D02*
X94872000Y-78289000D01*
G75*
G02*
X94672000Y-78489000I-200000J0D01*
G01*
X92272000Y-78489000D01*
G75*
G02*
X92072000Y-78289000I0J200000D01*
G01*
X92072000Y-75889000D01*
G75*
G02*
X92272000Y-75689000I200000J0D01*
G01*
X94672000Y-75689000D01*
G75*
G02*
X94872000Y-75889000I0J-200000D01*
G01*
G37*
D11*
X217170000Y-134620000D03*
D12*
X207010000Y-134620000D03*
G36*
G01*
X104193000Y-89997000D02*
X104193000Y-90597000D01*
G75*
G02*
X103993000Y-90797000I-200000J0D01*
G01*
X102443000Y-90797000D01*
G75*
G02*
X102243000Y-90597000I0J200000D01*
G01*
X102243000Y-89997000D01*
G75*
G02*
X102443000Y-89797000I200000J0D01*
G01*
X103993000Y-89797000D01*
G75*
G02*
X104193000Y-89997000I0J-200000D01*
G01*
G37*
G36*
G01*
X104193000Y-88727000D02*
X104193000Y-89327000D01*
G75*
G02*
X103993000Y-89527000I-200000J0D01*
G01*
X102443000Y-89527000D01*
G75*
G02*
X102243000Y-89327000I0J200000D01*
G01*
X102243000Y-88727000D01*
G75*
G02*
X102443000Y-88527000I200000J0D01*
G01*
X103993000Y-88527000D01*
G75*
G02*
X104193000Y-88727000I0J-200000D01*
G01*
G37*
G36*
G01*
X104193000Y-87457000D02*
X104193000Y-88057000D01*
G75*
G02*
X103993000Y-88257000I-200000J0D01*
G01*
X102443000Y-88257000D01*
G75*
G02*
X102243000Y-88057000I0J200000D01*
G01*
X102243000Y-87457000D01*
G75*
G02*
X102443000Y-87257000I200000J0D01*
G01*
X103993000Y-87257000D01*
G75*
G02*
X104193000Y-87457000I0J-200000D01*
G01*
G37*
G36*
G01*
X104193000Y-86187000D02*
X104193000Y-86787000D01*
G75*
G02*
X103993000Y-86987000I-200000J0D01*
G01*
X102443000Y-86987000D01*
G75*
G02*
X102243000Y-86787000I0J200000D01*
G01*
X102243000Y-86187000D01*
G75*
G02*
X102443000Y-85987000I200000J0D01*
G01*
X103993000Y-85987000D01*
G75*
G02*
X104193000Y-86187000I0J-200000D01*
G01*
G37*
G36*
G01*
X109593000Y-86187000D02*
X109593000Y-86787000D01*
G75*
G02*
X109393000Y-86987000I-200000J0D01*
G01*
X107843000Y-86987000D01*
G75*
G02*
X107643000Y-86787000I0J200000D01*
G01*
X107643000Y-86187000D01*
G75*
G02*
X107843000Y-85987000I200000J0D01*
G01*
X109393000Y-85987000D01*
G75*
G02*
X109593000Y-86187000I0J-200000D01*
G01*
G37*
G36*
G01*
X109593000Y-87457000D02*
X109593000Y-88057000D01*
G75*
G02*
X109393000Y-88257000I-200000J0D01*
G01*
X107843000Y-88257000D01*
G75*
G02*
X107643000Y-88057000I0J200000D01*
G01*
X107643000Y-87457000D01*
G75*
G02*
X107843000Y-87257000I200000J0D01*
G01*
X109393000Y-87257000D01*
G75*
G02*
X109593000Y-87457000I0J-200000D01*
G01*
G37*
G36*
G01*
X109593000Y-88727000D02*
X109593000Y-89327000D01*
G75*
G02*
X109393000Y-89527000I-200000J0D01*
G01*
X107843000Y-89527000D01*
G75*
G02*
X107643000Y-89327000I0J200000D01*
G01*
X107643000Y-88727000D01*
G75*
G02*
X107843000Y-88527000I200000J0D01*
G01*
X109393000Y-88527000D01*
G75*
G02*
X109593000Y-88727000I0J-200000D01*
G01*
G37*
G36*
G01*
X109593000Y-89997000D02*
X109593000Y-90597000D01*
G75*
G02*
X109393000Y-90797000I-200000J0D01*
G01*
X107843000Y-90797000D01*
G75*
G02*
X107643000Y-90597000I0J200000D01*
G01*
X107643000Y-89997000D01*
G75*
G02*
X107843000Y-89797000I200000J0D01*
G01*
X109393000Y-89797000D01*
G75*
G02*
X109593000Y-89997000I0J-200000D01*
G01*
G37*
G36*
G01*
X75255000Y-96540000D02*
X74155000Y-96540000D01*
G75*
G02*
X73955000Y-96340000I0J200000D01*
G01*
X73955000Y-91740000D01*
G75*
G02*
X74155000Y-91540000I200000J0D01*
G01*
X75255000Y-91540000D01*
G75*
G02*
X75455000Y-91740000I0J-200000D01*
G01*
X75455000Y-96340000D01*
G75*
G02*
X75255000Y-96540000I-200000J0D01*
G01*
G37*
G36*
G01*
X76955000Y-96540000D02*
X75855000Y-96540000D01*
G75*
G02*
X75655000Y-96340000I0J200000D01*
G01*
X75655000Y-91740000D01*
G75*
G02*
X75855000Y-91540000I200000J0D01*
G01*
X76955000Y-91540000D01*
G75*
G02*
X77155000Y-91740000I0J-200000D01*
G01*
X77155000Y-96340000D01*
G75*
G02*
X76955000Y-96540000I-200000J0D01*
G01*
G37*
G36*
G01*
X78655000Y-96540000D02*
X77555000Y-96540000D01*
G75*
G02*
X77355000Y-96340000I0J200000D01*
G01*
X77355000Y-91740000D01*
G75*
G02*
X77555000Y-91540000I200000J0D01*
G01*
X78655000Y-91540000D01*
G75*
G02*
X78855000Y-91740000I0J-200000D01*
G01*
X78855000Y-96340000D01*
G75*
G02*
X78655000Y-96540000I-200000J0D01*
G01*
G37*
G36*
G01*
X80355000Y-96540000D02*
X79255000Y-96540000D01*
G75*
G02*
X79055000Y-96340000I0J200000D01*
G01*
X79055000Y-91740000D01*
G75*
G02*
X79255000Y-91540000I200000J0D01*
G01*
X80355000Y-91540000D01*
G75*
G02*
X80555000Y-91740000I0J-200000D01*
G01*
X80555000Y-96340000D01*
G75*
G02*
X80355000Y-96540000I-200000J0D01*
G01*
G37*
G36*
G01*
X82055000Y-96540000D02*
X80955000Y-96540000D01*
G75*
G02*
X80755000Y-96340000I0J200000D01*
G01*
X80755000Y-91740000D01*
G75*
G02*
X80955000Y-91540000I200000J0D01*
G01*
X82055000Y-91540000D01*
G75*
G02*
X82255000Y-91740000I0J-200000D01*
G01*
X82255000Y-96340000D01*
G75*
G02*
X82055000Y-96540000I-200000J0D01*
G01*
G37*
G36*
G01*
X83505001Y-89790000D02*
X72704999Y-89790000D01*
G75*
G02*
X72505000Y-89590001I0J199999D01*
G01*
X72505000Y-80189999D01*
G75*
G02*
X72704999Y-79990000I199999J0D01*
G01*
X83505001Y-79990000D01*
G75*
G02*
X83705000Y-80189999I0J-199999D01*
G01*
X83705000Y-89590001D01*
G75*
G02*
X83505001Y-89790000I-199999J0D01*
G01*
G37*
X88900000Y-95330000D03*
G36*
G01*
X89700000Y-101330000D02*
X88100000Y-101330000D01*
G75*
G02*
X87900000Y-101130000I0J200000D01*
G01*
X87900000Y-99530000D01*
G75*
G02*
X88100000Y-99330000I200000J0D01*
G01*
X89700000Y-99330000D01*
G75*
G02*
X89900000Y-99530000I0J-200000D01*
G01*
X89900000Y-101130000D01*
G75*
G02*
X89700000Y-101330000I-200000J0D01*
G01*
G37*
X88900000Y-82630000D03*
G36*
G01*
X89700000Y-88630000D02*
X88100000Y-88630000D01*
G75*
G02*
X87900000Y-88430000I0J200000D01*
G01*
X87900000Y-86830000D01*
G75*
G02*
X88100000Y-86630000I200000J0D01*
G01*
X89700000Y-86630000D01*
G75*
G02*
X89900000Y-86830000I0J-200000D01*
G01*
X89900000Y-88430000D01*
G75*
G02*
X89700000Y-88630000I-200000J0D01*
G01*
G37*
G36*
G01*
X101953000Y-114092000D02*
X101953000Y-113492000D01*
G75*
G02*
X102153000Y-113292000I200000J0D01*
G01*
X103653000Y-113292000D01*
G75*
G02*
X103853000Y-113492000I0J-200000D01*
G01*
X103853000Y-114092000D01*
G75*
G02*
X103653000Y-114292000I-200000J0D01*
G01*
X102153000Y-114292000D01*
G75*
G02*
X101953000Y-114092000I0J200000D01*
G01*
G37*
G36*
G01*
X101953000Y-115362000D02*
X101953000Y-114762000D01*
G75*
G02*
X102153000Y-114562000I200000J0D01*
G01*
X103653000Y-114562000D01*
G75*
G02*
X103853000Y-114762000I0J-200000D01*
G01*
X103853000Y-115362000D01*
G75*
G02*
X103653000Y-115562000I-200000J0D01*
G01*
X102153000Y-115562000D01*
G75*
G02*
X101953000Y-115362000I0J200000D01*
G01*
G37*
G36*
G01*
X101953000Y-116632000D02*
X101953000Y-116032000D01*
G75*
G02*
X102153000Y-115832000I200000J0D01*
G01*
X103653000Y-115832000D01*
G75*
G02*
X103853000Y-116032000I0J-200000D01*
G01*
X103853000Y-116632000D01*
G75*
G02*
X103653000Y-116832000I-200000J0D01*
G01*
X102153000Y-116832000D01*
G75*
G02*
X101953000Y-116632000I0J200000D01*
G01*
G37*
G36*
G01*
X101953000Y-117902000D02*
X101953000Y-117302000D01*
G75*
G02*
X102153000Y-117102000I200000J0D01*
G01*
X103653000Y-117102000D01*
G75*
G02*
X103853000Y-117302000I0J-200000D01*
G01*
X103853000Y-117902000D01*
G75*
G02*
X103653000Y-118102000I-200000J0D01*
G01*
X102153000Y-118102000D01*
G75*
G02*
X101953000Y-117902000I0J200000D01*
G01*
G37*
G36*
G01*
X101953000Y-119172000D02*
X101953000Y-118572000D01*
G75*
G02*
X102153000Y-118372000I200000J0D01*
G01*
X103653000Y-118372000D01*
G75*
G02*
X103853000Y-118572000I0J-200000D01*
G01*
X103853000Y-119172000D01*
G75*
G02*
X103653000Y-119372000I-200000J0D01*
G01*
X102153000Y-119372000D01*
G75*
G02*
X101953000Y-119172000I0J200000D01*
G01*
G37*
G36*
G01*
X101953000Y-120442000D02*
X101953000Y-119842000D01*
G75*
G02*
X102153000Y-119642000I200000J0D01*
G01*
X103653000Y-119642000D01*
G75*
G02*
X103853000Y-119842000I0J-200000D01*
G01*
X103853000Y-120442000D01*
G75*
G02*
X103653000Y-120642000I-200000J0D01*
G01*
X102153000Y-120642000D01*
G75*
G02*
X101953000Y-120442000I0J200000D01*
G01*
G37*
G36*
G01*
X101953000Y-121712000D02*
X101953000Y-121112000D01*
G75*
G02*
X102153000Y-120912000I200000J0D01*
G01*
X103653000Y-120912000D01*
G75*
G02*
X103853000Y-121112000I0J-200000D01*
G01*
X103853000Y-121712000D01*
G75*
G02*
X103653000Y-121912000I-200000J0D01*
G01*
X102153000Y-121912000D01*
G75*
G02*
X101953000Y-121712000I0J200000D01*
G01*
G37*
G36*
G01*
X96553000Y-121712000D02*
X96553000Y-121112000D01*
G75*
G02*
X96753000Y-120912000I200000J0D01*
G01*
X98253000Y-120912000D01*
G75*
G02*
X98453000Y-121112000I0J-200000D01*
G01*
X98453000Y-121712000D01*
G75*
G02*
X98253000Y-121912000I-200000J0D01*
G01*
X96753000Y-121912000D01*
G75*
G02*
X96553000Y-121712000I0J200000D01*
G01*
G37*
G36*
G01*
X96553000Y-120442000D02*
X96553000Y-119842000D01*
G75*
G02*
X96753000Y-119642000I200000J0D01*
G01*
X98253000Y-119642000D01*
G75*
G02*
X98453000Y-119842000I0J-200000D01*
G01*
X98453000Y-120442000D01*
G75*
G02*
X98253000Y-120642000I-200000J0D01*
G01*
X96753000Y-120642000D01*
G75*
G02*
X96553000Y-120442000I0J200000D01*
G01*
G37*
G36*
G01*
X96553000Y-119172000D02*
X96553000Y-118572000D01*
G75*
G02*
X96753000Y-118372000I200000J0D01*
G01*
X98253000Y-118372000D01*
G75*
G02*
X98453000Y-118572000I0J-200000D01*
G01*
X98453000Y-119172000D01*
G75*
G02*
X98253000Y-119372000I-200000J0D01*
G01*
X96753000Y-119372000D01*
G75*
G02*
X96553000Y-119172000I0J200000D01*
G01*
G37*
G36*
G01*
X96553000Y-117902000D02*
X96553000Y-117302000D01*
G75*
G02*
X96753000Y-117102000I200000J0D01*
G01*
X98253000Y-117102000D01*
G75*
G02*
X98453000Y-117302000I0J-200000D01*
G01*
X98453000Y-117902000D01*
G75*
G02*
X98253000Y-118102000I-200000J0D01*
G01*
X96753000Y-118102000D01*
G75*
G02*
X96553000Y-117902000I0J200000D01*
G01*
G37*
G36*
G01*
X96553000Y-116632000D02*
X96553000Y-116032000D01*
G75*
G02*
X96753000Y-115832000I200000J0D01*
G01*
X98253000Y-115832000D01*
G75*
G02*
X98453000Y-116032000I0J-200000D01*
G01*
X98453000Y-116632000D01*
G75*
G02*
X98253000Y-116832000I-200000J0D01*
G01*
X96753000Y-116832000D01*
G75*
G02*
X96553000Y-116632000I0J200000D01*
G01*
G37*
G36*
G01*
X96553000Y-115362000D02*
X96553000Y-114762000D01*
G75*
G02*
X96753000Y-114562000I200000J0D01*
G01*
X98253000Y-114562000D01*
G75*
G02*
X98453000Y-114762000I0J-200000D01*
G01*
X98453000Y-115362000D01*
G75*
G02*
X98253000Y-115562000I-200000J0D01*
G01*
X96753000Y-115562000D01*
G75*
G02*
X96553000Y-115362000I0J200000D01*
G01*
G37*
G36*
G01*
X96553000Y-114092000D02*
X96553000Y-113492000D01*
G75*
G02*
X96753000Y-113292000I200000J0D01*
G01*
X98253000Y-113292000D01*
G75*
G02*
X98453000Y-113492000I0J-200000D01*
G01*
X98453000Y-114092000D01*
G75*
G02*
X98253000Y-114292000I-200000J0D01*
G01*
X96753000Y-114292000D01*
G75*
G02*
X96553000Y-114092000I0J200000D01*
G01*
G37*
G36*
G01*
X87622000Y-120258000D02*
X87622000Y-122058000D01*
G75*
G02*
X87422000Y-122258000I-200000J0D01*
G01*
X86352000Y-122258000D01*
G75*
G02*
X86152000Y-122058000I0J200000D01*
G01*
X86152000Y-120258000D01*
G75*
G02*
X86352000Y-120058000I200000J0D01*
G01*
X87422000Y-120058000D01*
G75*
G02*
X87622000Y-120258000I0J-200000D01*
G01*
G37*
G36*
G01*
X90632000Y-120258000D02*
X90632000Y-122058000D01*
G75*
G02*
X90432000Y-122258000I-200000J0D01*
G01*
X89362000Y-122258000D01*
G75*
G02*
X89162000Y-122058000I0J200000D01*
G01*
X89162000Y-120258000D01*
G75*
G02*
X89362000Y-120058000I200000J0D01*
G01*
X90432000Y-120058000D01*
G75*
G02*
X90632000Y-120258000I0J-200000D01*
G01*
G37*
G36*
G01*
X87622000Y-116194000D02*
X87622000Y-117994000D01*
G75*
G02*
X87422000Y-118194000I-200000J0D01*
G01*
X86352000Y-118194000D01*
G75*
G02*
X86152000Y-117994000I0J200000D01*
G01*
X86152000Y-116194000D01*
G75*
G02*
X86352000Y-115994000I200000J0D01*
G01*
X87422000Y-115994000D01*
G75*
G02*
X87622000Y-116194000I0J-200000D01*
G01*
G37*
G36*
G01*
X90632000Y-116194000D02*
X90632000Y-117994000D01*
G75*
G02*
X90432000Y-118194000I-200000J0D01*
G01*
X89362000Y-118194000D01*
G75*
G02*
X89162000Y-117994000I0J200000D01*
G01*
X89162000Y-116194000D01*
G75*
G02*
X89362000Y-115994000I200000J0D01*
G01*
X90432000Y-115994000D01*
G75*
G02*
X90632000Y-116194000I0J-200000D01*
G01*
G37*
G36*
G01*
X212860000Y-81545000D02*
X212860000Y-79745000D01*
G75*
G02*
X213060000Y-79545000I200000J0D01*
G01*
X214130000Y-79545000D01*
G75*
G02*
X214330000Y-79745000I0J-200000D01*
G01*
X214330000Y-81545000D01*
G75*
G02*
X214130000Y-81745000I-200000J0D01*
G01*
X213060000Y-81745000D01*
G75*
G02*
X212860000Y-81545000I0J200000D01*
G01*
G37*
G36*
G01*
X209850000Y-81545000D02*
X209850000Y-79745000D01*
G75*
G02*
X210050000Y-79545000I200000J0D01*
G01*
X211120000Y-79545000D01*
G75*
G02*
X211320000Y-79745000I0J-200000D01*
G01*
X211320000Y-81545000D01*
G75*
G02*
X211120000Y-81745000I-200000J0D01*
G01*
X210050000Y-81745000D01*
G75*
G02*
X209850000Y-81545000I0J200000D01*
G01*
G37*
G36*
G01*
X212860000Y-77735000D02*
X212860000Y-75935000D01*
G75*
G02*
X213060000Y-75735000I200000J0D01*
G01*
X214130000Y-75735000D01*
G75*
G02*
X214330000Y-75935000I0J-200000D01*
G01*
X214330000Y-77735000D01*
G75*
G02*
X214130000Y-77935000I-200000J0D01*
G01*
X213060000Y-77935000D01*
G75*
G02*
X212860000Y-77735000I0J200000D01*
G01*
G37*
G36*
G01*
X209850000Y-77735000D02*
X209850000Y-75935000D01*
G75*
G02*
X210050000Y-75735000I200000J0D01*
G01*
X211120000Y-75735000D01*
G75*
G02*
X211320000Y-75935000I0J-200000D01*
G01*
X211320000Y-77735000D01*
G75*
G02*
X211120000Y-77935000I-200000J0D01*
G01*
X210050000Y-77935000D01*
G75*
G02*
X209850000Y-77735000I0J200000D01*
G01*
G37*
G36*
G01*
X103240000Y-138946000D02*
X105040000Y-138946000D01*
G75*
G02*
X105240000Y-139146000I0J-200000D01*
G01*
X105240000Y-140216000D01*
G75*
G02*
X105040000Y-140416000I-200000J0D01*
G01*
X103240000Y-140416000D01*
G75*
G02*
X103040000Y-140216000I0J200000D01*
G01*
X103040000Y-139146000D01*
G75*
G02*
X103240000Y-138946000I200000J0D01*
G01*
G37*
G36*
G01*
X103240000Y-135936000D02*
X105040000Y-135936000D01*
G75*
G02*
X105240000Y-136136000I0J-200000D01*
G01*
X105240000Y-137206000D01*
G75*
G02*
X105040000Y-137406000I-200000J0D01*
G01*
X103240000Y-137406000D01*
G75*
G02*
X103040000Y-137206000I0J200000D01*
G01*
X103040000Y-136136000D01*
G75*
G02*
X103240000Y-135936000I200000J0D01*
G01*
G37*
G36*
G01*
X87622000Y-124449000D02*
X87622000Y-126249000D01*
G75*
G02*
X87422000Y-126449000I-200000J0D01*
G01*
X86352000Y-126449000D01*
G75*
G02*
X86152000Y-126249000I0J200000D01*
G01*
X86152000Y-124449000D01*
G75*
G02*
X86352000Y-124249000I200000J0D01*
G01*
X87422000Y-124249000D01*
G75*
G02*
X87622000Y-124449000I0J-200000D01*
G01*
G37*
G36*
G01*
X90632000Y-124449000D02*
X90632000Y-126249000D01*
G75*
G02*
X90432000Y-126449000I-200000J0D01*
G01*
X89362000Y-126449000D01*
G75*
G02*
X89162000Y-126249000I0J200000D01*
G01*
X89162000Y-124449000D01*
G75*
G02*
X89362000Y-124249000I200000J0D01*
G01*
X90432000Y-124249000D01*
G75*
G02*
X90632000Y-124449000I0J-200000D01*
G01*
G37*
G36*
G01*
X87622000Y-128640000D02*
X87622000Y-130440000D01*
G75*
G02*
X87422000Y-130640000I-200000J0D01*
G01*
X86352000Y-130640000D01*
G75*
G02*
X86152000Y-130440000I0J200000D01*
G01*
X86152000Y-128640000D01*
G75*
G02*
X86352000Y-128440000I200000J0D01*
G01*
X87422000Y-128440000D01*
G75*
G02*
X87622000Y-128640000I0J-200000D01*
G01*
G37*
G36*
G01*
X90632000Y-128640000D02*
X90632000Y-130440000D01*
G75*
G02*
X90432000Y-130640000I-200000J0D01*
G01*
X89362000Y-130640000D01*
G75*
G02*
X89162000Y-130440000I0J200000D01*
G01*
X89162000Y-128640000D01*
G75*
G02*
X89362000Y-128440000I200000J0D01*
G01*
X90432000Y-128440000D01*
G75*
G02*
X90632000Y-128640000I0J-200000D01*
G01*
G37*
G36*
G01*
X163830000Y-86668000D02*
X165862000Y-86668000D01*
G75*
G02*
X166062000Y-86868000I0J-200000D01*
G01*
X166062000Y-88392000D01*
G75*
G02*
X165862000Y-88592000I-200000J0D01*
G01*
X163830000Y-88592000D01*
G75*
G02*
X163630000Y-88392000I0J200000D01*
G01*
X163630000Y-86868000D01*
G75*
G02*
X163830000Y-86668000I200000J0D01*
G01*
G37*
G36*
G01*
X163830000Y-89970000D02*
X165862000Y-89970000D01*
G75*
G02*
X166062000Y-90170000I0J-200000D01*
G01*
X166062000Y-91694000D01*
G75*
G02*
X165862000Y-91894000I-200000J0D01*
G01*
X163830000Y-91894000D01*
G75*
G02*
X163630000Y-91694000I0J200000D01*
G01*
X163630000Y-90170000D01*
G75*
G02*
X163830000Y-89970000I200000J0D01*
G01*
G37*
G36*
G01*
X163830000Y-97844000D02*
X165862000Y-97844000D01*
G75*
G02*
X166062000Y-98044000I0J-200000D01*
G01*
X166062000Y-99568000D01*
G75*
G02*
X165862000Y-99768000I-200000J0D01*
G01*
X163830000Y-99768000D01*
G75*
G02*
X163630000Y-99568000I0J200000D01*
G01*
X163630000Y-98044000D01*
G75*
G02*
X163830000Y-97844000I200000J0D01*
G01*
G37*
G36*
G01*
X163830000Y-101146000D02*
X165862000Y-101146000D01*
G75*
G02*
X166062000Y-101346000I0J-200000D01*
G01*
X166062000Y-102870000D01*
G75*
G02*
X165862000Y-103070000I-200000J0D01*
G01*
X163830000Y-103070000D01*
G75*
G02*
X163630000Y-102870000I0J200000D01*
G01*
X163630000Y-101346000D01*
G75*
G02*
X163830000Y-101146000I200000J0D01*
G01*
G37*
G36*
G01*
X147628000Y-121031000D02*
X147628000Y-118999000D01*
G75*
G02*
X147828000Y-118799000I200000J0D01*
G01*
X149352000Y-118799000D01*
G75*
G02*
X149552000Y-118999000I0J-200000D01*
G01*
X149552000Y-121031000D01*
G75*
G02*
X149352000Y-121231000I-200000J0D01*
G01*
X147828000Y-121231000D01*
G75*
G02*
X147628000Y-121031000I0J200000D01*
G01*
G37*
G36*
G01*
X150930000Y-121031000D02*
X150930000Y-118999000D01*
G75*
G02*
X151130000Y-118799000I200000J0D01*
G01*
X152654000Y-118799000D01*
G75*
G02*
X152854000Y-118999000I0J-200000D01*
G01*
X152854000Y-121031000D01*
G75*
G02*
X152654000Y-121231000I-200000J0D01*
G01*
X151130000Y-121231000D01*
G75*
G02*
X150930000Y-121031000I0J200000D01*
G01*
G37*
G36*
G01*
X121793000Y-108658000D02*
X119761000Y-108658000D01*
G75*
G02*
X119561000Y-108458000I0J200000D01*
G01*
X119561000Y-106934000D01*
G75*
G02*
X119761000Y-106734000I200000J0D01*
G01*
X121793000Y-106734000D01*
G75*
G02*
X121993000Y-106934000I0J-200000D01*
G01*
X121993000Y-108458000D01*
G75*
G02*
X121793000Y-108658000I-200000J0D01*
G01*
G37*
G36*
G01*
X121793000Y-105356000D02*
X119761000Y-105356000D01*
G75*
G02*
X119561000Y-105156000I0J200000D01*
G01*
X119561000Y-103632000D01*
G75*
G02*
X119761000Y-103432000I200000J0D01*
G01*
X121793000Y-103432000D01*
G75*
G02*
X121993000Y-103632000I0J-200000D01*
G01*
X121993000Y-105156000D01*
G75*
G02*
X121793000Y-105356000I-200000J0D01*
G01*
G37*
G36*
G01*
X151169000Y-101439000D02*
X152869000Y-101439000D01*
G75*
G02*
X153069000Y-101639000I0J-200000D01*
G01*
X153069000Y-103339000D01*
G75*
G02*
X152869000Y-103539000I-200000J0D01*
G01*
X151169000Y-103539000D01*
G75*
G02*
X150969000Y-103339000I0J200000D01*
G01*
X150969000Y-101639000D01*
G75*
G02*
X151169000Y-101439000I200000J0D01*
G01*
G37*
G36*
G01*
X82589000Y-133189000D02*
X84289000Y-133189000D01*
G75*
G02*
X84489000Y-133389000I0J-200000D01*
G01*
X84489000Y-135089000D01*
G75*
G02*
X84289000Y-135289000I-200000J0D01*
G01*
X82589000Y-135289000D01*
G75*
G02*
X82389000Y-135089000I0J200000D01*
G01*
X82389000Y-133389000D01*
G75*
G02*
X82589000Y-133189000I200000J0D01*
G01*
G37*
G36*
G01*
X88685000Y-139920000D02*
X90385000Y-139920000D01*
G75*
G02*
X90585000Y-140120000I0J-200000D01*
G01*
X90585000Y-141820000D01*
G75*
G02*
X90385000Y-142020000I-200000J0D01*
G01*
X88685000Y-142020000D01*
G75*
G02*
X88485000Y-141820000I0J200000D01*
G01*
X88485000Y-140120000D01*
G75*
G02*
X88685000Y-139920000I200000J0D01*
G01*
G37*
G36*
G01*
X99607000Y-94708000D02*
X101307000Y-94708000D01*
G75*
G02*
X101507000Y-94908000I0J-200000D01*
G01*
X101507000Y-96608000D01*
G75*
G02*
X101307000Y-96808000I-200000J0D01*
G01*
X99607000Y-96808000D01*
G75*
G02*
X99407000Y-96608000I0J200000D01*
G01*
X99407000Y-94908000D01*
G75*
G02*
X99607000Y-94708000I200000J0D01*
G01*
G37*
G36*
G01*
X82589000Y-137507000D02*
X84289000Y-137507000D01*
G75*
G02*
X84489000Y-137707000I0J-200000D01*
G01*
X84489000Y-139407000D01*
G75*
G02*
X84289000Y-139607000I-200000J0D01*
G01*
X82589000Y-139607000D01*
G75*
G02*
X82389000Y-139407000I0J200000D01*
G01*
X82389000Y-137707000D01*
G75*
G02*
X82589000Y-137507000I200000J0D01*
G01*
G37*
G36*
G01*
X102655000Y-82770000D02*
X104355000Y-82770000D01*
G75*
G02*
X104555000Y-82970000I0J-200000D01*
G01*
X104555000Y-84670000D01*
G75*
G02*
X104355000Y-84870000I-200000J0D01*
G01*
X102655000Y-84870000D01*
G75*
G02*
X102455000Y-84670000I0J200000D01*
G01*
X102455000Y-82970000D01*
G75*
G02*
X102655000Y-82770000I200000J0D01*
G01*
G37*
G36*
G01*
X142332000Y-95613000D02*
X142332000Y-95333000D01*
G75*
G02*
X142532000Y-95133000I200000J0D01*
G01*
X144032000Y-95133000D01*
G75*
G02*
X144232000Y-95333000I0J-200000D01*
G01*
X144232000Y-95613000D01*
G75*
G02*
X144032000Y-95813000I-200000J0D01*
G01*
X142532000Y-95813000D01*
G75*
G02*
X142332000Y-95613000I0J200000D01*
G01*
G37*
G36*
G01*
X142332000Y-96113000D02*
X142332000Y-95833000D01*
G75*
G02*
X142532000Y-95633000I200000J0D01*
G01*
X144032000Y-95633000D01*
G75*
G02*
X144232000Y-95833000I0J-200000D01*
G01*
X144232000Y-96113000D01*
G75*
G02*
X144032000Y-96313000I-200000J0D01*
G01*
X142532000Y-96313000D01*
G75*
G02*
X142332000Y-96113000I0J200000D01*
G01*
G37*
G36*
G01*
X142332000Y-96613000D02*
X142332000Y-96333000D01*
G75*
G02*
X142532000Y-96133000I200000J0D01*
G01*
X144032000Y-96133000D01*
G75*
G02*
X144232000Y-96333000I0J-200000D01*
G01*
X144232000Y-96613000D01*
G75*
G02*
X144032000Y-96813000I-200000J0D01*
G01*
X142532000Y-96813000D01*
G75*
G02*
X142332000Y-96613000I0J200000D01*
G01*
G37*
G36*
G01*
X142332000Y-97113000D02*
X142332000Y-96833000D01*
G75*
G02*
X142532000Y-96633000I200000J0D01*
G01*
X144032000Y-96633000D01*
G75*
G02*
X144232000Y-96833000I0J-200000D01*
G01*
X144232000Y-97113000D01*
G75*
G02*
X144032000Y-97313000I-200000J0D01*
G01*
X142532000Y-97313000D01*
G75*
G02*
X142332000Y-97113000I0J200000D01*
G01*
G37*
G36*
G01*
X142332000Y-97613000D02*
X142332000Y-97333000D01*
G75*
G02*
X142532000Y-97133000I200000J0D01*
G01*
X144032000Y-97133000D01*
G75*
G02*
X144232000Y-97333000I0J-200000D01*
G01*
X144232000Y-97613000D01*
G75*
G02*
X144032000Y-97813000I-200000J0D01*
G01*
X142532000Y-97813000D01*
G75*
G02*
X142332000Y-97613000I0J200000D01*
G01*
G37*
G36*
G01*
X142332000Y-98113000D02*
X142332000Y-97833000D01*
G75*
G02*
X142532000Y-97633000I200000J0D01*
G01*
X144032000Y-97633000D01*
G75*
G02*
X144232000Y-97833000I0J-200000D01*
G01*
X144232000Y-98113000D01*
G75*
G02*
X144032000Y-98313000I-200000J0D01*
G01*
X142532000Y-98313000D01*
G75*
G02*
X142332000Y-98113000I0J200000D01*
G01*
G37*
G36*
G01*
X142332000Y-98613000D02*
X142332000Y-98333000D01*
G75*
G02*
X142532000Y-98133000I200000J0D01*
G01*
X144032000Y-98133000D01*
G75*
G02*
X144232000Y-98333000I0J-200000D01*
G01*
X144232000Y-98613000D01*
G75*
G02*
X144032000Y-98813000I-200000J0D01*
G01*
X142532000Y-98813000D01*
G75*
G02*
X142332000Y-98613000I0J200000D01*
G01*
G37*
G36*
G01*
X142332000Y-99113000D02*
X142332000Y-98833000D01*
G75*
G02*
X142532000Y-98633000I200000J0D01*
G01*
X144032000Y-98633000D01*
G75*
G02*
X144232000Y-98833000I0J-200000D01*
G01*
X144232000Y-99113000D01*
G75*
G02*
X144032000Y-99313000I-200000J0D01*
G01*
X142532000Y-99313000D01*
G75*
G02*
X142332000Y-99113000I0J200000D01*
G01*
G37*
G36*
G01*
X142332000Y-99613000D02*
X142332000Y-99333000D01*
G75*
G02*
X142532000Y-99133000I200000J0D01*
G01*
X144032000Y-99133000D01*
G75*
G02*
X144232000Y-99333000I0J-200000D01*
G01*
X144232000Y-99613000D01*
G75*
G02*
X144032000Y-99813000I-200000J0D01*
G01*
X142532000Y-99813000D01*
G75*
G02*
X142332000Y-99613000I0J200000D01*
G01*
G37*
G36*
G01*
X142332000Y-100113000D02*
X142332000Y-99833000D01*
G75*
G02*
X142532000Y-99633000I200000J0D01*
G01*
X144032000Y-99633000D01*
G75*
G02*
X144232000Y-99833000I0J-200000D01*
G01*
X144232000Y-100113000D01*
G75*
G02*
X144032000Y-100313000I-200000J0D01*
G01*
X142532000Y-100313000D01*
G75*
G02*
X142332000Y-100113000I0J200000D01*
G01*
G37*
G36*
G01*
X142332000Y-100613000D02*
X142332000Y-100333000D01*
G75*
G02*
X142532000Y-100133000I200000J0D01*
G01*
X144032000Y-100133000D01*
G75*
G02*
X144232000Y-100333000I0J-200000D01*
G01*
X144232000Y-100613000D01*
G75*
G02*
X144032000Y-100813000I-200000J0D01*
G01*
X142532000Y-100813000D01*
G75*
G02*
X142332000Y-100613000I0J200000D01*
G01*
G37*
G36*
G01*
X142332000Y-101113000D02*
X142332000Y-100833000D01*
G75*
G02*
X142532000Y-100633000I200000J0D01*
G01*
X144032000Y-100633000D01*
G75*
G02*
X144232000Y-100833000I0J-200000D01*
G01*
X144232000Y-101113000D01*
G75*
G02*
X144032000Y-101313000I-200000J0D01*
G01*
X142532000Y-101313000D01*
G75*
G02*
X142332000Y-101113000I0J200000D01*
G01*
G37*
G36*
G01*
X142332000Y-101613000D02*
X142332000Y-101333000D01*
G75*
G02*
X142532000Y-101133000I200000J0D01*
G01*
X144032000Y-101133000D01*
G75*
G02*
X144232000Y-101333000I0J-200000D01*
G01*
X144232000Y-101613000D01*
G75*
G02*
X144032000Y-101813000I-200000J0D01*
G01*
X142532000Y-101813000D01*
G75*
G02*
X142332000Y-101613000I0J200000D01*
G01*
G37*
G36*
G01*
X142332000Y-102113000D02*
X142332000Y-101833000D01*
G75*
G02*
X142532000Y-101633000I200000J0D01*
G01*
X144032000Y-101633000D01*
G75*
G02*
X144232000Y-101833000I0J-200000D01*
G01*
X144232000Y-102113000D01*
G75*
G02*
X144032000Y-102313000I-200000J0D01*
G01*
X142532000Y-102313000D01*
G75*
G02*
X142332000Y-102113000I0J200000D01*
G01*
G37*
G36*
G01*
X142332000Y-102613000D02*
X142332000Y-102333000D01*
G75*
G02*
X142532000Y-102133000I200000J0D01*
G01*
X144032000Y-102133000D01*
G75*
G02*
X144232000Y-102333000I0J-200000D01*
G01*
X144232000Y-102613000D01*
G75*
G02*
X144032000Y-102813000I-200000J0D01*
G01*
X142532000Y-102813000D01*
G75*
G02*
X142332000Y-102613000I0J200000D01*
G01*
G37*
G36*
G01*
X142332000Y-103113000D02*
X142332000Y-102833000D01*
G75*
G02*
X142532000Y-102633000I200000J0D01*
G01*
X144032000Y-102633000D01*
G75*
G02*
X144232000Y-102833000I0J-200000D01*
G01*
X144232000Y-103113000D01*
G75*
G02*
X144032000Y-103313000I-200000J0D01*
G01*
X142532000Y-103313000D01*
G75*
G02*
X142332000Y-103113000I0J200000D01*
G01*
G37*
G36*
G01*
X142332000Y-103613000D02*
X142332000Y-103333000D01*
G75*
G02*
X142532000Y-103133000I200000J0D01*
G01*
X144032000Y-103133000D01*
G75*
G02*
X144232000Y-103333000I0J-200000D01*
G01*
X144232000Y-103613000D01*
G75*
G02*
X144032000Y-103813000I-200000J0D01*
G01*
X142532000Y-103813000D01*
G75*
G02*
X142332000Y-103613000I0J200000D01*
G01*
G37*
G36*
G01*
X142332000Y-104113000D02*
X142332000Y-103833000D01*
G75*
G02*
X142532000Y-103633000I200000J0D01*
G01*
X144032000Y-103633000D01*
G75*
G02*
X144232000Y-103833000I0J-200000D01*
G01*
X144232000Y-104113000D01*
G75*
G02*
X144032000Y-104313000I-200000J0D01*
G01*
X142532000Y-104313000D01*
G75*
G02*
X142332000Y-104113000I0J200000D01*
G01*
G37*
G36*
G01*
X142332000Y-104613000D02*
X142332000Y-104333000D01*
G75*
G02*
X142532000Y-104133000I200000J0D01*
G01*
X144032000Y-104133000D01*
G75*
G02*
X144232000Y-104333000I0J-200000D01*
G01*
X144232000Y-104613000D01*
G75*
G02*
X144032000Y-104813000I-200000J0D01*
G01*
X142532000Y-104813000D01*
G75*
G02*
X142332000Y-104613000I0J200000D01*
G01*
G37*
G36*
G01*
X142332000Y-105113000D02*
X142332000Y-104833000D01*
G75*
G02*
X142532000Y-104633000I200000J0D01*
G01*
X144032000Y-104633000D01*
G75*
G02*
X144232000Y-104833000I0J-200000D01*
G01*
X144232000Y-105113000D01*
G75*
G02*
X144032000Y-105313000I-200000J0D01*
G01*
X142532000Y-105313000D01*
G75*
G02*
X142332000Y-105113000I0J200000D01*
G01*
G37*
G36*
G01*
X142332000Y-105613000D02*
X142332000Y-105333000D01*
G75*
G02*
X142532000Y-105133000I200000J0D01*
G01*
X144032000Y-105133000D01*
G75*
G02*
X144232000Y-105333000I0J-200000D01*
G01*
X144232000Y-105613000D01*
G75*
G02*
X144032000Y-105813000I-200000J0D01*
G01*
X142532000Y-105813000D01*
G75*
G02*
X142332000Y-105613000I0J200000D01*
G01*
G37*
G36*
G01*
X142332000Y-106113000D02*
X142332000Y-105833000D01*
G75*
G02*
X142532000Y-105633000I200000J0D01*
G01*
X144032000Y-105633000D01*
G75*
G02*
X144232000Y-105833000I0J-200000D01*
G01*
X144232000Y-106113000D01*
G75*
G02*
X144032000Y-106313000I-200000J0D01*
G01*
X142532000Y-106313000D01*
G75*
G02*
X142332000Y-106113000I0J200000D01*
G01*
G37*
G36*
G01*
X142332000Y-106613000D02*
X142332000Y-106333000D01*
G75*
G02*
X142532000Y-106133000I200000J0D01*
G01*
X144032000Y-106133000D01*
G75*
G02*
X144232000Y-106333000I0J-200000D01*
G01*
X144232000Y-106613000D01*
G75*
G02*
X144032000Y-106813000I-200000J0D01*
G01*
X142532000Y-106813000D01*
G75*
G02*
X142332000Y-106613000I0J200000D01*
G01*
G37*
G36*
G01*
X142332000Y-107113000D02*
X142332000Y-106833000D01*
G75*
G02*
X142532000Y-106633000I200000J0D01*
G01*
X144032000Y-106633000D01*
G75*
G02*
X144232000Y-106833000I0J-200000D01*
G01*
X144232000Y-107113000D01*
G75*
G02*
X144032000Y-107313000I-200000J0D01*
G01*
X142532000Y-107313000D01*
G75*
G02*
X142332000Y-107113000I0J200000D01*
G01*
G37*
G36*
G01*
X142332000Y-107613000D02*
X142332000Y-107333000D01*
G75*
G02*
X142532000Y-107133000I200000J0D01*
G01*
X144032000Y-107133000D01*
G75*
G02*
X144232000Y-107333000I0J-200000D01*
G01*
X144232000Y-107613000D01*
G75*
G02*
X144032000Y-107813000I-200000J0D01*
G01*
X142532000Y-107813000D01*
G75*
G02*
X142332000Y-107613000I0J200000D01*
G01*
G37*
G36*
G01*
X141242000Y-108423000D02*
X141522000Y-108423000D01*
G75*
G02*
X141722000Y-108623000I0J-200000D01*
G01*
X141722000Y-110123000D01*
G75*
G02*
X141522000Y-110323000I-200000J0D01*
G01*
X141242000Y-110323000D01*
G75*
G02*
X141042000Y-110123000I0J200000D01*
G01*
X141042000Y-108623000D01*
G75*
G02*
X141242000Y-108423000I200000J0D01*
G01*
G37*
G36*
G01*
X140742000Y-108423000D02*
X141022000Y-108423000D01*
G75*
G02*
X141222000Y-108623000I0J-200000D01*
G01*
X141222000Y-110123000D01*
G75*
G02*
X141022000Y-110323000I-200000J0D01*
G01*
X140742000Y-110323000D01*
G75*
G02*
X140542000Y-110123000I0J200000D01*
G01*
X140542000Y-108623000D01*
G75*
G02*
X140742000Y-108423000I200000J0D01*
G01*
G37*
G36*
G01*
X140242000Y-108423000D02*
X140522000Y-108423000D01*
G75*
G02*
X140722000Y-108623000I0J-200000D01*
G01*
X140722000Y-110123000D01*
G75*
G02*
X140522000Y-110323000I-200000J0D01*
G01*
X140242000Y-110323000D01*
G75*
G02*
X140042000Y-110123000I0J200000D01*
G01*
X140042000Y-108623000D01*
G75*
G02*
X140242000Y-108423000I200000J0D01*
G01*
G37*
G36*
G01*
X139742000Y-108423000D02*
X140022000Y-108423000D01*
G75*
G02*
X140222000Y-108623000I0J-200000D01*
G01*
X140222000Y-110123000D01*
G75*
G02*
X140022000Y-110323000I-200000J0D01*
G01*
X139742000Y-110323000D01*
G75*
G02*
X139542000Y-110123000I0J200000D01*
G01*
X139542000Y-108623000D01*
G75*
G02*
X139742000Y-108423000I200000J0D01*
G01*
G37*
G36*
G01*
X139242000Y-108423000D02*
X139522000Y-108423000D01*
G75*
G02*
X139722000Y-108623000I0J-200000D01*
G01*
X139722000Y-110123000D01*
G75*
G02*
X139522000Y-110323000I-200000J0D01*
G01*
X139242000Y-110323000D01*
G75*
G02*
X139042000Y-110123000I0J200000D01*
G01*
X139042000Y-108623000D01*
G75*
G02*
X139242000Y-108423000I200000J0D01*
G01*
G37*
G36*
G01*
X138742000Y-108423000D02*
X139022000Y-108423000D01*
G75*
G02*
X139222000Y-108623000I0J-200000D01*
G01*
X139222000Y-110123000D01*
G75*
G02*
X139022000Y-110323000I-200000J0D01*
G01*
X138742000Y-110323000D01*
G75*
G02*
X138542000Y-110123000I0J200000D01*
G01*
X138542000Y-108623000D01*
G75*
G02*
X138742000Y-108423000I200000J0D01*
G01*
G37*
G36*
G01*
X138242000Y-108423000D02*
X138522000Y-108423000D01*
G75*
G02*
X138722000Y-108623000I0J-200000D01*
G01*
X138722000Y-110123000D01*
G75*
G02*
X138522000Y-110323000I-200000J0D01*
G01*
X138242000Y-110323000D01*
G75*
G02*
X138042000Y-110123000I0J200000D01*
G01*
X138042000Y-108623000D01*
G75*
G02*
X138242000Y-108423000I200000J0D01*
G01*
G37*
G36*
G01*
X137742000Y-108423000D02*
X138022000Y-108423000D01*
G75*
G02*
X138222000Y-108623000I0J-200000D01*
G01*
X138222000Y-110123000D01*
G75*
G02*
X138022000Y-110323000I-200000J0D01*
G01*
X137742000Y-110323000D01*
G75*
G02*
X137542000Y-110123000I0J200000D01*
G01*
X137542000Y-108623000D01*
G75*
G02*
X137742000Y-108423000I200000J0D01*
G01*
G37*
G36*
G01*
X137242000Y-108423000D02*
X137522000Y-108423000D01*
G75*
G02*
X137722000Y-108623000I0J-200000D01*
G01*
X137722000Y-110123000D01*
G75*
G02*
X137522000Y-110323000I-200000J0D01*
G01*
X137242000Y-110323000D01*
G75*
G02*
X137042000Y-110123000I0J200000D01*
G01*
X137042000Y-108623000D01*
G75*
G02*
X137242000Y-108423000I200000J0D01*
G01*
G37*
G36*
G01*
X136742000Y-108423000D02*
X137022000Y-108423000D01*
G75*
G02*
X137222000Y-108623000I0J-200000D01*
G01*
X137222000Y-110123000D01*
G75*
G02*
X137022000Y-110323000I-200000J0D01*
G01*
X136742000Y-110323000D01*
G75*
G02*
X136542000Y-110123000I0J200000D01*
G01*
X136542000Y-108623000D01*
G75*
G02*
X136742000Y-108423000I200000J0D01*
G01*
G37*
G36*
G01*
X136242000Y-108423000D02*
X136522000Y-108423000D01*
G75*
G02*
X136722000Y-108623000I0J-200000D01*
G01*
X136722000Y-110123000D01*
G75*
G02*
X136522000Y-110323000I-200000J0D01*
G01*
X136242000Y-110323000D01*
G75*
G02*
X136042000Y-110123000I0J200000D01*
G01*
X136042000Y-108623000D01*
G75*
G02*
X136242000Y-108423000I200000J0D01*
G01*
G37*
G36*
G01*
X135742000Y-108423000D02*
X136022000Y-108423000D01*
G75*
G02*
X136222000Y-108623000I0J-200000D01*
G01*
X136222000Y-110123000D01*
G75*
G02*
X136022000Y-110323000I-200000J0D01*
G01*
X135742000Y-110323000D01*
G75*
G02*
X135542000Y-110123000I0J200000D01*
G01*
X135542000Y-108623000D01*
G75*
G02*
X135742000Y-108423000I200000J0D01*
G01*
G37*
G36*
G01*
X135242000Y-108423000D02*
X135522000Y-108423000D01*
G75*
G02*
X135722000Y-108623000I0J-200000D01*
G01*
X135722000Y-110123000D01*
G75*
G02*
X135522000Y-110323000I-200000J0D01*
G01*
X135242000Y-110323000D01*
G75*
G02*
X135042000Y-110123000I0J200000D01*
G01*
X135042000Y-108623000D01*
G75*
G02*
X135242000Y-108423000I200000J0D01*
G01*
G37*
G36*
G01*
X134742000Y-108423000D02*
X135022000Y-108423000D01*
G75*
G02*
X135222000Y-108623000I0J-200000D01*
G01*
X135222000Y-110123000D01*
G75*
G02*
X135022000Y-110323000I-200000J0D01*
G01*
X134742000Y-110323000D01*
G75*
G02*
X134542000Y-110123000I0J200000D01*
G01*
X134542000Y-108623000D01*
G75*
G02*
X134742000Y-108423000I200000J0D01*
G01*
G37*
G36*
G01*
X134242000Y-108423000D02*
X134522000Y-108423000D01*
G75*
G02*
X134722000Y-108623000I0J-200000D01*
G01*
X134722000Y-110123000D01*
G75*
G02*
X134522000Y-110323000I-200000J0D01*
G01*
X134242000Y-110323000D01*
G75*
G02*
X134042000Y-110123000I0J200000D01*
G01*
X134042000Y-108623000D01*
G75*
G02*
X134242000Y-108423000I200000J0D01*
G01*
G37*
G36*
G01*
X133742000Y-108423000D02*
X134022000Y-108423000D01*
G75*
G02*
X134222000Y-108623000I0J-200000D01*
G01*
X134222000Y-110123000D01*
G75*
G02*
X134022000Y-110323000I-200000J0D01*
G01*
X133742000Y-110323000D01*
G75*
G02*
X133542000Y-110123000I0J200000D01*
G01*
X133542000Y-108623000D01*
G75*
G02*
X133742000Y-108423000I200000J0D01*
G01*
G37*
G36*
G01*
X133242000Y-108423000D02*
X133522000Y-108423000D01*
G75*
G02*
X133722000Y-108623000I0J-200000D01*
G01*
X133722000Y-110123000D01*
G75*
G02*
X133522000Y-110323000I-200000J0D01*
G01*
X133242000Y-110323000D01*
G75*
G02*
X133042000Y-110123000I0J200000D01*
G01*
X133042000Y-108623000D01*
G75*
G02*
X133242000Y-108423000I200000J0D01*
G01*
G37*
G36*
G01*
X132742000Y-108423000D02*
X133022000Y-108423000D01*
G75*
G02*
X133222000Y-108623000I0J-200000D01*
G01*
X133222000Y-110123000D01*
G75*
G02*
X133022000Y-110323000I-200000J0D01*
G01*
X132742000Y-110323000D01*
G75*
G02*
X132542000Y-110123000I0J200000D01*
G01*
X132542000Y-108623000D01*
G75*
G02*
X132742000Y-108423000I200000J0D01*
G01*
G37*
G36*
G01*
X132242000Y-108423000D02*
X132522000Y-108423000D01*
G75*
G02*
X132722000Y-108623000I0J-200000D01*
G01*
X132722000Y-110123000D01*
G75*
G02*
X132522000Y-110323000I-200000J0D01*
G01*
X132242000Y-110323000D01*
G75*
G02*
X132042000Y-110123000I0J200000D01*
G01*
X132042000Y-108623000D01*
G75*
G02*
X132242000Y-108423000I200000J0D01*
G01*
G37*
G36*
G01*
X131742000Y-108423000D02*
X132022000Y-108423000D01*
G75*
G02*
X132222000Y-108623000I0J-200000D01*
G01*
X132222000Y-110123000D01*
G75*
G02*
X132022000Y-110323000I-200000J0D01*
G01*
X131742000Y-110323000D01*
G75*
G02*
X131542000Y-110123000I0J200000D01*
G01*
X131542000Y-108623000D01*
G75*
G02*
X131742000Y-108423000I200000J0D01*
G01*
G37*
G36*
G01*
X131242000Y-108423000D02*
X131522000Y-108423000D01*
G75*
G02*
X131722000Y-108623000I0J-200000D01*
G01*
X131722000Y-110123000D01*
G75*
G02*
X131522000Y-110323000I-200000J0D01*
G01*
X131242000Y-110323000D01*
G75*
G02*
X131042000Y-110123000I0J200000D01*
G01*
X131042000Y-108623000D01*
G75*
G02*
X131242000Y-108423000I200000J0D01*
G01*
G37*
G36*
G01*
X130742000Y-108423000D02*
X131022000Y-108423000D01*
G75*
G02*
X131222000Y-108623000I0J-200000D01*
G01*
X131222000Y-110123000D01*
G75*
G02*
X131022000Y-110323000I-200000J0D01*
G01*
X130742000Y-110323000D01*
G75*
G02*
X130542000Y-110123000I0J200000D01*
G01*
X130542000Y-108623000D01*
G75*
G02*
X130742000Y-108423000I200000J0D01*
G01*
G37*
G36*
G01*
X130242000Y-108423000D02*
X130522000Y-108423000D01*
G75*
G02*
X130722000Y-108623000I0J-200000D01*
G01*
X130722000Y-110123000D01*
G75*
G02*
X130522000Y-110323000I-200000J0D01*
G01*
X130242000Y-110323000D01*
G75*
G02*
X130042000Y-110123000I0J200000D01*
G01*
X130042000Y-108623000D01*
G75*
G02*
X130242000Y-108423000I200000J0D01*
G01*
G37*
G36*
G01*
X129742000Y-108423000D02*
X130022000Y-108423000D01*
G75*
G02*
X130222000Y-108623000I0J-200000D01*
G01*
X130222000Y-110123000D01*
G75*
G02*
X130022000Y-110323000I-200000J0D01*
G01*
X129742000Y-110323000D01*
G75*
G02*
X129542000Y-110123000I0J200000D01*
G01*
X129542000Y-108623000D01*
G75*
G02*
X129742000Y-108423000I200000J0D01*
G01*
G37*
G36*
G01*
X129242000Y-108423000D02*
X129522000Y-108423000D01*
G75*
G02*
X129722000Y-108623000I0J-200000D01*
G01*
X129722000Y-110123000D01*
G75*
G02*
X129522000Y-110323000I-200000J0D01*
G01*
X129242000Y-110323000D01*
G75*
G02*
X129042000Y-110123000I0J200000D01*
G01*
X129042000Y-108623000D01*
G75*
G02*
X129242000Y-108423000I200000J0D01*
G01*
G37*
G36*
G01*
X126532000Y-107613000D02*
X126532000Y-107333000D01*
G75*
G02*
X126732000Y-107133000I200000J0D01*
G01*
X128232000Y-107133000D01*
G75*
G02*
X128432000Y-107333000I0J-200000D01*
G01*
X128432000Y-107613000D01*
G75*
G02*
X128232000Y-107813000I-200000J0D01*
G01*
X126732000Y-107813000D01*
G75*
G02*
X126532000Y-107613000I0J200000D01*
G01*
G37*
G36*
G01*
X126532000Y-107113000D02*
X126532000Y-106833000D01*
G75*
G02*
X126732000Y-106633000I200000J0D01*
G01*
X128232000Y-106633000D01*
G75*
G02*
X128432000Y-106833000I0J-200000D01*
G01*
X128432000Y-107113000D01*
G75*
G02*
X128232000Y-107313000I-200000J0D01*
G01*
X126732000Y-107313000D01*
G75*
G02*
X126532000Y-107113000I0J200000D01*
G01*
G37*
G36*
G01*
X126532000Y-106613000D02*
X126532000Y-106333000D01*
G75*
G02*
X126732000Y-106133000I200000J0D01*
G01*
X128232000Y-106133000D01*
G75*
G02*
X128432000Y-106333000I0J-200000D01*
G01*
X128432000Y-106613000D01*
G75*
G02*
X128232000Y-106813000I-200000J0D01*
G01*
X126732000Y-106813000D01*
G75*
G02*
X126532000Y-106613000I0J200000D01*
G01*
G37*
G36*
G01*
X126532000Y-106113000D02*
X126532000Y-105833000D01*
G75*
G02*
X126732000Y-105633000I200000J0D01*
G01*
X128232000Y-105633000D01*
G75*
G02*
X128432000Y-105833000I0J-200000D01*
G01*
X128432000Y-106113000D01*
G75*
G02*
X128232000Y-106313000I-200000J0D01*
G01*
X126732000Y-106313000D01*
G75*
G02*
X126532000Y-106113000I0J200000D01*
G01*
G37*
G36*
G01*
X126532000Y-105613000D02*
X126532000Y-105333000D01*
G75*
G02*
X126732000Y-105133000I200000J0D01*
G01*
X128232000Y-105133000D01*
G75*
G02*
X128432000Y-105333000I0J-200000D01*
G01*
X128432000Y-105613000D01*
G75*
G02*
X128232000Y-105813000I-200000J0D01*
G01*
X126732000Y-105813000D01*
G75*
G02*
X126532000Y-105613000I0J200000D01*
G01*
G37*
G36*
G01*
X126532000Y-105113000D02*
X126532000Y-104833000D01*
G75*
G02*
X126732000Y-104633000I200000J0D01*
G01*
X128232000Y-104633000D01*
G75*
G02*
X128432000Y-104833000I0J-200000D01*
G01*
X128432000Y-105113000D01*
G75*
G02*
X128232000Y-105313000I-200000J0D01*
G01*
X126732000Y-105313000D01*
G75*
G02*
X126532000Y-105113000I0J200000D01*
G01*
G37*
G36*
G01*
X126532000Y-104613000D02*
X126532000Y-104333000D01*
G75*
G02*
X126732000Y-104133000I200000J0D01*
G01*
X128232000Y-104133000D01*
G75*
G02*
X128432000Y-104333000I0J-200000D01*
G01*
X128432000Y-104613000D01*
G75*
G02*
X128232000Y-104813000I-200000J0D01*
G01*
X126732000Y-104813000D01*
G75*
G02*
X126532000Y-104613000I0J200000D01*
G01*
G37*
G36*
G01*
X126532000Y-104113000D02*
X126532000Y-103833000D01*
G75*
G02*
X126732000Y-103633000I200000J0D01*
G01*
X128232000Y-103633000D01*
G75*
G02*
X128432000Y-103833000I0J-200000D01*
G01*
X128432000Y-104113000D01*
G75*
G02*
X128232000Y-104313000I-200000J0D01*
G01*
X126732000Y-104313000D01*
G75*
G02*
X126532000Y-104113000I0J200000D01*
G01*
G37*
G36*
G01*
X126532000Y-103613000D02*
X126532000Y-103333000D01*
G75*
G02*
X126732000Y-103133000I200000J0D01*
G01*
X128232000Y-103133000D01*
G75*
G02*
X128432000Y-103333000I0J-200000D01*
G01*
X128432000Y-103613000D01*
G75*
G02*
X128232000Y-103813000I-200000J0D01*
G01*
X126732000Y-103813000D01*
G75*
G02*
X126532000Y-103613000I0J200000D01*
G01*
G37*
G36*
G01*
X126532000Y-103113000D02*
X126532000Y-102833000D01*
G75*
G02*
X126732000Y-102633000I200000J0D01*
G01*
X128232000Y-102633000D01*
G75*
G02*
X128432000Y-102833000I0J-200000D01*
G01*
X128432000Y-103113000D01*
G75*
G02*
X128232000Y-103313000I-200000J0D01*
G01*
X126732000Y-103313000D01*
G75*
G02*
X126532000Y-103113000I0J200000D01*
G01*
G37*
G36*
G01*
X126532000Y-102613000D02*
X126532000Y-102333000D01*
G75*
G02*
X126732000Y-102133000I200000J0D01*
G01*
X128232000Y-102133000D01*
G75*
G02*
X128432000Y-102333000I0J-200000D01*
G01*
X128432000Y-102613000D01*
G75*
G02*
X128232000Y-102813000I-200000J0D01*
G01*
X126732000Y-102813000D01*
G75*
G02*
X126532000Y-102613000I0J200000D01*
G01*
G37*
G36*
G01*
X126532000Y-102113000D02*
X126532000Y-101833000D01*
G75*
G02*
X126732000Y-101633000I200000J0D01*
G01*
X128232000Y-101633000D01*
G75*
G02*
X128432000Y-101833000I0J-200000D01*
G01*
X128432000Y-102113000D01*
G75*
G02*
X128232000Y-102313000I-200000J0D01*
G01*
X126732000Y-102313000D01*
G75*
G02*
X126532000Y-102113000I0J200000D01*
G01*
G37*
G36*
G01*
X126532000Y-101613000D02*
X126532000Y-101333000D01*
G75*
G02*
X126732000Y-101133000I200000J0D01*
G01*
X128232000Y-101133000D01*
G75*
G02*
X128432000Y-101333000I0J-200000D01*
G01*
X128432000Y-101613000D01*
G75*
G02*
X128232000Y-101813000I-200000J0D01*
G01*
X126732000Y-101813000D01*
G75*
G02*
X126532000Y-101613000I0J200000D01*
G01*
G37*
G36*
G01*
X126532000Y-101113000D02*
X126532000Y-100833000D01*
G75*
G02*
X126732000Y-100633000I200000J0D01*
G01*
X128232000Y-100633000D01*
G75*
G02*
X128432000Y-100833000I0J-200000D01*
G01*
X128432000Y-101113000D01*
G75*
G02*
X128232000Y-101313000I-200000J0D01*
G01*
X126732000Y-101313000D01*
G75*
G02*
X126532000Y-101113000I0J200000D01*
G01*
G37*
G36*
G01*
X126532000Y-100613000D02*
X126532000Y-100333000D01*
G75*
G02*
X126732000Y-100133000I200000J0D01*
G01*
X128232000Y-100133000D01*
G75*
G02*
X128432000Y-100333000I0J-200000D01*
G01*
X128432000Y-100613000D01*
G75*
G02*
X128232000Y-100813000I-200000J0D01*
G01*
X126732000Y-100813000D01*
G75*
G02*
X126532000Y-100613000I0J200000D01*
G01*
G37*
G36*
G01*
X126532000Y-100113000D02*
X126532000Y-99833000D01*
G75*
G02*
X126732000Y-99633000I200000J0D01*
G01*
X128232000Y-99633000D01*
G75*
G02*
X128432000Y-99833000I0J-200000D01*
G01*
X128432000Y-100113000D01*
G75*
G02*
X128232000Y-100313000I-200000J0D01*
G01*
X126732000Y-100313000D01*
G75*
G02*
X126532000Y-100113000I0J200000D01*
G01*
G37*
G36*
G01*
X126532000Y-99613000D02*
X126532000Y-99333000D01*
G75*
G02*
X126732000Y-99133000I200000J0D01*
G01*
X128232000Y-99133000D01*
G75*
G02*
X128432000Y-99333000I0J-200000D01*
G01*
X128432000Y-99613000D01*
G75*
G02*
X128232000Y-99813000I-200000J0D01*
G01*
X126732000Y-99813000D01*
G75*
G02*
X126532000Y-99613000I0J200000D01*
G01*
G37*
G36*
G01*
X126532000Y-99113000D02*
X126532000Y-98833000D01*
G75*
G02*
X126732000Y-98633000I200000J0D01*
G01*
X128232000Y-98633000D01*
G75*
G02*
X128432000Y-98833000I0J-200000D01*
G01*
X128432000Y-99113000D01*
G75*
G02*
X128232000Y-99313000I-200000J0D01*
G01*
X126732000Y-99313000D01*
G75*
G02*
X126532000Y-99113000I0J200000D01*
G01*
G37*
G36*
G01*
X126532000Y-98613000D02*
X126532000Y-98333000D01*
G75*
G02*
X126732000Y-98133000I200000J0D01*
G01*
X128232000Y-98133000D01*
G75*
G02*
X128432000Y-98333000I0J-200000D01*
G01*
X128432000Y-98613000D01*
G75*
G02*
X128232000Y-98813000I-200000J0D01*
G01*
X126732000Y-98813000D01*
G75*
G02*
X126532000Y-98613000I0J200000D01*
G01*
G37*
G36*
G01*
X126532000Y-98113000D02*
X126532000Y-97833000D01*
G75*
G02*
X126732000Y-97633000I200000J0D01*
G01*
X128232000Y-97633000D01*
G75*
G02*
X128432000Y-97833000I0J-200000D01*
G01*
X128432000Y-98113000D01*
G75*
G02*
X128232000Y-98313000I-200000J0D01*
G01*
X126732000Y-98313000D01*
G75*
G02*
X126532000Y-98113000I0J200000D01*
G01*
G37*
G36*
G01*
X126532000Y-97613000D02*
X126532000Y-97333000D01*
G75*
G02*
X126732000Y-97133000I200000J0D01*
G01*
X128232000Y-97133000D01*
G75*
G02*
X128432000Y-97333000I0J-200000D01*
G01*
X128432000Y-97613000D01*
G75*
G02*
X128232000Y-97813000I-200000J0D01*
G01*
X126732000Y-97813000D01*
G75*
G02*
X126532000Y-97613000I0J200000D01*
G01*
G37*
G36*
G01*
X126532000Y-97113000D02*
X126532000Y-96833000D01*
G75*
G02*
X126732000Y-96633000I200000J0D01*
G01*
X128232000Y-96633000D01*
G75*
G02*
X128432000Y-96833000I0J-200000D01*
G01*
X128432000Y-97113000D01*
G75*
G02*
X128232000Y-97313000I-200000J0D01*
G01*
X126732000Y-97313000D01*
G75*
G02*
X126532000Y-97113000I0J200000D01*
G01*
G37*
G36*
G01*
X126532000Y-96613000D02*
X126532000Y-96333000D01*
G75*
G02*
X126732000Y-96133000I200000J0D01*
G01*
X128232000Y-96133000D01*
G75*
G02*
X128432000Y-96333000I0J-200000D01*
G01*
X128432000Y-96613000D01*
G75*
G02*
X128232000Y-96813000I-200000J0D01*
G01*
X126732000Y-96813000D01*
G75*
G02*
X126532000Y-96613000I0J200000D01*
G01*
G37*
G36*
G01*
X126532000Y-96113000D02*
X126532000Y-95833000D01*
G75*
G02*
X126732000Y-95633000I200000J0D01*
G01*
X128232000Y-95633000D01*
G75*
G02*
X128432000Y-95833000I0J-200000D01*
G01*
X128432000Y-96113000D01*
G75*
G02*
X128232000Y-96313000I-200000J0D01*
G01*
X126732000Y-96313000D01*
G75*
G02*
X126532000Y-96113000I0J200000D01*
G01*
G37*
G36*
G01*
X126532000Y-95613000D02*
X126532000Y-95333000D01*
G75*
G02*
X126732000Y-95133000I200000J0D01*
G01*
X128232000Y-95133000D01*
G75*
G02*
X128432000Y-95333000I0J-200000D01*
G01*
X128432000Y-95613000D01*
G75*
G02*
X128232000Y-95813000I-200000J0D01*
G01*
X126732000Y-95813000D01*
G75*
G02*
X126532000Y-95613000I0J200000D01*
G01*
G37*
G36*
G01*
X129242000Y-92623000D02*
X129522000Y-92623000D01*
G75*
G02*
X129722000Y-92823000I0J-200000D01*
G01*
X129722000Y-94323000D01*
G75*
G02*
X129522000Y-94523000I-200000J0D01*
G01*
X129242000Y-94523000D01*
G75*
G02*
X129042000Y-94323000I0J200000D01*
G01*
X129042000Y-92823000D01*
G75*
G02*
X129242000Y-92623000I200000J0D01*
G01*
G37*
G36*
G01*
X129742000Y-92623000D02*
X130022000Y-92623000D01*
G75*
G02*
X130222000Y-92823000I0J-200000D01*
G01*
X130222000Y-94323000D01*
G75*
G02*
X130022000Y-94523000I-200000J0D01*
G01*
X129742000Y-94523000D01*
G75*
G02*
X129542000Y-94323000I0J200000D01*
G01*
X129542000Y-92823000D01*
G75*
G02*
X129742000Y-92623000I200000J0D01*
G01*
G37*
G36*
G01*
X130242000Y-92623000D02*
X130522000Y-92623000D01*
G75*
G02*
X130722000Y-92823000I0J-200000D01*
G01*
X130722000Y-94323000D01*
G75*
G02*
X130522000Y-94523000I-200000J0D01*
G01*
X130242000Y-94523000D01*
G75*
G02*
X130042000Y-94323000I0J200000D01*
G01*
X130042000Y-92823000D01*
G75*
G02*
X130242000Y-92623000I200000J0D01*
G01*
G37*
G36*
G01*
X130742000Y-92623000D02*
X131022000Y-92623000D01*
G75*
G02*
X131222000Y-92823000I0J-200000D01*
G01*
X131222000Y-94323000D01*
G75*
G02*
X131022000Y-94523000I-200000J0D01*
G01*
X130742000Y-94523000D01*
G75*
G02*
X130542000Y-94323000I0J200000D01*
G01*
X130542000Y-92823000D01*
G75*
G02*
X130742000Y-92623000I200000J0D01*
G01*
G37*
G36*
G01*
X131242000Y-92623000D02*
X131522000Y-92623000D01*
G75*
G02*
X131722000Y-92823000I0J-200000D01*
G01*
X131722000Y-94323000D01*
G75*
G02*
X131522000Y-94523000I-200000J0D01*
G01*
X131242000Y-94523000D01*
G75*
G02*
X131042000Y-94323000I0J200000D01*
G01*
X131042000Y-92823000D01*
G75*
G02*
X131242000Y-92623000I200000J0D01*
G01*
G37*
G36*
G01*
X131742000Y-92623000D02*
X132022000Y-92623000D01*
G75*
G02*
X132222000Y-92823000I0J-200000D01*
G01*
X132222000Y-94323000D01*
G75*
G02*
X132022000Y-94523000I-200000J0D01*
G01*
X131742000Y-94523000D01*
G75*
G02*
X131542000Y-94323000I0J200000D01*
G01*
X131542000Y-92823000D01*
G75*
G02*
X131742000Y-92623000I200000J0D01*
G01*
G37*
G36*
G01*
X132242000Y-92623000D02*
X132522000Y-92623000D01*
G75*
G02*
X132722000Y-92823000I0J-200000D01*
G01*
X132722000Y-94323000D01*
G75*
G02*
X132522000Y-94523000I-200000J0D01*
G01*
X132242000Y-94523000D01*
G75*
G02*
X132042000Y-94323000I0J200000D01*
G01*
X132042000Y-92823000D01*
G75*
G02*
X132242000Y-92623000I200000J0D01*
G01*
G37*
G36*
G01*
X132742000Y-92623000D02*
X133022000Y-92623000D01*
G75*
G02*
X133222000Y-92823000I0J-200000D01*
G01*
X133222000Y-94323000D01*
G75*
G02*
X133022000Y-94523000I-200000J0D01*
G01*
X132742000Y-94523000D01*
G75*
G02*
X132542000Y-94323000I0J200000D01*
G01*
X132542000Y-92823000D01*
G75*
G02*
X132742000Y-92623000I200000J0D01*
G01*
G37*
G36*
G01*
X133242000Y-92623000D02*
X133522000Y-92623000D01*
G75*
G02*
X133722000Y-92823000I0J-200000D01*
G01*
X133722000Y-94323000D01*
G75*
G02*
X133522000Y-94523000I-200000J0D01*
G01*
X133242000Y-94523000D01*
G75*
G02*
X133042000Y-94323000I0J200000D01*
G01*
X133042000Y-92823000D01*
G75*
G02*
X133242000Y-92623000I200000J0D01*
G01*
G37*
G36*
G01*
X133742000Y-92623000D02*
X134022000Y-92623000D01*
G75*
G02*
X134222000Y-92823000I0J-200000D01*
G01*
X134222000Y-94323000D01*
G75*
G02*
X134022000Y-94523000I-200000J0D01*
G01*
X133742000Y-94523000D01*
G75*
G02*
X133542000Y-94323000I0J200000D01*
G01*
X133542000Y-92823000D01*
G75*
G02*
X133742000Y-92623000I200000J0D01*
G01*
G37*
G36*
G01*
X134242000Y-92623000D02*
X134522000Y-92623000D01*
G75*
G02*
X134722000Y-92823000I0J-200000D01*
G01*
X134722000Y-94323000D01*
G75*
G02*
X134522000Y-94523000I-200000J0D01*
G01*
X134242000Y-94523000D01*
G75*
G02*
X134042000Y-94323000I0J200000D01*
G01*
X134042000Y-92823000D01*
G75*
G02*
X134242000Y-92623000I200000J0D01*
G01*
G37*
G36*
G01*
X134742000Y-92623000D02*
X135022000Y-92623000D01*
G75*
G02*
X135222000Y-92823000I0J-200000D01*
G01*
X135222000Y-94323000D01*
G75*
G02*
X135022000Y-94523000I-200000J0D01*
G01*
X134742000Y-94523000D01*
G75*
G02*
X134542000Y-94323000I0J200000D01*
G01*
X134542000Y-92823000D01*
G75*
G02*
X134742000Y-92623000I200000J0D01*
G01*
G37*
G36*
G01*
X135242000Y-92623000D02*
X135522000Y-92623000D01*
G75*
G02*
X135722000Y-92823000I0J-200000D01*
G01*
X135722000Y-94323000D01*
G75*
G02*
X135522000Y-94523000I-200000J0D01*
G01*
X135242000Y-94523000D01*
G75*
G02*
X135042000Y-94323000I0J200000D01*
G01*
X135042000Y-92823000D01*
G75*
G02*
X135242000Y-92623000I200000J0D01*
G01*
G37*
G36*
G01*
X135742000Y-92623000D02*
X136022000Y-92623000D01*
G75*
G02*
X136222000Y-92823000I0J-200000D01*
G01*
X136222000Y-94323000D01*
G75*
G02*
X136022000Y-94523000I-200000J0D01*
G01*
X135742000Y-94523000D01*
G75*
G02*
X135542000Y-94323000I0J200000D01*
G01*
X135542000Y-92823000D01*
G75*
G02*
X135742000Y-92623000I200000J0D01*
G01*
G37*
G36*
G01*
X136242000Y-92623000D02*
X136522000Y-92623000D01*
G75*
G02*
X136722000Y-92823000I0J-200000D01*
G01*
X136722000Y-94323000D01*
G75*
G02*
X136522000Y-94523000I-200000J0D01*
G01*
X136242000Y-94523000D01*
G75*
G02*
X136042000Y-94323000I0J200000D01*
G01*
X136042000Y-92823000D01*
G75*
G02*
X136242000Y-92623000I200000J0D01*
G01*
G37*
G36*
G01*
X136742000Y-92623000D02*
X137022000Y-92623000D01*
G75*
G02*
X137222000Y-92823000I0J-200000D01*
G01*
X137222000Y-94323000D01*
G75*
G02*
X137022000Y-94523000I-200000J0D01*
G01*
X136742000Y-94523000D01*
G75*
G02*
X136542000Y-94323000I0J200000D01*
G01*
X136542000Y-92823000D01*
G75*
G02*
X136742000Y-92623000I200000J0D01*
G01*
G37*
G36*
G01*
X137242000Y-92623000D02*
X137522000Y-92623000D01*
G75*
G02*
X137722000Y-92823000I0J-200000D01*
G01*
X137722000Y-94323000D01*
G75*
G02*
X137522000Y-94523000I-200000J0D01*
G01*
X137242000Y-94523000D01*
G75*
G02*
X137042000Y-94323000I0J200000D01*
G01*
X137042000Y-92823000D01*
G75*
G02*
X137242000Y-92623000I200000J0D01*
G01*
G37*
G36*
G01*
X137742000Y-92623000D02*
X138022000Y-92623000D01*
G75*
G02*
X138222000Y-92823000I0J-200000D01*
G01*
X138222000Y-94323000D01*
G75*
G02*
X138022000Y-94523000I-200000J0D01*
G01*
X137742000Y-94523000D01*
G75*
G02*
X137542000Y-94323000I0J200000D01*
G01*
X137542000Y-92823000D01*
G75*
G02*
X137742000Y-92623000I200000J0D01*
G01*
G37*
G36*
G01*
X138242000Y-92623000D02*
X138522000Y-92623000D01*
G75*
G02*
X138722000Y-92823000I0J-200000D01*
G01*
X138722000Y-94323000D01*
G75*
G02*
X138522000Y-94523000I-200000J0D01*
G01*
X138242000Y-94523000D01*
G75*
G02*
X138042000Y-94323000I0J200000D01*
G01*
X138042000Y-92823000D01*
G75*
G02*
X138242000Y-92623000I200000J0D01*
G01*
G37*
G36*
G01*
X138742000Y-92623000D02*
X139022000Y-92623000D01*
G75*
G02*
X139222000Y-92823000I0J-200000D01*
G01*
X139222000Y-94323000D01*
G75*
G02*
X139022000Y-94523000I-200000J0D01*
G01*
X138742000Y-94523000D01*
G75*
G02*
X138542000Y-94323000I0J200000D01*
G01*
X138542000Y-92823000D01*
G75*
G02*
X138742000Y-92623000I200000J0D01*
G01*
G37*
G36*
G01*
X139242000Y-92623000D02*
X139522000Y-92623000D01*
G75*
G02*
X139722000Y-92823000I0J-200000D01*
G01*
X139722000Y-94323000D01*
G75*
G02*
X139522000Y-94523000I-200000J0D01*
G01*
X139242000Y-94523000D01*
G75*
G02*
X139042000Y-94323000I0J200000D01*
G01*
X139042000Y-92823000D01*
G75*
G02*
X139242000Y-92623000I200000J0D01*
G01*
G37*
G36*
G01*
X139742000Y-92623000D02*
X140022000Y-92623000D01*
G75*
G02*
X140222000Y-92823000I0J-200000D01*
G01*
X140222000Y-94323000D01*
G75*
G02*
X140022000Y-94523000I-200000J0D01*
G01*
X139742000Y-94523000D01*
G75*
G02*
X139542000Y-94323000I0J200000D01*
G01*
X139542000Y-92823000D01*
G75*
G02*
X139742000Y-92623000I200000J0D01*
G01*
G37*
G36*
G01*
X140242000Y-92623000D02*
X140522000Y-92623000D01*
G75*
G02*
X140722000Y-92823000I0J-200000D01*
G01*
X140722000Y-94323000D01*
G75*
G02*
X140522000Y-94523000I-200000J0D01*
G01*
X140242000Y-94523000D01*
G75*
G02*
X140042000Y-94323000I0J200000D01*
G01*
X140042000Y-92823000D01*
G75*
G02*
X140242000Y-92623000I200000J0D01*
G01*
G37*
G36*
G01*
X140742000Y-92623000D02*
X141022000Y-92623000D01*
G75*
G02*
X141222000Y-92823000I0J-200000D01*
G01*
X141222000Y-94323000D01*
G75*
G02*
X141022000Y-94523000I-200000J0D01*
G01*
X140742000Y-94523000D01*
G75*
G02*
X140542000Y-94323000I0J200000D01*
G01*
X140542000Y-92823000D01*
G75*
G02*
X140742000Y-92623000I200000J0D01*
G01*
G37*
G36*
G01*
X141242000Y-92623000D02*
X141522000Y-92623000D01*
G75*
G02*
X141722000Y-92823000I0J-200000D01*
G01*
X141722000Y-94323000D01*
G75*
G02*
X141522000Y-94523000I-200000J0D01*
G01*
X141242000Y-94523000D01*
G75*
G02*
X141042000Y-94323000I0J200000D01*
G01*
X141042000Y-92823000D01*
G75*
G02*
X141242000Y-92623000I200000J0D01*
G01*
G37*
G36*
G01*
X118864000Y-100446000D02*
X118864000Y-102246000D01*
G75*
G02*
X118664000Y-102446000I-200000J0D01*
G01*
X117419000Y-102446000D01*
G75*
G02*
X117219000Y-102246000I0J200000D01*
G01*
X117219000Y-100446000D01*
G75*
G02*
X117419000Y-100246000I200000J0D01*
G01*
X118664000Y-100246000D01*
G75*
G02*
X118864000Y-100446000I0J-200000D01*
G01*
G37*
G36*
G01*
X122049000Y-100446000D02*
X122049000Y-102246000D01*
G75*
G02*
X121849000Y-102446000I-200000J0D01*
G01*
X120604000Y-102446000D01*
G75*
G02*
X120404000Y-102246000I0J200000D01*
G01*
X120404000Y-100446000D01*
G75*
G02*
X120604000Y-100246000I200000J0D01*
G01*
X121849000Y-100246000D01*
G75*
G02*
X122049000Y-100446000I0J-200000D01*
G01*
G37*
G36*
G01*
X119769000Y-111136000D02*
X119769000Y-109336000D01*
G75*
G02*
X119969000Y-109136000I200000J0D01*
G01*
X121214000Y-109136000D01*
G75*
G02*
X121414000Y-109336000I0J-200000D01*
G01*
X121414000Y-111136000D01*
G75*
G02*
X121214000Y-111336000I-200000J0D01*
G01*
X119969000Y-111336000D01*
G75*
G02*
X119769000Y-111136000I0J200000D01*
G01*
G37*
G36*
G01*
X116584000Y-111136000D02*
X116584000Y-109336000D01*
G75*
G02*
X116784000Y-109136000I200000J0D01*
G01*
X118029000Y-109136000D01*
G75*
G02*
X118229000Y-109336000I0J-200000D01*
G01*
X118229000Y-111136000D01*
G75*
G02*
X118029000Y-111336000I-200000J0D01*
G01*
X116784000Y-111336000D01*
G75*
G02*
X116584000Y-111136000I0J200000D01*
G01*
G37*
G36*
G01*
X151122000Y-108320000D02*
X151122000Y-110120000D01*
G75*
G02*
X150922000Y-110320000I-200000J0D01*
G01*
X149677000Y-110320000D01*
G75*
G02*
X149477000Y-110120000I0J200000D01*
G01*
X149477000Y-108320000D01*
G75*
G02*
X149677000Y-108120000I200000J0D01*
G01*
X150922000Y-108120000D01*
G75*
G02*
X151122000Y-108320000I0J-200000D01*
G01*
G37*
G36*
G01*
X154307000Y-108320000D02*
X154307000Y-110120000D01*
G75*
G02*
X154107000Y-110320000I-200000J0D01*
G01*
X152862000Y-110320000D01*
G75*
G02*
X152662000Y-110120000I0J200000D01*
G01*
X152662000Y-108320000D01*
G75*
G02*
X152862000Y-108120000I200000J0D01*
G01*
X154107000Y-108120000D01*
G75*
G02*
X154307000Y-108320000I0J-200000D01*
G01*
G37*
D13*
X187960000Y-88138000D03*
X189230000Y-89408000D03*
G36*
G01*
X187190000Y-90108000D02*
X186190000Y-90108000D01*
G75*
G02*
X185990000Y-89908000I0J200000D01*
G01*
X185990000Y-88908000D01*
G75*
G02*
X186190000Y-88708000I200000J0D01*
G01*
X187190000Y-88708000D01*
G75*
G02*
X187390000Y-88908000I0J-200000D01*
G01*
X187390000Y-89908000D01*
G75*
G02*
X187190000Y-90108000I-200000J0D01*
G01*
G37*
G36*
G01*
X211555000Y-103135000D02*
X211555000Y-102885000D01*
G75*
G02*
X211755000Y-102685000I200000J0D01*
G01*
X213205000Y-102685000D01*
G75*
G02*
X213405000Y-102885000I0J-200000D01*
G01*
X213405000Y-103135000D01*
G75*
G02*
X213205000Y-103335000I-200000J0D01*
G01*
X211755000Y-103335000D01*
G75*
G02*
X211555000Y-103135000I0J200000D01*
G01*
G37*
G36*
G01*
X211555000Y-103635000D02*
X211555000Y-103385000D01*
G75*
G02*
X211755000Y-103185000I200000J0D01*
G01*
X213205000Y-103185000D01*
G75*
G02*
X213405000Y-103385000I0J-200000D01*
G01*
X213405000Y-103635000D01*
G75*
G02*
X213205000Y-103835000I-200000J0D01*
G01*
X211755000Y-103835000D01*
G75*
G02*
X211555000Y-103635000I0J200000D01*
G01*
G37*
G36*
G01*
X211555000Y-104135000D02*
X211555000Y-103885000D01*
G75*
G02*
X211755000Y-103685000I200000J0D01*
G01*
X213205000Y-103685000D01*
G75*
G02*
X213405000Y-103885000I0J-200000D01*
G01*
X213405000Y-104135000D01*
G75*
G02*
X213205000Y-104335000I-200000J0D01*
G01*
X211755000Y-104335000D01*
G75*
G02*
X211555000Y-104135000I0J200000D01*
G01*
G37*
G36*
G01*
X211555000Y-104635000D02*
X211555000Y-104385000D01*
G75*
G02*
X211755000Y-104185000I200000J0D01*
G01*
X213205000Y-104185000D01*
G75*
G02*
X213405000Y-104385000I0J-200000D01*
G01*
X213405000Y-104635000D01*
G75*
G02*
X213205000Y-104835000I-200000J0D01*
G01*
X211755000Y-104835000D01*
G75*
G02*
X211555000Y-104635000I0J200000D01*
G01*
G37*
G36*
G01*
X211555000Y-105135000D02*
X211555000Y-104885000D01*
G75*
G02*
X211755000Y-104685000I200000J0D01*
G01*
X213205000Y-104685000D01*
G75*
G02*
X213405000Y-104885000I0J-200000D01*
G01*
X213405000Y-105135000D01*
G75*
G02*
X213205000Y-105335000I-200000J0D01*
G01*
X211755000Y-105335000D01*
G75*
G02*
X211555000Y-105135000I0J200000D01*
G01*
G37*
G36*
G01*
X211555000Y-105635000D02*
X211555000Y-105385000D01*
G75*
G02*
X211755000Y-105185000I200000J0D01*
G01*
X213205000Y-105185000D01*
G75*
G02*
X213405000Y-105385000I0J-200000D01*
G01*
X213405000Y-105635000D01*
G75*
G02*
X213205000Y-105835000I-200000J0D01*
G01*
X211755000Y-105835000D01*
G75*
G02*
X211555000Y-105635000I0J200000D01*
G01*
G37*
G36*
G01*
X211555000Y-106135000D02*
X211555000Y-105885000D01*
G75*
G02*
X211755000Y-105685000I200000J0D01*
G01*
X213205000Y-105685000D01*
G75*
G02*
X213405000Y-105885000I0J-200000D01*
G01*
X213405000Y-106135000D01*
G75*
G02*
X213205000Y-106335000I-200000J0D01*
G01*
X211755000Y-106335000D01*
G75*
G02*
X211555000Y-106135000I0J200000D01*
G01*
G37*
G36*
G01*
X211555000Y-106635000D02*
X211555000Y-106385000D01*
G75*
G02*
X211755000Y-106185000I200000J0D01*
G01*
X213205000Y-106185000D01*
G75*
G02*
X213405000Y-106385000I0J-200000D01*
G01*
X213405000Y-106635000D01*
G75*
G02*
X213205000Y-106835000I-200000J0D01*
G01*
X211755000Y-106835000D01*
G75*
G02*
X211555000Y-106635000I0J200000D01*
G01*
G37*
G36*
G01*
X211555000Y-107135000D02*
X211555000Y-106885000D01*
G75*
G02*
X211755000Y-106685000I200000J0D01*
G01*
X213205000Y-106685000D01*
G75*
G02*
X213405000Y-106885000I0J-200000D01*
G01*
X213405000Y-107135000D01*
G75*
G02*
X213205000Y-107335000I-200000J0D01*
G01*
X211755000Y-107335000D01*
G75*
G02*
X211555000Y-107135000I0J200000D01*
G01*
G37*
G36*
G01*
X211555000Y-107635000D02*
X211555000Y-107385000D01*
G75*
G02*
X211755000Y-107185000I200000J0D01*
G01*
X213205000Y-107185000D01*
G75*
G02*
X213405000Y-107385000I0J-200000D01*
G01*
X213405000Y-107635000D01*
G75*
G02*
X213205000Y-107835000I-200000J0D01*
G01*
X211755000Y-107835000D01*
G75*
G02*
X211555000Y-107635000I0J200000D01*
G01*
G37*
G36*
G01*
X211555000Y-108135000D02*
X211555000Y-107885000D01*
G75*
G02*
X211755000Y-107685000I200000J0D01*
G01*
X213205000Y-107685000D01*
G75*
G02*
X213405000Y-107885000I0J-200000D01*
G01*
X213405000Y-108135000D01*
G75*
G02*
X213205000Y-108335000I-200000J0D01*
G01*
X211755000Y-108335000D01*
G75*
G02*
X211555000Y-108135000I0J200000D01*
G01*
G37*
G36*
G01*
X211555000Y-108635000D02*
X211555000Y-108385000D01*
G75*
G02*
X211755000Y-108185000I200000J0D01*
G01*
X213205000Y-108185000D01*
G75*
G02*
X213405000Y-108385000I0J-200000D01*
G01*
X213405000Y-108635000D01*
G75*
G02*
X213205000Y-108835000I-200000J0D01*
G01*
X211755000Y-108835000D01*
G75*
G02*
X211555000Y-108635000I0J200000D01*
G01*
G37*
G36*
G01*
X211555000Y-109135000D02*
X211555000Y-108885000D01*
G75*
G02*
X211755000Y-108685000I200000J0D01*
G01*
X213205000Y-108685000D01*
G75*
G02*
X213405000Y-108885000I0J-200000D01*
G01*
X213405000Y-109135000D01*
G75*
G02*
X213205000Y-109335000I-200000J0D01*
G01*
X211755000Y-109335000D01*
G75*
G02*
X211555000Y-109135000I0J200000D01*
G01*
G37*
G36*
G01*
X211555000Y-109635000D02*
X211555000Y-109385000D01*
G75*
G02*
X211755000Y-109185000I200000J0D01*
G01*
X213205000Y-109185000D01*
G75*
G02*
X213405000Y-109385000I0J-200000D01*
G01*
X213405000Y-109635000D01*
G75*
G02*
X213205000Y-109835000I-200000J0D01*
G01*
X211755000Y-109835000D01*
G75*
G02*
X211555000Y-109635000I0J200000D01*
G01*
G37*
G36*
G01*
X211555000Y-110135000D02*
X211555000Y-109885000D01*
G75*
G02*
X211755000Y-109685000I200000J0D01*
G01*
X213205000Y-109685000D01*
G75*
G02*
X213405000Y-109885000I0J-200000D01*
G01*
X213405000Y-110135000D01*
G75*
G02*
X213205000Y-110335000I-200000J0D01*
G01*
X211755000Y-110335000D01*
G75*
G02*
X211555000Y-110135000I0J200000D01*
G01*
G37*
G36*
G01*
X211555000Y-110635000D02*
X211555000Y-110385000D01*
G75*
G02*
X211755000Y-110185000I200000J0D01*
G01*
X213205000Y-110185000D01*
G75*
G02*
X213405000Y-110385000I0J-200000D01*
G01*
X213405000Y-110635000D01*
G75*
G02*
X213205000Y-110835000I-200000J0D01*
G01*
X211755000Y-110835000D01*
G75*
G02*
X211555000Y-110635000I0J200000D01*
G01*
G37*
G36*
G01*
X211555000Y-111135000D02*
X211555000Y-110885000D01*
G75*
G02*
X211755000Y-110685000I200000J0D01*
G01*
X213205000Y-110685000D01*
G75*
G02*
X213405000Y-110885000I0J-200000D01*
G01*
X213405000Y-111135000D01*
G75*
G02*
X213205000Y-111335000I-200000J0D01*
G01*
X211755000Y-111335000D01*
G75*
G02*
X211555000Y-111135000I0J200000D01*
G01*
G37*
G36*
G01*
X211555000Y-111635000D02*
X211555000Y-111385000D01*
G75*
G02*
X211755000Y-111185000I200000J0D01*
G01*
X213205000Y-111185000D01*
G75*
G02*
X213405000Y-111385000I0J-200000D01*
G01*
X213405000Y-111635000D01*
G75*
G02*
X213205000Y-111835000I-200000J0D01*
G01*
X211755000Y-111835000D01*
G75*
G02*
X211555000Y-111635000I0J200000D01*
G01*
G37*
G36*
G01*
X211555000Y-112135000D02*
X211555000Y-111885000D01*
G75*
G02*
X211755000Y-111685000I200000J0D01*
G01*
X213205000Y-111685000D01*
G75*
G02*
X213405000Y-111885000I0J-200000D01*
G01*
X213405000Y-112135000D01*
G75*
G02*
X213205000Y-112335000I-200000J0D01*
G01*
X211755000Y-112335000D01*
G75*
G02*
X211555000Y-112135000I0J200000D01*
G01*
G37*
G36*
G01*
X211555000Y-112635000D02*
X211555000Y-112385000D01*
G75*
G02*
X211755000Y-112185000I200000J0D01*
G01*
X213205000Y-112185000D01*
G75*
G02*
X213405000Y-112385000I0J-200000D01*
G01*
X213405000Y-112635000D01*
G75*
G02*
X213205000Y-112835000I-200000J0D01*
G01*
X211755000Y-112835000D01*
G75*
G02*
X211555000Y-112635000I0J200000D01*
G01*
G37*
G36*
G01*
X211555000Y-113135000D02*
X211555000Y-112885000D01*
G75*
G02*
X211755000Y-112685000I200000J0D01*
G01*
X213205000Y-112685000D01*
G75*
G02*
X213405000Y-112885000I0J-200000D01*
G01*
X213405000Y-113135000D01*
G75*
G02*
X213205000Y-113335000I-200000J0D01*
G01*
X211755000Y-113335000D01*
G75*
G02*
X211555000Y-113135000I0J200000D01*
G01*
G37*
G36*
G01*
X211555000Y-113635000D02*
X211555000Y-113385000D01*
G75*
G02*
X211755000Y-113185000I200000J0D01*
G01*
X213205000Y-113185000D01*
G75*
G02*
X213405000Y-113385000I0J-200000D01*
G01*
X213405000Y-113635000D01*
G75*
G02*
X213205000Y-113835000I-200000J0D01*
G01*
X211755000Y-113835000D01*
G75*
G02*
X211555000Y-113635000I0J200000D01*
G01*
G37*
G36*
G01*
X211555000Y-114135000D02*
X211555000Y-113885000D01*
G75*
G02*
X211755000Y-113685000I200000J0D01*
G01*
X213205000Y-113685000D01*
G75*
G02*
X213405000Y-113885000I0J-200000D01*
G01*
X213405000Y-114135000D01*
G75*
G02*
X213205000Y-114335000I-200000J0D01*
G01*
X211755000Y-114335000D01*
G75*
G02*
X211555000Y-114135000I0J200000D01*
G01*
G37*
G36*
G01*
X211555000Y-114635000D02*
X211555000Y-114385000D01*
G75*
G02*
X211755000Y-114185000I200000J0D01*
G01*
X213205000Y-114185000D01*
G75*
G02*
X213405000Y-114385000I0J-200000D01*
G01*
X213405000Y-114635000D01*
G75*
G02*
X213205000Y-114835000I-200000J0D01*
G01*
X211755000Y-114835000D01*
G75*
G02*
X211555000Y-114635000I0J200000D01*
G01*
G37*
G36*
G01*
X211555000Y-115135000D02*
X211555000Y-114885000D01*
G75*
G02*
X211755000Y-114685000I200000J0D01*
G01*
X213205000Y-114685000D01*
G75*
G02*
X213405000Y-114885000I0J-200000D01*
G01*
X213405000Y-115135000D01*
G75*
G02*
X213205000Y-115335000I-200000J0D01*
G01*
X211755000Y-115335000D01*
G75*
G02*
X211555000Y-115135000I0J200000D01*
G01*
G37*
G36*
G01*
X211555000Y-115635000D02*
X211555000Y-115385000D01*
G75*
G02*
X211755000Y-115185000I200000J0D01*
G01*
X213205000Y-115185000D01*
G75*
G02*
X213405000Y-115385000I0J-200000D01*
G01*
X213405000Y-115635000D01*
G75*
G02*
X213205000Y-115835000I-200000J0D01*
G01*
X211755000Y-115835000D01*
G75*
G02*
X211555000Y-115635000I0J200000D01*
G01*
G37*
G36*
G01*
X211555000Y-116135000D02*
X211555000Y-115885000D01*
G75*
G02*
X211755000Y-115685000I200000J0D01*
G01*
X213205000Y-115685000D01*
G75*
G02*
X213405000Y-115885000I0J-200000D01*
G01*
X213405000Y-116135000D01*
G75*
G02*
X213205000Y-116335000I-200000J0D01*
G01*
X211755000Y-116335000D01*
G75*
G02*
X211555000Y-116135000I0J200000D01*
G01*
G37*
G36*
G01*
X211555000Y-116635000D02*
X211555000Y-116385000D01*
G75*
G02*
X211755000Y-116185000I200000J0D01*
G01*
X213205000Y-116185000D01*
G75*
G02*
X213405000Y-116385000I0J-200000D01*
G01*
X213405000Y-116635000D01*
G75*
G02*
X213205000Y-116835000I-200000J0D01*
G01*
X211755000Y-116835000D01*
G75*
G02*
X211555000Y-116635000I0J200000D01*
G01*
G37*
G36*
G01*
X211555000Y-117135000D02*
X211555000Y-116885000D01*
G75*
G02*
X211755000Y-116685000I200000J0D01*
G01*
X213205000Y-116685000D01*
G75*
G02*
X213405000Y-116885000I0J-200000D01*
G01*
X213405000Y-117135000D01*
G75*
G02*
X213205000Y-117335000I-200000J0D01*
G01*
X211755000Y-117335000D01*
G75*
G02*
X211555000Y-117135000I0J200000D01*
G01*
G37*
G36*
G01*
X211555000Y-117635000D02*
X211555000Y-117385000D01*
G75*
G02*
X211755000Y-117185000I200000J0D01*
G01*
X213205000Y-117185000D01*
G75*
G02*
X213405000Y-117385000I0J-200000D01*
G01*
X213405000Y-117635000D01*
G75*
G02*
X213205000Y-117835000I-200000J0D01*
G01*
X211755000Y-117835000D01*
G75*
G02*
X211555000Y-117635000I0J200000D01*
G01*
G37*
G36*
G01*
X211555000Y-118135000D02*
X211555000Y-117885000D01*
G75*
G02*
X211755000Y-117685000I200000J0D01*
G01*
X213205000Y-117685000D01*
G75*
G02*
X213405000Y-117885000I0J-200000D01*
G01*
X213405000Y-118135000D01*
G75*
G02*
X213205000Y-118335000I-200000J0D01*
G01*
X211755000Y-118335000D01*
G75*
G02*
X211555000Y-118135000I0J200000D01*
G01*
G37*
G36*
G01*
X211555000Y-118635000D02*
X211555000Y-118385000D01*
G75*
G02*
X211755000Y-118185000I200000J0D01*
G01*
X213205000Y-118185000D01*
G75*
G02*
X213405000Y-118385000I0J-200000D01*
G01*
X213405000Y-118635000D01*
G75*
G02*
X213205000Y-118835000I-200000J0D01*
G01*
X211755000Y-118835000D01*
G75*
G02*
X211555000Y-118635000I0J200000D01*
G01*
G37*
G36*
G01*
X211555000Y-119135000D02*
X211555000Y-118885000D01*
G75*
G02*
X211755000Y-118685000I200000J0D01*
G01*
X213205000Y-118685000D01*
G75*
G02*
X213405000Y-118885000I0J-200000D01*
G01*
X213405000Y-119135000D01*
G75*
G02*
X213205000Y-119335000I-200000J0D01*
G01*
X211755000Y-119335000D01*
G75*
G02*
X211555000Y-119135000I0J200000D01*
G01*
G37*
G36*
G01*
X211555000Y-119635000D02*
X211555000Y-119385000D01*
G75*
G02*
X211755000Y-119185000I200000J0D01*
G01*
X213205000Y-119185000D01*
G75*
G02*
X213405000Y-119385000I0J-200000D01*
G01*
X213405000Y-119635000D01*
G75*
G02*
X213205000Y-119835000I-200000J0D01*
G01*
X211755000Y-119835000D01*
G75*
G02*
X211555000Y-119635000I0J200000D01*
G01*
G37*
G36*
G01*
X211555000Y-120135000D02*
X211555000Y-119885000D01*
G75*
G02*
X211755000Y-119685000I200000J0D01*
G01*
X213205000Y-119685000D01*
G75*
G02*
X213405000Y-119885000I0J-200000D01*
G01*
X213405000Y-120135000D01*
G75*
G02*
X213205000Y-120335000I-200000J0D01*
G01*
X211755000Y-120335000D01*
G75*
G02*
X211555000Y-120135000I0J200000D01*
G01*
G37*
G36*
G01*
X211555000Y-120635000D02*
X211555000Y-120385000D01*
G75*
G02*
X211755000Y-120185000I200000J0D01*
G01*
X213205000Y-120185000D01*
G75*
G02*
X213405000Y-120385000I0J-200000D01*
G01*
X213405000Y-120635000D01*
G75*
G02*
X213205000Y-120835000I-200000J0D01*
G01*
X211755000Y-120835000D01*
G75*
G02*
X211555000Y-120635000I0J200000D01*
G01*
G37*
G36*
G01*
X210555000Y-121385000D02*
X210805000Y-121385000D01*
G75*
G02*
X211005000Y-121585000I0J-200000D01*
G01*
X211005000Y-123035000D01*
G75*
G02*
X210805000Y-123235000I-200000J0D01*
G01*
X210555000Y-123235000D01*
G75*
G02*
X210355000Y-123035000I0J200000D01*
G01*
X210355000Y-121585000D01*
G75*
G02*
X210555000Y-121385000I200000J0D01*
G01*
G37*
G36*
G01*
X210055000Y-121385000D02*
X210305000Y-121385000D01*
G75*
G02*
X210505000Y-121585000I0J-200000D01*
G01*
X210505000Y-123035000D01*
G75*
G02*
X210305000Y-123235000I-200000J0D01*
G01*
X210055000Y-123235000D01*
G75*
G02*
X209855000Y-123035000I0J200000D01*
G01*
X209855000Y-121585000D01*
G75*
G02*
X210055000Y-121385000I200000J0D01*
G01*
G37*
G36*
G01*
X209555000Y-121385000D02*
X209805000Y-121385000D01*
G75*
G02*
X210005000Y-121585000I0J-200000D01*
G01*
X210005000Y-123035000D01*
G75*
G02*
X209805000Y-123235000I-200000J0D01*
G01*
X209555000Y-123235000D01*
G75*
G02*
X209355000Y-123035000I0J200000D01*
G01*
X209355000Y-121585000D01*
G75*
G02*
X209555000Y-121385000I200000J0D01*
G01*
G37*
G36*
G01*
X209055000Y-121385000D02*
X209305000Y-121385000D01*
G75*
G02*
X209505000Y-121585000I0J-200000D01*
G01*
X209505000Y-123035000D01*
G75*
G02*
X209305000Y-123235000I-200000J0D01*
G01*
X209055000Y-123235000D01*
G75*
G02*
X208855000Y-123035000I0J200000D01*
G01*
X208855000Y-121585000D01*
G75*
G02*
X209055000Y-121385000I200000J0D01*
G01*
G37*
G36*
G01*
X208555000Y-121385000D02*
X208805000Y-121385000D01*
G75*
G02*
X209005000Y-121585000I0J-200000D01*
G01*
X209005000Y-123035000D01*
G75*
G02*
X208805000Y-123235000I-200000J0D01*
G01*
X208555000Y-123235000D01*
G75*
G02*
X208355000Y-123035000I0J200000D01*
G01*
X208355000Y-121585000D01*
G75*
G02*
X208555000Y-121385000I200000J0D01*
G01*
G37*
G36*
G01*
X208055000Y-121385000D02*
X208305000Y-121385000D01*
G75*
G02*
X208505000Y-121585000I0J-200000D01*
G01*
X208505000Y-123035000D01*
G75*
G02*
X208305000Y-123235000I-200000J0D01*
G01*
X208055000Y-123235000D01*
G75*
G02*
X207855000Y-123035000I0J200000D01*
G01*
X207855000Y-121585000D01*
G75*
G02*
X208055000Y-121385000I200000J0D01*
G01*
G37*
G36*
G01*
X207555000Y-121385000D02*
X207805000Y-121385000D01*
G75*
G02*
X208005000Y-121585000I0J-200000D01*
G01*
X208005000Y-123035000D01*
G75*
G02*
X207805000Y-123235000I-200000J0D01*
G01*
X207555000Y-123235000D01*
G75*
G02*
X207355000Y-123035000I0J200000D01*
G01*
X207355000Y-121585000D01*
G75*
G02*
X207555000Y-121385000I200000J0D01*
G01*
G37*
G36*
G01*
X207055000Y-121385000D02*
X207305000Y-121385000D01*
G75*
G02*
X207505000Y-121585000I0J-200000D01*
G01*
X207505000Y-123035000D01*
G75*
G02*
X207305000Y-123235000I-200000J0D01*
G01*
X207055000Y-123235000D01*
G75*
G02*
X206855000Y-123035000I0J200000D01*
G01*
X206855000Y-121585000D01*
G75*
G02*
X207055000Y-121385000I200000J0D01*
G01*
G37*
G36*
G01*
X206555000Y-121385000D02*
X206805000Y-121385000D01*
G75*
G02*
X207005000Y-121585000I0J-200000D01*
G01*
X207005000Y-123035000D01*
G75*
G02*
X206805000Y-123235000I-200000J0D01*
G01*
X206555000Y-123235000D01*
G75*
G02*
X206355000Y-123035000I0J200000D01*
G01*
X206355000Y-121585000D01*
G75*
G02*
X206555000Y-121385000I200000J0D01*
G01*
G37*
G36*
G01*
X206055000Y-121385000D02*
X206305000Y-121385000D01*
G75*
G02*
X206505000Y-121585000I0J-200000D01*
G01*
X206505000Y-123035000D01*
G75*
G02*
X206305000Y-123235000I-200000J0D01*
G01*
X206055000Y-123235000D01*
G75*
G02*
X205855000Y-123035000I0J200000D01*
G01*
X205855000Y-121585000D01*
G75*
G02*
X206055000Y-121385000I200000J0D01*
G01*
G37*
G36*
G01*
X205555000Y-121385000D02*
X205805000Y-121385000D01*
G75*
G02*
X206005000Y-121585000I0J-200000D01*
G01*
X206005000Y-123035000D01*
G75*
G02*
X205805000Y-123235000I-200000J0D01*
G01*
X205555000Y-123235000D01*
G75*
G02*
X205355000Y-123035000I0J200000D01*
G01*
X205355000Y-121585000D01*
G75*
G02*
X205555000Y-121385000I200000J0D01*
G01*
G37*
G36*
G01*
X205055000Y-121385000D02*
X205305000Y-121385000D01*
G75*
G02*
X205505000Y-121585000I0J-200000D01*
G01*
X205505000Y-123035000D01*
G75*
G02*
X205305000Y-123235000I-200000J0D01*
G01*
X205055000Y-123235000D01*
G75*
G02*
X204855000Y-123035000I0J200000D01*
G01*
X204855000Y-121585000D01*
G75*
G02*
X205055000Y-121385000I200000J0D01*
G01*
G37*
G36*
G01*
X204555000Y-121385000D02*
X204805000Y-121385000D01*
G75*
G02*
X205005000Y-121585000I0J-200000D01*
G01*
X205005000Y-123035000D01*
G75*
G02*
X204805000Y-123235000I-200000J0D01*
G01*
X204555000Y-123235000D01*
G75*
G02*
X204355000Y-123035000I0J200000D01*
G01*
X204355000Y-121585000D01*
G75*
G02*
X204555000Y-121385000I200000J0D01*
G01*
G37*
G36*
G01*
X204055000Y-121385000D02*
X204305000Y-121385000D01*
G75*
G02*
X204505000Y-121585000I0J-200000D01*
G01*
X204505000Y-123035000D01*
G75*
G02*
X204305000Y-123235000I-200000J0D01*
G01*
X204055000Y-123235000D01*
G75*
G02*
X203855000Y-123035000I0J200000D01*
G01*
X203855000Y-121585000D01*
G75*
G02*
X204055000Y-121385000I200000J0D01*
G01*
G37*
G36*
G01*
X203555000Y-121385000D02*
X203805000Y-121385000D01*
G75*
G02*
X204005000Y-121585000I0J-200000D01*
G01*
X204005000Y-123035000D01*
G75*
G02*
X203805000Y-123235000I-200000J0D01*
G01*
X203555000Y-123235000D01*
G75*
G02*
X203355000Y-123035000I0J200000D01*
G01*
X203355000Y-121585000D01*
G75*
G02*
X203555000Y-121385000I200000J0D01*
G01*
G37*
G36*
G01*
X203055000Y-121385000D02*
X203305000Y-121385000D01*
G75*
G02*
X203505000Y-121585000I0J-200000D01*
G01*
X203505000Y-123035000D01*
G75*
G02*
X203305000Y-123235000I-200000J0D01*
G01*
X203055000Y-123235000D01*
G75*
G02*
X202855000Y-123035000I0J200000D01*
G01*
X202855000Y-121585000D01*
G75*
G02*
X203055000Y-121385000I200000J0D01*
G01*
G37*
G36*
G01*
X202555000Y-121385000D02*
X202805000Y-121385000D01*
G75*
G02*
X203005000Y-121585000I0J-200000D01*
G01*
X203005000Y-123035000D01*
G75*
G02*
X202805000Y-123235000I-200000J0D01*
G01*
X202555000Y-123235000D01*
G75*
G02*
X202355000Y-123035000I0J200000D01*
G01*
X202355000Y-121585000D01*
G75*
G02*
X202555000Y-121385000I200000J0D01*
G01*
G37*
G36*
G01*
X202055000Y-121385000D02*
X202305000Y-121385000D01*
G75*
G02*
X202505000Y-121585000I0J-200000D01*
G01*
X202505000Y-123035000D01*
G75*
G02*
X202305000Y-123235000I-200000J0D01*
G01*
X202055000Y-123235000D01*
G75*
G02*
X201855000Y-123035000I0J200000D01*
G01*
X201855000Y-121585000D01*
G75*
G02*
X202055000Y-121385000I200000J0D01*
G01*
G37*
G36*
G01*
X201555000Y-121385000D02*
X201805000Y-121385000D01*
G75*
G02*
X202005000Y-121585000I0J-200000D01*
G01*
X202005000Y-123035000D01*
G75*
G02*
X201805000Y-123235000I-200000J0D01*
G01*
X201555000Y-123235000D01*
G75*
G02*
X201355000Y-123035000I0J200000D01*
G01*
X201355000Y-121585000D01*
G75*
G02*
X201555000Y-121385000I200000J0D01*
G01*
G37*
G36*
G01*
X201055000Y-121385000D02*
X201305000Y-121385000D01*
G75*
G02*
X201505000Y-121585000I0J-200000D01*
G01*
X201505000Y-123035000D01*
G75*
G02*
X201305000Y-123235000I-200000J0D01*
G01*
X201055000Y-123235000D01*
G75*
G02*
X200855000Y-123035000I0J200000D01*
G01*
X200855000Y-121585000D01*
G75*
G02*
X201055000Y-121385000I200000J0D01*
G01*
G37*
G36*
G01*
X200555000Y-121385000D02*
X200805000Y-121385000D01*
G75*
G02*
X201005000Y-121585000I0J-200000D01*
G01*
X201005000Y-123035000D01*
G75*
G02*
X200805000Y-123235000I-200000J0D01*
G01*
X200555000Y-123235000D01*
G75*
G02*
X200355000Y-123035000I0J200000D01*
G01*
X200355000Y-121585000D01*
G75*
G02*
X200555000Y-121385000I200000J0D01*
G01*
G37*
G36*
G01*
X200055000Y-121385000D02*
X200305000Y-121385000D01*
G75*
G02*
X200505000Y-121585000I0J-200000D01*
G01*
X200505000Y-123035000D01*
G75*
G02*
X200305000Y-123235000I-200000J0D01*
G01*
X200055000Y-123235000D01*
G75*
G02*
X199855000Y-123035000I0J200000D01*
G01*
X199855000Y-121585000D01*
G75*
G02*
X200055000Y-121385000I200000J0D01*
G01*
G37*
G36*
G01*
X199555000Y-121385000D02*
X199805000Y-121385000D01*
G75*
G02*
X200005000Y-121585000I0J-200000D01*
G01*
X200005000Y-123035000D01*
G75*
G02*
X199805000Y-123235000I-200000J0D01*
G01*
X199555000Y-123235000D01*
G75*
G02*
X199355000Y-123035000I0J200000D01*
G01*
X199355000Y-121585000D01*
G75*
G02*
X199555000Y-121385000I200000J0D01*
G01*
G37*
G36*
G01*
X199055000Y-121385000D02*
X199305000Y-121385000D01*
G75*
G02*
X199505000Y-121585000I0J-200000D01*
G01*
X199505000Y-123035000D01*
G75*
G02*
X199305000Y-123235000I-200000J0D01*
G01*
X199055000Y-123235000D01*
G75*
G02*
X198855000Y-123035000I0J200000D01*
G01*
X198855000Y-121585000D01*
G75*
G02*
X199055000Y-121385000I200000J0D01*
G01*
G37*
G36*
G01*
X198555000Y-121385000D02*
X198805000Y-121385000D01*
G75*
G02*
X199005000Y-121585000I0J-200000D01*
G01*
X199005000Y-123035000D01*
G75*
G02*
X198805000Y-123235000I-200000J0D01*
G01*
X198555000Y-123235000D01*
G75*
G02*
X198355000Y-123035000I0J200000D01*
G01*
X198355000Y-121585000D01*
G75*
G02*
X198555000Y-121385000I200000J0D01*
G01*
G37*
G36*
G01*
X198055000Y-121385000D02*
X198305000Y-121385000D01*
G75*
G02*
X198505000Y-121585000I0J-200000D01*
G01*
X198505000Y-123035000D01*
G75*
G02*
X198305000Y-123235000I-200000J0D01*
G01*
X198055000Y-123235000D01*
G75*
G02*
X197855000Y-123035000I0J200000D01*
G01*
X197855000Y-121585000D01*
G75*
G02*
X198055000Y-121385000I200000J0D01*
G01*
G37*
G36*
G01*
X197555000Y-121385000D02*
X197805000Y-121385000D01*
G75*
G02*
X198005000Y-121585000I0J-200000D01*
G01*
X198005000Y-123035000D01*
G75*
G02*
X197805000Y-123235000I-200000J0D01*
G01*
X197555000Y-123235000D01*
G75*
G02*
X197355000Y-123035000I0J200000D01*
G01*
X197355000Y-121585000D01*
G75*
G02*
X197555000Y-121385000I200000J0D01*
G01*
G37*
G36*
G01*
X197055000Y-121385000D02*
X197305000Y-121385000D01*
G75*
G02*
X197505000Y-121585000I0J-200000D01*
G01*
X197505000Y-123035000D01*
G75*
G02*
X197305000Y-123235000I-200000J0D01*
G01*
X197055000Y-123235000D01*
G75*
G02*
X196855000Y-123035000I0J200000D01*
G01*
X196855000Y-121585000D01*
G75*
G02*
X197055000Y-121385000I200000J0D01*
G01*
G37*
G36*
G01*
X196555000Y-121385000D02*
X196805000Y-121385000D01*
G75*
G02*
X197005000Y-121585000I0J-200000D01*
G01*
X197005000Y-123035000D01*
G75*
G02*
X196805000Y-123235000I-200000J0D01*
G01*
X196555000Y-123235000D01*
G75*
G02*
X196355000Y-123035000I0J200000D01*
G01*
X196355000Y-121585000D01*
G75*
G02*
X196555000Y-121385000I200000J0D01*
G01*
G37*
G36*
G01*
X196055000Y-121385000D02*
X196305000Y-121385000D01*
G75*
G02*
X196505000Y-121585000I0J-200000D01*
G01*
X196505000Y-123035000D01*
G75*
G02*
X196305000Y-123235000I-200000J0D01*
G01*
X196055000Y-123235000D01*
G75*
G02*
X195855000Y-123035000I0J200000D01*
G01*
X195855000Y-121585000D01*
G75*
G02*
X196055000Y-121385000I200000J0D01*
G01*
G37*
G36*
G01*
X195555000Y-121385000D02*
X195805000Y-121385000D01*
G75*
G02*
X196005000Y-121585000I0J-200000D01*
G01*
X196005000Y-123035000D01*
G75*
G02*
X195805000Y-123235000I-200000J0D01*
G01*
X195555000Y-123235000D01*
G75*
G02*
X195355000Y-123035000I0J200000D01*
G01*
X195355000Y-121585000D01*
G75*
G02*
X195555000Y-121385000I200000J0D01*
G01*
G37*
G36*
G01*
X195055000Y-121385000D02*
X195305000Y-121385000D01*
G75*
G02*
X195505000Y-121585000I0J-200000D01*
G01*
X195505000Y-123035000D01*
G75*
G02*
X195305000Y-123235000I-200000J0D01*
G01*
X195055000Y-123235000D01*
G75*
G02*
X194855000Y-123035000I0J200000D01*
G01*
X194855000Y-121585000D01*
G75*
G02*
X195055000Y-121385000I200000J0D01*
G01*
G37*
G36*
G01*
X194555000Y-121385000D02*
X194805000Y-121385000D01*
G75*
G02*
X195005000Y-121585000I0J-200000D01*
G01*
X195005000Y-123035000D01*
G75*
G02*
X194805000Y-123235000I-200000J0D01*
G01*
X194555000Y-123235000D01*
G75*
G02*
X194355000Y-123035000I0J200000D01*
G01*
X194355000Y-121585000D01*
G75*
G02*
X194555000Y-121385000I200000J0D01*
G01*
G37*
G36*
G01*
X194055000Y-121385000D02*
X194305000Y-121385000D01*
G75*
G02*
X194505000Y-121585000I0J-200000D01*
G01*
X194505000Y-123035000D01*
G75*
G02*
X194305000Y-123235000I-200000J0D01*
G01*
X194055000Y-123235000D01*
G75*
G02*
X193855000Y-123035000I0J200000D01*
G01*
X193855000Y-121585000D01*
G75*
G02*
X194055000Y-121385000I200000J0D01*
G01*
G37*
G36*
G01*
X193555000Y-121385000D02*
X193805000Y-121385000D01*
G75*
G02*
X194005000Y-121585000I0J-200000D01*
G01*
X194005000Y-123035000D01*
G75*
G02*
X193805000Y-123235000I-200000J0D01*
G01*
X193555000Y-123235000D01*
G75*
G02*
X193355000Y-123035000I0J200000D01*
G01*
X193355000Y-121585000D01*
G75*
G02*
X193555000Y-121385000I200000J0D01*
G01*
G37*
G36*
G01*
X193055000Y-121385000D02*
X193305000Y-121385000D01*
G75*
G02*
X193505000Y-121585000I0J-200000D01*
G01*
X193505000Y-123035000D01*
G75*
G02*
X193305000Y-123235000I-200000J0D01*
G01*
X193055000Y-123235000D01*
G75*
G02*
X192855000Y-123035000I0J200000D01*
G01*
X192855000Y-121585000D01*
G75*
G02*
X193055000Y-121385000I200000J0D01*
G01*
G37*
G36*
G01*
X190455000Y-120635000D02*
X190455000Y-120385000D01*
G75*
G02*
X190655000Y-120185000I200000J0D01*
G01*
X192105000Y-120185000D01*
G75*
G02*
X192305000Y-120385000I0J-200000D01*
G01*
X192305000Y-120635000D01*
G75*
G02*
X192105000Y-120835000I-200000J0D01*
G01*
X190655000Y-120835000D01*
G75*
G02*
X190455000Y-120635000I0J200000D01*
G01*
G37*
G36*
G01*
X190455000Y-120135000D02*
X190455000Y-119885000D01*
G75*
G02*
X190655000Y-119685000I200000J0D01*
G01*
X192105000Y-119685000D01*
G75*
G02*
X192305000Y-119885000I0J-200000D01*
G01*
X192305000Y-120135000D01*
G75*
G02*
X192105000Y-120335000I-200000J0D01*
G01*
X190655000Y-120335000D01*
G75*
G02*
X190455000Y-120135000I0J200000D01*
G01*
G37*
G36*
G01*
X190455000Y-119635000D02*
X190455000Y-119385000D01*
G75*
G02*
X190655000Y-119185000I200000J0D01*
G01*
X192105000Y-119185000D01*
G75*
G02*
X192305000Y-119385000I0J-200000D01*
G01*
X192305000Y-119635000D01*
G75*
G02*
X192105000Y-119835000I-200000J0D01*
G01*
X190655000Y-119835000D01*
G75*
G02*
X190455000Y-119635000I0J200000D01*
G01*
G37*
G36*
G01*
X190455000Y-119135000D02*
X190455000Y-118885000D01*
G75*
G02*
X190655000Y-118685000I200000J0D01*
G01*
X192105000Y-118685000D01*
G75*
G02*
X192305000Y-118885000I0J-200000D01*
G01*
X192305000Y-119135000D01*
G75*
G02*
X192105000Y-119335000I-200000J0D01*
G01*
X190655000Y-119335000D01*
G75*
G02*
X190455000Y-119135000I0J200000D01*
G01*
G37*
G36*
G01*
X190455000Y-118635000D02*
X190455000Y-118385000D01*
G75*
G02*
X190655000Y-118185000I200000J0D01*
G01*
X192105000Y-118185000D01*
G75*
G02*
X192305000Y-118385000I0J-200000D01*
G01*
X192305000Y-118635000D01*
G75*
G02*
X192105000Y-118835000I-200000J0D01*
G01*
X190655000Y-118835000D01*
G75*
G02*
X190455000Y-118635000I0J200000D01*
G01*
G37*
G36*
G01*
X190455000Y-118135000D02*
X190455000Y-117885000D01*
G75*
G02*
X190655000Y-117685000I200000J0D01*
G01*
X192105000Y-117685000D01*
G75*
G02*
X192305000Y-117885000I0J-200000D01*
G01*
X192305000Y-118135000D01*
G75*
G02*
X192105000Y-118335000I-200000J0D01*
G01*
X190655000Y-118335000D01*
G75*
G02*
X190455000Y-118135000I0J200000D01*
G01*
G37*
G36*
G01*
X190455000Y-117635000D02*
X190455000Y-117385000D01*
G75*
G02*
X190655000Y-117185000I200000J0D01*
G01*
X192105000Y-117185000D01*
G75*
G02*
X192305000Y-117385000I0J-200000D01*
G01*
X192305000Y-117635000D01*
G75*
G02*
X192105000Y-117835000I-200000J0D01*
G01*
X190655000Y-117835000D01*
G75*
G02*
X190455000Y-117635000I0J200000D01*
G01*
G37*
G36*
G01*
X190455000Y-117135000D02*
X190455000Y-116885000D01*
G75*
G02*
X190655000Y-116685000I200000J0D01*
G01*
X192105000Y-116685000D01*
G75*
G02*
X192305000Y-116885000I0J-200000D01*
G01*
X192305000Y-117135000D01*
G75*
G02*
X192105000Y-117335000I-200000J0D01*
G01*
X190655000Y-117335000D01*
G75*
G02*
X190455000Y-117135000I0J200000D01*
G01*
G37*
G36*
G01*
X190455000Y-116635000D02*
X190455000Y-116385000D01*
G75*
G02*
X190655000Y-116185000I200000J0D01*
G01*
X192105000Y-116185000D01*
G75*
G02*
X192305000Y-116385000I0J-200000D01*
G01*
X192305000Y-116635000D01*
G75*
G02*
X192105000Y-116835000I-200000J0D01*
G01*
X190655000Y-116835000D01*
G75*
G02*
X190455000Y-116635000I0J200000D01*
G01*
G37*
G36*
G01*
X190455000Y-116135000D02*
X190455000Y-115885000D01*
G75*
G02*
X190655000Y-115685000I200000J0D01*
G01*
X192105000Y-115685000D01*
G75*
G02*
X192305000Y-115885000I0J-200000D01*
G01*
X192305000Y-116135000D01*
G75*
G02*
X192105000Y-116335000I-200000J0D01*
G01*
X190655000Y-116335000D01*
G75*
G02*
X190455000Y-116135000I0J200000D01*
G01*
G37*
G36*
G01*
X190455000Y-115635000D02*
X190455000Y-115385000D01*
G75*
G02*
X190655000Y-115185000I200000J0D01*
G01*
X192105000Y-115185000D01*
G75*
G02*
X192305000Y-115385000I0J-200000D01*
G01*
X192305000Y-115635000D01*
G75*
G02*
X192105000Y-115835000I-200000J0D01*
G01*
X190655000Y-115835000D01*
G75*
G02*
X190455000Y-115635000I0J200000D01*
G01*
G37*
G36*
G01*
X190455000Y-115135000D02*
X190455000Y-114885000D01*
G75*
G02*
X190655000Y-114685000I200000J0D01*
G01*
X192105000Y-114685000D01*
G75*
G02*
X192305000Y-114885000I0J-200000D01*
G01*
X192305000Y-115135000D01*
G75*
G02*
X192105000Y-115335000I-200000J0D01*
G01*
X190655000Y-115335000D01*
G75*
G02*
X190455000Y-115135000I0J200000D01*
G01*
G37*
G36*
G01*
X190455000Y-114635000D02*
X190455000Y-114385000D01*
G75*
G02*
X190655000Y-114185000I200000J0D01*
G01*
X192105000Y-114185000D01*
G75*
G02*
X192305000Y-114385000I0J-200000D01*
G01*
X192305000Y-114635000D01*
G75*
G02*
X192105000Y-114835000I-200000J0D01*
G01*
X190655000Y-114835000D01*
G75*
G02*
X190455000Y-114635000I0J200000D01*
G01*
G37*
G36*
G01*
X190455000Y-114135000D02*
X190455000Y-113885000D01*
G75*
G02*
X190655000Y-113685000I200000J0D01*
G01*
X192105000Y-113685000D01*
G75*
G02*
X192305000Y-113885000I0J-200000D01*
G01*
X192305000Y-114135000D01*
G75*
G02*
X192105000Y-114335000I-200000J0D01*
G01*
X190655000Y-114335000D01*
G75*
G02*
X190455000Y-114135000I0J200000D01*
G01*
G37*
G36*
G01*
X190455000Y-113635000D02*
X190455000Y-113385000D01*
G75*
G02*
X190655000Y-113185000I200000J0D01*
G01*
X192105000Y-113185000D01*
G75*
G02*
X192305000Y-113385000I0J-200000D01*
G01*
X192305000Y-113635000D01*
G75*
G02*
X192105000Y-113835000I-200000J0D01*
G01*
X190655000Y-113835000D01*
G75*
G02*
X190455000Y-113635000I0J200000D01*
G01*
G37*
G36*
G01*
X190455000Y-113135000D02*
X190455000Y-112885000D01*
G75*
G02*
X190655000Y-112685000I200000J0D01*
G01*
X192105000Y-112685000D01*
G75*
G02*
X192305000Y-112885000I0J-200000D01*
G01*
X192305000Y-113135000D01*
G75*
G02*
X192105000Y-113335000I-200000J0D01*
G01*
X190655000Y-113335000D01*
G75*
G02*
X190455000Y-113135000I0J200000D01*
G01*
G37*
G36*
G01*
X190455000Y-112635000D02*
X190455000Y-112385000D01*
G75*
G02*
X190655000Y-112185000I200000J0D01*
G01*
X192105000Y-112185000D01*
G75*
G02*
X192305000Y-112385000I0J-200000D01*
G01*
X192305000Y-112635000D01*
G75*
G02*
X192105000Y-112835000I-200000J0D01*
G01*
X190655000Y-112835000D01*
G75*
G02*
X190455000Y-112635000I0J200000D01*
G01*
G37*
G36*
G01*
X190455000Y-112135000D02*
X190455000Y-111885000D01*
G75*
G02*
X190655000Y-111685000I200000J0D01*
G01*
X192105000Y-111685000D01*
G75*
G02*
X192305000Y-111885000I0J-200000D01*
G01*
X192305000Y-112135000D01*
G75*
G02*
X192105000Y-112335000I-200000J0D01*
G01*
X190655000Y-112335000D01*
G75*
G02*
X190455000Y-112135000I0J200000D01*
G01*
G37*
G36*
G01*
X190455000Y-111635000D02*
X190455000Y-111385000D01*
G75*
G02*
X190655000Y-111185000I200000J0D01*
G01*
X192105000Y-111185000D01*
G75*
G02*
X192305000Y-111385000I0J-200000D01*
G01*
X192305000Y-111635000D01*
G75*
G02*
X192105000Y-111835000I-200000J0D01*
G01*
X190655000Y-111835000D01*
G75*
G02*
X190455000Y-111635000I0J200000D01*
G01*
G37*
G36*
G01*
X190455000Y-111135000D02*
X190455000Y-110885000D01*
G75*
G02*
X190655000Y-110685000I200000J0D01*
G01*
X192105000Y-110685000D01*
G75*
G02*
X192305000Y-110885000I0J-200000D01*
G01*
X192305000Y-111135000D01*
G75*
G02*
X192105000Y-111335000I-200000J0D01*
G01*
X190655000Y-111335000D01*
G75*
G02*
X190455000Y-111135000I0J200000D01*
G01*
G37*
G36*
G01*
X190455000Y-110635000D02*
X190455000Y-110385000D01*
G75*
G02*
X190655000Y-110185000I200000J0D01*
G01*
X192105000Y-110185000D01*
G75*
G02*
X192305000Y-110385000I0J-200000D01*
G01*
X192305000Y-110635000D01*
G75*
G02*
X192105000Y-110835000I-200000J0D01*
G01*
X190655000Y-110835000D01*
G75*
G02*
X190455000Y-110635000I0J200000D01*
G01*
G37*
G36*
G01*
X190455000Y-110135000D02*
X190455000Y-109885000D01*
G75*
G02*
X190655000Y-109685000I200000J0D01*
G01*
X192105000Y-109685000D01*
G75*
G02*
X192305000Y-109885000I0J-200000D01*
G01*
X192305000Y-110135000D01*
G75*
G02*
X192105000Y-110335000I-200000J0D01*
G01*
X190655000Y-110335000D01*
G75*
G02*
X190455000Y-110135000I0J200000D01*
G01*
G37*
G36*
G01*
X190455000Y-109635000D02*
X190455000Y-109385000D01*
G75*
G02*
X190655000Y-109185000I200000J0D01*
G01*
X192105000Y-109185000D01*
G75*
G02*
X192305000Y-109385000I0J-200000D01*
G01*
X192305000Y-109635000D01*
G75*
G02*
X192105000Y-109835000I-200000J0D01*
G01*
X190655000Y-109835000D01*
G75*
G02*
X190455000Y-109635000I0J200000D01*
G01*
G37*
G36*
G01*
X190455000Y-109135000D02*
X190455000Y-108885000D01*
G75*
G02*
X190655000Y-108685000I200000J0D01*
G01*
X192105000Y-108685000D01*
G75*
G02*
X192305000Y-108885000I0J-200000D01*
G01*
X192305000Y-109135000D01*
G75*
G02*
X192105000Y-109335000I-200000J0D01*
G01*
X190655000Y-109335000D01*
G75*
G02*
X190455000Y-109135000I0J200000D01*
G01*
G37*
G36*
G01*
X190455000Y-108635000D02*
X190455000Y-108385000D01*
G75*
G02*
X190655000Y-108185000I200000J0D01*
G01*
X192105000Y-108185000D01*
G75*
G02*
X192305000Y-108385000I0J-200000D01*
G01*
X192305000Y-108635000D01*
G75*
G02*
X192105000Y-108835000I-200000J0D01*
G01*
X190655000Y-108835000D01*
G75*
G02*
X190455000Y-108635000I0J200000D01*
G01*
G37*
G36*
G01*
X190455000Y-108135000D02*
X190455000Y-107885000D01*
G75*
G02*
X190655000Y-107685000I200000J0D01*
G01*
X192105000Y-107685000D01*
G75*
G02*
X192305000Y-107885000I0J-200000D01*
G01*
X192305000Y-108135000D01*
G75*
G02*
X192105000Y-108335000I-200000J0D01*
G01*
X190655000Y-108335000D01*
G75*
G02*
X190455000Y-108135000I0J200000D01*
G01*
G37*
G36*
G01*
X190455000Y-107635000D02*
X190455000Y-107385000D01*
G75*
G02*
X190655000Y-107185000I200000J0D01*
G01*
X192105000Y-107185000D01*
G75*
G02*
X192305000Y-107385000I0J-200000D01*
G01*
X192305000Y-107635000D01*
G75*
G02*
X192105000Y-107835000I-200000J0D01*
G01*
X190655000Y-107835000D01*
G75*
G02*
X190455000Y-107635000I0J200000D01*
G01*
G37*
G36*
G01*
X190455000Y-107135000D02*
X190455000Y-106885000D01*
G75*
G02*
X190655000Y-106685000I200000J0D01*
G01*
X192105000Y-106685000D01*
G75*
G02*
X192305000Y-106885000I0J-200000D01*
G01*
X192305000Y-107135000D01*
G75*
G02*
X192105000Y-107335000I-200000J0D01*
G01*
X190655000Y-107335000D01*
G75*
G02*
X190455000Y-107135000I0J200000D01*
G01*
G37*
G36*
G01*
X190455000Y-106635000D02*
X190455000Y-106385000D01*
G75*
G02*
X190655000Y-106185000I200000J0D01*
G01*
X192105000Y-106185000D01*
G75*
G02*
X192305000Y-106385000I0J-200000D01*
G01*
X192305000Y-106635000D01*
G75*
G02*
X192105000Y-106835000I-200000J0D01*
G01*
X190655000Y-106835000D01*
G75*
G02*
X190455000Y-106635000I0J200000D01*
G01*
G37*
G36*
G01*
X190455000Y-106135000D02*
X190455000Y-105885000D01*
G75*
G02*
X190655000Y-105685000I200000J0D01*
G01*
X192105000Y-105685000D01*
G75*
G02*
X192305000Y-105885000I0J-200000D01*
G01*
X192305000Y-106135000D01*
G75*
G02*
X192105000Y-106335000I-200000J0D01*
G01*
X190655000Y-106335000D01*
G75*
G02*
X190455000Y-106135000I0J200000D01*
G01*
G37*
G36*
G01*
X190455000Y-105635000D02*
X190455000Y-105385000D01*
G75*
G02*
X190655000Y-105185000I200000J0D01*
G01*
X192105000Y-105185000D01*
G75*
G02*
X192305000Y-105385000I0J-200000D01*
G01*
X192305000Y-105635000D01*
G75*
G02*
X192105000Y-105835000I-200000J0D01*
G01*
X190655000Y-105835000D01*
G75*
G02*
X190455000Y-105635000I0J200000D01*
G01*
G37*
G36*
G01*
X190455000Y-105135000D02*
X190455000Y-104885000D01*
G75*
G02*
X190655000Y-104685000I200000J0D01*
G01*
X192105000Y-104685000D01*
G75*
G02*
X192305000Y-104885000I0J-200000D01*
G01*
X192305000Y-105135000D01*
G75*
G02*
X192105000Y-105335000I-200000J0D01*
G01*
X190655000Y-105335000D01*
G75*
G02*
X190455000Y-105135000I0J200000D01*
G01*
G37*
G36*
G01*
X190455000Y-104635000D02*
X190455000Y-104385000D01*
G75*
G02*
X190655000Y-104185000I200000J0D01*
G01*
X192105000Y-104185000D01*
G75*
G02*
X192305000Y-104385000I0J-200000D01*
G01*
X192305000Y-104635000D01*
G75*
G02*
X192105000Y-104835000I-200000J0D01*
G01*
X190655000Y-104835000D01*
G75*
G02*
X190455000Y-104635000I0J200000D01*
G01*
G37*
G36*
G01*
X190455000Y-104135000D02*
X190455000Y-103885000D01*
G75*
G02*
X190655000Y-103685000I200000J0D01*
G01*
X192105000Y-103685000D01*
G75*
G02*
X192305000Y-103885000I0J-200000D01*
G01*
X192305000Y-104135000D01*
G75*
G02*
X192105000Y-104335000I-200000J0D01*
G01*
X190655000Y-104335000D01*
G75*
G02*
X190455000Y-104135000I0J200000D01*
G01*
G37*
G36*
G01*
X190455000Y-103635000D02*
X190455000Y-103385000D01*
G75*
G02*
X190655000Y-103185000I200000J0D01*
G01*
X192105000Y-103185000D01*
G75*
G02*
X192305000Y-103385000I0J-200000D01*
G01*
X192305000Y-103635000D01*
G75*
G02*
X192105000Y-103835000I-200000J0D01*
G01*
X190655000Y-103835000D01*
G75*
G02*
X190455000Y-103635000I0J200000D01*
G01*
G37*
G36*
G01*
X190455000Y-103135000D02*
X190455000Y-102885000D01*
G75*
G02*
X190655000Y-102685000I200000J0D01*
G01*
X192105000Y-102685000D01*
G75*
G02*
X192305000Y-102885000I0J-200000D01*
G01*
X192305000Y-103135000D01*
G75*
G02*
X192105000Y-103335000I-200000J0D01*
G01*
X190655000Y-103335000D01*
G75*
G02*
X190455000Y-103135000I0J200000D01*
G01*
G37*
G36*
G01*
X193055000Y-100285000D02*
X193305000Y-100285000D01*
G75*
G02*
X193505000Y-100485000I0J-200000D01*
G01*
X193505000Y-101935000D01*
G75*
G02*
X193305000Y-102135000I-200000J0D01*
G01*
X193055000Y-102135000D01*
G75*
G02*
X192855000Y-101935000I0J200000D01*
G01*
X192855000Y-100485000D01*
G75*
G02*
X193055000Y-100285000I200000J0D01*
G01*
G37*
G36*
G01*
X193555000Y-100285000D02*
X193805000Y-100285000D01*
G75*
G02*
X194005000Y-100485000I0J-200000D01*
G01*
X194005000Y-101935000D01*
G75*
G02*
X193805000Y-102135000I-200000J0D01*
G01*
X193555000Y-102135000D01*
G75*
G02*
X193355000Y-101935000I0J200000D01*
G01*
X193355000Y-100485000D01*
G75*
G02*
X193555000Y-100285000I200000J0D01*
G01*
G37*
G36*
G01*
X194055000Y-100285000D02*
X194305000Y-100285000D01*
G75*
G02*
X194505000Y-100485000I0J-200000D01*
G01*
X194505000Y-101935000D01*
G75*
G02*
X194305000Y-102135000I-200000J0D01*
G01*
X194055000Y-102135000D01*
G75*
G02*
X193855000Y-101935000I0J200000D01*
G01*
X193855000Y-100485000D01*
G75*
G02*
X194055000Y-100285000I200000J0D01*
G01*
G37*
G36*
G01*
X194555000Y-100285000D02*
X194805000Y-100285000D01*
G75*
G02*
X195005000Y-100485000I0J-200000D01*
G01*
X195005000Y-101935000D01*
G75*
G02*
X194805000Y-102135000I-200000J0D01*
G01*
X194555000Y-102135000D01*
G75*
G02*
X194355000Y-101935000I0J200000D01*
G01*
X194355000Y-100485000D01*
G75*
G02*
X194555000Y-100285000I200000J0D01*
G01*
G37*
G36*
G01*
X195055000Y-100285000D02*
X195305000Y-100285000D01*
G75*
G02*
X195505000Y-100485000I0J-200000D01*
G01*
X195505000Y-101935000D01*
G75*
G02*
X195305000Y-102135000I-200000J0D01*
G01*
X195055000Y-102135000D01*
G75*
G02*
X194855000Y-101935000I0J200000D01*
G01*
X194855000Y-100485000D01*
G75*
G02*
X195055000Y-100285000I200000J0D01*
G01*
G37*
G36*
G01*
X195555000Y-100285000D02*
X195805000Y-100285000D01*
G75*
G02*
X196005000Y-100485000I0J-200000D01*
G01*
X196005000Y-101935000D01*
G75*
G02*
X195805000Y-102135000I-200000J0D01*
G01*
X195555000Y-102135000D01*
G75*
G02*
X195355000Y-101935000I0J200000D01*
G01*
X195355000Y-100485000D01*
G75*
G02*
X195555000Y-100285000I200000J0D01*
G01*
G37*
G36*
G01*
X196055000Y-100285000D02*
X196305000Y-100285000D01*
G75*
G02*
X196505000Y-100485000I0J-200000D01*
G01*
X196505000Y-101935000D01*
G75*
G02*
X196305000Y-102135000I-200000J0D01*
G01*
X196055000Y-102135000D01*
G75*
G02*
X195855000Y-101935000I0J200000D01*
G01*
X195855000Y-100485000D01*
G75*
G02*
X196055000Y-100285000I200000J0D01*
G01*
G37*
G36*
G01*
X196555000Y-100285000D02*
X196805000Y-100285000D01*
G75*
G02*
X197005000Y-100485000I0J-200000D01*
G01*
X197005000Y-101935000D01*
G75*
G02*
X196805000Y-102135000I-200000J0D01*
G01*
X196555000Y-102135000D01*
G75*
G02*
X196355000Y-101935000I0J200000D01*
G01*
X196355000Y-100485000D01*
G75*
G02*
X196555000Y-100285000I200000J0D01*
G01*
G37*
G36*
G01*
X197055000Y-100285000D02*
X197305000Y-100285000D01*
G75*
G02*
X197505000Y-100485000I0J-200000D01*
G01*
X197505000Y-101935000D01*
G75*
G02*
X197305000Y-102135000I-200000J0D01*
G01*
X197055000Y-102135000D01*
G75*
G02*
X196855000Y-101935000I0J200000D01*
G01*
X196855000Y-100485000D01*
G75*
G02*
X197055000Y-100285000I200000J0D01*
G01*
G37*
G36*
G01*
X197555000Y-100285000D02*
X197805000Y-100285000D01*
G75*
G02*
X198005000Y-100485000I0J-200000D01*
G01*
X198005000Y-101935000D01*
G75*
G02*
X197805000Y-102135000I-200000J0D01*
G01*
X197555000Y-102135000D01*
G75*
G02*
X197355000Y-101935000I0J200000D01*
G01*
X197355000Y-100485000D01*
G75*
G02*
X197555000Y-100285000I200000J0D01*
G01*
G37*
G36*
G01*
X198055000Y-100285000D02*
X198305000Y-100285000D01*
G75*
G02*
X198505000Y-100485000I0J-200000D01*
G01*
X198505000Y-101935000D01*
G75*
G02*
X198305000Y-102135000I-200000J0D01*
G01*
X198055000Y-102135000D01*
G75*
G02*
X197855000Y-101935000I0J200000D01*
G01*
X197855000Y-100485000D01*
G75*
G02*
X198055000Y-100285000I200000J0D01*
G01*
G37*
G36*
G01*
X198555000Y-100285000D02*
X198805000Y-100285000D01*
G75*
G02*
X199005000Y-100485000I0J-200000D01*
G01*
X199005000Y-101935000D01*
G75*
G02*
X198805000Y-102135000I-200000J0D01*
G01*
X198555000Y-102135000D01*
G75*
G02*
X198355000Y-101935000I0J200000D01*
G01*
X198355000Y-100485000D01*
G75*
G02*
X198555000Y-100285000I200000J0D01*
G01*
G37*
G36*
G01*
X199055000Y-100285000D02*
X199305000Y-100285000D01*
G75*
G02*
X199505000Y-100485000I0J-200000D01*
G01*
X199505000Y-101935000D01*
G75*
G02*
X199305000Y-102135000I-200000J0D01*
G01*
X199055000Y-102135000D01*
G75*
G02*
X198855000Y-101935000I0J200000D01*
G01*
X198855000Y-100485000D01*
G75*
G02*
X199055000Y-100285000I200000J0D01*
G01*
G37*
G36*
G01*
X199555000Y-100285000D02*
X199805000Y-100285000D01*
G75*
G02*
X200005000Y-100485000I0J-200000D01*
G01*
X200005000Y-101935000D01*
G75*
G02*
X199805000Y-102135000I-200000J0D01*
G01*
X199555000Y-102135000D01*
G75*
G02*
X199355000Y-101935000I0J200000D01*
G01*
X199355000Y-100485000D01*
G75*
G02*
X199555000Y-100285000I200000J0D01*
G01*
G37*
G36*
G01*
X200055000Y-100285000D02*
X200305000Y-100285000D01*
G75*
G02*
X200505000Y-100485000I0J-200000D01*
G01*
X200505000Y-101935000D01*
G75*
G02*
X200305000Y-102135000I-200000J0D01*
G01*
X200055000Y-102135000D01*
G75*
G02*
X199855000Y-101935000I0J200000D01*
G01*
X199855000Y-100485000D01*
G75*
G02*
X200055000Y-100285000I200000J0D01*
G01*
G37*
G36*
G01*
X200555000Y-100285000D02*
X200805000Y-100285000D01*
G75*
G02*
X201005000Y-100485000I0J-200000D01*
G01*
X201005000Y-101935000D01*
G75*
G02*
X200805000Y-102135000I-200000J0D01*
G01*
X200555000Y-102135000D01*
G75*
G02*
X200355000Y-101935000I0J200000D01*
G01*
X200355000Y-100485000D01*
G75*
G02*
X200555000Y-100285000I200000J0D01*
G01*
G37*
G36*
G01*
X201055000Y-100285000D02*
X201305000Y-100285000D01*
G75*
G02*
X201505000Y-100485000I0J-200000D01*
G01*
X201505000Y-101935000D01*
G75*
G02*
X201305000Y-102135000I-200000J0D01*
G01*
X201055000Y-102135000D01*
G75*
G02*
X200855000Y-101935000I0J200000D01*
G01*
X200855000Y-100485000D01*
G75*
G02*
X201055000Y-100285000I200000J0D01*
G01*
G37*
G36*
G01*
X201555000Y-100285000D02*
X201805000Y-100285000D01*
G75*
G02*
X202005000Y-100485000I0J-200000D01*
G01*
X202005000Y-101935000D01*
G75*
G02*
X201805000Y-102135000I-200000J0D01*
G01*
X201555000Y-102135000D01*
G75*
G02*
X201355000Y-101935000I0J200000D01*
G01*
X201355000Y-100485000D01*
G75*
G02*
X201555000Y-100285000I200000J0D01*
G01*
G37*
G36*
G01*
X202055000Y-100285000D02*
X202305000Y-100285000D01*
G75*
G02*
X202505000Y-100485000I0J-200000D01*
G01*
X202505000Y-101935000D01*
G75*
G02*
X202305000Y-102135000I-200000J0D01*
G01*
X202055000Y-102135000D01*
G75*
G02*
X201855000Y-101935000I0J200000D01*
G01*
X201855000Y-100485000D01*
G75*
G02*
X202055000Y-100285000I200000J0D01*
G01*
G37*
G36*
G01*
X202555000Y-100285000D02*
X202805000Y-100285000D01*
G75*
G02*
X203005000Y-100485000I0J-200000D01*
G01*
X203005000Y-101935000D01*
G75*
G02*
X202805000Y-102135000I-200000J0D01*
G01*
X202555000Y-102135000D01*
G75*
G02*
X202355000Y-101935000I0J200000D01*
G01*
X202355000Y-100485000D01*
G75*
G02*
X202555000Y-100285000I200000J0D01*
G01*
G37*
G36*
G01*
X203055000Y-100285000D02*
X203305000Y-100285000D01*
G75*
G02*
X203505000Y-100485000I0J-200000D01*
G01*
X203505000Y-101935000D01*
G75*
G02*
X203305000Y-102135000I-200000J0D01*
G01*
X203055000Y-102135000D01*
G75*
G02*
X202855000Y-101935000I0J200000D01*
G01*
X202855000Y-100485000D01*
G75*
G02*
X203055000Y-100285000I200000J0D01*
G01*
G37*
G36*
G01*
X203555000Y-100285000D02*
X203805000Y-100285000D01*
G75*
G02*
X204005000Y-100485000I0J-200000D01*
G01*
X204005000Y-101935000D01*
G75*
G02*
X203805000Y-102135000I-200000J0D01*
G01*
X203555000Y-102135000D01*
G75*
G02*
X203355000Y-101935000I0J200000D01*
G01*
X203355000Y-100485000D01*
G75*
G02*
X203555000Y-100285000I200000J0D01*
G01*
G37*
G36*
G01*
X204055000Y-100285000D02*
X204305000Y-100285000D01*
G75*
G02*
X204505000Y-100485000I0J-200000D01*
G01*
X204505000Y-101935000D01*
G75*
G02*
X204305000Y-102135000I-200000J0D01*
G01*
X204055000Y-102135000D01*
G75*
G02*
X203855000Y-101935000I0J200000D01*
G01*
X203855000Y-100485000D01*
G75*
G02*
X204055000Y-100285000I200000J0D01*
G01*
G37*
G36*
G01*
X204555000Y-100285000D02*
X204805000Y-100285000D01*
G75*
G02*
X205005000Y-100485000I0J-200000D01*
G01*
X205005000Y-101935000D01*
G75*
G02*
X204805000Y-102135000I-200000J0D01*
G01*
X204555000Y-102135000D01*
G75*
G02*
X204355000Y-101935000I0J200000D01*
G01*
X204355000Y-100485000D01*
G75*
G02*
X204555000Y-100285000I200000J0D01*
G01*
G37*
G36*
G01*
X205055000Y-100285000D02*
X205305000Y-100285000D01*
G75*
G02*
X205505000Y-100485000I0J-200000D01*
G01*
X205505000Y-101935000D01*
G75*
G02*
X205305000Y-102135000I-200000J0D01*
G01*
X205055000Y-102135000D01*
G75*
G02*
X204855000Y-101935000I0J200000D01*
G01*
X204855000Y-100485000D01*
G75*
G02*
X205055000Y-100285000I200000J0D01*
G01*
G37*
G36*
G01*
X205555000Y-100285000D02*
X205805000Y-100285000D01*
G75*
G02*
X206005000Y-100485000I0J-200000D01*
G01*
X206005000Y-101935000D01*
G75*
G02*
X205805000Y-102135000I-200000J0D01*
G01*
X205555000Y-102135000D01*
G75*
G02*
X205355000Y-101935000I0J200000D01*
G01*
X205355000Y-100485000D01*
G75*
G02*
X205555000Y-100285000I200000J0D01*
G01*
G37*
G36*
G01*
X206055000Y-100285000D02*
X206305000Y-100285000D01*
G75*
G02*
X206505000Y-100485000I0J-200000D01*
G01*
X206505000Y-101935000D01*
G75*
G02*
X206305000Y-102135000I-200000J0D01*
G01*
X206055000Y-102135000D01*
G75*
G02*
X205855000Y-101935000I0J200000D01*
G01*
X205855000Y-100485000D01*
G75*
G02*
X206055000Y-100285000I200000J0D01*
G01*
G37*
G36*
G01*
X206555000Y-100285000D02*
X206805000Y-100285000D01*
G75*
G02*
X207005000Y-100485000I0J-200000D01*
G01*
X207005000Y-101935000D01*
G75*
G02*
X206805000Y-102135000I-200000J0D01*
G01*
X206555000Y-102135000D01*
G75*
G02*
X206355000Y-101935000I0J200000D01*
G01*
X206355000Y-100485000D01*
G75*
G02*
X206555000Y-100285000I200000J0D01*
G01*
G37*
G36*
G01*
X207055000Y-100285000D02*
X207305000Y-100285000D01*
G75*
G02*
X207505000Y-100485000I0J-200000D01*
G01*
X207505000Y-101935000D01*
G75*
G02*
X207305000Y-102135000I-200000J0D01*
G01*
X207055000Y-102135000D01*
G75*
G02*
X206855000Y-101935000I0J200000D01*
G01*
X206855000Y-100485000D01*
G75*
G02*
X207055000Y-100285000I200000J0D01*
G01*
G37*
G36*
G01*
X207555000Y-100285000D02*
X207805000Y-100285000D01*
G75*
G02*
X208005000Y-100485000I0J-200000D01*
G01*
X208005000Y-101935000D01*
G75*
G02*
X207805000Y-102135000I-200000J0D01*
G01*
X207555000Y-102135000D01*
G75*
G02*
X207355000Y-101935000I0J200000D01*
G01*
X207355000Y-100485000D01*
G75*
G02*
X207555000Y-100285000I200000J0D01*
G01*
G37*
G36*
G01*
X208055000Y-100285000D02*
X208305000Y-100285000D01*
G75*
G02*
X208505000Y-100485000I0J-200000D01*
G01*
X208505000Y-101935000D01*
G75*
G02*
X208305000Y-102135000I-200000J0D01*
G01*
X208055000Y-102135000D01*
G75*
G02*
X207855000Y-101935000I0J200000D01*
G01*
X207855000Y-100485000D01*
G75*
G02*
X208055000Y-100285000I200000J0D01*
G01*
G37*
G36*
G01*
X208555000Y-100285000D02*
X208805000Y-100285000D01*
G75*
G02*
X209005000Y-100485000I0J-200000D01*
G01*
X209005000Y-101935000D01*
G75*
G02*
X208805000Y-102135000I-200000J0D01*
G01*
X208555000Y-102135000D01*
G75*
G02*
X208355000Y-101935000I0J200000D01*
G01*
X208355000Y-100485000D01*
G75*
G02*
X208555000Y-100285000I200000J0D01*
G01*
G37*
G36*
G01*
X209055000Y-100285000D02*
X209305000Y-100285000D01*
G75*
G02*
X209505000Y-100485000I0J-200000D01*
G01*
X209505000Y-101935000D01*
G75*
G02*
X209305000Y-102135000I-200000J0D01*
G01*
X209055000Y-102135000D01*
G75*
G02*
X208855000Y-101935000I0J200000D01*
G01*
X208855000Y-100485000D01*
G75*
G02*
X209055000Y-100285000I200000J0D01*
G01*
G37*
G36*
G01*
X209555000Y-100285000D02*
X209805000Y-100285000D01*
G75*
G02*
X210005000Y-100485000I0J-200000D01*
G01*
X210005000Y-101935000D01*
G75*
G02*
X209805000Y-102135000I-200000J0D01*
G01*
X209555000Y-102135000D01*
G75*
G02*
X209355000Y-101935000I0J200000D01*
G01*
X209355000Y-100485000D01*
G75*
G02*
X209555000Y-100285000I200000J0D01*
G01*
G37*
G36*
G01*
X210055000Y-100285000D02*
X210305000Y-100285000D01*
G75*
G02*
X210505000Y-100485000I0J-200000D01*
G01*
X210505000Y-101935000D01*
G75*
G02*
X210305000Y-102135000I-200000J0D01*
G01*
X210055000Y-102135000D01*
G75*
G02*
X209855000Y-101935000I0J200000D01*
G01*
X209855000Y-100485000D01*
G75*
G02*
X210055000Y-100285000I200000J0D01*
G01*
G37*
G36*
G01*
X210555000Y-100285000D02*
X210805000Y-100285000D01*
G75*
G02*
X211005000Y-100485000I0J-200000D01*
G01*
X211005000Y-101935000D01*
G75*
G02*
X210805000Y-102135000I-200000J0D01*
G01*
X210555000Y-102135000D01*
G75*
G02*
X210355000Y-101935000I0J200000D01*
G01*
X210355000Y-100485000D01*
G75*
G02*
X210555000Y-100285000I200000J0D01*
G01*
G37*
G36*
G01*
X188440000Y-73706000D02*
X188440000Y-73106000D01*
G75*
G02*
X188640000Y-72906000I200000J0D01*
G01*
X190140000Y-72906000D01*
G75*
G02*
X190340000Y-73106000I0J-200000D01*
G01*
X190340000Y-73706000D01*
G75*
G02*
X190140000Y-73906000I-200000J0D01*
G01*
X188640000Y-73906000D01*
G75*
G02*
X188440000Y-73706000I0J200000D01*
G01*
G37*
G36*
G01*
X188440000Y-74976000D02*
X188440000Y-74376000D01*
G75*
G02*
X188640000Y-74176000I200000J0D01*
G01*
X190140000Y-74176000D01*
G75*
G02*
X190340000Y-74376000I0J-200000D01*
G01*
X190340000Y-74976000D01*
G75*
G02*
X190140000Y-75176000I-200000J0D01*
G01*
X188640000Y-75176000D01*
G75*
G02*
X188440000Y-74976000I0J200000D01*
G01*
G37*
G36*
G01*
X188440000Y-76246000D02*
X188440000Y-75646000D01*
G75*
G02*
X188640000Y-75446000I200000J0D01*
G01*
X190140000Y-75446000D01*
G75*
G02*
X190340000Y-75646000I0J-200000D01*
G01*
X190340000Y-76246000D01*
G75*
G02*
X190140000Y-76446000I-200000J0D01*
G01*
X188640000Y-76446000D01*
G75*
G02*
X188440000Y-76246000I0J200000D01*
G01*
G37*
G36*
G01*
X188440000Y-77516000D02*
X188440000Y-76916000D01*
G75*
G02*
X188640000Y-76716000I200000J0D01*
G01*
X190140000Y-76716000D01*
G75*
G02*
X190340000Y-76916000I0J-200000D01*
G01*
X190340000Y-77516000D01*
G75*
G02*
X190140000Y-77716000I-200000J0D01*
G01*
X188640000Y-77716000D01*
G75*
G02*
X188440000Y-77516000I0J200000D01*
G01*
G37*
G36*
G01*
X188440000Y-78786000D02*
X188440000Y-78186000D01*
G75*
G02*
X188640000Y-77986000I200000J0D01*
G01*
X190140000Y-77986000D01*
G75*
G02*
X190340000Y-78186000I0J-200000D01*
G01*
X190340000Y-78786000D01*
G75*
G02*
X190140000Y-78986000I-200000J0D01*
G01*
X188640000Y-78986000D01*
G75*
G02*
X188440000Y-78786000I0J200000D01*
G01*
G37*
G36*
G01*
X188440000Y-80056000D02*
X188440000Y-79456000D01*
G75*
G02*
X188640000Y-79256000I200000J0D01*
G01*
X190140000Y-79256000D01*
G75*
G02*
X190340000Y-79456000I0J-200000D01*
G01*
X190340000Y-80056000D01*
G75*
G02*
X190140000Y-80256000I-200000J0D01*
G01*
X188640000Y-80256000D01*
G75*
G02*
X188440000Y-80056000I0J200000D01*
G01*
G37*
G36*
G01*
X188440000Y-81326000D02*
X188440000Y-80726000D01*
G75*
G02*
X188640000Y-80526000I200000J0D01*
G01*
X190140000Y-80526000D01*
G75*
G02*
X190340000Y-80726000I0J-200000D01*
G01*
X190340000Y-81326000D01*
G75*
G02*
X190140000Y-81526000I-200000J0D01*
G01*
X188640000Y-81526000D01*
G75*
G02*
X188440000Y-81326000I0J200000D01*
G01*
G37*
G36*
G01*
X188440000Y-82596000D02*
X188440000Y-81996000D01*
G75*
G02*
X188640000Y-81796000I200000J0D01*
G01*
X190140000Y-81796000D01*
G75*
G02*
X190340000Y-81996000I0J-200000D01*
G01*
X190340000Y-82596000D01*
G75*
G02*
X190140000Y-82796000I-200000J0D01*
G01*
X188640000Y-82796000D01*
G75*
G02*
X188440000Y-82596000I0J200000D01*
G01*
G37*
G36*
G01*
X183040000Y-82596000D02*
X183040000Y-81996000D01*
G75*
G02*
X183240000Y-81796000I200000J0D01*
G01*
X184740000Y-81796000D01*
G75*
G02*
X184940000Y-81996000I0J-200000D01*
G01*
X184940000Y-82596000D01*
G75*
G02*
X184740000Y-82796000I-200000J0D01*
G01*
X183240000Y-82796000D01*
G75*
G02*
X183040000Y-82596000I0J200000D01*
G01*
G37*
G36*
G01*
X183040000Y-81326000D02*
X183040000Y-80726000D01*
G75*
G02*
X183240000Y-80526000I200000J0D01*
G01*
X184740000Y-80526000D01*
G75*
G02*
X184940000Y-80726000I0J-200000D01*
G01*
X184940000Y-81326000D01*
G75*
G02*
X184740000Y-81526000I-200000J0D01*
G01*
X183240000Y-81526000D01*
G75*
G02*
X183040000Y-81326000I0J200000D01*
G01*
G37*
G36*
G01*
X183040000Y-80056000D02*
X183040000Y-79456000D01*
G75*
G02*
X183240000Y-79256000I200000J0D01*
G01*
X184740000Y-79256000D01*
G75*
G02*
X184940000Y-79456000I0J-200000D01*
G01*
X184940000Y-80056000D01*
G75*
G02*
X184740000Y-80256000I-200000J0D01*
G01*
X183240000Y-80256000D01*
G75*
G02*
X183040000Y-80056000I0J200000D01*
G01*
G37*
G36*
G01*
X183040000Y-78786000D02*
X183040000Y-78186000D01*
G75*
G02*
X183240000Y-77986000I200000J0D01*
G01*
X184740000Y-77986000D01*
G75*
G02*
X184940000Y-78186000I0J-200000D01*
G01*
X184940000Y-78786000D01*
G75*
G02*
X184740000Y-78986000I-200000J0D01*
G01*
X183240000Y-78986000D01*
G75*
G02*
X183040000Y-78786000I0J200000D01*
G01*
G37*
G36*
G01*
X183040000Y-77516000D02*
X183040000Y-76916000D01*
G75*
G02*
X183240000Y-76716000I200000J0D01*
G01*
X184740000Y-76716000D01*
G75*
G02*
X184940000Y-76916000I0J-200000D01*
G01*
X184940000Y-77516000D01*
G75*
G02*
X184740000Y-77716000I-200000J0D01*
G01*
X183240000Y-77716000D01*
G75*
G02*
X183040000Y-77516000I0J200000D01*
G01*
G37*
G36*
G01*
X183040000Y-76246000D02*
X183040000Y-75646000D01*
G75*
G02*
X183240000Y-75446000I200000J0D01*
G01*
X184740000Y-75446000D01*
G75*
G02*
X184940000Y-75646000I0J-200000D01*
G01*
X184940000Y-76246000D01*
G75*
G02*
X184740000Y-76446000I-200000J0D01*
G01*
X183240000Y-76446000D01*
G75*
G02*
X183040000Y-76246000I0J200000D01*
G01*
G37*
G36*
G01*
X183040000Y-74976000D02*
X183040000Y-74376000D01*
G75*
G02*
X183240000Y-74176000I200000J0D01*
G01*
X184740000Y-74176000D01*
G75*
G02*
X184940000Y-74376000I0J-200000D01*
G01*
X184940000Y-74976000D01*
G75*
G02*
X184740000Y-75176000I-200000J0D01*
G01*
X183240000Y-75176000D01*
G75*
G02*
X183040000Y-74976000I0J200000D01*
G01*
G37*
G36*
G01*
X183040000Y-73706000D02*
X183040000Y-73106000D01*
G75*
G02*
X183240000Y-72906000I200000J0D01*
G01*
X184740000Y-72906000D01*
G75*
G02*
X184940000Y-73106000I0J-200000D01*
G01*
X184940000Y-73706000D01*
G75*
G02*
X184740000Y-73906000I-200000J0D01*
G01*
X183240000Y-73906000D01*
G75*
G02*
X183040000Y-73706000I0J200000D01*
G01*
G37*
G36*
G01*
X160500000Y-73706000D02*
X160500000Y-73106000D01*
G75*
G02*
X160700000Y-72906000I200000J0D01*
G01*
X162200000Y-72906000D01*
G75*
G02*
X162400000Y-73106000I0J-200000D01*
G01*
X162400000Y-73706000D01*
G75*
G02*
X162200000Y-73906000I-200000J0D01*
G01*
X160700000Y-73906000D01*
G75*
G02*
X160500000Y-73706000I0J200000D01*
G01*
G37*
G36*
G01*
X160500000Y-74976000D02*
X160500000Y-74376000D01*
G75*
G02*
X160700000Y-74176000I200000J0D01*
G01*
X162200000Y-74176000D01*
G75*
G02*
X162400000Y-74376000I0J-200000D01*
G01*
X162400000Y-74976000D01*
G75*
G02*
X162200000Y-75176000I-200000J0D01*
G01*
X160700000Y-75176000D01*
G75*
G02*
X160500000Y-74976000I0J200000D01*
G01*
G37*
G36*
G01*
X160500000Y-76246000D02*
X160500000Y-75646000D01*
G75*
G02*
X160700000Y-75446000I200000J0D01*
G01*
X162200000Y-75446000D01*
G75*
G02*
X162400000Y-75646000I0J-200000D01*
G01*
X162400000Y-76246000D01*
G75*
G02*
X162200000Y-76446000I-200000J0D01*
G01*
X160700000Y-76446000D01*
G75*
G02*
X160500000Y-76246000I0J200000D01*
G01*
G37*
G36*
G01*
X160500000Y-77516000D02*
X160500000Y-76916000D01*
G75*
G02*
X160700000Y-76716000I200000J0D01*
G01*
X162200000Y-76716000D01*
G75*
G02*
X162400000Y-76916000I0J-200000D01*
G01*
X162400000Y-77516000D01*
G75*
G02*
X162200000Y-77716000I-200000J0D01*
G01*
X160700000Y-77716000D01*
G75*
G02*
X160500000Y-77516000I0J200000D01*
G01*
G37*
G36*
G01*
X160500000Y-78786000D02*
X160500000Y-78186000D01*
G75*
G02*
X160700000Y-77986000I200000J0D01*
G01*
X162200000Y-77986000D01*
G75*
G02*
X162400000Y-78186000I0J-200000D01*
G01*
X162400000Y-78786000D01*
G75*
G02*
X162200000Y-78986000I-200000J0D01*
G01*
X160700000Y-78986000D01*
G75*
G02*
X160500000Y-78786000I0J200000D01*
G01*
G37*
G36*
G01*
X160500000Y-80056000D02*
X160500000Y-79456000D01*
G75*
G02*
X160700000Y-79256000I200000J0D01*
G01*
X162200000Y-79256000D01*
G75*
G02*
X162400000Y-79456000I0J-200000D01*
G01*
X162400000Y-80056000D01*
G75*
G02*
X162200000Y-80256000I-200000J0D01*
G01*
X160700000Y-80256000D01*
G75*
G02*
X160500000Y-80056000I0J200000D01*
G01*
G37*
G36*
G01*
X160500000Y-81326000D02*
X160500000Y-80726000D01*
G75*
G02*
X160700000Y-80526000I200000J0D01*
G01*
X162200000Y-80526000D01*
G75*
G02*
X162400000Y-80726000I0J-200000D01*
G01*
X162400000Y-81326000D01*
G75*
G02*
X162200000Y-81526000I-200000J0D01*
G01*
X160700000Y-81526000D01*
G75*
G02*
X160500000Y-81326000I0J200000D01*
G01*
G37*
G36*
G01*
X160500000Y-82596000D02*
X160500000Y-81996000D01*
G75*
G02*
X160700000Y-81796000I200000J0D01*
G01*
X162200000Y-81796000D01*
G75*
G02*
X162400000Y-81996000I0J-200000D01*
G01*
X162400000Y-82596000D01*
G75*
G02*
X162200000Y-82796000I-200000J0D01*
G01*
X160700000Y-82796000D01*
G75*
G02*
X160500000Y-82596000I0J200000D01*
G01*
G37*
G36*
G01*
X155100000Y-82596000D02*
X155100000Y-81996000D01*
G75*
G02*
X155300000Y-81796000I200000J0D01*
G01*
X156800000Y-81796000D01*
G75*
G02*
X157000000Y-81996000I0J-200000D01*
G01*
X157000000Y-82596000D01*
G75*
G02*
X156800000Y-82796000I-200000J0D01*
G01*
X155300000Y-82796000D01*
G75*
G02*
X155100000Y-82596000I0J200000D01*
G01*
G37*
G36*
G01*
X155100000Y-81326000D02*
X155100000Y-80726000D01*
G75*
G02*
X155300000Y-80526000I200000J0D01*
G01*
X156800000Y-80526000D01*
G75*
G02*
X157000000Y-80726000I0J-200000D01*
G01*
X157000000Y-81326000D01*
G75*
G02*
X156800000Y-81526000I-200000J0D01*
G01*
X155300000Y-81526000D01*
G75*
G02*
X155100000Y-81326000I0J200000D01*
G01*
G37*
G36*
G01*
X155100000Y-80056000D02*
X155100000Y-79456000D01*
G75*
G02*
X155300000Y-79256000I200000J0D01*
G01*
X156800000Y-79256000D01*
G75*
G02*
X157000000Y-79456000I0J-200000D01*
G01*
X157000000Y-80056000D01*
G75*
G02*
X156800000Y-80256000I-200000J0D01*
G01*
X155300000Y-80256000D01*
G75*
G02*
X155100000Y-80056000I0J200000D01*
G01*
G37*
G36*
G01*
X155100000Y-78786000D02*
X155100000Y-78186000D01*
G75*
G02*
X155300000Y-77986000I200000J0D01*
G01*
X156800000Y-77986000D01*
G75*
G02*
X157000000Y-78186000I0J-200000D01*
G01*
X157000000Y-78786000D01*
G75*
G02*
X156800000Y-78986000I-200000J0D01*
G01*
X155300000Y-78986000D01*
G75*
G02*
X155100000Y-78786000I0J200000D01*
G01*
G37*
G36*
G01*
X155100000Y-77516000D02*
X155100000Y-76916000D01*
G75*
G02*
X155300000Y-76716000I200000J0D01*
G01*
X156800000Y-76716000D01*
G75*
G02*
X157000000Y-76916000I0J-200000D01*
G01*
X157000000Y-77516000D01*
G75*
G02*
X156800000Y-77716000I-200000J0D01*
G01*
X155300000Y-77716000D01*
G75*
G02*
X155100000Y-77516000I0J200000D01*
G01*
G37*
G36*
G01*
X155100000Y-76246000D02*
X155100000Y-75646000D01*
G75*
G02*
X155300000Y-75446000I200000J0D01*
G01*
X156800000Y-75446000D01*
G75*
G02*
X157000000Y-75646000I0J-200000D01*
G01*
X157000000Y-76246000D01*
G75*
G02*
X156800000Y-76446000I-200000J0D01*
G01*
X155300000Y-76446000D01*
G75*
G02*
X155100000Y-76246000I0J200000D01*
G01*
G37*
G36*
G01*
X155100000Y-74976000D02*
X155100000Y-74376000D01*
G75*
G02*
X155300000Y-74176000I200000J0D01*
G01*
X156800000Y-74176000D01*
G75*
G02*
X157000000Y-74376000I0J-200000D01*
G01*
X157000000Y-74976000D01*
G75*
G02*
X156800000Y-75176000I-200000J0D01*
G01*
X155300000Y-75176000D01*
G75*
G02*
X155100000Y-74976000I0J200000D01*
G01*
G37*
G36*
G01*
X155100000Y-73706000D02*
X155100000Y-73106000D01*
G75*
G02*
X155300000Y-72906000I200000J0D01*
G01*
X156800000Y-72906000D01*
G75*
G02*
X157000000Y-73106000I0J-200000D01*
G01*
X157000000Y-73706000D01*
G75*
G02*
X156800000Y-73906000I-200000J0D01*
G01*
X155300000Y-73906000D01*
G75*
G02*
X155100000Y-73706000I0J200000D01*
G01*
G37*
G36*
G01*
X127480000Y-73706000D02*
X127480000Y-73106000D01*
G75*
G02*
X127680000Y-72906000I200000J0D01*
G01*
X129180000Y-72906000D01*
G75*
G02*
X129380000Y-73106000I0J-200000D01*
G01*
X129380000Y-73706000D01*
G75*
G02*
X129180000Y-73906000I-200000J0D01*
G01*
X127680000Y-73906000D01*
G75*
G02*
X127480000Y-73706000I0J200000D01*
G01*
G37*
G36*
G01*
X127480000Y-74976000D02*
X127480000Y-74376000D01*
G75*
G02*
X127680000Y-74176000I200000J0D01*
G01*
X129180000Y-74176000D01*
G75*
G02*
X129380000Y-74376000I0J-200000D01*
G01*
X129380000Y-74976000D01*
G75*
G02*
X129180000Y-75176000I-200000J0D01*
G01*
X127680000Y-75176000D01*
G75*
G02*
X127480000Y-74976000I0J200000D01*
G01*
G37*
G36*
G01*
X127480000Y-76246000D02*
X127480000Y-75646000D01*
G75*
G02*
X127680000Y-75446000I200000J0D01*
G01*
X129180000Y-75446000D01*
G75*
G02*
X129380000Y-75646000I0J-200000D01*
G01*
X129380000Y-76246000D01*
G75*
G02*
X129180000Y-76446000I-200000J0D01*
G01*
X127680000Y-76446000D01*
G75*
G02*
X127480000Y-76246000I0J200000D01*
G01*
G37*
G36*
G01*
X127480000Y-77516000D02*
X127480000Y-76916000D01*
G75*
G02*
X127680000Y-76716000I200000J0D01*
G01*
X129180000Y-76716000D01*
G75*
G02*
X129380000Y-76916000I0J-200000D01*
G01*
X129380000Y-77516000D01*
G75*
G02*
X129180000Y-77716000I-200000J0D01*
G01*
X127680000Y-77716000D01*
G75*
G02*
X127480000Y-77516000I0J200000D01*
G01*
G37*
G36*
G01*
X127480000Y-78786000D02*
X127480000Y-78186000D01*
G75*
G02*
X127680000Y-77986000I200000J0D01*
G01*
X129180000Y-77986000D01*
G75*
G02*
X129380000Y-78186000I0J-200000D01*
G01*
X129380000Y-78786000D01*
G75*
G02*
X129180000Y-78986000I-200000J0D01*
G01*
X127680000Y-78986000D01*
G75*
G02*
X127480000Y-78786000I0J200000D01*
G01*
G37*
G36*
G01*
X127480000Y-80056000D02*
X127480000Y-79456000D01*
G75*
G02*
X127680000Y-79256000I200000J0D01*
G01*
X129180000Y-79256000D01*
G75*
G02*
X129380000Y-79456000I0J-200000D01*
G01*
X129380000Y-80056000D01*
G75*
G02*
X129180000Y-80256000I-200000J0D01*
G01*
X127680000Y-80256000D01*
G75*
G02*
X127480000Y-80056000I0J200000D01*
G01*
G37*
G36*
G01*
X127480000Y-81326000D02*
X127480000Y-80726000D01*
G75*
G02*
X127680000Y-80526000I200000J0D01*
G01*
X129180000Y-80526000D01*
G75*
G02*
X129380000Y-80726000I0J-200000D01*
G01*
X129380000Y-81326000D01*
G75*
G02*
X129180000Y-81526000I-200000J0D01*
G01*
X127680000Y-81526000D01*
G75*
G02*
X127480000Y-81326000I0J200000D01*
G01*
G37*
G36*
G01*
X127480000Y-82596000D02*
X127480000Y-81996000D01*
G75*
G02*
X127680000Y-81796000I200000J0D01*
G01*
X129180000Y-81796000D01*
G75*
G02*
X129380000Y-81996000I0J-200000D01*
G01*
X129380000Y-82596000D01*
G75*
G02*
X129180000Y-82796000I-200000J0D01*
G01*
X127680000Y-82796000D01*
G75*
G02*
X127480000Y-82596000I0J200000D01*
G01*
G37*
G36*
G01*
X122080000Y-82596000D02*
X122080000Y-81996000D01*
G75*
G02*
X122280000Y-81796000I200000J0D01*
G01*
X123780000Y-81796000D01*
G75*
G02*
X123980000Y-81996000I0J-200000D01*
G01*
X123980000Y-82596000D01*
G75*
G02*
X123780000Y-82796000I-200000J0D01*
G01*
X122280000Y-82796000D01*
G75*
G02*
X122080000Y-82596000I0J200000D01*
G01*
G37*
G36*
G01*
X122080000Y-81326000D02*
X122080000Y-80726000D01*
G75*
G02*
X122280000Y-80526000I200000J0D01*
G01*
X123780000Y-80526000D01*
G75*
G02*
X123980000Y-80726000I0J-200000D01*
G01*
X123980000Y-81326000D01*
G75*
G02*
X123780000Y-81526000I-200000J0D01*
G01*
X122280000Y-81526000D01*
G75*
G02*
X122080000Y-81326000I0J200000D01*
G01*
G37*
G36*
G01*
X122080000Y-80056000D02*
X122080000Y-79456000D01*
G75*
G02*
X122280000Y-79256000I200000J0D01*
G01*
X123780000Y-79256000D01*
G75*
G02*
X123980000Y-79456000I0J-200000D01*
G01*
X123980000Y-80056000D01*
G75*
G02*
X123780000Y-80256000I-200000J0D01*
G01*
X122280000Y-80256000D01*
G75*
G02*
X122080000Y-80056000I0J200000D01*
G01*
G37*
G36*
G01*
X122080000Y-78786000D02*
X122080000Y-78186000D01*
G75*
G02*
X122280000Y-77986000I200000J0D01*
G01*
X123780000Y-77986000D01*
G75*
G02*
X123980000Y-78186000I0J-200000D01*
G01*
X123980000Y-78786000D01*
G75*
G02*
X123780000Y-78986000I-200000J0D01*
G01*
X122280000Y-78986000D01*
G75*
G02*
X122080000Y-78786000I0J200000D01*
G01*
G37*
G36*
G01*
X122080000Y-77516000D02*
X122080000Y-76916000D01*
G75*
G02*
X122280000Y-76716000I200000J0D01*
G01*
X123780000Y-76716000D01*
G75*
G02*
X123980000Y-76916000I0J-200000D01*
G01*
X123980000Y-77516000D01*
G75*
G02*
X123780000Y-77716000I-200000J0D01*
G01*
X122280000Y-77716000D01*
G75*
G02*
X122080000Y-77516000I0J200000D01*
G01*
G37*
G36*
G01*
X122080000Y-76246000D02*
X122080000Y-75646000D01*
G75*
G02*
X122280000Y-75446000I200000J0D01*
G01*
X123780000Y-75446000D01*
G75*
G02*
X123980000Y-75646000I0J-200000D01*
G01*
X123980000Y-76246000D01*
G75*
G02*
X123780000Y-76446000I-200000J0D01*
G01*
X122280000Y-76446000D01*
G75*
G02*
X122080000Y-76246000I0J200000D01*
G01*
G37*
G36*
G01*
X122080000Y-74976000D02*
X122080000Y-74376000D01*
G75*
G02*
X122280000Y-74176000I200000J0D01*
G01*
X123780000Y-74176000D01*
G75*
G02*
X123980000Y-74376000I0J-200000D01*
G01*
X123980000Y-74976000D01*
G75*
G02*
X123780000Y-75176000I-200000J0D01*
G01*
X122280000Y-75176000D01*
G75*
G02*
X122080000Y-74976000I0J200000D01*
G01*
G37*
G36*
G01*
X122080000Y-73706000D02*
X122080000Y-73106000D01*
G75*
G02*
X122280000Y-72906000I200000J0D01*
G01*
X123780000Y-72906000D01*
G75*
G02*
X123980000Y-73106000I0J-200000D01*
G01*
X123980000Y-73706000D01*
G75*
G02*
X123780000Y-73906000I-200000J0D01*
G01*
X122280000Y-73906000D01*
G75*
G02*
X122080000Y-73706000I0J200000D01*
G01*
G37*
D14*
X113284000Y-73533000D03*
X113284000Y-76073000D03*
G36*
G01*
X114334000Y-77763000D02*
X114334000Y-79463000D01*
G75*
G02*
X114134000Y-79663000I-200000J0D01*
G01*
X112434000Y-79663000D01*
G75*
G02*
X112234000Y-79463000I0J200000D01*
G01*
X112234000Y-77763000D01*
G75*
G02*
X112434000Y-77563000I200000J0D01*
G01*
X114134000Y-77563000D01*
G75*
G02*
X114334000Y-77763000I0J-200000D01*
G01*
G37*
X110744000Y-73533000D03*
X110744000Y-76073000D03*
G36*
G01*
X111794000Y-77763000D02*
X111794000Y-79463000D01*
G75*
G02*
X111594000Y-79663000I-200000J0D01*
G01*
X109894000Y-79663000D01*
G75*
G02*
X109694000Y-79463000I0J200000D01*
G01*
X109694000Y-77763000D01*
G75*
G02*
X109894000Y-77563000I200000J0D01*
G01*
X111594000Y-77563000D01*
G75*
G02*
X111794000Y-77763000I0J-200000D01*
G01*
G37*
X108204000Y-73533000D03*
X108204000Y-76073000D03*
G36*
G01*
X109254000Y-77763000D02*
X109254000Y-79463000D01*
G75*
G02*
X109054000Y-79663000I-200000J0D01*
G01*
X107354000Y-79663000D01*
G75*
G02*
X107154000Y-79463000I0J200000D01*
G01*
X107154000Y-77763000D01*
G75*
G02*
X107354000Y-77563000I200000J0D01*
G01*
X109054000Y-77563000D01*
G75*
G02*
X109254000Y-77763000I0J-200000D01*
G01*
G37*
G36*
G01*
X135901999Y-117999000D02*
X137402001Y-117999000D01*
G75*
G02*
X137602000Y-118198999I0J-199999D01*
G01*
X137602000Y-119169001D01*
G75*
G02*
X137402001Y-119369000I-199999J0D01*
G01*
X135901999Y-119369000D01*
G75*
G02*
X135702000Y-119169001I0J199999D01*
G01*
X135702000Y-118198999D01*
G75*
G02*
X135901999Y-117999000I199999J0D01*
G01*
G37*
G36*
G01*
X135901999Y-116089000D02*
X137402001Y-116089000D01*
G75*
G02*
X137602000Y-116288999I0J-199999D01*
G01*
X137602000Y-117259001D01*
G75*
G02*
X137402001Y-117459000I-199999J0D01*
G01*
X135901999Y-117459000D01*
G75*
G02*
X135702000Y-117259001I0J199999D01*
G01*
X135702000Y-116288999D01*
G75*
G02*
X135901999Y-116089000I199999J0D01*
G01*
G37*
G36*
G01*
X137402001Y-122793000D02*
X135901999Y-122793000D01*
G75*
G02*
X135702000Y-122593001I0J199999D01*
G01*
X135702000Y-121622999D01*
G75*
G02*
X135901999Y-121423000I199999J0D01*
G01*
X137402001Y-121423000D01*
G75*
G02*
X137602000Y-121622999I0J-199999D01*
G01*
X137602000Y-122593001D01*
G75*
G02*
X137402001Y-122793000I-199999J0D01*
G01*
G37*
G36*
G01*
X137402001Y-124703000D02*
X135901999Y-124703000D01*
G75*
G02*
X135702000Y-124503001I0J199999D01*
G01*
X135702000Y-123532999D01*
G75*
G02*
X135901999Y-123333000I199999J0D01*
G01*
X137402001Y-123333000D01*
G75*
G02*
X137602000Y-123532999I0J-199999D01*
G01*
X137602000Y-124503001D01*
G75*
G02*
X137402001Y-124703000I-199999J0D01*
G01*
G37*
G36*
G01*
X165596001Y-94091000D02*
X164095999Y-94091000D01*
G75*
G02*
X163896000Y-93891001I0J199999D01*
G01*
X163896000Y-92920999D01*
G75*
G02*
X164095999Y-92721000I199999J0D01*
G01*
X165596001Y-92721000D01*
G75*
G02*
X165796000Y-92920999I0J-199999D01*
G01*
X165796000Y-93891001D01*
G75*
G02*
X165596001Y-94091000I-199999J0D01*
G01*
G37*
G36*
G01*
X165596001Y-96001000D02*
X164095999Y-96001000D01*
G75*
G02*
X163896000Y-95801001I0J199999D01*
G01*
X163896000Y-94830999D01*
G75*
G02*
X164095999Y-94631000I199999J0D01*
G01*
X165596001Y-94631000D01*
G75*
G02*
X165796000Y-94830999I0J-199999D01*
G01*
X165796000Y-95801001D01*
G75*
G02*
X165596001Y-96001000I-199999J0D01*
G01*
G37*
G36*
G01*
X141335000Y-90308999D02*
X141335000Y-91809001D01*
G75*
G02*
X141135001Y-92009000I-199999J0D01*
G01*
X140164999Y-92009000D01*
G75*
G02*
X139965000Y-91809001I0J199999D01*
G01*
X139965000Y-90308999D01*
G75*
G02*
X140164999Y-90109000I199999J0D01*
G01*
X141135001Y-90109000D01*
G75*
G02*
X141335000Y-90308999I0J-199999D01*
G01*
G37*
G36*
G01*
X143245000Y-90308999D02*
X143245000Y-91809001D01*
G75*
G02*
X143045001Y-92009000I-199999J0D01*
G01*
X142074999Y-92009000D01*
G75*
G02*
X141875000Y-91809001I0J199999D01*
G01*
X141875000Y-90308999D01*
G75*
G02*
X142074999Y-90109000I199999J0D01*
G01*
X143045001Y-90109000D01*
G75*
G02*
X143245000Y-90308999I0J-199999D01*
G01*
G37*
G36*
G01*
X134223000Y-90689999D02*
X134223000Y-92190001D01*
G75*
G02*
X134023001Y-92390000I-199999J0D01*
G01*
X133052999Y-92390000D01*
G75*
G02*
X132853000Y-92190001I0J199999D01*
G01*
X132853000Y-90689999D01*
G75*
G02*
X133052999Y-90490000I199999J0D01*
G01*
X134023001Y-90490000D01*
G75*
G02*
X134223000Y-90689999I0J-199999D01*
G01*
G37*
G36*
G01*
X136133000Y-90689999D02*
X136133000Y-92190001D01*
G75*
G02*
X135933001Y-92390000I-199999J0D01*
G01*
X134962999Y-92390000D01*
G75*
G02*
X134763000Y-92190001I0J199999D01*
G01*
X134763000Y-90689999D01*
G75*
G02*
X134962999Y-90490000I199999J0D01*
G01*
X135933001Y-90490000D01*
G75*
G02*
X136133000Y-90689999I0J-199999D01*
G01*
G37*
G36*
G01*
X124598999Y-100092000D02*
X126099001Y-100092000D01*
G75*
G02*
X126299000Y-100291999I0J-199999D01*
G01*
X126299000Y-101262001D01*
G75*
G02*
X126099001Y-101462000I-199999J0D01*
G01*
X124598999Y-101462000D01*
G75*
G02*
X124399000Y-101262001I0J199999D01*
G01*
X124399000Y-100291999D01*
G75*
G02*
X124598999Y-100092000I199999J0D01*
G01*
G37*
G36*
G01*
X124598999Y-98182000D02*
X126099001Y-98182000D01*
G75*
G02*
X126299000Y-98381999I0J-199999D01*
G01*
X126299000Y-99352001D01*
G75*
G02*
X126099001Y-99552000I-199999J0D01*
G01*
X124598999Y-99552000D01*
G75*
G02*
X124399000Y-99352001I0J199999D01*
G01*
X124399000Y-98381999D01*
G75*
G02*
X124598999Y-98182000I199999J0D01*
G01*
G37*
G36*
G01*
X124317000Y-102754999D02*
X124317000Y-104255001D01*
G75*
G02*
X124117001Y-104455000I-199999J0D01*
G01*
X123146999Y-104455000D01*
G75*
G02*
X122947000Y-104255001I0J199999D01*
G01*
X122947000Y-102754999D01*
G75*
G02*
X123146999Y-102555000I199999J0D01*
G01*
X124117001Y-102555000D01*
G75*
G02*
X124317000Y-102754999I0J-199999D01*
G01*
G37*
G36*
G01*
X126227000Y-102754999D02*
X126227000Y-104255001D01*
G75*
G02*
X126027001Y-104455000I-199999J0D01*
G01*
X125056999Y-104455000D01*
G75*
G02*
X124857000Y-104255001I0J199999D01*
G01*
X124857000Y-102754999D01*
G75*
G02*
X125056999Y-102555000I199999J0D01*
G01*
X126027001Y-102555000D01*
G75*
G02*
X126227000Y-102754999I0J-199999D01*
G01*
G37*
G36*
G01*
X131683000Y-111517999D02*
X131683000Y-113018001D01*
G75*
G02*
X131483001Y-113218000I-199999J0D01*
G01*
X130512999Y-113218000D01*
G75*
G02*
X130313000Y-113018001I0J199999D01*
G01*
X130313000Y-111517999D01*
G75*
G02*
X130512999Y-111318000I199999J0D01*
G01*
X131483001Y-111318000D01*
G75*
G02*
X131683000Y-111517999I0J-199999D01*
G01*
G37*
G36*
G01*
X133593000Y-111517999D02*
X133593000Y-113018001D01*
G75*
G02*
X133393001Y-113218000I-199999J0D01*
G01*
X132422999Y-113218000D01*
G75*
G02*
X132223000Y-113018001I0J199999D01*
G01*
X132223000Y-111517999D01*
G75*
G02*
X132422999Y-111318000I199999J0D01*
G01*
X133393001Y-111318000D01*
G75*
G02*
X133593000Y-111517999I0J-199999D01*
G01*
G37*
G36*
G01*
X137398000Y-111009999D02*
X137398000Y-112510001D01*
G75*
G02*
X137198001Y-112710000I-199999J0D01*
G01*
X136227999Y-112710000D01*
G75*
G02*
X136028000Y-112510001I0J199999D01*
G01*
X136028000Y-111009999D01*
G75*
G02*
X136227999Y-110810000I199999J0D01*
G01*
X137198001Y-110810000D01*
G75*
G02*
X137398000Y-111009999I0J-199999D01*
G01*
G37*
G36*
G01*
X139308000Y-111009999D02*
X139308000Y-112510001D01*
G75*
G02*
X139108001Y-112710000I-199999J0D01*
G01*
X138137999Y-112710000D01*
G75*
G02*
X137938000Y-112510001I0J199999D01*
G01*
X137938000Y-111009999D01*
G75*
G02*
X138137999Y-110810000I199999J0D01*
G01*
X139108001Y-110810000D01*
G75*
G02*
X139308000Y-111009999I0J-199999D01*
G01*
G37*
G36*
G01*
X160671000Y-106287001D02*
X160671000Y-104786999D01*
G75*
G02*
X160870999Y-104587000I199999J0D01*
G01*
X161841001Y-104587000D01*
G75*
G02*
X162041000Y-104786999I0J-199999D01*
G01*
X162041000Y-106287001D01*
G75*
G02*
X161841001Y-106487000I-199999J0D01*
G01*
X160870999Y-106487000D01*
G75*
G02*
X160671000Y-106287001I0J199999D01*
G01*
G37*
G36*
G01*
X158761000Y-106287001D02*
X158761000Y-104786999D01*
G75*
G02*
X158960999Y-104587000I199999J0D01*
G01*
X159931001Y-104587000D01*
G75*
G02*
X160131000Y-104786999I0J-199999D01*
G01*
X160131000Y-106287001D01*
G75*
G02*
X159931001Y-106487000I-199999J0D01*
G01*
X158960999Y-106487000D01*
G75*
G02*
X158761000Y-106287001I0J199999D01*
G01*
G37*
G36*
G01*
X160131000Y-110501999D02*
X160131000Y-112002001D01*
G75*
G02*
X159931001Y-112202000I-199999J0D01*
G01*
X158960999Y-112202000D01*
G75*
G02*
X158761000Y-112002001I0J199999D01*
G01*
X158761000Y-110501999D01*
G75*
G02*
X158960999Y-110302000I199999J0D01*
G01*
X159931001Y-110302000D01*
G75*
G02*
X160131000Y-110501999I0J-199999D01*
G01*
G37*
G36*
G01*
X162041000Y-110501999D02*
X162041000Y-112002001D01*
G75*
G02*
X161841001Y-112202000I-199999J0D01*
G01*
X160870999Y-112202000D01*
G75*
G02*
X160671000Y-112002001I0J199999D01*
G01*
X160671000Y-110501999D01*
G75*
G02*
X160870999Y-110302000I199999J0D01*
G01*
X161841001Y-110302000D01*
G75*
G02*
X162041000Y-110501999I0J-199999D01*
G01*
G37*
G36*
G01*
X124095000Y-109462001D02*
X124095000Y-107961999D01*
G75*
G02*
X124294999Y-107762000I199999J0D01*
G01*
X125265001Y-107762000D01*
G75*
G02*
X125465000Y-107961999I0J-199999D01*
G01*
X125465000Y-109462001D01*
G75*
G02*
X125265001Y-109662000I-199999J0D01*
G01*
X124294999Y-109662000D01*
G75*
G02*
X124095000Y-109462001I0J199999D01*
G01*
G37*
G36*
G01*
X122185000Y-109462001D02*
X122185000Y-107961999D01*
G75*
G02*
X122384999Y-107762000I199999J0D01*
G01*
X123355001Y-107762000D01*
G75*
G02*
X123555000Y-107961999I0J-199999D01*
G01*
X123555000Y-109462001D01*
G75*
G02*
X123355001Y-109662000I-199999J0D01*
G01*
X122384999Y-109662000D01*
G75*
G02*
X122185000Y-109462001I0J199999D01*
G01*
G37*
G36*
G01*
X140981999Y-112665000D02*
X142482001Y-112665000D01*
G75*
G02*
X142682000Y-112864999I0J-199999D01*
G01*
X142682000Y-113835001D01*
G75*
G02*
X142482001Y-114035000I-199999J0D01*
G01*
X140981999Y-114035000D01*
G75*
G02*
X140782000Y-113835001I0J199999D01*
G01*
X140782000Y-112864999D01*
G75*
G02*
X140981999Y-112665000I199999J0D01*
G01*
G37*
G36*
G01*
X140981999Y-110755000D02*
X142482001Y-110755000D01*
G75*
G02*
X142682000Y-110954999I0J-199999D01*
G01*
X142682000Y-111925001D01*
G75*
G02*
X142482001Y-112125000I-199999J0D01*
G01*
X140981999Y-112125000D01*
G75*
G02*
X140782000Y-111925001I0J199999D01*
G01*
X140782000Y-110954999D01*
G75*
G02*
X140981999Y-110755000I199999J0D01*
G01*
G37*
G36*
G01*
X143140999Y-112665000D02*
X144641001Y-112665000D01*
G75*
G02*
X144841000Y-112864999I0J-199999D01*
G01*
X144841000Y-113835001D01*
G75*
G02*
X144641001Y-114035000I-199999J0D01*
G01*
X143140999Y-114035000D01*
G75*
G02*
X142941000Y-113835001I0J199999D01*
G01*
X142941000Y-112864999D01*
G75*
G02*
X143140999Y-112665000I199999J0D01*
G01*
G37*
G36*
G01*
X143140999Y-110755000D02*
X144641001Y-110755000D01*
G75*
G02*
X144841000Y-110954999I0J-199999D01*
G01*
X144841000Y-111925001D01*
G75*
G02*
X144641001Y-112125000I-199999J0D01*
G01*
X143140999Y-112125000D01*
G75*
G02*
X142941000Y-111925001I0J199999D01*
G01*
X142941000Y-110954999D01*
G75*
G02*
X143140999Y-110755000I199999J0D01*
G01*
G37*
G36*
G01*
X191781999Y-74438000D02*
X193282001Y-74438000D01*
G75*
G02*
X193482000Y-74637999I0J-199999D01*
G01*
X193482000Y-75608001D01*
G75*
G02*
X193282001Y-75808000I-199999J0D01*
G01*
X191781999Y-75808000D01*
G75*
G02*
X191582000Y-75608001I0J199999D01*
G01*
X191582000Y-74637999D01*
G75*
G02*
X191781999Y-74438000I199999J0D01*
G01*
G37*
G36*
G01*
X191781999Y-72528000D02*
X193282001Y-72528000D01*
G75*
G02*
X193482000Y-72727999I0J-199999D01*
G01*
X193482000Y-73698001D01*
G75*
G02*
X193282001Y-73898000I-199999J0D01*
G01*
X191781999Y-73898000D01*
G75*
G02*
X191582000Y-73698001I0J199999D01*
G01*
X191582000Y-72727999D01*
G75*
G02*
X191781999Y-72528000I199999J0D01*
G01*
G37*
G36*
G01*
X188960000Y-70496999D02*
X188960000Y-71997001D01*
G75*
G02*
X188760001Y-72197000I-199999J0D01*
G01*
X187789999Y-72197000D01*
G75*
G02*
X187590000Y-71997001I0J199999D01*
G01*
X187590000Y-70496999D01*
G75*
G02*
X187789999Y-70297000I199999J0D01*
G01*
X188760001Y-70297000D01*
G75*
G02*
X188960000Y-70496999I0J-199999D01*
G01*
G37*
G36*
G01*
X190870000Y-70496999D02*
X190870000Y-71997001D01*
G75*
G02*
X190670001Y-72197000I-199999J0D01*
G01*
X189699999Y-72197000D01*
G75*
G02*
X189500000Y-71997001I0J199999D01*
G01*
X189500000Y-70496999D01*
G75*
G02*
X189699999Y-70297000I199999J0D01*
G01*
X190670001Y-70297000D01*
G75*
G02*
X190870000Y-70496999I0J-199999D01*
G01*
G37*
G36*
G01*
X180351999Y-74184000D02*
X181852001Y-74184000D01*
G75*
G02*
X182052000Y-74383999I0J-199999D01*
G01*
X182052000Y-75354001D01*
G75*
G02*
X181852001Y-75554000I-199999J0D01*
G01*
X180351999Y-75554000D01*
G75*
G02*
X180152000Y-75354001I0J199999D01*
G01*
X180152000Y-74383999D01*
G75*
G02*
X180351999Y-74184000I199999J0D01*
G01*
G37*
G36*
G01*
X180351999Y-72274000D02*
X181852001Y-72274000D01*
G75*
G02*
X182052000Y-72473999I0J-199999D01*
G01*
X182052000Y-73444001D01*
G75*
G02*
X181852001Y-73644000I-199999J0D01*
G01*
X180351999Y-73644000D01*
G75*
G02*
X180152000Y-73444001I0J199999D01*
G01*
X180152000Y-72473999D01*
G75*
G02*
X180351999Y-72274000I199999J0D01*
G01*
G37*
G36*
G01*
X180351999Y-78502000D02*
X181852001Y-78502000D01*
G75*
G02*
X182052000Y-78701999I0J-199999D01*
G01*
X182052000Y-79672001D01*
G75*
G02*
X181852001Y-79872000I-199999J0D01*
G01*
X180351999Y-79872000D01*
G75*
G02*
X180152000Y-79672001I0J199999D01*
G01*
X180152000Y-78701999D01*
G75*
G02*
X180351999Y-78502000I199999J0D01*
G01*
G37*
G36*
G01*
X180351999Y-76592000D02*
X181852001Y-76592000D01*
G75*
G02*
X182052000Y-76791999I0J-199999D01*
G01*
X182052000Y-77762001D01*
G75*
G02*
X181852001Y-77962000I-199999J0D01*
G01*
X180351999Y-77962000D01*
G75*
G02*
X180152000Y-77762001I0J199999D01*
G01*
X180152000Y-76791999D01*
G75*
G02*
X180351999Y-76592000I199999J0D01*
G01*
G37*
G36*
G01*
X102886000Y-112002001D02*
X102886000Y-110501999D01*
G75*
G02*
X103085999Y-110302000I199999J0D01*
G01*
X104056001Y-110302000D01*
G75*
G02*
X104256000Y-110501999I0J-199999D01*
G01*
X104256000Y-112002001D01*
G75*
G02*
X104056001Y-112202000I-199999J0D01*
G01*
X103085999Y-112202000D01*
G75*
G02*
X102886000Y-112002001I0J199999D01*
G01*
G37*
G36*
G01*
X100976000Y-112002001D02*
X100976000Y-110501999D01*
G75*
G02*
X101175999Y-110302000I199999J0D01*
G01*
X102146001Y-110302000D01*
G75*
G02*
X102346000Y-110501999I0J-199999D01*
G01*
X102346000Y-112002001D01*
G75*
G02*
X102146001Y-112202000I-199999J0D01*
G01*
X101175999Y-112202000D01*
G75*
G02*
X100976000Y-112002001I0J199999D01*
G01*
G37*
G36*
G01*
X179312001Y-77835000D02*
X177811999Y-77835000D01*
G75*
G02*
X177612000Y-77635001I0J199999D01*
G01*
X177612000Y-76664999D01*
G75*
G02*
X177811999Y-76465000I199999J0D01*
G01*
X179312001Y-76465000D01*
G75*
G02*
X179512000Y-76664999I0J-199999D01*
G01*
X179512000Y-77635001D01*
G75*
G02*
X179312001Y-77835000I-199999J0D01*
G01*
G37*
G36*
G01*
X179312001Y-79745000D02*
X177811999Y-79745000D01*
G75*
G02*
X177612000Y-79545001I0J199999D01*
G01*
X177612000Y-78574999D01*
G75*
G02*
X177811999Y-78375000I199999J0D01*
G01*
X179312001Y-78375000D01*
G75*
G02*
X179512000Y-78574999I0J-199999D01*
G01*
X179512000Y-79545001D01*
G75*
G02*
X179312001Y-79745000I-199999J0D01*
G01*
G37*
G36*
G01*
X163841999Y-74438000D02*
X165342001Y-74438000D01*
G75*
G02*
X165542000Y-74637999I0J-199999D01*
G01*
X165542000Y-75608001D01*
G75*
G02*
X165342001Y-75808000I-199999J0D01*
G01*
X163841999Y-75808000D01*
G75*
G02*
X163642000Y-75608001I0J199999D01*
G01*
X163642000Y-74637999D01*
G75*
G02*
X163841999Y-74438000I199999J0D01*
G01*
G37*
G36*
G01*
X163841999Y-72528000D02*
X165342001Y-72528000D01*
G75*
G02*
X165542000Y-72727999I0J-199999D01*
G01*
X165542000Y-73698001D01*
G75*
G02*
X165342001Y-73898000I-199999J0D01*
G01*
X163841999Y-73898000D01*
G75*
G02*
X163642000Y-73698001I0J199999D01*
G01*
X163642000Y-72727999D01*
G75*
G02*
X163841999Y-72528000I199999J0D01*
G01*
G37*
G36*
G01*
X161020000Y-70496999D02*
X161020000Y-71997001D01*
G75*
G02*
X160820001Y-72197000I-199999J0D01*
G01*
X159849999Y-72197000D01*
G75*
G02*
X159650000Y-71997001I0J199999D01*
G01*
X159650000Y-70496999D01*
G75*
G02*
X159849999Y-70297000I199999J0D01*
G01*
X160820001Y-70297000D01*
G75*
G02*
X161020000Y-70496999I0J-199999D01*
G01*
G37*
G36*
G01*
X162930000Y-70496999D02*
X162930000Y-71997001D01*
G75*
G02*
X162730001Y-72197000I-199999J0D01*
G01*
X161759999Y-72197000D01*
G75*
G02*
X161560000Y-71997001I0J199999D01*
G01*
X161560000Y-70496999D01*
G75*
G02*
X161759999Y-70297000I199999J0D01*
G01*
X162730001Y-70297000D01*
G75*
G02*
X162930000Y-70496999I0J-199999D01*
G01*
G37*
G36*
G01*
X152411999Y-74057000D02*
X153912001Y-74057000D01*
G75*
G02*
X154112000Y-74256999I0J-199999D01*
G01*
X154112000Y-75227001D01*
G75*
G02*
X153912001Y-75427000I-199999J0D01*
G01*
X152411999Y-75427000D01*
G75*
G02*
X152212000Y-75227001I0J199999D01*
G01*
X152212000Y-74256999D01*
G75*
G02*
X152411999Y-74057000I199999J0D01*
G01*
G37*
G36*
G01*
X152411999Y-72147000D02*
X153912001Y-72147000D01*
G75*
G02*
X154112000Y-72346999I0J-199999D01*
G01*
X154112000Y-73317001D01*
G75*
G02*
X153912001Y-73517000I-199999J0D01*
G01*
X152411999Y-73517000D01*
G75*
G02*
X152212000Y-73317001I0J199999D01*
G01*
X152212000Y-72346999D01*
G75*
G02*
X152411999Y-72147000I199999J0D01*
G01*
G37*
G36*
G01*
X152284999Y-78375000D02*
X153785001Y-78375000D01*
G75*
G02*
X153985000Y-78574999I0J-199999D01*
G01*
X153985000Y-79545001D01*
G75*
G02*
X153785001Y-79745000I-199999J0D01*
G01*
X152284999Y-79745000D01*
G75*
G02*
X152085000Y-79545001I0J199999D01*
G01*
X152085000Y-78574999D01*
G75*
G02*
X152284999Y-78375000I199999J0D01*
G01*
G37*
G36*
G01*
X152284999Y-76465000D02*
X153785001Y-76465000D01*
G75*
G02*
X153985000Y-76664999I0J-199999D01*
G01*
X153985000Y-77635001D01*
G75*
G02*
X153785001Y-77835000I-199999J0D01*
G01*
X152284999Y-77835000D01*
G75*
G02*
X152085000Y-77635001I0J199999D01*
G01*
X152085000Y-76664999D01*
G75*
G02*
X152284999Y-76465000I199999J0D01*
G01*
G37*
G36*
G01*
X151626001Y-77835000D02*
X150125999Y-77835000D01*
G75*
G02*
X149926000Y-77635001I0J199999D01*
G01*
X149926000Y-76664999D01*
G75*
G02*
X150125999Y-76465000I199999J0D01*
G01*
X151626001Y-76465000D01*
G75*
G02*
X151826000Y-76664999I0J-199999D01*
G01*
X151826000Y-77635001D01*
G75*
G02*
X151626001Y-77835000I-199999J0D01*
G01*
G37*
G36*
G01*
X151626001Y-79745000D02*
X150125999Y-79745000D01*
G75*
G02*
X149926000Y-79545001I0J199999D01*
G01*
X149926000Y-78574999D01*
G75*
G02*
X150125999Y-78375000I199999J0D01*
G01*
X151626001Y-78375000D01*
G75*
G02*
X151826000Y-78574999I0J-199999D01*
G01*
X151826000Y-79545001D01*
G75*
G02*
X151626001Y-79745000I-199999J0D01*
G01*
G37*
G36*
G01*
X108728000Y-85078001D02*
X108728000Y-83577999D01*
G75*
G02*
X108927999Y-83378000I199999J0D01*
G01*
X109898001Y-83378000D01*
G75*
G02*
X110098000Y-83577999I0J-199999D01*
G01*
X110098000Y-85078001D01*
G75*
G02*
X109898001Y-85278000I-199999J0D01*
G01*
X108927999Y-85278000D01*
G75*
G02*
X108728000Y-85078001I0J199999D01*
G01*
G37*
G36*
G01*
X106818000Y-85078001D02*
X106818000Y-83577999D01*
G75*
G02*
X107017999Y-83378000I199999J0D01*
G01*
X107988001Y-83378000D01*
G75*
G02*
X108188000Y-83577999I0J-199999D01*
G01*
X108188000Y-85078001D01*
G75*
G02*
X107988001Y-85278000I-199999J0D01*
G01*
X107017999Y-85278000D01*
G75*
G02*
X106818000Y-85078001I0J199999D01*
G01*
G37*
G36*
G01*
X128000000Y-70496999D02*
X128000000Y-71997001D01*
G75*
G02*
X127800001Y-72197000I-199999J0D01*
G01*
X126829999Y-72197000D01*
G75*
G02*
X126630000Y-71997001I0J199999D01*
G01*
X126630000Y-70496999D01*
G75*
G02*
X126829999Y-70297000I199999J0D01*
G01*
X127800001Y-70297000D01*
G75*
G02*
X128000000Y-70496999I0J-199999D01*
G01*
G37*
G36*
G01*
X129910000Y-70496999D02*
X129910000Y-71997001D01*
G75*
G02*
X129710001Y-72197000I-199999J0D01*
G01*
X128739999Y-72197000D01*
G75*
G02*
X128540000Y-71997001I0J199999D01*
G01*
X128540000Y-70496999D01*
G75*
G02*
X128739999Y-70297000I199999J0D01*
G01*
X129710001Y-70297000D01*
G75*
G02*
X129910000Y-70496999I0J-199999D01*
G01*
G37*
G36*
G01*
X119391999Y-78375000D02*
X120892001Y-78375000D01*
G75*
G02*
X121092000Y-78574999I0J-199999D01*
G01*
X121092000Y-79545001D01*
G75*
G02*
X120892001Y-79745000I-199999J0D01*
G01*
X119391999Y-79745000D01*
G75*
G02*
X119192000Y-79545001I0J199999D01*
G01*
X119192000Y-78574999D01*
G75*
G02*
X119391999Y-78375000I199999J0D01*
G01*
G37*
G36*
G01*
X119391999Y-76465000D02*
X120892001Y-76465000D01*
G75*
G02*
X121092000Y-76664999I0J-199999D01*
G01*
X121092000Y-77635001D01*
G75*
G02*
X120892001Y-77835000I-199999J0D01*
G01*
X119391999Y-77835000D01*
G75*
G02*
X119192000Y-77635001I0J199999D01*
G01*
X119192000Y-76664999D01*
G75*
G02*
X119391999Y-76465000I199999J0D01*
G01*
G37*
G36*
G01*
X105017001Y-72882000D02*
X103516999Y-72882000D01*
G75*
G02*
X103317000Y-72682001I0J199999D01*
G01*
X103317000Y-71711999D01*
G75*
G02*
X103516999Y-71512000I199999J0D01*
G01*
X105017001Y-71512000D01*
G75*
G02*
X105217000Y-71711999I0J-199999D01*
G01*
X105217000Y-72682001D01*
G75*
G02*
X105017001Y-72882000I-199999J0D01*
G01*
G37*
G36*
G01*
X105017001Y-74792000D02*
X103516999Y-74792000D01*
G75*
G02*
X103317000Y-74592001I0J199999D01*
G01*
X103317000Y-73621999D01*
G75*
G02*
X103516999Y-73422000I199999J0D01*
G01*
X105017001Y-73422000D01*
G75*
G02*
X105217000Y-73621999I0J-199999D01*
G01*
X105217000Y-74592001D01*
G75*
G02*
X105017001Y-74792000I-199999J0D01*
G01*
G37*
G36*
G01*
X184039000Y-126480001D02*
X184039000Y-124979999D01*
G75*
G02*
X184238999Y-124780000I199999J0D01*
G01*
X185209001Y-124780000D01*
G75*
G02*
X185409000Y-124979999I0J-199999D01*
G01*
X185409000Y-126480001D01*
G75*
G02*
X185209001Y-126680000I-199999J0D01*
G01*
X184238999Y-126680000D01*
G75*
G02*
X184039000Y-126480001I0J199999D01*
G01*
G37*
G36*
G01*
X182129000Y-126480001D02*
X182129000Y-124979999D01*
G75*
G02*
X182328999Y-124780000I199999J0D01*
G01*
X183299001Y-124780000D01*
G75*
G02*
X183499000Y-124979999I0J-199999D01*
G01*
X183499000Y-126480001D01*
G75*
G02*
X183299001Y-126680000I-199999J0D01*
G01*
X182328999Y-126680000D01*
G75*
G02*
X182129000Y-126480001I0J199999D01*
G01*
G37*
G36*
G01*
X119391999Y-74057000D02*
X120892001Y-74057000D01*
G75*
G02*
X121092000Y-74256999I0J-199999D01*
G01*
X121092000Y-75227001D01*
G75*
G02*
X120892001Y-75427000I-199999J0D01*
G01*
X119391999Y-75427000D01*
G75*
G02*
X119192000Y-75227001I0J199999D01*
G01*
X119192000Y-74256999D01*
G75*
G02*
X119391999Y-74057000I199999J0D01*
G01*
G37*
G36*
G01*
X119391999Y-72147000D02*
X120892001Y-72147000D01*
G75*
G02*
X121092000Y-72346999I0J-199999D01*
G01*
X121092000Y-73317001D01*
G75*
G02*
X120892001Y-73517000I-199999J0D01*
G01*
X119391999Y-73517000D01*
G75*
G02*
X119192000Y-73317001I0J199999D01*
G01*
X119192000Y-72346999D01*
G75*
G02*
X119391999Y-72147000I199999J0D01*
G01*
G37*
G36*
G01*
X118352001Y-77835000D02*
X116851999Y-77835000D01*
G75*
G02*
X116652000Y-77635001I0J199999D01*
G01*
X116652000Y-76664999D01*
G75*
G02*
X116851999Y-76465000I199999J0D01*
G01*
X118352001Y-76465000D01*
G75*
G02*
X118552000Y-76664999I0J-199999D01*
G01*
X118552000Y-77635001D01*
G75*
G02*
X118352001Y-77835000I-199999J0D01*
G01*
G37*
G36*
G01*
X118352001Y-79745000D02*
X116851999Y-79745000D01*
G75*
G02*
X116652000Y-79545001I0J199999D01*
G01*
X116652000Y-78574999D01*
G75*
G02*
X116851999Y-78375000I199999J0D01*
G01*
X118352001Y-78375000D01*
G75*
G02*
X118552000Y-78574999I0J-199999D01*
G01*
X118552000Y-79545001D01*
G75*
G02*
X118352001Y-79745000I-199999J0D01*
G01*
G37*
G36*
G01*
X130186999Y-74819000D02*
X131687001Y-74819000D01*
G75*
G02*
X131887000Y-75018999I0J-199999D01*
G01*
X131887000Y-75989001D01*
G75*
G02*
X131687001Y-76189000I-199999J0D01*
G01*
X130186999Y-76189000D01*
G75*
G02*
X129987000Y-75989001I0J199999D01*
G01*
X129987000Y-75018999D01*
G75*
G02*
X130186999Y-74819000I199999J0D01*
G01*
G37*
G36*
G01*
X130186999Y-72909000D02*
X131687001Y-72909000D01*
G75*
G02*
X131887000Y-73108999I0J-199999D01*
G01*
X131887000Y-74079001D01*
G75*
G02*
X131687001Y-74279000I-199999J0D01*
G01*
X130186999Y-74279000D01*
G75*
G02*
X129987000Y-74079001I0J199999D01*
G01*
X129987000Y-73108999D01*
G75*
G02*
X130186999Y-72909000I199999J0D01*
G01*
G37*
G36*
G01*
X129020001Y-121015000D02*
X127519999Y-121015000D01*
G75*
G02*
X127320000Y-120815001I0J199999D01*
G01*
X127320000Y-119844999D01*
G75*
G02*
X127519999Y-119645000I199999J0D01*
G01*
X129020001Y-119645000D01*
G75*
G02*
X129220000Y-119844999I0J-199999D01*
G01*
X129220000Y-120815001D01*
G75*
G02*
X129020001Y-121015000I-199999J0D01*
G01*
G37*
G36*
G01*
X129020001Y-122925000D02*
X127519999Y-122925000D01*
G75*
G02*
X127320000Y-122725001I0J199999D01*
G01*
X127320000Y-121754999D01*
G75*
G02*
X127519999Y-121555000I199999J0D01*
G01*
X129020001Y-121555000D01*
G75*
G02*
X129220000Y-121754999I0J-199999D01*
G01*
X129220000Y-122725001D01*
G75*
G02*
X129020001Y-122925000I-199999J0D01*
G01*
G37*
G36*
G01*
X104537000Y-97397001D02*
X104537000Y-95896999D01*
G75*
G02*
X104736999Y-95697000I199999J0D01*
G01*
X105707001Y-95697000D01*
G75*
G02*
X105907000Y-95896999I0J-199999D01*
G01*
X105907000Y-97397001D01*
G75*
G02*
X105707001Y-97597000I-199999J0D01*
G01*
X104736999Y-97597000D01*
G75*
G02*
X104537000Y-97397001I0J199999D01*
G01*
G37*
G36*
G01*
X102627000Y-97397001D02*
X102627000Y-95896999D01*
G75*
G02*
X102826999Y-95697000I199999J0D01*
G01*
X103797001Y-95697000D01*
G75*
G02*
X103997000Y-95896999I0J-199999D01*
G01*
X103997000Y-97397001D01*
G75*
G02*
X103797001Y-97597000I-199999J0D01*
G01*
X102826999Y-97597000D01*
G75*
G02*
X102627000Y-97397001I0J199999D01*
G01*
G37*
G36*
G01*
X183499000Y-120407999D02*
X183499000Y-121908001D01*
G75*
G02*
X183299001Y-122108000I-199999J0D01*
G01*
X182328999Y-122108000D01*
G75*
G02*
X182129000Y-121908001I0J199999D01*
G01*
X182129000Y-120407999D01*
G75*
G02*
X182328999Y-120208000I199999J0D01*
G01*
X183299001Y-120208000D01*
G75*
G02*
X183499000Y-120407999I0J-199999D01*
G01*
G37*
G36*
G01*
X185409000Y-120407999D02*
X185409000Y-121908001D01*
G75*
G02*
X185209001Y-122108000I-199999J0D01*
G01*
X184238999Y-122108000D01*
G75*
G02*
X184039000Y-121908001I0J199999D01*
G01*
X184039000Y-120407999D01*
G75*
G02*
X184238999Y-120208000I199999J0D01*
G01*
X185209001Y-120208000D01*
G75*
G02*
X185409000Y-120407999I0J-199999D01*
G01*
G37*
G36*
G01*
X183499000Y-122693999D02*
X183499000Y-124194001D01*
G75*
G02*
X183299001Y-124394000I-199999J0D01*
G01*
X182328999Y-124394000D01*
G75*
G02*
X182129000Y-124194001I0J199999D01*
G01*
X182129000Y-122693999D01*
G75*
G02*
X182328999Y-122494000I199999J0D01*
G01*
X183299001Y-122494000D01*
G75*
G02*
X183499000Y-122693999I0J-199999D01*
G01*
G37*
G36*
G01*
X185409000Y-122693999D02*
X185409000Y-124194001D01*
G75*
G02*
X185209001Y-124394000I-199999J0D01*
G01*
X184238999Y-124394000D01*
G75*
G02*
X184039000Y-124194001I0J199999D01*
G01*
X184039000Y-122693999D01*
G75*
G02*
X184238999Y-122494000I199999J0D01*
G01*
X185209001Y-122494000D01*
G75*
G02*
X185409000Y-122693999I0J-199999D01*
G01*
G37*
G36*
G01*
X153305000Y-94603001D02*
X153305000Y-93102999D01*
G75*
G02*
X153504999Y-92903000I199999J0D01*
G01*
X154475001Y-92903000D01*
G75*
G02*
X154675000Y-93102999I0J-199999D01*
G01*
X154675000Y-94603001D01*
G75*
G02*
X154475001Y-94803000I-199999J0D01*
G01*
X153504999Y-94803000D01*
G75*
G02*
X153305000Y-94603001I0J199999D01*
G01*
G37*
G36*
G01*
X151395000Y-94603001D02*
X151395000Y-93102999D01*
G75*
G02*
X151594999Y-92903000I199999J0D01*
G01*
X152565001Y-92903000D01*
G75*
G02*
X152765000Y-93102999I0J-199999D01*
G01*
X152765000Y-94603001D01*
G75*
G02*
X152565001Y-94803000I-199999J0D01*
G01*
X151594999Y-94803000D01*
G75*
G02*
X151395000Y-94603001I0J199999D01*
G01*
G37*
G36*
G01*
X163206999Y-112538000D02*
X164707001Y-112538000D01*
G75*
G02*
X164907000Y-112737999I0J-199999D01*
G01*
X164907000Y-113708001D01*
G75*
G02*
X164707001Y-113908000I-199999J0D01*
G01*
X163206999Y-113908000D01*
G75*
G02*
X163007000Y-113708001I0J199999D01*
G01*
X163007000Y-112737999D01*
G75*
G02*
X163206999Y-112538000I199999J0D01*
G01*
G37*
G36*
G01*
X163206999Y-110628000D02*
X164707001Y-110628000D01*
G75*
G02*
X164907000Y-110827999I0J-199999D01*
G01*
X164907000Y-111798001D01*
G75*
G02*
X164707001Y-111998000I-199999J0D01*
G01*
X163206999Y-111998000D01*
G75*
G02*
X163007000Y-111798001I0J199999D01*
G01*
X163007000Y-110827999D01*
G75*
G02*
X163206999Y-110628000I199999J0D01*
G01*
G37*
G36*
G01*
X169942000Y-117844001D02*
X169942000Y-116343999D01*
G75*
G02*
X170141999Y-116144000I199999J0D01*
G01*
X171112001Y-116144000D01*
G75*
G02*
X171312000Y-116343999I0J-199999D01*
G01*
X171312000Y-117844001D01*
G75*
G02*
X171112001Y-118044000I-199999J0D01*
G01*
X170141999Y-118044000D01*
G75*
G02*
X169942000Y-117844001I0J199999D01*
G01*
G37*
G36*
G01*
X168032000Y-117844001D02*
X168032000Y-116343999D01*
G75*
G02*
X168231999Y-116144000I199999J0D01*
G01*
X169202001Y-116144000D01*
G75*
G02*
X169402000Y-116343999I0J-199999D01*
G01*
X169402000Y-117844001D01*
G75*
G02*
X169202001Y-118044000I-199999J0D01*
G01*
X168231999Y-118044000D01*
G75*
G02*
X168032000Y-117844001I0J199999D01*
G01*
G37*
G36*
G01*
X142228001Y-85582000D02*
X140727999Y-85582000D01*
G75*
G02*
X140528000Y-85382001I0J199999D01*
G01*
X140528000Y-84411999D01*
G75*
G02*
X140727999Y-84212000I199999J0D01*
G01*
X142228001Y-84212000D01*
G75*
G02*
X142428000Y-84411999I0J-199999D01*
G01*
X142428000Y-85382001D01*
G75*
G02*
X142228001Y-85582000I-199999J0D01*
G01*
G37*
G36*
G01*
X142228001Y-87492000D02*
X140727999Y-87492000D01*
G75*
G02*
X140528000Y-87292001I0J199999D01*
G01*
X140528000Y-86321999D01*
G75*
G02*
X140727999Y-86122000I199999J0D01*
G01*
X142228001Y-86122000D01*
G75*
G02*
X142428000Y-86321999I0J-199999D01*
G01*
X142428000Y-87292001D01*
G75*
G02*
X142228001Y-87492000I-199999J0D01*
G01*
G37*
G36*
G01*
X173593000Y-116343999D02*
X173593000Y-117844001D01*
G75*
G02*
X173393001Y-118044000I-199999J0D01*
G01*
X172422999Y-118044000D01*
G75*
G02*
X172223000Y-117844001I0J199999D01*
G01*
X172223000Y-116343999D01*
G75*
G02*
X172422999Y-116144000I199999J0D01*
G01*
X173393001Y-116144000D01*
G75*
G02*
X173593000Y-116343999I0J-199999D01*
G01*
G37*
G36*
G01*
X175503000Y-116343999D02*
X175503000Y-117844001D01*
G75*
G02*
X175303001Y-118044000I-199999J0D01*
G01*
X174332999Y-118044000D01*
G75*
G02*
X174133000Y-117844001I0J199999D01*
G01*
X174133000Y-116343999D01*
G75*
G02*
X174332999Y-116144000I199999J0D01*
G01*
X175303001Y-116144000D01*
G75*
G02*
X175503000Y-116343999I0J-199999D01*
G01*
G37*
G36*
G01*
X153305000Y-99048001D02*
X153305000Y-97547999D01*
G75*
G02*
X153504999Y-97348000I199999J0D01*
G01*
X154475001Y-97348000D01*
G75*
G02*
X154675000Y-97547999I0J-199999D01*
G01*
X154675000Y-99048001D01*
G75*
G02*
X154475001Y-99248000I-199999J0D01*
G01*
X153504999Y-99248000D01*
G75*
G02*
X153305000Y-99048001I0J199999D01*
G01*
G37*
G36*
G01*
X151395000Y-99048001D02*
X151395000Y-97547999D01*
G75*
G02*
X151594999Y-97348000I199999J0D01*
G01*
X152565001Y-97348000D01*
G75*
G02*
X152765000Y-97547999I0J-199999D01*
G01*
X152765000Y-99048001D01*
G75*
G02*
X152565001Y-99248000I-199999J0D01*
G01*
X151594999Y-99248000D01*
G75*
G02*
X151395000Y-99048001I0J199999D01*
G01*
G37*
G36*
G01*
X160131000Y-113295999D02*
X160131000Y-114796001D01*
G75*
G02*
X159931001Y-114996000I-199999J0D01*
G01*
X158960999Y-114996000D01*
G75*
G02*
X158761000Y-114796001I0J199999D01*
G01*
X158761000Y-113295999D01*
G75*
G02*
X158960999Y-113096000I199999J0D01*
G01*
X159931001Y-113096000D01*
G75*
G02*
X160131000Y-113295999I0J-199999D01*
G01*
G37*
G36*
G01*
X162041000Y-113295999D02*
X162041000Y-114796001D01*
G75*
G02*
X161841001Y-114996000I-199999J0D01*
G01*
X160870999Y-114996000D01*
G75*
G02*
X160671000Y-114796001I0J199999D01*
G01*
X160671000Y-113295999D01*
G75*
G02*
X160870999Y-113096000I199999J0D01*
G01*
X161841001Y-113096000D01*
G75*
G02*
X162041000Y-113295999I0J-199999D01*
G01*
G37*
G36*
G01*
X153305000Y-96762001D02*
X153305000Y-95261999D01*
G75*
G02*
X153504999Y-95062000I199999J0D01*
G01*
X154475001Y-95062000D01*
G75*
G02*
X154675000Y-95261999I0J-199999D01*
G01*
X154675000Y-96762001D01*
G75*
G02*
X154475001Y-96962000I-199999J0D01*
G01*
X153504999Y-96962000D01*
G75*
G02*
X153305000Y-96762001I0J199999D01*
G01*
G37*
G36*
G01*
X151395000Y-96762001D02*
X151395000Y-95261999D01*
G75*
G02*
X151594999Y-95062000I199999J0D01*
G01*
X152565001Y-95062000D01*
G75*
G02*
X152765000Y-95261999I0J-199999D01*
G01*
X152765000Y-96762001D01*
G75*
G02*
X152565001Y-96962000I-199999J0D01*
G01*
X151594999Y-96962000D01*
G75*
G02*
X151395000Y-96762001I0J199999D01*
G01*
G37*
G36*
G01*
X164095999Y-105680000D02*
X165596001Y-105680000D01*
G75*
G02*
X165796000Y-105879999I0J-199999D01*
G01*
X165796000Y-106850001D01*
G75*
G02*
X165596001Y-107050000I-199999J0D01*
G01*
X164095999Y-107050000D01*
G75*
G02*
X163896000Y-106850001I0J199999D01*
G01*
X163896000Y-105879999D01*
G75*
G02*
X164095999Y-105680000I199999J0D01*
G01*
G37*
G36*
G01*
X164095999Y-103770000D02*
X165596001Y-103770000D01*
G75*
G02*
X165796000Y-103969999I0J-199999D01*
G01*
X165796000Y-104940001D01*
G75*
G02*
X165596001Y-105140000I-199999J0D01*
G01*
X164095999Y-105140000D01*
G75*
G02*
X163896000Y-104940001I0J199999D01*
G01*
X163896000Y-103969999D01*
G75*
G02*
X164095999Y-103770000I199999J0D01*
G01*
G37*
G36*
G01*
X159373001Y-94599000D02*
X157872999Y-94599000D01*
G75*
G02*
X157673000Y-94399001I0J199999D01*
G01*
X157673000Y-93428999D01*
G75*
G02*
X157872999Y-93229000I199999J0D01*
G01*
X159373001Y-93229000D01*
G75*
G02*
X159573000Y-93428999I0J-199999D01*
G01*
X159573000Y-94399001D01*
G75*
G02*
X159373001Y-94599000I-199999J0D01*
G01*
G37*
G36*
G01*
X159373001Y-96509000D02*
X157872999Y-96509000D01*
G75*
G02*
X157673000Y-96309001I0J199999D01*
G01*
X157673000Y-95338999D01*
G75*
G02*
X157872999Y-95139000I199999J0D01*
G01*
X159373001Y-95139000D01*
G75*
G02*
X159573000Y-95338999I0J-199999D01*
G01*
X159573000Y-96309001D01*
G75*
G02*
X159373001Y-96509000I-199999J0D01*
G01*
G37*
G36*
G01*
X119872000Y-96531999D02*
X119872000Y-98032001D01*
G75*
G02*
X119672001Y-98232000I-199999J0D01*
G01*
X118701999Y-98232000D01*
G75*
G02*
X118502000Y-98032001I0J199999D01*
G01*
X118502000Y-96531999D01*
G75*
G02*
X118701999Y-96332000I199999J0D01*
G01*
X119672001Y-96332000D01*
G75*
G02*
X119872000Y-96531999I0J-199999D01*
G01*
G37*
G36*
G01*
X121782000Y-96531999D02*
X121782000Y-98032001D01*
G75*
G02*
X121582001Y-98232000I-199999J0D01*
G01*
X120611999Y-98232000D01*
G75*
G02*
X120412000Y-98032001I0J199999D01*
G01*
X120412000Y-96531999D01*
G75*
G02*
X120611999Y-96332000I199999J0D01*
G01*
X121582001Y-96332000D01*
G75*
G02*
X121782000Y-96531999I0J-199999D01*
G01*
G37*
G36*
G01*
X83042000Y-103516999D02*
X83042000Y-105017001D01*
G75*
G02*
X82842001Y-105217000I-199999J0D01*
G01*
X81871999Y-105217000D01*
G75*
G02*
X81672000Y-105017001I0J199999D01*
G01*
X81672000Y-103516999D01*
G75*
G02*
X81871999Y-103317000I199999J0D01*
G01*
X82842001Y-103317000D01*
G75*
G02*
X83042000Y-103516999I0J-199999D01*
G01*
G37*
G36*
G01*
X84952000Y-103516999D02*
X84952000Y-105017001D01*
G75*
G02*
X84752001Y-105217000I-199999J0D01*
G01*
X83781999Y-105217000D01*
G75*
G02*
X83582000Y-105017001I0J199999D01*
G01*
X83582000Y-103516999D01*
G75*
G02*
X83781999Y-103317000I199999J0D01*
G01*
X84752001Y-103317000D01*
G75*
G02*
X84952000Y-103516999I0J-199999D01*
G01*
G37*
G36*
G01*
X83042000Y-105802999D02*
X83042000Y-107303001D01*
G75*
G02*
X82842001Y-107503000I-199999J0D01*
G01*
X81871999Y-107503000D01*
G75*
G02*
X81672000Y-107303001I0J199999D01*
G01*
X81672000Y-105802999D01*
G75*
G02*
X81871999Y-105603000I199999J0D01*
G01*
X82842001Y-105603000D01*
G75*
G02*
X83042000Y-105802999I0J-199999D01*
G01*
G37*
G36*
G01*
X84952000Y-105802999D02*
X84952000Y-107303001D01*
G75*
G02*
X84752001Y-107503000I-199999J0D01*
G01*
X83781999Y-107503000D01*
G75*
G02*
X83582000Y-107303001I0J199999D01*
G01*
X83582000Y-105802999D01*
G75*
G02*
X83781999Y-105603000I199999J0D01*
G01*
X84752001Y-105603000D01*
G75*
G02*
X84952000Y-105802999I0J-199999D01*
G01*
G37*
G36*
G01*
X83042000Y-118375999D02*
X83042000Y-119876001D01*
G75*
G02*
X82842001Y-120076000I-199999J0D01*
G01*
X81871999Y-120076000D01*
G75*
G02*
X81672000Y-119876001I0J199999D01*
G01*
X81672000Y-118375999D01*
G75*
G02*
X81871999Y-118176000I199999J0D01*
G01*
X82842001Y-118176000D01*
G75*
G02*
X83042000Y-118375999I0J-199999D01*
G01*
G37*
G36*
G01*
X84952000Y-118375999D02*
X84952000Y-119876001D01*
G75*
G02*
X84752001Y-120076000I-199999J0D01*
G01*
X83781999Y-120076000D01*
G75*
G02*
X83582000Y-119876001I0J199999D01*
G01*
X83582000Y-118375999D01*
G75*
G02*
X83781999Y-118176000I199999J0D01*
G01*
X84752001Y-118176000D01*
G75*
G02*
X84952000Y-118375999I0J-199999D01*
G01*
G37*
G36*
G01*
X83042000Y-120661999D02*
X83042000Y-122162001D01*
G75*
G02*
X82842001Y-122362000I-199999J0D01*
G01*
X81871999Y-122362000D01*
G75*
G02*
X81672000Y-122162001I0J199999D01*
G01*
X81672000Y-120661999D01*
G75*
G02*
X81871999Y-120462000I199999J0D01*
G01*
X82842001Y-120462000D01*
G75*
G02*
X83042000Y-120661999I0J-199999D01*
G01*
G37*
G36*
G01*
X84952000Y-120661999D02*
X84952000Y-122162001D01*
G75*
G02*
X84752001Y-122362000I-199999J0D01*
G01*
X83781999Y-122362000D01*
G75*
G02*
X83582000Y-122162001I0J199999D01*
G01*
X83582000Y-120661999D01*
G75*
G02*
X83781999Y-120462000I199999J0D01*
G01*
X84752001Y-120462000D01*
G75*
G02*
X84952000Y-120661999I0J-199999D01*
G01*
G37*
G36*
G01*
X159373001Y-90027000D02*
X157872999Y-90027000D01*
G75*
G02*
X157673000Y-89827001I0J199999D01*
G01*
X157673000Y-88856999D01*
G75*
G02*
X157872999Y-88657000I199999J0D01*
G01*
X159373001Y-88657000D01*
G75*
G02*
X159573000Y-88856999I0J-199999D01*
G01*
X159573000Y-89827001D01*
G75*
G02*
X159373001Y-90027000I-199999J0D01*
G01*
G37*
G36*
G01*
X159373001Y-91937000D02*
X157872999Y-91937000D01*
G75*
G02*
X157673000Y-91737001I0J199999D01*
G01*
X157673000Y-90766999D01*
G75*
G02*
X157872999Y-90567000I199999J0D01*
G01*
X159373001Y-90567000D01*
G75*
G02*
X159573000Y-90766999I0J-199999D01*
G01*
X159573000Y-91737001D01*
G75*
G02*
X159373001Y-91937000I-199999J0D01*
G01*
G37*
G36*
G01*
X161814000Y-87745001D02*
X161814000Y-86244999D01*
G75*
G02*
X162013999Y-86045000I199999J0D01*
G01*
X162984001Y-86045000D01*
G75*
G02*
X163184000Y-86244999I0J-199999D01*
G01*
X163184000Y-87745001D01*
G75*
G02*
X162984001Y-87945000I-199999J0D01*
G01*
X162013999Y-87945000D01*
G75*
G02*
X161814000Y-87745001I0J199999D01*
G01*
G37*
G36*
G01*
X159904000Y-87745001D02*
X159904000Y-86244999D01*
G75*
G02*
X160103999Y-86045000I199999J0D01*
G01*
X161074001Y-86045000D01*
G75*
G02*
X161274000Y-86244999I0J-199999D01*
G01*
X161274000Y-87745001D01*
G75*
G02*
X161074001Y-87945000I-199999J0D01*
G01*
X160103999Y-87945000D01*
G75*
G02*
X159904000Y-87745001I0J199999D01*
G01*
G37*
G36*
G01*
X127619000Y-83704999D02*
X127619000Y-85205001D01*
G75*
G02*
X127419001Y-85405000I-199999J0D01*
G01*
X126448999Y-85405000D01*
G75*
G02*
X126249000Y-85205001I0J199999D01*
G01*
X126249000Y-83704999D01*
G75*
G02*
X126448999Y-83505000I199999J0D01*
G01*
X127419001Y-83505000D01*
G75*
G02*
X127619000Y-83704999I0J-199999D01*
G01*
G37*
G36*
G01*
X129529000Y-83704999D02*
X129529000Y-85205001D01*
G75*
G02*
X129329001Y-85405000I-199999J0D01*
G01*
X128358999Y-85405000D01*
G75*
G02*
X128159000Y-85205001I0J199999D01*
G01*
X128159000Y-83704999D01*
G75*
G02*
X128358999Y-83505000I199999J0D01*
G01*
X129329001Y-83505000D01*
G75*
G02*
X129529000Y-83704999I0J-199999D01*
G01*
G37*
G36*
G01*
X104537000Y-99683001D02*
X104537000Y-98182999D01*
G75*
G02*
X104736999Y-97983000I199999J0D01*
G01*
X105707001Y-97983000D01*
G75*
G02*
X105907000Y-98182999I0J-199999D01*
G01*
X105907000Y-99683001D01*
G75*
G02*
X105707001Y-99883000I-199999J0D01*
G01*
X104736999Y-99883000D01*
G75*
G02*
X104537000Y-99683001I0J199999D01*
G01*
G37*
G36*
G01*
X102627000Y-99683001D02*
X102627000Y-98182999D01*
G75*
G02*
X102826999Y-97983000I199999J0D01*
G01*
X103797001Y-97983000D01*
G75*
G02*
X103997000Y-98182999I0J-199999D01*
G01*
X103997000Y-99683001D01*
G75*
G02*
X103797001Y-99883000I-199999J0D01*
G01*
X102826999Y-99883000D01*
G75*
G02*
X102627000Y-99683001I0J199999D01*
G01*
G37*
G36*
G01*
X84085999Y-114062000D02*
X85586001Y-114062000D01*
G75*
G02*
X85786000Y-114261999I0J-199999D01*
G01*
X85786000Y-115232001D01*
G75*
G02*
X85586001Y-115432000I-199999J0D01*
G01*
X84085999Y-115432000D01*
G75*
G02*
X83886000Y-115232001I0J199999D01*
G01*
X83886000Y-114261999D01*
G75*
G02*
X84085999Y-114062000I199999J0D01*
G01*
G37*
G36*
G01*
X84085999Y-112152000D02*
X85586001Y-112152000D01*
G75*
G02*
X85786000Y-112351999I0J-199999D01*
G01*
X85786000Y-113322001D01*
G75*
G02*
X85586001Y-113522000I-199999J0D01*
G01*
X84085999Y-113522000D01*
G75*
G02*
X83886000Y-113322001I0J199999D01*
G01*
X83886000Y-112351999D01*
G75*
G02*
X84085999Y-112152000I199999J0D01*
G01*
G37*
G36*
G01*
X93488000Y-117844001D02*
X93488000Y-116343999D01*
G75*
G02*
X93687999Y-116144000I199999J0D01*
G01*
X94658001Y-116144000D01*
G75*
G02*
X94858000Y-116343999I0J-199999D01*
G01*
X94858000Y-117844001D01*
G75*
G02*
X94658001Y-118044000I-199999J0D01*
G01*
X93687999Y-118044000D01*
G75*
G02*
X93488000Y-117844001I0J199999D01*
G01*
G37*
G36*
G01*
X91578000Y-117844001D02*
X91578000Y-116343999D01*
G75*
G02*
X91777999Y-116144000I199999J0D01*
G01*
X92748001Y-116144000D01*
G75*
G02*
X92948000Y-116343999I0J-199999D01*
G01*
X92948000Y-117844001D01*
G75*
G02*
X92748001Y-118044000I-199999J0D01*
G01*
X91777999Y-118044000D01*
G75*
G02*
X91578000Y-117844001I0J199999D01*
G01*
G37*
G36*
G01*
X193282001Y-82026000D02*
X191781999Y-82026000D01*
G75*
G02*
X191582000Y-81826001I0J199999D01*
G01*
X191582000Y-80855999D01*
G75*
G02*
X191781999Y-80656000I199999J0D01*
G01*
X193282001Y-80656000D01*
G75*
G02*
X193482000Y-80855999I0J-199999D01*
G01*
X193482000Y-81826001D01*
G75*
G02*
X193282001Y-82026000I-199999J0D01*
G01*
G37*
G36*
G01*
X193282001Y-83936000D02*
X191781999Y-83936000D01*
G75*
G02*
X191582000Y-83736001I0J199999D01*
G01*
X191582000Y-82765999D01*
G75*
G02*
X191781999Y-82566000I199999J0D01*
G01*
X193282001Y-82566000D01*
G75*
G02*
X193482000Y-82765999I0J-199999D01*
G01*
X193482000Y-83736001D01*
G75*
G02*
X193282001Y-83936000I-199999J0D01*
G01*
G37*
G36*
G01*
X93488000Y-121908001D02*
X93488000Y-120407999D01*
G75*
G02*
X93687999Y-120208000I199999J0D01*
G01*
X94658001Y-120208000D01*
G75*
G02*
X94858000Y-120407999I0J-199999D01*
G01*
X94858000Y-121908001D01*
G75*
G02*
X94658001Y-122108000I-199999J0D01*
G01*
X93687999Y-122108000D01*
G75*
G02*
X93488000Y-121908001I0J199999D01*
G01*
G37*
G36*
G01*
X91578000Y-121908001D02*
X91578000Y-120407999D01*
G75*
G02*
X91777999Y-120208000I199999J0D01*
G01*
X92748001Y-120208000D01*
G75*
G02*
X92948000Y-120407999I0J-199999D01*
G01*
X92948000Y-121908001D01*
G75*
G02*
X92748001Y-122108000I-199999J0D01*
G01*
X91777999Y-122108000D01*
G75*
G02*
X91578000Y-121908001I0J199999D01*
G01*
G37*
G36*
G01*
X93488000Y-126099001D02*
X93488000Y-124598999D01*
G75*
G02*
X93687999Y-124399000I199999J0D01*
G01*
X94658001Y-124399000D01*
G75*
G02*
X94858000Y-124598999I0J-199999D01*
G01*
X94858000Y-126099001D01*
G75*
G02*
X94658001Y-126299000I-199999J0D01*
G01*
X93687999Y-126299000D01*
G75*
G02*
X93488000Y-126099001I0J199999D01*
G01*
G37*
G36*
G01*
X91578000Y-126099001D02*
X91578000Y-124598999D01*
G75*
G02*
X91777999Y-124399000I199999J0D01*
G01*
X92748001Y-124399000D01*
G75*
G02*
X92948000Y-124598999I0J-199999D01*
G01*
X92948000Y-126099001D01*
G75*
G02*
X92748001Y-126299000I-199999J0D01*
G01*
X91777999Y-126299000D01*
G75*
G02*
X91578000Y-126099001I0J199999D01*
G01*
G37*
G36*
G01*
X93488000Y-130163001D02*
X93488000Y-128662999D01*
G75*
G02*
X93687999Y-128463000I199999J0D01*
G01*
X94658001Y-128463000D01*
G75*
G02*
X94858000Y-128662999I0J-199999D01*
G01*
X94858000Y-130163001D01*
G75*
G02*
X94658001Y-130363000I-199999J0D01*
G01*
X93687999Y-130363000D01*
G75*
G02*
X93488000Y-130163001I0J199999D01*
G01*
G37*
G36*
G01*
X91578000Y-130163001D02*
X91578000Y-128662999D01*
G75*
G02*
X91777999Y-128463000I199999J0D01*
G01*
X92748001Y-128463000D01*
G75*
G02*
X92948000Y-128662999I0J-199999D01*
G01*
X92948000Y-130163001D01*
G75*
G02*
X92748001Y-130363000I-199999J0D01*
G01*
X91777999Y-130363000D01*
G75*
G02*
X91578000Y-130163001I0J199999D01*
G01*
G37*
G36*
G01*
X96250000Y-108977999D02*
X96250000Y-110478001D01*
G75*
G02*
X96050001Y-110678000I-199999J0D01*
G01*
X95079999Y-110678000D01*
G75*
G02*
X94880000Y-110478001I0J199999D01*
G01*
X94880000Y-108977999D01*
G75*
G02*
X95079999Y-108778000I199999J0D01*
G01*
X96050001Y-108778000D01*
G75*
G02*
X96250000Y-108977999I0J-199999D01*
G01*
G37*
G36*
G01*
X98160000Y-108977999D02*
X98160000Y-110478001D01*
G75*
G02*
X97960001Y-110678000I-199999J0D01*
G01*
X96989999Y-110678000D01*
G75*
G02*
X96790000Y-110478001I0J199999D01*
G01*
X96790000Y-108977999D01*
G75*
G02*
X96989999Y-108778000I199999J0D01*
G01*
X97960001Y-108778000D01*
G75*
G02*
X98160000Y-108977999I0J-199999D01*
G01*
G37*
G36*
G01*
X165342001Y-82026000D02*
X163841999Y-82026000D01*
G75*
G02*
X163642000Y-81826001I0J199999D01*
G01*
X163642000Y-80855999D01*
G75*
G02*
X163841999Y-80656000I199999J0D01*
G01*
X165342001Y-80656000D01*
G75*
G02*
X165542000Y-80855999I0J-199999D01*
G01*
X165542000Y-81826001D01*
G75*
G02*
X165342001Y-82026000I-199999J0D01*
G01*
G37*
G36*
G01*
X165342001Y-83936000D02*
X163841999Y-83936000D01*
G75*
G02*
X163642000Y-83736001I0J199999D01*
G01*
X163642000Y-82765999D01*
G75*
G02*
X163841999Y-82566000I199999J0D01*
G01*
X165342001Y-82566000D01*
G75*
G02*
X165542000Y-82765999I0J-199999D01*
G01*
X165542000Y-83736001D01*
G75*
G02*
X165342001Y-83936000I-199999J0D01*
G01*
G37*
G36*
G01*
X102124000Y-93587001D02*
X102124000Y-92086999D01*
G75*
G02*
X102323999Y-91887000I199999J0D01*
G01*
X103294001Y-91887000D01*
G75*
G02*
X103494000Y-92086999I0J-199999D01*
G01*
X103494000Y-93587001D01*
G75*
G02*
X103294001Y-93787000I-199999J0D01*
G01*
X102323999Y-93787000D01*
G75*
G02*
X102124000Y-93587001I0J199999D01*
G01*
G37*
G36*
G01*
X100214000Y-93587001D02*
X100214000Y-92086999D01*
G75*
G02*
X100413999Y-91887000I199999J0D01*
G01*
X101384001Y-91887000D01*
G75*
G02*
X101584000Y-92086999I0J-199999D01*
G01*
X101584000Y-93587001D01*
G75*
G02*
X101384001Y-93787000I-199999J0D01*
G01*
X100413999Y-93787000D01*
G75*
G02*
X100214000Y-93587001I0J199999D01*
G01*
G37*
G36*
G01*
X99425000Y-84720999D02*
X99425000Y-86221001D01*
G75*
G02*
X99225001Y-86421000I-199999J0D01*
G01*
X98254999Y-86421000D01*
G75*
G02*
X98055000Y-86221001I0J199999D01*
G01*
X98055000Y-84720999D01*
G75*
G02*
X98254999Y-84521000I199999J0D01*
G01*
X99225001Y-84521000D01*
G75*
G02*
X99425000Y-84720999I0J-199999D01*
G01*
G37*
G36*
G01*
X101335000Y-84720999D02*
X101335000Y-86221001D01*
G75*
G02*
X101135001Y-86421000I-199999J0D01*
G01*
X100164999Y-86421000D01*
G75*
G02*
X99965000Y-86221001I0J199999D01*
G01*
X99965000Y-84720999D01*
G75*
G02*
X100164999Y-84521000I199999J0D01*
G01*
X101135001Y-84521000D01*
G75*
G02*
X101335000Y-84720999I0J-199999D01*
G01*
G37*
G36*
G01*
X101334001Y-101203000D02*
X99833999Y-101203000D01*
G75*
G02*
X99634000Y-101003001I0J199999D01*
G01*
X99634000Y-100032999D01*
G75*
G02*
X99833999Y-99833000I199999J0D01*
G01*
X101334001Y-99833000D01*
G75*
G02*
X101534000Y-100032999I0J-199999D01*
G01*
X101534000Y-101003001D01*
G75*
G02*
X101334001Y-101203000I-199999J0D01*
G01*
G37*
G36*
G01*
X101334001Y-103113000D02*
X99833999Y-103113000D01*
G75*
G02*
X99634000Y-102913001I0J199999D01*
G01*
X99634000Y-101942999D01*
G75*
G02*
X99833999Y-101743000I199999J0D01*
G01*
X101334001Y-101743000D01*
G75*
G02*
X101534000Y-101942999I0J-199999D01*
G01*
X101534000Y-102913001D01*
G75*
G02*
X101334001Y-103113000I-199999J0D01*
G01*
G37*
G36*
G01*
X134123999Y-113681000D02*
X135624001Y-113681000D01*
G75*
G02*
X135824000Y-113880999I0J-199999D01*
G01*
X135824000Y-114851001D01*
G75*
G02*
X135624001Y-115051000I-199999J0D01*
G01*
X134123999Y-115051000D01*
G75*
G02*
X133924000Y-114851001I0J199999D01*
G01*
X133924000Y-113880999D01*
G75*
G02*
X134123999Y-113681000I199999J0D01*
G01*
G37*
G36*
G01*
X134123999Y-111771000D02*
X135624001Y-111771000D01*
G75*
G02*
X135824000Y-111970999I0J-199999D01*
G01*
X135824000Y-112941001D01*
G75*
G02*
X135624001Y-113141000I-199999J0D01*
G01*
X134123999Y-113141000D01*
G75*
G02*
X133924000Y-112941001I0J199999D01*
G01*
X133924000Y-111970999D01*
G75*
G02*
X134123999Y-111771000I199999J0D01*
G01*
G37*
G36*
G01*
X158484001Y-125206000D02*
X156983999Y-125206000D01*
G75*
G02*
X156784000Y-125006001I0J199999D01*
G01*
X156784000Y-124035999D01*
G75*
G02*
X156983999Y-123836000I199999J0D01*
G01*
X158484001Y-123836000D01*
G75*
G02*
X158684000Y-124035999I0J-199999D01*
G01*
X158684000Y-125006001D01*
G75*
G02*
X158484001Y-125206000I-199999J0D01*
G01*
G37*
G36*
G01*
X158484001Y-127116000D02*
X156983999Y-127116000D01*
G75*
G02*
X156784000Y-126916001I0J199999D01*
G01*
X156784000Y-125945999D01*
G75*
G02*
X156983999Y-125746000I199999J0D01*
G01*
X158484001Y-125746000D01*
G75*
G02*
X158684000Y-125945999I0J-199999D01*
G01*
X158684000Y-126916001D01*
G75*
G02*
X158484001Y-127116000I-199999J0D01*
G01*
G37*
G36*
G01*
X161024001Y-125206000D02*
X159523999Y-125206000D01*
G75*
G02*
X159324000Y-125006001I0J199999D01*
G01*
X159324000Y-124035999D01*
G75*
G02*
X159523999Y-123836000I199999J0D01*
G01*
X161024001Y-123836000D01*
G75*
G02*
X161224000Y-124035999I0J-199999D01*
G01*
X161224000Y-125006001D01*
G75*
G02*
X161024001Y-125206000I-199999J0D01*
G01*
G37*
G36*
G01*
X161024001Y-127116000D02*
X159523999Y-127116000D01*
G75*
G02*
X159324000Y-126916001I0J199999D01*
G01*
X159324000Y-125945999D01*
G75*
G02*
X159523999Y-125746000I199999J0D01*
G01*
X161024001Y-125746000D01*
G75*
G02*
X161224000Y-125945999I0J-199999D01*
G01*
X161224000Y-126916001D01*
G75*
G02*
X161024001Y-127116000I-199999J0D01*
G01*
G37*
G36*
G01*
X163564001Y-125206000D02*
X162063999Y-125206000D01*
G75*
G02*
X161864000Y-125006001I0J199999D01*
G01*
X161864000Y-124035999D01*
G75*
G02*
X162063999Y-123836000I199999J0D01*
G01*
X163564001Y-123836000D01*
G75*
G02*
X163764000Y-124035999I0J-199999D01*
G01*
X163764000Y-125006001D01*
G75*
G02*
X163564001Y-125206000I-199999J0D01*
G01*
G37*
G36*
G01*
X163564001Y-127116000D02*
X162063999Y-127116000D01*
G75*
G02*
X161864000Y-126916001I0J199999D01*
G01*
X161864000Y-125945999D01*
G75*
G02*
X162063999Y-125746000I199999J0D01*
G01*
X163564001Y-125746000D01*
G75*
G02*
X163764000Y-125945999I0J-199999D01*
G01*
X163764000Y-126916001D01*
G75*
G02*
X163564001Y-127116000I-199999J0D01*
G01*
G37*
G36*
G01*
X166104001Y-125206000D02*
X164603999Y-125206000D01*
G75*
G02*
X164404000Y-125006001I0J199999D01*
G01*
X164404000Y-124035999D01*
G75*
G02*
X164603999Y-123836000I199999J0D01*
G01*
X166104001Y-123836000D01*
G75*
G02*
X166304000Y-124035999I0J-199999D01*
G01*
X166304000Y-125006001D01*
G75*
G02*
X166104001Y-125206000I-199999J0D01*
G01*
G37*
G36*
G01*
X166104001Y-127116000D02*
X164603999Y-127116000D01*
G75*
G02*
X164404000Y-126916001I0J199999D01*
G01*
X164404000Y-125945999D01*
G75*
G02*
X164603999Y-125746000I199999J0D01*
G01*
X166104001Y-125746000D01*
G75*
G02*
X166304000Y-125945999I0J-199999D01*
G01*
X166304000Y-126916001D01*
G75*
G02*
X166104001Y-127116000I-199999J0D01*
G01*
G37*
G36*
G01*
X105680000Y-134608001D02*
X105680000Y-133107999D01*
G75*
G02*
X105879999Y-132908000I199999J0D01*
G01*
X106850001Y-132908000D01*
G75*
G02*
X107050000Y-133107999I0J-199999D01*
G01*
X107050000Y-134608001D01*
G75*
G02*
X106850001Y-134808000I-199999J0D01*
G01*
X105879999Y-134808000D01*
G75*
G02*
X105680000Y-134608001I0J199999D01*
G01*
G37*
G36*
G01*
X103770000Y-134608001D02*
X103770000Y-133107999D01*
G75*
G02*
X103969999Y-132908000I199999J0D01*
G01*
X104940001Y-132908000D01*
G75*
G02*
X105140000Y-133107999I0J-199999D01*
G01*
X105140000Y-134608001D01*
G75*
G02*
X104940001Y-134808000I-199999J0D01*
G01*
X103969999Y-134808000D01*
G75*
G02*
X103770000Y-134608001I0J199999D01*
G01*
G37*
G36*
G01*
X217689999Y-67580000D02*
X219190001Y-67580000D01*
G75*
G02*
X219390000Y-67779999I0J-199999D01*
G01*
X219390000Y-68750001D01*
G75*
G02*
X219190001Y-68950000I-199999J0D01*
G01*
X217689999Y-68950000D01*
G75*
G02*
X217490000Y-68750001I0J199999D01*
G01*
X217490000Y-67779999D01*
G75*
G02*
X217689999Y-67580000I199999J0D01*
G01*
G37*
G36*
G01*
X217689999Y-65670000D02*
X219190001Y-65670000D01*
G75*
G02*
X219390000Y-65869999I0J-199999D01*
G01*
X219390000Y-66840001D01*
G75*
G02*
X219190001Y-67040000I-199999J0D01*
G01*
X217689999Y-67040000D01*
G75*
G02*
X217490000Y-66840001I0J199999D01*
G01*
X217490000Y-65869999D01*
G75*
G02*
X217689999Y-65670000I199999J0D01*
G01*
G37*
G36*
G01*
X206645000Y-77585001D02*
X206645000Y-76084999D01*
G75*
G02*
X206844999Y-75885000I199999J0D01*
G01*
X207815001Y-75885000D01*
G75*
G02*
X208015000Y-76084999I0J-199999D01*
G01*
X208015000Y-77585001D01*
G75*
G02*
X207815001Y-77785000I-199999J0D01*
G01*
X206844999Y-77785000D01*
G75*
G02*
X206645000Y-77585001I0J199999D01*
G01*
G37*
G36*
G01*
X204735000Y-77585001D02*
X204735000Y-76084999D01*
G75*
G02*
X204934999Y-75885000I199999J0D01*
G01*
X205905001Y-75885000D01*
G75*
G02*
X206105000Y-76084999I0J-199999D01*
G01*
X206105000Y-77585001D01*
G75*
G02*
X205905001Y-77785000I-199999J0D01*
G01*
X204934999Y-77785000D01*
G75*
G02*
X204735000Y-77585001I0J199999D01*
G01*
G37*
G36*
G01*
X206645000Y-81395001D02*
X206645000Y-79894999D01*
G75*
G02*
X206844999Y-79695000I199999J0D01*
G01*
X207815001Y-79695000D01*
G75*
G02*
X208015000Y-79894999I0J-199999D01*
G01*
X208015000Y-81395001D01*
G75*
G02*
X207815001Y-81595000I-199999J0D01*
G01*
X206844999Y-81595000D01*
G75*
G02*
X206645000Y-81395001I0J199999D01*
G01*
G37*
G36*
G01*
X204735000Y-81395001D02*
X204735000Y-79894999D01*
G75*
G02*
X204934999Y-79695000I199999J0D01*
G01*
X205905001Y-79695000D01*
G75*
G02*
X206105000Y-79894999I0J-199999D01*
G01*
X206105000Y-81395001D01*
G75*
G02*
X205905001Y-81595000I-199999J0D01*
G01*
X204934999Y-81595000D01*
G75*
G02*
X204735000Y-81395001I0J199999D01*
G01*
G37*
G36*
G01*
X99965000Y-88507001D02*
X99965000Y-87006999D01*
G75*
G02*
X100164999Y-86807000I199999J0D01*
G01*
X101135001Y-86807000D01*
G75*
G02*
X101335000Y-87006999I0J-199999D01*
G01*
X101335000Y-88507001D01*
G75*
G02*
X101135001Y-88707000I-199999J0D01*
G01*
X100164999Y-88707000D01*
G75*
G02*
X99965000Y-88507001I0J199999D01*
G01*
G37*
G36*
G01*
X98055000Y-88507001D02*
X98055000Y-87006999D01*
G75*
G02*
X98254999Y-86807000I199999J0D01*
G01*
X99225001Y-86807000D01*
G75*
G02*
X99425000Y-87006999I0J-199999D01*
G01*
X99425000Y-88507001D01*
G75*
G02*
X99225001Y-88707000I-199999J0D01*
G01*
X98254999Y-88707000D01*
G75*
G02*
X98055000Y-88507001I0J199999D01*
G01*
G37*
G36*
G01*
X99965000Y-90793001D02*
X99965000Y-89292999D01*
G75*
G02*
X100164999Y-89093000I199999J0D01*
G01*
X101135001Y-89093000D01*
G75*
G02*
X101335000Y-89292999I0J-199999D01*
G01*
X101335000Y-90793001D01*
G75*
G02*
X101135001Y-90993000I-199999J0D01*
G01*
X100164999Y-90993000D01*
G75*
G02*
X99965000Y-90793001I0J199999D01*
G01*
G37*
G36*
G01*
X98055000Y-90793001D02*
X98055000Y-89292999D01*
G75*
G02*
X98254999Y-89093000I199999J0D01*
G01*
X99225001Y-89093000D01*
G75*
G02*
X99425000Y-89292999I0J-199999D01*
G01*
X99425000Y-90793001D01*
G75*
G02*
X99225001Y-90993000I-199999J0D01*
G01*
X98254999Y-90993000D01*
G75*
G02*
X98055000Y-90793001I0J199999D01*
G01*
G37*
D15*
X123444000Y-125677000D03*
X123444000Y-120777000D03*
D14*
X115062000Y-93345000D03*
G36*
G01*
X113372000Y-94395000D02*
X111672000Y-94395000D01*
G75*
G02*
X111472000Y-94195000I0J200000D01*
G01*
X111472000Y-92495000D01*
G75*
G02*
X111672000Y-92295000I200000J0D01*
G01*
X113372000Y-92295000D01*
G75*
G02*
X113572000Y-92495000I0J-200000D01*
G01*
X113572000Y-94195000D01*
G75*
G02*
X113372000Y-94395000I-200000J0D01*
G01*
G37*
X96647000Y-93218000D03*
G36*
G01*
X97697000Y-94908000D02*
X97697000Y-96608000D01*
G75*
G02*
X97497000Y-96808000I-200000J0D01*
G01*
X95797000Y-96808000D01*
G75*
G02*
X95597000Y-96608000I0J200000D01*
G01*
X95597000Y-94908000D01*
G75*
G02*
X95797000Y-94708000I200000J0D01*
G01*
X97497000Y-94708000D01*
G75*
G02*
X97697000Y-94908000I0J-200000D01*
G01*
G37*
X115062000Y-98425000D03*
G36*
G01*
X113372000Y-99475000D02*
X111672000Y-99475000D01*
G75*
G02*
X111472000Y-99275000I0J200000D01*
G01*
X111472000Y-97575000D01*
G75*
G02*
X111672000Y-97375000I200000J0D01*
G01*
X113372000Y-97375000D01*
G75*
G02*
X113572000Y-97575000I0J-200000D01*
G01*
X113572000Y-99275000D01*
G75*
G02*
X113372000Y-99475000I-200000J0D01*
G01*
G37*
X115062000Y-95885000D03*
G36*
G01*
X113372000Y-96935000D02*
X111672000Y-96935000D01*
G75*
G02*
X111472000Y-96735000I0J200000D01*
G01*
X111472000Y-95035000D01*
G75*
G02*
X111672000Y-94835000I200000J0D01*
G01*
X113372000Y-94835000D01*
G75*
G02*
X113572000Y-95035000I0J-200000D01*
G01*
X113572000Y-96735000D01*
G75*
G02*
X113372000Y-96935000I-200000J0D01*
G01*
G37*
X88900000Y-134620000D03*
G36*
G01*
X90590000Y-133570000D02*
X92290000Y-133570000D01*
G75*
G02*
X92490000Y-133770000I0J-200000D01*
G01*
X92490000Y-135470000D01*
G75*
G02*
X92290000Y-135670000I-200000J0D01*
G01*
X90590000Y-135670000D01*
G75*
G02*
X90390000Y-135470000I0J200000D01*
G01*
X90390000Y-133770000D01*
G75*
G02*
X90590000Y-133570000I200000J0D01*
G01*
G37*
X94234000Y-112903000D03*
G36*
G01*
X92544000Y-113953000D02*
X90844000Y-113953000D01*
G75*
G02*
X90644000Y-113753000I0J200000D01*
G01*
X90644000Y-112053000D01*
G75*
G02*
X90844000Y-111853000I200000J0D01*
G01*
X92544000Y-111853000D01*
G75*
G02*
X92744000Y-112053000I0J-200000D01*
G01*
X92744000Y-113753000D01*
G75*
G02*
X92544000Y-113953000I-200000J0D01*
G01*
G37*
X114554000Y-108458000D03*
G36*
G01*
X112864000Y-109508000D02*
X111164000Y-109508000D01*
G75*
G02*
X110964000Y-109308000I0J200000D01*
G01*
X110964000Y-107608000D01*
G75*
G02*
X111164000Y-107408000I200000J0D01*
G01*
X112864000Y-107408000D01*
G75*
G02*
X113064000Y-107608000I0J-200000D01*
G01*
X113064000Y-109308000D01*
G75*
G02*
X112864000Y-109508000I-200000J0D01*
G01*
G37*
X184404000Y-130302000D03*
G36*
G01*
X182714000Y-131352000D02*
X181014000Y-131352000D01*
G75*
G02*
X180814000Y-131152000I0J200000D01*
G01*
X180814000Y-129452000D01*
G75*
G02*
X181014000Y-129252000I200000J0D01*
G01*
X182714000Y-129252000D01*
G75*
G02*
X182914000Y-129452000I0J-200000D01*
G01*
X182914000Y-131152000D01*
G75*
G02*
X182714000Y-131352000I-200000J0D01*
G01*
G37*
X223520000Y-76200000D03*
X223520000Y-73660000D03*
X223520000Y-71120000D03*
X223520000Y-68580000D03*
X223520000Y-66040000D03*
G36*
G01*
X222470000Y-64350000D02*
X222470000Y-62650000D01*
G75*
G02*
X222670000Y-62450000I200000J0D01*
G01*
X224370000Y-62450000D01*
G75*
G02*
X224570000Y-62650000I0J-200000D01*
G01*
X224570000Y-64350000D01*
G75*
G02*
X224370000Y-64550000I-200000J0D01*
G01*
X222670000Y-64550000D01*
G75*
G02*
X222470000Y-64350000I0J200000D01*
G01*
G37*
X115062000Y-88773000D03*
X112522000Y-88773000D03*
X115062000Y-86233000D03*
G36*
G01*
X111472000Y-87083000D02*
X111472000Y-85383000D01*
G75*
G02*
X111672000Y-85183000I200000J0D01*
G01*
X113372000Y-85183000D01*
G75*
G02*
X113572000Y-85383000I0J-200000D01*
G01*
X113572000Y-87083000D01*
G75*
G02*
X113372000Y-87283000I-200000J0D01*
G01*
X111672000Y-87283000D01*
G75*
G02*
X111472000Y-87083000I0J200000D01*
G01*
G37*
X200025000Y-89535000D03*
X197485000Y-89535000D03*
X200025000Y-86995000D03*
G36*
G01*
X196435000Y-87845000D02*
X196435000Y-86145000D01*
G75*
G02*
X196635000Y-85945000I200000J0D01*
G01*
X198335000Y-85945000D01*
G75*
G02*
X198535000Y-86145000I0J-200000D01*
G01*
X198535000Y-87845000D01*
G75*
G02*
X198335000Y-88045000I-200000J0D01*
G01*
X196635000Y-88045000D01*
G75*
G02*
X196435000Y-87845000I0J200000D01*
G01*
G37*
X157607000Y-120523000D03*
X157607000Y-117983000D03*
X160147000Y-120523000D03*
X160147000Y-117983000D03*
X162687000Y-120523000D03*
X162687000Y-117983000D03*
X165227000Y-120523000D03*
G36*
G01*
X164377000Y-116933000D02*
X166077000Y-116933000D01*
G75*
G02*
X166277000Y-117133000I0J-200000D01*
G01*
X166277000Y-118833000D01*
G75*
G02*
X166077000Y-119033000I-200000J0D01*
G01*
X164377000Y-119033000D01*
G75*
G02*
X164177000Y-118833000I0J200000D01*
G01*
X164177000Y-117133000D01*
G75*
G02*
X164377000Y-116933000I200000J0D01*
G01*
G37*
X200025000Y-82169000D03*
X197485000Y-82169000D03*
X200025000Y-79629000D03*
X197485000Y-79629000D03*
X200025000Y-77089000D03*
X197485000Y-77089000D03*
X200025000Y-74549000D03*
G36*
G01*
X196435000Y-75399000D02*
X196435000Y-73699000D01*
G75*
G02*
X196635000Y-73499000I200000J0D01*
G01*
X198335000Y-73499000D01*
G75*
G02*
X198535000Y-73699000I0J-200000D01*
G01*
X198535000Y-75399000D01*
G75*
G02*
X198335000Y-75599000I-200000J0D01*
G01*
X196635000Y-75599000D01*
G75*
G02*
X196435000Y-75399000I0J200000D01*
G01*
G37*
X172085000Y-82169000D03*
X169545000Y-82169000D03*
X172085000Y-79629000D03*
X169545000Y-79629000D03*
X172085000Y-77089000D03*
X169545000Y-77089000D03*
X172085000Y-74549000D03*
G36*
G01*
X168495000Y-75399000D02*
X168495000Y-73699000D01*
G75*
G02*
X168695000Y-73499000I200000J0D01*
G01*
X170395000Y-73499000D01*
G75*
G02*
X170595000Y-73699000I0J-200000D01*
G01*
X170595000Y-75399000D01*
G75*
G02*
X170395000Y-75599000I-200000J0D01*
G01*
X168695000Y-75599000D01*
G75*
G02*
X168495000Y-75399000I0J200000D01*
G01*
G37*
X138303000Y-82169000D03*
X135763000Y-82169000D03*
X138303000Y-79629000D03*
X135763000Y-79629000D03*
X138303000Y-77089000D03*
X135763000Y-77089000D03*
X138303000Y-74549000D03*
G36*
G01*
X134713000Y-75399000D02*
X134713000Y-73699000D01*
G75*
G02*
X134913000Y-73499000I200000J0D01*
G01*
X136613000Y-73499000D01*
G75*
G02*
X136813000Y-73699000I0J-200000D01*
G01*
X136813000Y-75399000D01*
G75*
G02*
X136613000Y-75599000I-200000J0D01*
G01*
X134913000Y-75599000D01*
G75*
G02*
X134713000Y-75399000I0J200000D01*
G01*
G37*
X78867000Y-136779000D03*
X76327000Y-136779000D03*
X78867000Y-134239000D03*
X76327000Y-134239000D03*
X78867000Y-131699000D03*
X76327000Y-131699000D03*
X78867000Y-129159000D03*
X76327000Y-129159000D03*
X78867000Y-126619000D03*
X76327000Y-126619000D03*
X78867000Y-124079000D03*
X76327000Y-124079000D03*
X78867000Y-121539000D03*
X76327000Y-121539000D03*
X78867000Y-118999000D03*
X76327000Y-118999000D03*
X78867000Y-116459000D03*
X76327000Y-116459000D03*
X78867000Y-113919000D03*
X76327000Y-113919000D03*
X78867000Y-111379000D03*
X76327000Y-111379000D03*
X78867000Y-108839000D03*
X76327000Y-108839000D03*
X78867000Y-106299000D03*
G36*
G01*
X75277000Y-107149000D02*
X75277000Y-105449000D01*
G75*
G02*
X75477000Y-105249000I200000J0D01*
G01*
X77177000Y-105249000D01*
G75*
G02*
X77377000Y-105449000I0J-200000D01*
G01*
X77377000Y-107149000D01*
G75*
G02*
X77177000Y-107349000I-200000J0D01*
G01*
X75477000Y-107349000D01*
G75*
G02*
X75277000Y-107149000I0J200000D01*
G01*
G37*
X110744000Y-139446000D03*
X110744000Y-136906000D03*
X113284000Y-139446000D03*
X113284000Y-136906000D03*
X115824000Y-139446000D03*
X115824000Y-136906000D03*
X118364000Y-139446000D03*
X118364000Y-136906000D03*
X120904000Y-139446000D03*
X120904000Y-136906000D03*
X123444000Y-139446000D03*
X123444000Y-136906000D03*
X125984000Y-139446000D03*
X125984000Y-136906000D03*
X128524000Y-139446000D03*
X128524000Y-136906000D03*
X131064000Y-139446000D03*
X131064000Y-136906000D03*
X133604000Y-139446000D03*
X133604000Y-136906000D03*
X136144000Y-139446000D03*
X136144000Y-136906000D03*
X138684000Y-139446000D03*
X138684000Y-136906000D03*
X141224000Y-139446000D03*
X141224000Y-136906000D03*
X143764000Y-139446000D03*
X143764000Y-136906000D03*
X146304000Y-139446000D03*
X146304000Y-136906000D03*
X148844000Y-139446000D03*
X148844000Y-136906000D03*
X151384000Y-139446000D03*
X151384000Y-136906000D03*
X153924000Y-139446000D03*
X153924000Y-136906000D03*
X156464000Y-139446000D03*
X156464000Y-136906000D03*
X159004000Y-139446000D03*
X159004000Y-136906000D03*
X161544000Y-139446000D03*
X161544000Y-136906000D03*
X164084000Y-139446000D03*
X164084000Y-136906000D03*
X166624000Y-139446000D03*
X166624000Y-136906000D03*
X169164000Y-139446000D03*
X169164000Y-136906000D03*
X171704000Y-139446000D03*
X171704000Y-136906000D03*
X174244000Y-139446000D03*
X174244000Y-136906000D03*
X176784000Y-139446000D03*
X176784000Y-136906000D03*
X179324000Y-139446000D03*
X179324000Y-136906000D03*
X181864000Y-139446000D03*
X181864000Y-136906000D03*
X184404000Y-139446000D03*
G36*
G01*
X183554000Y-135856000D02*
X185254000Y-135856000D01*
G75*
G02*
X185454000Y-136056000I0J-200000D01*
G01*
X185454000Y-137756000D01*
G75*
G02*
X185254000Y-137956000I-200000J0D01*
G01*
X183554000Y-137956000D01*
G75*
G02*
X183354000Y-137756000I0J200000D01*
G01*
X183354000Y-136056000D01*
G75*
G02*
X183554000Y-135856000I200000J0D01*
G01*
G37*
X224790000Y-137160000D03*
X222250000Y-137160000D03*
X224790000Y-134620000D03*
X222250000Y-134620000D03*
X224790000Y-132080000D03*
X222250000Y-132080000D03*
X224790000Y-129540000D03*
X222250000Y-129540000D03*
X224790000Y-127000000D03*
X222250000Y-127000000D03*
X224790000Y-124460000D03*
X222250000Y-124460000D03*
X224790000Y-121920000D03*
X222250000Y-121920000D03*
X224790000Y-119380000D03*
X222250000Y-119380000D03*
X224790000Y-116840000D03*
X222250000Y-116840000D03*
X224790000Y-114300000D03*
X222250000Y-114300000D03*
X224790000Y-111760000D03*
X222250000Y-111760000D03*
X224790000Y-109220000D03*
X222250000Y-109220000D03*
X224790000Y-106680000D03*
X222250000Y-106680000D03*
X224790000Y-104140000D03*
X222250000Y-104140000D03*
X224790000Y-101600000D03*
X222250000Y-101600000D03*
X224790000Y-99060000D03*
X222250000Y-99060000D03*
X224790000Y-96520000D03*
X222250000Y-96520000D03*
X224790000Y-93980000D03*
X222250000Y-93980000D03*
X224790000Y-91440000D03*
X222250000Y-91440000D03*
X224790000Y-88900000D03*
G36*
G01*
X221200000Y-89750000D02*
X221200000Y-88050000D01*
G75*
G02*
X221400000Y-87850000I200000J0D01*
G01*
X223100000Y-87850000D01*
G75*
G02*
X223300000Y-88050000I0J-200000D01*
G01*
X223300000Y-89750000D01*
G75*
G02*
X223100000Y-89950000I-200000J0D01*
G01*
X221400000Y-89950000D01*
G75*
G02*
X221200000Y-89750000I0J200000D01*
G01*
G37*
G36*
G01*
X97822000Y-76520500D02*
X97822000Y-72329500D01*
G75*
G02*
X98022000Y-72129500I200000J0D01*
G01*
X101578000Y-72129500D01*
G75*
G02*
X101778000Y-72329500I0J-200000D01*
G01*
X101778000Y-76520500D01*
G75*
G02*
X101578000Y-76720500I-200000J0D01*
G01*
X98022000Y-76720500D01*
G75*
G02*
X97822000Y-76520500I0J200000D01*
G01*
G37*
G36*
G01*
X97822000Y-82870500D02*
X97822000Y-78679500D01*
G75*
G02*
X98022000Y-78479500I200000J0D01*
G01*
X101578000Y-78479500D01*
G75*
G02*
X101778000Y-78679500I0J-200000D01*
G01*
X101778000Y-82870500D01*
G75*
G02*
X101578000Y-83070500I-200000J0D01*
G01*
X98022000Y-83070500D01*
G75*
G02*
X97822000Y-82870500I0J200000D01*
G01*
G37*
D16*
X100965000Y-60833000D03*
G36*
G01*
X98464700Y-66132700D02*
X103265300Y-66132700D01*
G75*
G02*
X103465300Y-66332700I0J-200000D01*
G01*
X103465300Y-71133300D01*
G75*
G02*
X103265300Y-71333300I-200000J0D01*
G01*
X98464700Y-71333300D01*
G75*
G02*
X98264700Y-71133300I0J200000D01*
G01*
X98264700Y-66332700D01*
G75*
G02*
X98464700Y-66132700I200000J0D01*
G01*
G37*
X94765000Y-63933000D03*
G36*
G01*
X161239200Y-91589200D02*
X160324800Y-91589200D01*
G75*
G02*
X160124800Y-91389200I0J200000D01*
G01*
X160124800Y-90474800D01*
G75*
G02*
X160324800Y-90274800I200000J0D01*
G01*
X161239200Y-90274800D01*
G75*
G02*
X161439200Y-90474800I0J-200000D01*
G01*
X161439200Y-91389200D01*
G75*
G02*
X161239200Y-91589200I-200000J0D01*
G01*
G37*
G36*
G01*
X161239200Y-89811200D02*
X160324800Y-89811200D01*
G75*
G02*
X160124800Y-89611200I0J200000D01*
G01*
X160124800Y-88696800D01*
G75*
G02*
X160324800Y-88496800I200000J0D01*
G01*
X161239200Y-88496800D01*
G75*
G02*
X161439200Y-88696800I0J-200000D01*
G01*
X161439200Y-89611200D01*
G75*
G02*
X161239200Y-89811200I-200000J0D01*
G01*
G37*
G36*
G01*
X163271200Y-90700200D02*
X162356800Y-90700200D01*
G75*
G02*
X162156800Y-90500200I0J200000D01*
G01*
X162156800Y-89585800D01*
G75*
G02*
X162356800Y-89385800I200000J0D01*
G01*
X163271200Y-89385800D01*
G75*
G02*
X163471200Y-89585800I0J-200000D01*
G01*
X163471200Y-90500200D01*
G75*
G02*
X163271200Y-90700200I-200000J0D01*
G01*
G37*
G36*
G01*
X87884000Y-73479000D02*
X85344000Y-73479000D01*
G75*
G02*
X85144000Y-73279000I0J200000D01*
G01*
X85144000Y-69469000D01*
G75*
G02*
X85344000Y-69269000I200000J0D01*
G01*
X87884000Y-69269000D01*
G75*
G02*
X88084000Y-69469000I0J-200000D01*
G01*
X88084000Y-73279000D01*
G75*
G02*
X87884000Y-73479000I-200000J0D01*
G01*
G37*
G36*
G01*
X82804000Y-73479000D02*
X80264000Y-73479000D01*
G75*
G02*
X80064000Y-73279000I0J200000D01*
G01*
X80064000Y-69469000D01*
G75*
G02*
X80264000Y-69269000I200000J0D01*
G01*
X82804000Y-69269000D01*
G75*
G02*
X83004000Y-69469000I0J-200000D01*
G01*
X83004000Y-73279000D01*
G75*
G02*
X82804000Y-73479000I-200000J0D01*
G01*
G37*
G36*
G01*
X92964000Y-73479000D02*
X90424000Y-73479000D01*
G75*
G02*
X90224000Y-73279000I0J200000D01*
G01*
X90224000Y-69469000D01*
G75*
G02*
X90424000Y-69269000I200000J0D01*
G01*
X92964000Y-69269000D01*
G75*
G02*
X93164000Y-69469000I0J-200000D01*
G01*
X93164000Y-73279000D01*
G75*
G02*
X92964000Y-73479000I-200000J0D01*
G01*
G37*
G36*
G01*
X74168000Y-66475000D02*
X76708000Y-66475000D01*
G75*
G02*
X76908000Y-66675000I0J-200000D01*
G01*
X76908000Y-69215000D01*
G75*
G02*
X76708000Y-69415000I-200000J0D01*
G01*
X74168000Y-69415000D01*
G75*
G02*
X73968000Y-69215000I0J200000D01*
G01*
X73968000Y-66675000D01*
G75*
G02*
X74168000Y-66475000I200000J0D01*
G01*
G37*
D17*
X75438000Y-73025000D03*
G36*
G01*
X159058000Y-107848400D02*
X159058000Y-107543600D01*
G75*
G02*
X159258000Y-107343600I200000J0D01*
G01*
X159766000Y-107343600D01*
G75*
G02*
X159966000Y-107543600I0J-200000D01*
G01*
X159966000Y-107848400D01*
G75*
G02*
X159766000Y-108048400I-200000J0D01*
G01*
X159258000Y-108048400D01*
G75*
G02*
X159058000Y-107848400I0J200000D01*
G01*
G37*
G36*
G01*
X159058000Y-109118400D02*
X159058000Y-108813600D01*
G75*
G02*
X159258000Y-108613600I200000J0D01*
G01*
X159766000Y-108613600D01*
G75*
G02*
X159966000Y-108813600I0J-200000D01*
G01*
X159966000Y-109118400D01*
G75*
G02*
X159766000Y-109318400I-200000J0D01*
G01*
X159258000Y-109318400D01*
G75*
G02*
X159058000Y-109118400I0J200000D01*
G01*
G37*
G36*
G01*
X161090000Y-107848400D02*
X161090000Y-107543600D01*
G75*
G02*
X161290000Y-107343600I200000J0D01*
G01*
X161798000Y-107343600D01*
G75*
G02*
X161998000Y-107543600I0J-200000D01*
G01*
X161998000Y-107848400D01*
G75*
G02*
X161798000Y-108048400I-200000J0D01*
G01*
X161290000Y-108048400D01*
G75*
G02*
X161090000Y-107848400I0J200000D01*
G01*
G37*
G36*
G01*
X159058000Y-108483400D02*
X159058000Y-108178600D01*
G75*
G02*
X159258000Y-107978600I200000J0D01*
G01*
X159766000Y-107978600D01*
G75*
G02*
X159966000Y-108178600I0J-200000D01*
G01*
X159966000Y-108483400D01*
G75*
G02*
X159766000Y-108683400I-200000J0D01*
G01*
X159258000Y-108683400D01*
G75*
G02*
X159058000Y-108483400I0J200000D01*
G01*
G37*
G36*
G01*
X161090000Y-109118400D02*
X161090000Y-108813600D01*
G75*
G02*
X161290000Y-108613600I200000J0D01*
G01*
X161798000Y-108613600D01*
G75*
G02*
X161998000Y-108813600I0J-200000D01*
G01*
X161998000Y-109118400D01*
G75*
G02*
X161798000Y-109318400I-200000J0D01*
G01*
X161290000Y-109318400D01*
G75*
G02*
X161090000Y-109118400I0J200000D01*
G01*
G37*
D18*
X201930000Y-66040000D03*
X176530000Y-66040000D03*
G36*
G01*
X182680000Y-69342000D02*
X182680000Y-67818000D01*
G75*
G02*
X182880000Y-67618000I200000J0D01*
G01*
X184404000Y-67618000D01*
G75*
G02*
X184604000Y-67818000I0J-200000D01*
G01*
X184604000Y-69342000D01*
G75*
G02*
X184404000Y-69542000I-200000J0D01*
G01*
X182880000Y-69542000D01*
G75*
G02*
X182680000Y-69342000I0J200000D01*
G01*
G37*
D19*
X186436000Y-68580000D03*
X189103000Y-68580000D03*
X191897000Y-68580000D03*
X194691000Y-68580000D03*
X185039000Y-66040000D03*
X187833000Y-66040000D03*
X190500000Y-66040000D03*
X193294000Y-66040000D03*
D18*
X168402000Y-66040000D03*
X143002000Y-66040000D03*
G36*
G01*
X149152000Y-69342000D02*
X149152000Y-67818000D01*
G75*
G02*
X149352000Y-67618000I200000J0D01*
G01*
X150876000Y-67618000D01*
G75*
G02*
X151076000Y-67818000I0J-200000D01*
G01*
X151076000Y-69342000D01*
G75*
G02*
X150876000Y-69542000I-200000J0D01*
G01*
X149352000Y-69542000D01*
G75*
G02*
X149152000Y-69342000I0J200000D01*
G01*
G37*
D19*
X152908000Y-68580000D03*
X155575000Y-68580000D03*
X158369000Y-68580000D03*
X161163000Y-68580000D03*
X151511000Y-66040000D03*
X154305000Y-66040000D03*
X156972000Y-66040000D03*
X159766000Y-66040000D03*
D18*
X134874000Y-66040000D03*
X109474000Y-66040000D03*
G36*
G01*
X115624000Y-69342000D02*
X115624000Y-67818000D01*
G75*
G02*
X115824000Y-67618000I200000J0D01*
G01*
X117348000Y-67618000D01*
G75*
G02*
X117548000Y-67818000I0J-200000D01*
G01*
X117548000Y-69342000D01*
G75*
G02*
X117348000Y-69542000I-200000J0D01*
G01*
X115824000Y-69542000D01*
G75*
G02*
X115624000Y-69342000I0J200000D01*
G01*
G37*
D19*
X119380000Y-68580000D03*
X122047000Y-68580000D03*
X124841000Y-68580000D03*
X127635000Y-68580000D03*
X117983000Y-66040000D03*
X120777000Y-66040000D03*
X123444000Y-66040000D03*
X126238000Y-66040000D03*
D20*
X176149000Y-97790000D03*
X176149000Y-102870000D03*
X168529000Y-97790000D03*
X168529000Y-102870000D03*
X168529000Y-92329000D03*
X168529000Y-87249000D03*
X176149000Y-92329000D03*
X176149000Y-87249000D03*
X176149000Y-108077000D03*
X176149000Y-113157000D03*
X168529000Y-108077000D03*
X168529000Y-113157000D03*
X176276000Y-119761000D03*
X176276000Y-124841000D03*
X168656000Y-119761000D03*
X168656000Y-124841000D03*
M02*
