M48
; DRILL file {KiCad 5.1.10-88a1d61d58~88~ubuntu18.04.1} date Sat Jun 12 18:10:05 2021
; FORMAT={-:-/ absolute / inch / decimal}
; #@! TF.CreationDate,2021-06-12T18:10:05+08:00
; #@! TF.GenerationSoftware,Kicad,Pcbnew,5.1.10-88a1d61d58~88~ubuntu18.04.1
; #@! TF.FileFunction,Plated,1,4,PTH
FMAT,2
INCH
T1C0.0157
T2C0.0236
T3C0.0315
T4C0.0320
T5C0.0394
T6C0.0400
T7C0.0472
T8C0.0600
T9C0.0630
T10C0.1200
%
G90
G05
T1
X3.16Y-4.275
X3.22Y-4.275
X3.28Y-4.54
X3.3Y-4.275
X3.33Y-4.025
X3.34Y-4.275
X3.35Y-4.69
X3.415Y-5.22
X3.45Y-4.415
X3.77Y-4.53
X3.77Y-4.63
X3.825Y-3.455
X3.83Y-3.545
X3.835Y-4.415
X3.87Y-3.96
X3.97Y-4.45
X3.975Y-5.505
X3.98Y-4.53
X3.98Y-4.68
X4.05Y-3.965
X4.07Y-4.43
X4.08Y-3.02
X4.095Y-3.965
X4.095Y-4.0
X4.095Y-4.035
X4.095Y-4.07
X4.2Y-3.56
X4.245Y-3.275
X4.25Y-4.495
X4.31Y-2.81
X4.38Y-3.3
X4.41Y-2.82
X4.635Y-2.96
X4.635Y-4.58
X4.68Y-4.135
X4.735Y-3.37
X4.77Y-4.04
X4.79Y-3.875
X4.795Y-3.37
X4.81Y-3.7
X4.82Y-4.54
X4.84Y-3.545
X4.845Y-3.7
X4.85Y-3.37
X4.86Y-4.145
X4.865Y-3.9
X4.865Y-4.345
X4.88Y-3.7
X4.905Y-3.38
X4.915Y-3.7
X4.93Y-2.805
X4.93Y-2.94
X4.94Y-3.66
X5.055Y-4.475
X5.08Y-3.535
X5.085Y-3.75
X5.085Y-3.9
X5.085Y-4.41
X5.1Y-4.15
X5.1Y-4.185
X5.12Y-3.75
X5.12Y-4.22
X5.135Y-4.13
X5.155Y-3.54
X5.155Y-3.75
X5.16Y-4.19
X5.17Y-4.13
X5.18Y-2.805
X5.185Y-3.26
X5.185Y-4.05
X5.19Y-3.795
X5.2Y-3.595
X5.215Y-3.625
X5.22Y-3.75
X5.22Y-4.05
X5.225Y-2.97
X5.225Y-5.315
X5.25Y-3.78
X5.26Y-5.315
X5.265Y-3.525
X5.275Y-4.105
X5.28Y-3.82
X5.28Y-4.14
X5.28Y-4.175
X5.28Y-4.21
X5.285Y-4.365
X5.29Y-3.25
X5.295Y-5.315
X5.305Y-3.355
X5.315Y-4.21
X5.32Y-4.365
X5.33Y-5.315
X5.34Y-3.49
X5.3425Y-4.1575
X5.35Y-3.785
X5.355Y-3.36
X5.365Y-3.83
X5.365Y-5.315
X5.375Y-3.49
X5.38Y-4.74
X5.39Y-4.17
X5.4Y-3.36
X5.4Y-5.315
X5.405Y-4.47
X5.435Y-5.315
X5.44Y-3.37
X5.4606Y-4.1929
X5.4646Y-4.4567
X5.465Y-3.79
X5.465Y-3.895
X5.47Y-5.315
X5.475Y-3.37
X5.475Y-4.23
X5.49Y-4.575
X5.505Y-4.045
X5.51Y-3.37
X5.52Y-3.235
X5.525Y-3.785
X5.55Y-4.01
X5.55Y-4.06
X5.57Y-3.245
X5.57Y-4.145
X5.57Y-4.19
X5.575Y-3.505
X5.575Y-3.79
X5.585Y-4.695
X5.6Y-4.285
X5.615Y-4.575
X5.6339Y-3.7008
X5.725Y-4.445
X5.75Y-2.94
X5.77Y-4.2
X5.77Y-4.25
X5.775Y-4.325
X5.78Y-3.885
X5.78Y-3.94
X5.78Y-4.09
X5.78Y-4.15
X5.81Y-3.75
X5.845Y-3.75
X5.86Y-3.34
X5.88Y-3.75
X5.9Y-3.315
X5.925Y-3.75
X5.925Y-3.795
X5.925Y-3.83
X5.925Y-3.865
X5.925Y-3.9
X5.93Y-3.5
X5.94Y-2.965
X5.965Y-3.305
X6.0Y-3.34
X6.0Y-4.55
X6.025Y-3.48
X6.025Y-3.65
X6.08Y-3.62
X6.095Y-3.455
X6.135Y-3.47
X6.185Y-3.53
X6.185Y-3.565
X6.19Y-3.46
X6.21Y-3.84
X6.23Y-2.805
X6.23Y-2.94
X6.28Y-4.555
X6.345Y-3.635
X6.39Y-4.205
X6.42Y-2.965
X6.43Y-3.68
X6.435Y-3.95
X6.48Y-2.805
X6.565Y-4.165
X6.57Y-3.77
X6.625Y-4.53
X6.79Y-3.66
X6.875Y-4.175
X6.88Y-3.52
X6.97Y-3.52
X6.975Y-3.035
X7.01Y-4.16
X7.01Y-4.345
X7.02Y-3.46
X7.02Y-3.495
X7.035Y-4.68
X7.055Y-3.405
X7.055Y-3.69
X7.075Y-3.63
X7.075Y-4.05
X7.085Y-3.585
X7.115Y-4.3881
X7.15Y-4.095
X7.15Y-4.13
X7.15Y-4.235
X7.15Y-4.27
X7.15Y-4.305
X7.15Y-4.34
X7.15Y-4.685
X7.165Y-3.55
X7.265Y-4.68
X7.33Y-2.8
X7.33Y-2.94
X7.4163Y-4.2528
X7.433Y-4.1465
X7.4471Y-4.587
X7.4582Y-4.3505
X7.4822Y-3.9845
X7.52Y-2.875
X7.5257Y-3.8152
X7.5722Y-4.8758
X7.6034Y-4.2699
X7.605Y-4.47
X7.61Y-4.15
X7.625Y-4.325
X7.634Y-4.217
X7.635Y-3.305
X7.6645Y-3.9076
X7.665Y-2.89
X7.665Y-4.93
X7.76Y-3.885
X7.835Y-4.0542
X7.8415Y-4.8926
X7.85Y-3.785
X7.86Y-3.84
X7.9Y-4.735
X7.9717Y-4.055
X8.01Y-3.8848
X8.0234Y-4.9062
X8.0372Y-4.6045
X8.04Y-4.755
X8.0538Y-3.3548
X8.095Y-4.755
X8.0969Y-3.1
X8.13Y-4.97
X8.1431Y-4.3302
X8.174Y-4.038
X8.2349Y-4.8923
X8.2433Y-4.4827
X8.255Y-3.8856
X8.2572Y-4.6494
X8.2578Y-4.4098
X8.2706Y-4.9321
X8.2847Y-4.0739
X8.3Y-4.33
X8.305Y-4.47
X8.31Y-4.23
X8.3234Y-4.0381
X8.3541Y-3.175
X8.3558Y-3.0019
X8.4431Y-4.3505
X8.4612Y-4.2522
X8.5311Y-4.5386
X8.6Y-2.5631
X8.6615Y-4.5573
T2
X7.35Y-3.52
X7.4Y-3.47
X7.45Y-3.52
T3
X3.5Y-3.2531
X3.5Y-3.45
X3.5Y-3.7531
X3.5Y-3.95
X4.86Y-4.755
X4.86Y-4.9479
X8.15Y-5.3
X8.55Y-5.3
T4
X6.635Y-3.435
X6.635Y-3.635
X6.635Y-3.85
X6.635Y-4.05
X6.635Y-4.255
X6.635Y-4.455
X6.64Y-4.715
X6.64Y-4.915
X6.935Y-3.435
X6.935Y-3.635
X6.935Y-3.85
X6.935Y-4.05
X6.935Y-4.255
X6.935Y-4.455
X6.94Y-4.715
X6.94Y-4.915
T5
X3.005Y-4.185
X3.005Y-4.285
X3.005Y-4.385
X3.005Y-4.485
X3.005Y-4.585
X3.005Y-4.685
X3.005Y-4.785
X3.005Y-4.885
X3.005Y-4.985
X3.005Y-5.085
X3.005Y-5.185
X3.005Y-5.285
X3.005Y-5.385
X3.105Y-4.185
X3.105Y-4.285
X3.105Y-4.385
X3.105Y-4.485
X3.105Y-4.585
X3.105Y-4.685
X3.105Y-4.785
X3.105Y-4.885
X3.105Y-4.985
X3.105Y-5.085
X3.105Y-5.185
X3.105Y-5.285
X3.105Y-5.385
X3.285Y-5.285
X3.285Y-5.455
X3.5Y-5.3
X3.525Y-5.55
X3.6Y-5.3
X3.61Y-4.445
X3.71Y-4.445
X3.805Y-3.67
X3.805Y-3.77
X3.955Y-3.77
X4.075Y-3.3
X4.26Y-2.895
X4.26Y-2.995
X4.26Y-3.095
X4.36Y-2.895
X4.36Y-2.995
X4.36Y-3.095
X4.36Y-5.39
X4.36Y-5.49
X4.41Y-4.27
X4.43Y-3.395
X4.43Y-3.495
X4.43Y-3.675
X4.43Y-3.775
X4.43Y-3.875
X4.46Y-2.895
X4.46Y-2.995
X4.46Y-3.095
X4.46Y-5.39
X4.46Y-5.49
X4.51Y-4.27
X4.53Y-3.395
X4.53Y-3.495
X4.53Y-3.675
X4.53Y-3.775
X4.53Y-3.875
X4.56Y-5.39
X4.56Y-5.49
X4.66Y-5.39
X4.66Y-5.49
X4.76Y-5.39
X4.76Y-5.49
X4.86Y-5.39
X4.86Y-5.49
X4.96Y-5.39
X4.96Y-5.49
X5.06Y-5.39
X5.06Y-5.49
X5.16Y-5.39
X5.16Y-5.49
X5.26Y-5.39
X5.26Y-5.49
X5.345Y-2.935
X5.345Y-3.035
X5.345Y-3.135
X5.345Y-3.235
X5.36Y-5.39
X5.36Y-5.49
X5.445Y-2.935
X5.445Y-3.035
X5.445Y-3.135
X5.445Y-3.235
X5.46Y-5.39
X5.46Y-5.49
X5.56Y-5.39
X5.56Y-5.49
X5.66Y-5.39
X5.66Y-5.49
X5.76Y-5.39
X5.76Y-5.49
X5.86Y-5.39
X5.86Y-5.49
X5.96Y-5.39
X5.96Y-5.49
X5.985Y-4.035
X6.06Y-5.39
X6.06Y-5.49
X6.16Y-5.39
X6.16Y-5.49
X6.205Y-4.645
X6.205Y-4.745
X6.26Y-5.39
X6.26Y-5.49
X6.305Y-4.645
X6.305Y-4.745
X6.36Y-5.39
X6.36Y-5.49
X6.405Y-4.645
X6.405Y-4.745
X6.46Y-5.39
X6.46Y-5.49
X6.505Y-4.645
X6.505Y-4.745
X6.56Y-5.39
X6.56Y-5.49
X6.66Y-5.39
X6.66Y-5.49
X6.675Y-2.935
X6.675Y-3.035
X6.675Y-3.135
X6.675Y-3.235
X6.76Y-5.39
X6.76Y-5.49
X6.775Y-2.935
X6.775Y-3.035
X6.775Y-3.135
X6.775Y-3.235
X6.86Y-5.39
X6.86Y-5.49
X6.96Y-5.39
X6.96Y-5.49
X7.06Y-5.39
X7.06Y-5.49
X7.16Y-5.13
X7.16Y-5.39
X7.16Y-5.49
X7.26Y-5.13
X7.26Y-5.39
X7.26Y-5.49
X7.775Y-2.935
X7.775Y-3.035
X7.775Y-3.135
X7.775Y-3.235
X7.775Y-3.425
X7.775Y-3.525
X7.875Y-2.935
X7.875Y-3.035
X7.875Y-3.135
X7.875Y-3.235
X7.875Y-3.425
X7.875Y-3.525
X8.75Y-3.5
X8.75Y-3.6
X8.75Y-3.7
X8.75Y-3.8
X8.75Y-3.9
X8.75Y-4.0
X8.75Y-4.1
X8.75Y-4.2
X8.75Y-4.3
X8.75Y-4.4
X8.75Y-4.5
X8.75Y-4.6
X8.75Y-4.7
X8.75Y-4.8
X8.75Y-4.9
X8.75Y-5.0
X8.75Y-5.1
X8.75Y-5.2
X8.75Y-5.3
X8.75Y-5.4
X8.8Y-2.5
X8.8Y-2.6
X8.8Y-2.7
X8.8Y-2.8
X8.8Y-2.9
X8.8Y-3.0
X8.85Y-3.5
X8.85Y-3.6
X8.85Y-3.7
X8.85Y-3.8
X8.85Y-3.9
X8.85Y-4.0
X8.85Y-4.1
X8.85Y-4.2
X8.85Y-4.3
X8.85Y-4.4
X8.85Y-4.5
X8.85Y-4.6
X8.85Y-4.7
X8.85Y-4.8
X8.85Y-4.9
X8.85Y-5.0
X8.85Y-5.1
X8.85Y-5.2
X8.85Y-5.3
X8.85Y-5.4
T6
X4.59Y-2.7
X4.645Y-2.6
X4.7Y-2.7
X4.755Y-2.6
X4.805Y-2.7
X4.86Y-2.6
X4.915Y-2.7
X4.97Y-2.6
X5.025Y-2.7
X5.91Y-2.7
X5.965Y-2.6
X6.02Y-2.7
X6.075Y-2.6
X6.125Y-2.7
X6.18Y-2.6
X6.235Y-2.7
X6.29Y-2.6
X6.345Y-2.7
X7.23Y-2.7
X7.285Y-2.6
X7.34Y-2.7
X7.395Y-2.6
X7.445Y-2.7
X7.5Y-2.6
X7.555Y-2.7
X7.61Y-2.6
X7.665Y-2.7
T7
X3.18Y-3.035
X3.68Y-3.035
T8
X2.97Y-2.675
X2.97Y-2.875
T9
X3.21Y-2.81
X3.41Y-2.81
X3.61Y-2.81
T10
X4.31Y-2.6
X5.31Y-2.6
X5.63Y-2.6
X6.63Y-2.6
X6.95Y-2.6
X7.95Y-2.6
T6
G00X3.7309Y-2.487
M15
G01X3.7309Y-2.547
M16
G05
G00X4.0011Y-2.706
M15
G01X3.9411Y-2.706
M16
G05
G00X4.005Y-2.395
M15
G01X3.945Y-2.395
M16
G05
T0
M30
