%FSLAX45Y45*%
G04 Gerber Fmt 4.5, Leading zero omitted, Abs format (unit mm)*
G04 Created by KiCad (PCBNEW 5.1.10-88a1d61d58~88~ubuntu18.04.1) date 2021-06-12 18:10:06*
%MOMM*%
%LPD*%
G01*
G04 APERTURE LIST*
%TA.AperFunction,Profile*%
%ADD10C,0.381000*%
%TD*%
%ADD11C,0.200000*%
%ADD12C,0.300000*%
G04 APERTURE END LIST*
D10*
X7112000Y-14732000D02*
X22860000Y-14732000D01*
X7112000Y-5588000D02*
X7112000Y-14732000D01*
X22860000Y-5588000D02*
X7112000Y-5588000D01*
X22860000Y-5588000D02*
X22860000Y-14732000D01*
D11*
X8006400Y-10838500D02*
X8046400Y-10878500D01*
X8046400Y-10838500D02*
X8006400Y-10878500D01*
X8158800Y-10838500D02*
X8198800Y-10878500D01*
X8198800Y-10838500D02*
X8158800Y-10878500D01*
X8311200Y-11511600D02*
X8351200Y-11551600D01*
X8351200Y-11511600D02*
X8311200Y-11551600D01*
X8362000Y-10838500D02*
X8402000Y-10878500D01*
X8402000Y-10838500D02*
X8362000Y-10878500D01*
X8438200Y-10203500D02*
X8478200Y-10243500D01*
X8478200Y-10203500D02*
X8438200Y-10243500D01*
X8463600Y-10838500D02*
X8503600Y-10878500D01*
X8503600Y-10838500D02*
X8463600Y-10878500D01*
X8489000Y-11892600D02*
X8529000Y-11932600D01*
X8529000Y-11892600D02*
X8489000Y-11932600D01*
X8654100Y-13238800D02*
X8694100Y-13278800D01*
X8694100Y-13238800D02*
X8654100Y-13278800D01*
X8743000Y-11194100D02*
X8783000Y-11234100D01*
X8783000Y-11194100D02*
X8743000Y-11234100D01*
X9555800Y-11486200D02*
X9595800Y-11526200D01*
X9595800Y-11486200D02*
X9555800Y-11526200D01*
X9555800Y-11740200D02*
X9595800Y-11780200D01*
X9595800Y-11740200D02*
X9555800Y-11780200D01*
X9695500Y-8755700D02*
X9735500Y-8795700D01*
X9735500Y-8755700D02*
X9695500Y-8795700D01*
X9708200Y-8984300D02*
X9748200Y-9024300D01*
X9748200Y-8984300D02*
X9708200Y-9024300D01*
X9720900Y-11194100D02*
X9760900Y-11234100D01*
X9760900Y-11194100D02*
X9720900Y-11234100D01*
X9809800Y-10038400D02*
X9849800Y-10078400D01*
X9849800Y-10038400D02*
X9809800Y-10078400D01*
X10063800Y-11283000D02*
X10103800Y-11323000D01*
X10103800Y-11283000D02*
X10063800Y-11323000D01*
X10076500Y-13962700D02*
X10116500Y-14002700D01*
X10116500Y-13962700D02*
X10076500Y-14002700D01*
X10089200Y-11486200D02*
X10129200Y-11526200D01*
X10129200Y-11486200D02*
X10089200Y-11526200D01*
X10089200Y-11867200D02*
X10129200Y-11907200D01*
X10129200Y-11867200D02*
X10089200Y-11907200D01*
X10267000Y-10051100D02*
X10307000Y-10091100D01*
X10307000Y-10051100D02*
X10267000Y-10091100D01*
X10317800Y-11232200D02*
X10357800Y-11272200D01*
X10357800Y-11232200D02*
X10317800Y-11272200D01*
X10343200Y-7650800D02*
X10383200Y-7690800D01*
X10383200Y-7650800D02*
X10343200Y-7690800D01*
X10381300Y-10051100D02*
X10421300Y-10091100D01*
X10421300Y-10051100D02*
X10381300Y-10091100D01*
X10381300Y-10140000D02*
X10421300Y-10180000D01*
X10421300Y-10140000D02*
X10381300Y-10180000D01*
X10381300Y-10228900D02*
X10421300Y-10268900D01*
X10421300Y-10228900D02*
X10381300Y-10268900D01*
X10381300Y-10317800D02*
X10421300Y-10357800D01*
X10421300Y-10317800D02*
X10381300Y-10357800D01*
X10648000Y-9022400D02*
X10688000Y-9062400D01*
X10688000Y-9022400D02*
X10648000Y-9062400D01*
X10762300Y-8298500D02*
X10802300Y-8338500D01*
X10802300Y-8298500D02*
X10762300Y-8338500D01*
X10775000Y-11397300D02*
X10815000Y-11437300D01*
X10815000Y-11397300D02*
X10775000Y-11437300D01*
X10927400Y-7117400D02*
X10967400Y-7157400D01*
X10967400Y-7117400D02*
X10927400Y-7157400D01*
X11105200Y-8362000D02*
X11145200Y-8402000D01*
X11145200Y-8362000D02*
X11105200Y-8402000D01*
X11181400Y-7142800D02*
X11221400Y-7182800D01*
X11221400Y-7142800D02*
X11181400Y-7182800D01*
X11752900Y-7498400D02*
X11792900Y-7538400D01*
X11792900Y-7498400D02*
X11752900Y-7538400D01*
X11752900Y-11613200D02*
X11792900Y-11653200D01*
X11792900Y-11613200D02*
X11752900Y-11653200D01*
X11867200Y-10482900D02*
X11907200Y-10522900D01*
X11907200Y-10482900D02*
X11867200Y-10522900D01*
X12006900Y-8539800D02*
X12046900Y-8579800D01*
X12046900Y-8539800D02*
X12006900Y-8579800D01*
X12095800Y-10241600D02*
X12135800Y-10281600D01*
X12135800Y-10241600D02*
X12095800Y-10281600D01*
X12146600Y-9822500D02*
X12186600Y-9862500D01*
X12186600Y-9822500D02*
X12146600Y-9862500D01*
X12159300Y-8539800D02*
X12199300Y-8579800D01*
X12199300Y-8539800D02*
X12159300Y-8579800D01*
X12197400Y-9378000D02*
X12237400Y-9418000D01*
X12237400Y-9378000D02*
X12197400Y-9418000D01*
X12222800Y-11511600D02*
X12262800Y-11551600D01*
X12262800Y-11511600D02*
X12222800Y-11551600D01*
X12273600Y-8984300D02*
X12313600Y-9024300D01*
X12313600Y-8984300D02*
X12273600Y-9024300D01*
X12286300Y-9378000D02*
X12326300Y-9418000D01*
X12326300Y-9378000D02*
X12286300Y-9418000D01*
X12299000Y-8539800D02*
X12339000Y-8579800D01*
X12339000Y-8539800D02*
X12299000Y-8579800D01*
X12324400Y-10508300D02*
X12364400Y-10548300D01*
X12364400Y-10508300D02*
X12324400Y-10548300D01*
X12337100Y-9886000D02*
X12377100Y-9926000D01*
X12377100Y-9886000D02*
X12337100Y-9926000D01*
X12337100Y-11016300D02*
X12377100Y-11056300D01*
X12377100Y-11016300D02*
X12337100Y-11056300D01*
X12375200Y-9378000D02*
X12415200Y-9418000D01*
X12415200Y-9378000D02*
X12375200Y-9418000D01*
X12438700Y-8565200D02*
X12478700Y-8605200D01*
X12478700Y-8565200D02*
X12438700Y-8605200D01*
X12464100Y-9378000D02*
X12504100Y-9418000D01*
X12504100Y-9378000D02*
X12464100Y-9418000D01*
X12502200Y-7104700D02*
X12542200Y-7144700D01*
X12542200Y-7104700D02*
X12502200Y-7144700D01*
X12502200Y-7447600D02*
X12542200Y-7487600D01*
X12542200Y-7447600D02*
X12502200Y-7487600D01*
X12527600Y-9276400D02*
X12567600Y-9316400D01*
X12567600Y-9276400D02*
X12527600Y-9316400D01*
X12819700Y-11346500D02*
X12859700Y-11386500D01*
X12859700Y-11346500D02*
X12819700Y-11386500D01*
X12883200Y-8958900D02*
X12923200Y-8998900D01*
X12923200Y-8958900D02*
X12883200Y-8998900D01*
X12895900Y-9505000D02*
X12935900Y-9545000D01*
X12935900Y-9505000D02*
X12895900Y-9545000D01*
X12895900Y-9886000D02*
X12935900Y-9926000D01*
X12935900Y-9886000D02*
X12895900Y-9926000D01*
X12895900Y-11181400D02*
X12935900Y-11221400D01*
X12935900Y-11181400D02*
X12895900Y-11221400D01*
X12934000Y-10521000D02*
X12974000Y-10561000D01*
X12974000Y-10521000D02*
X12934000Y-10561000D01*
X12934000Y-10609900D02*
X12974000Y-10649900D01*
X12974000Y-10609900D02*
X12934000Y-10649900D01*
X12984800Y-9505000D02*
X13024800Y-9545000D01*
X13024800Y-9505000D02*
X12984800Y-9545000D01*
X12984800Y-10698800D02*
X13024800Y-10738800D01*
X13024800Y-10698800D02*
X12984800Y-10738800D01*
X13022900Y-10470200D02*
X13062900Y-10510200D01*
X13062900Y-10470200D02*
X13022900Y-10510200D01*
X13073700Y-8971600D02*
X13113700Y-9011600D01*
X13113700Y-8971600D02*
X13073700Y-9011600D01*
X13073700Y-9505000D02*
X13113700Y-9545000D01*
X13113700Y-9505000D02*
X13073700Y-9545000D01*
X13086400Y-10622600D02*
X13126400Y-10662600D01*
X13126400Y-10622600D02*
X13086400Y-10662600D01*
X13111800Y-10470200D02*
X13151800Y-10510200D01*
X13151800Y-10470200D02*
X13111800Y-10510200D01*
X13137200Y-7104700D02*
X13177200Y-7144700D01*
X13177200Y-7104700D02*
X13137200Y-7144700D01*
X13149900Y-8260400D02*
X13189900Y-8300400D01*
X13189900Y-8260400D02*
X13149900Y-8300400D01*
X13149900Y-10267000D02*
X13189900Y-10307000D01*
X13189900Y-10267000D02*
X13149900Y-10307000D01*
X13162600Y-9619300D02*
X13202600Y-9659300D01*
X13202600Y-9619300D02*
X13162600Y-9659300D01*
X13188000Y-9111300D02*
X13228000Y-9151300D01*
X13228000Y-9111300D02*
X13188000Y-9151300D01*
X13226100Y-9187500D02*
X13266100Y-9227500D01*
X13266100Y-9187500D02*
X13226100Y-9227500D01*
X13238800Y-9505000D02*
X13278800Y-9545000D01*
X13278800Y-9505000D02*
X13238800Y-9545000D01*
X13238800Y-10267000D02*
X13278800Y-10307000D01*
X13278800Y-10267000D02*
X13238800Y-10307000D01*
X13251500Y-7523800D02*
X13291500Y-7563800D01*
X13291500Y-7523800D02*
X13251500Y-7563800D01*
X13251500Y-13480100D02*
X13291500Y-13520100D01*
X13291500Y-13480100D02*
X13251500Y-13520100D01*
X13315000Y-9581200D02*
X13355000Y-9621200D01*
X13355000Y-9581200D02*
X13315000Y-9621200D01*
X13340400Y-13480100D02*
X13380400Y-13520100D01*
X13380400Y-13480100D02*
X13340400Y-13520100D01*
X13353100Y-8933500D02*
X13393100Y-8973500D01*
X13393100Y-8933500D02*
X13353100Y-8973500D01*
X13378500Y-10406700D02*
X13418500Y-10446700D01*
X13418500Y-10406700D02*
X13378500Y-10446700D01*
X13391200Y-9682800D02*
X13431200Y-9722800D01*
X13431200Y-9682800D02*
X13391200Y-9722800D01*
X13391200Y-10495600D02*
X13431200Y-10535600D01*
X13431200Y-10495600D02*
X13391200Y-10535600D01*
X13391200Y-10584500D02*
X13431200Y-10624500D01*
X13431200Y-10584500D02*
X13391200Y-10624500D01*
X13391200Y-10673400D02*
X13431200Y-10713400D01*
X13431200Y-10673400D02*
X13391200Y-10713400D01*
X13403900Y-11067100D02*
X13443900Y-11107100D01*
X13443900Y-11067100D02*
X13403900Y-11107100D01*
X13416600Y-8235000D02*
X13456600Y-8275000D01*
X13456600Y-8235000D02*
X13416600Y-8275000D01*
X13429300Y-13480100D02*
X13469300Y-13520100D01*
X13469300Y-13480100D02*
X13429300Y-13520100D01*
X13454700Y-8501700D02*
X13494700Y-8541700D01*
X13494700Y-8501700D02*
X13454700Y-8541700D01*
X13480100Y-10673400D02*
X13520100Y-10713400D01*
X13520100Y-10673400D02*
X13480100Y-10713400D01*
X13492800Y-11067100D02*
X13532800Y-11107100D01*
X13532800Y-11067100D02*
X13492800Y-11107100D01*
X13518200Y-13480100D02*
X13558200Y-13520100D01*
X13558200Y-13480100D02*
X13518200Y-13520100D01*
X13543600Y-8844600D02*
X13583600Y-8884600D01*
X13583600Y-8844600D02*
X13543600Y-8884600D01*
X13550000Y-10540000D02*
X13590000Y-10580000D01*
X13590000Y-10540000D02*
X13550000Y-10580000D01*
X13569000Y-9593900D02*
X13609000Y-9633900D01*
X13609000Y-9593900D02*
X13569000Y-9633900D01*
X13581700Y-8514400D02*
X13621700Y-8554400D01*
X13621700Y-8514400D02*
X13581700Y-8554400D01*
X13607100Y-9708200D02*
X13647100Y-9748200D01*
X13647100Y-9708200D02*
X13607100Y-9748200D01*
X13607100Y-13480100D02*
X13647100Y-13520100D01*
X13647100Y-13480100D02*
X13607100Y-13520100D01*
X13632500Y-8844600D02*
X13672500Y-8884600D01*
X13672500Y-8844600D02*
X13632500Y-8884600D01*
X13645200Y-12019600D02*
X13685200Y-12059600D01*
X13685200Y-12019600D02*
X13645200Y-12059600D01*
X13670600Y-10571800D02*
X13710600Y-10611800D01*
X13710600Y-10571800D02*
X13670600Y-10611800D01*
X13696000Y-8514400D02*
X13736000Y-8554400D01*
X13736000Y-8514400D02*
X13696000Y-8554400D01*
X13696000Y-13480100D02*
X13736000Y-13520100D01*
X13736000Y-13480100D02*
X13696000Y-13520100D01*
X13708700Y-11333800D02*
X13748700Y-11373800D01*
X13748700Y-11333800D02*
X13708700Y-11373800D01*
X13784900Y-13480100D02*
X13824900Y-13520100D01*
X13824900Y-13480100D02*
X13784900Y-13520100D01*
X13797600Y-8539800D02*
X13837600Y-8579800D01*
X13837600Y-8539800D02*
X13797600Y-8579800D01*
X13850000Y-10630000D02*
X13890000Y-10670000D01*
X13890000Y-10630000D02*
X13850000Y-10670000D01*
X13860000Y-11300000D02*
X13900000Y-11340000D01*
X13900000Y-11300000D02*
X13860000Y-11340000D01*
X13861100Y-9606600D02*
X13901100Y-9646600D01*
X13901100Y-9606600D02*
X13861100Y-9646600D01*
X13861100Y-9873300D02*
X13901100Y-9913300D01*
X13901100Y-9873300D02*
X13861100Y-9913300D01*
X13873800Y-13480100D02*
X13913800Y-13520100D01*
X13913800Y-13480100D02*
X13873800Y-13520100D01*
X13886500Y-8539800D02*
X13926500Y-8579800D01*
X13926500Y-8539800D02*
X13886500Y-8579800D01*
X13886500Y-10724200D02*
X13926500Y-10764200D01*
X13926500Y-10724200D02*
X13886500Y-10764200D01*
X13924600Y-11600500D02*
X13964600Y-11640500D01*
X13964600Y-11600500D02*
X13924600Y-11640500D01*
X13962700Y-10254300D02*
X14002700Y-10294300D01*
X14002700Y-10254300D02*
X13962700Y-10294300D01*
X13975400Y-8539800D02*
X14015400Y-8579800D01*
X14015400Y-8539800D02*
X13975400Y-8579800D01*
X14000800Y-8196900D02*
X14040800Y-8236900D01*
X14040800Y-8196900D02*
X14000800Y-8236900D01*
X14013500Y-9593900D02*
X14053500Y-9633900D01*
X14053500Y-9593900D02*
X14013500Y-9633900D01*
X14077000Y-10165400D02*
X14117000Y-10205400D01*
X14117000Y-10165400D02*
X14077000Y-10205400D01*
X14077000Y-10292400D02*
X14117000Y-10332400D01*
X14117000Y-10292400D02*
X14077000Y-10332400D01*
X14127800Y-8222300D02*
X14167800Y-8262300D01*
X14167800Y-8222300D02*
X14127800Y-8262300D01*
X14127800Y-10508300D02*
X14167800Y-10548300D01*
X14167800Y-10508300D02*
X14127800Y-10548300D01*
X14127800Y-10622600D02*
X14167800Y-10662600D01*
X14167800Y-10622600D02*
X14127800Y-10662600D01*
X14140500Y-8882700D02*
X14180500Y-8922700D01*
X14180500Y-8882700D02*
X14140500Y-8922700D01*
X14140500Y-9606600D02*
X14180500Y-9646600D01*
X14180500Y-9606600D02*
X14140500Y-9646600D01*
X14165900Y-11905300D02*
X14205900Y-11945300D01*
X14205900Y-11905300D02*
X14165900Y-11945300D01*
X14204000Y-10863900D02*
X14244000Y-10903900D01*
X14244000Y-10863900D02*
X14204000Y-10903900D01*
X14242100Y-11600500D02*
X14282100Y-11640500D01*
X14282100Y-11600500D02*
X14242100Y-11640500D01*
X14290000Y-9380000D02*
X14330000Y-9420000D01*
X14330000Y-9380000D02*
X14290000Y-9420000D01*
X14521500Y-11270300D02*
X14561500Y-11310300D01*
X14561500Y-11270300D02*
X14521500Y-11310300D01*
X14585000Y-7447600D02*
X14625000Y-7487600D01*
X14625000Y-7447600D02*
X14585000Y-7487600D01*
X14635800Y-10648000D02*
X14675800Y-10688000D01*
X14675800Y-10648000D02*
X14635800Y-10688000D01*
X14635800Y-10775000D02*
X14675800Y-10815000D01*
X14675800Y-10775000D02*
X14635800Y-10815000D01*
X14648500Y-10965500D02*
X14688500Y-11005500D01*
X14688500Y-10965500D02*
X14648500Y-11005500D01*
X14661200Y-9847900D02*
X14701200Y-9887900D01*
X14701200Y-9847900D02*
X14661200Y-9887900D01*
X14661200Y-9987600D02*
X14701200Y-10027600D01*
X14701200Y-9987600D02*
X14661200Y-10027600D01*
X14661200Y-10368600D02*
X14701200Y-10408600D01*
X14701200Y-10368600D02*
X14661200Y-10408600D01*
X14661200Y-10521000D02*
X14701200Y-10561000D01*
X14701200Y-10521000D02*
X14661200Y-10561000D01*
X14737400Y-9505000D02*
X14777400Y-9545000D01*
X14777400Y-9505000D02*
X14737400Y-9545000D01*
X14826300Y-9505000D02*
X14866300Y-9545000D01*
X14866300Y-9505000D02*
X14826300Y-9545000D01*
X14864400Y-8463600D02*
X14904400Y-8503600D01*
X14904400Y-8463600D02*
X14864400Y-8503600D01*
X14915200Y-9505000D02*
X14955200Y-9545000D01*
X14955200Y-9505000D02*
X14915200Y-9545000D01*
X14966000Y-8400100D02*
X15006000Y-8440100D01*
X15006000Y-8400100D02*
X14966000Y-8440100D01*
X15029500Y-9505000D02*
X15069500Y-9545000D01*
X15069500Y-9505000D02*
X15029500Y-9545000D01*
X15029500Y-9619300D02*
X15069500Y-9659300D01*
X15069500Y-9619300D02*
X15029500Y-9659300D01*
X15029500Y-9708200D02*
X15069500Y-9748200D01*
X15069500Y-9708200D02*
X15029500Y-9748200D01*
X15029500Y-9797100D02*
X15069500Y-9837100D01*
X15069500Y-9797100D02*
X15029500Y-9837100D01*
X15029500Y-9886000D02*
X15069500Y-9926000D01*
X15069500Y-9886000D02*
X15029500Y-9926000D01*
X15042200Y-8870000D02*
X15082200Y-8910000D01*
X15082200Y-8870000D02*
X15042200Y-8910000D01*
X15067600Y-7511100D02*
X15107600Y-7551100D01*
X15107600Y-7511100D02*
X15067600Y-7551100D01*
X15131100Y-8374700D02*
X15171100Y-8414700D01*
X15171100Y-8374700D02*
X15131100Y-8414700D01*
X15220000Y-8463600D02*
X15260000Y-8503600D01*
X15260000Y-8463600D02*
X15220000Y-8503600D01*
X15220000Y-11537000D02*
X15260000Y-11577000D01*
X15260000Y-11537000D02*
X15220000Y-11577000D01*
X15283500Y-8819200D02*
X15323500Y-8859200D01*
X15323500Y-8819200D02*
X15283500Y-8859200D01*
X15283500Y-9251000D02*
X15323500Y-9291000D01*
X15323500Y-9251000D02*
X15283500Y-9291000D01*
X15423200Y-9174800D02*
X15463200Y-9214800D01*
X15463200Y-9174800D02*
X15423200Y-9214800D01*
X15461300Y-8755700D02*
X15501300Y-8795700D01*
X15501300Y-8755700D02*
X15461300Y-8795700D01*
X15562900Y-8793800D02*
X15602900Y-8833800D01*
X15602900Y-8793800D02*
X15562900Y-8833800D01*
X15689900Y-8946200D02*
X15729900Y-8986200D01*
X15729900Y-8946200D02*
X15689900Y-8986200D01*
X15689900Y-9035100D02*
X15729900Y-9075100D01*
X15729900Y-9035100D02*
X15689900Y-9075100D01*
X15702600Y-8768400D02*
X15742600Y-8808400D01*
X15742600Y-8768400D02*
X15702600Y-8808400D01*
X15753400Y-9733600D02*
X15793400Y-9773600D01*
X15793400Y-9733600D02*
X15753400Y-9773600D01*
X15804200Y-7104700D02*
X15844200Y-7144700D01*
X15844200Y-7104700D02*
X15804200Y-7144700D01*
X15804200Y-7447600D02*
X15844200Y-7487600D01*
X15844200Y-7447600D02*
X15804200Y-7487600D01*
X15931200Y-11549700D02*
X15971200Y-11589700D01*
X15971200Y-11549700D02*
X15931200Y-11589700D01*
X16096300Y-9212900D02*
X16136300Y-9252900D01*
X16136300Y-9212900D02*
X16096300Y-9252900D01*
X16210600Y-10660700D02*
X16250600Y-10700700D01*
X16250600Y-10660700D02*
X16210600Y-10700700D01*
X16286800Y-7511100D02*
X16326800Y-7551100D01*
X16326800Y-7511100D02*
X16286800Y-7551100D01*
X16312200Y-9327200D02*
X16352200Y-9367200D01*
X16352200Y-9327200D02*
X16312200Y-9367200D01*
X16324900Y-10013000D02*
X16364900Y-10053000D01*
X16364900Y-10013000D02*
X16324900Y-10053000D01*
X16439200Y-7104700D02*
X16479200Y-7144700D01*
X16479200Y-7104700D02*
X16439200Y-7144700D01*
X16655100Y-10559100D02*
X16695100Y-10599100D01*
X16695100Y-10559100D02*
X16655100Y-10599100D01*
X16667800Y-9555800D02*
X16707800Y-9595800D01*
X16707800Y-9555800D02*
X16667800Y-9595800D01*
X16807500Y-11486200D02*
X16847500Y-11526200D01*
X16847500Y-11486200D02*
X16807500Y-11526200D01*
X17226600Y-9276400D02*
X17266600Y-9316400D01*
X17266600Y-9276400D02*
X17226600Y-9316400D01*
X17442500Y-10584500D02*
X17482500Y-10624500D01*
X17482500Y-10584500D02*
X17442500Y-10624500D01*
X17455200Y-8920800D02*
X17495200Y-8960800D01*
X17495200Y-8920800D02*
X17455200Y-8960800D01*
X17683800Y-8920800D02*
X17723800Y-8960800D01*
X17723800Y-8920800D02*
X17683800Y-8960800D01*
X17696500Y-7688900D02*
X17736500Y-7728900D01*
X17736500Y-7688900D02*
X17696500Y-7728900D01*
X17785400Y-10546400D02*
X17825400Y-10586400D01*
X17825400Y-10546400D02*
X17785400Y-10586400D01*
X17785400Y-11016300D02*
X17825400Y-11056300D01*
X17825400Y-11016300D02*
X17785400Y-11056300D01*
X17810800Y-8768400D02*
X17850800Y-8808400D01*
X17850800Y-8768400D02*
X17810800Y-8808400D01*
X17810800Y-8857300D02*
X17850800Y-8897300D01*
X17850800Y-8857300D02*
X17810800Y-8897300D01*
X17848900Y-11867200D02*
X17888900Y-11907200D01*
X17888900Y-11867200D02*
X17848900Y-11907200D01*
X17899700Y-8628700D02*
X17939700Y-8668700D01*
X17939700Y-8628700D02*
X17899700Y-8668700D01*
X17899700Y-9352600D02*
X17939700Y-9392600D01*
X17939700Y-9352600D02*
X17899700Y-9392600D01*
X17950500Y-9200200D02*
X17990500Y-9240200D01*
X17990500Y-9200200D02*
X17950500Y-9240200D01*
X17950500Y-10267000D02*
X17990500Y-10307000D01*
X17990500Y-10267000D02*
X17950500Y-10307000D01*
X17975900Y-9085900D02*
X18015900Y-9125900D01*
X18015900Y-9085900D02*
X17975900Y-9125900D01*
X18052100Y-11125774D02*
X18092100Y-11165774D01*
X18092100Y-11125774D02*
X18052100Y-11165774D01*
X18141000Y-10381300D02*
X18181000Y-10421300D01*
X18181000Y-10381300D02*
X18141000Y-10421300D01*
X18141000Y-10470200D02*
X18181000Y-10510200D01*
X18181000Y-10470200D02*
X18141000Y-10510200D01*
X18141000Y-10736900D02*
X18181000Y-10776900D01*
X18181000Y-10736900D02*
X18141000Y-10776900D01*
X18141000Y-10825800D02*
X18181000Y-10865800D01*
X18181000Y-10825800D02*
X18141000Y-10865800D01*
X18141000Y-10914700D02*
X18181000Y-10954700D01*
X18181000Y-10914700D02*
X18141000Y-10954700D01*
X18141000Y-11003600D02*
X18181000Y-11043600D01*
X18181000Y-11003600D02*
X18141000Y-11043600D01*
X18141000Y-11879900D02*
X18181000Y-11919900D01*
X18181000Y-11879900D02*
X18141000Y-11919900D01*
X18179100Y-8997000D02*
X18219100Y-9037000D01*
X18219100Y-8997000D02*
X18179100Y-9037000D01*
X18433100Y-11867200D02*
X18473100Y-11907200D01*
X18473100Y-11867200D02*
X18433100Y-11907200D01*
X18598200Y-7092000D02*
X18638200Y-7132000D01*
X18638200Y-7092000D02*
X18598200Y-7132000D01*
X18598200Y-7447600D02*
X18638200Y-7487600D01*
X18638200Y-7447600D02*
X18598200Y-7487600D01*
X18817402Y-10782112D02*
X18857402Y-10822112D01*
X18857402Y-10782112D02*
X18817402Y-10822112D01*
X18859820Y-10512110D02*
X18899820Y-10552110D01*
X18899820Y-10512110D02*
X18859820Y-10552110D01*
X18895634Y-11630980D02*
X18935634Y-11670980D01*
X18935634Y-11630980D02*
X18895634Y-11670980D01*
X18923828Y-11030270D02*
X18963828Y-11070270D01*
X18963828Y-11030270D02*
X18923828Y-11070270D01*
X18984788Y-10100630D02*
X19024788Y-10140630D01*
X19024788Y-10100630D02*
X18984788Y-10140630D01*
X19080800Y-7282500D02*
X19120800Y-7322500D01*
X19120800Y-7282500D02*
X19080800Y-7322500D01*
X19095278Y-9670608D02*
X19135278Y-9710608D01*
X19135278Y-9670608D02*
X19095278Y-9710608D01*
X19213388Y-12364532D02*
X19253388Y-12404532D01*
X19253388Y-12364532D02*
X19213388Y-12404532D01*
X19292636Y-10825546D02*
X19332636Y-10865546D01*
X19332636Y-10825546D02*
X19292636Y-10865546D01*
X19296700Y-11333800D02*
X19336700Y-11373800D01*
X19336700Y-11333800D02*
X19296700Y-11373800D01*
X19309400Y-10521000D02*
X19349400Y-10561000D01*
X19349400Y-10521000D02*
X19309400Y-10561000D01*
X19347500Y-10965500D02*
X19387500Y-11005500D01*
X19387500Y-10965500D02*
X19347500Y-11005500D01*
X19370360Y-10691180D02*
X19410360Y-10731180D01*
X19410360Y-10691180D02*
X19370360Y-10731180D01*
X19372900Y-8374700D02*
X19412900Y-8414700D01*
X19412900Y-8374700D02*
X19372900Y-8414700D01*
X19447830Y-9905304D02*
X19487830Y-9945304D01*
X19487830Y-9905304D02*
X19447830Y-9945304D01*
X19449100Y-7320600D02*
X19489100Y-7360600D01*
X19489100Y-7320600D02*
X19449100Y-7360600D01*
X19449100Y-12502200D02*
X19489100Y-12542200D01*
X19489100Y-12502200D02*
X19449100Y-12542200D01*
X19690400Y-9847900D02*
X19730400Y-9887900D01*
X19730400Y-9847900D02*
X19690400Y-9887900D01*
X19880900Y-10277668D02*
X19920900Y-10317668D01*
X19920900Y-10277668D02*
X19880900Y-10317668D01*
X19897410Y-12407204D02*
X19937410Y-12447204D01*
X19937410Y-12407204D02*
X19897410Y-12447204D01*
X19919000Y-9593900D02*
X19959000Y-9633900D01*
X19959000Y-9593900D02*
X19919000Y-9633900D01*
X19944400Y-9733600D02*
X19984400Y-9773600D01*
X19984400Y-9733600D02*
X19944400Y-9773600D01*
X20046000Y-12006900D02*
X20086000Y-12046900D01*
X20086000Y-12006900D02*
X20046000Y-12046900D01*
X20228118Y-10279700D02*
X20268118Y-10319700D01*
X20268118Y-10279700D02*
X20228118Y-10319700D01*
X20325400Y-9847392D02*
X20365400Y-9887392D01*
X20365400Y-9847392D02*
X20325400Y-9887392D01*
X20359436Y-12441748D02*
X20399436Y-12481748D01*
X20399436Y-12441748D02*
X20359436Y-12481748D01*
X20394488Y-11675430D02*
X20434488Y-11715430D01*
X20434488Y-11675430D02*
X20394488Y-11715430D01*
X20401600Y-12057700D02*
X20441600Y-12097700D01*
X20441600Y-12057700D02*
X20401600Y-12097700D01*
X20436652Y-8501192D02*
X20476652Y-8541192D01*
X20476652Y-8501192D02*
X20436652Y-8541192D01*
X20541300Y-12057700D02*
X20581300Y-12097700D01*
X20581300Y-12057700D02*
X20541300Y-12097700D01*
X20546126Y-7854000D02*
X20586126Y-7894000D01*
X20586126Y-7854000D02*
X20546126Y-7894000D01*
X20630200Y-12603800D02*
X20670200Y-12643800D01*
X20670200Y-12603800D02*
X20630200Y-12643800D01*
X20663474Y-10978708D02*
X20703474Y-11018708D01*
X20703474Y-10978708D02*
X20663474Y-11018708D01*
X20741960Y-10236520D02*
X20781960Y-10276520D01*
X20781960Y-10236520D02*
X20741960Y-10276520D01*
X20896646Y-12406442D02*
X20936646Y-12446442D01*
X20936646Y-12406442D02*
X20896646Y-12446442D01*
X20917982Y-11366058D02*
X20957982Y-11406058D01*
X20957982Y-11366058D02*
X20917982Y-11406058D01*
X20947700Y-9849424D02*
X20987700Y-9889424D01*
X20987700Y-9849424D02*
X20947700Y-9889424D01*
X20953288Y-11789476D02*
X20993288Y-11829476D01*
X20993288Y-11789476D02*
X20953288Y-11829476D01*
X20954812Y-11180892D02*
X20994812Y-11220892D01*
X20994812Y-11180892D02*
X20954812Y-11220892D01*
X20987324Y-12507534D02*
X21027324Y-12547534D01*
X21027324Y-12507534D02*
X20987324Y-12547534D01*
X21023138Y-10327706D02*
X21063138Y-10367706D01*
X21063138Y-10327706D02*
X21023138Y-10367706D01*
X21062000Y-10978200D02*
X21102000Y-11018200D01*
X21102000Y-10978200D02*
X21062000Y-11018200D01*
X21074700Y-11333800D02*
X21114700Y-11373800D01*
X21114700Y-11333800D02*
X21074700Y-11373800D01*
X21087400Y-10724200D02*
X21127400Y-10764200D01*
X21127400Y-10724200D02*
X21087400Y-10764200D01*
X21121436Y-10236774D02*
X21161436Y-10276774D01*
X21161436Y-10236774D02*
X21121436Y-10276774D01*
X21199414Y-8044500D02*
X21239414Y-8084500D01*
X21239414Y-8044500D02*
X21199414Y-8084500D01*
X21203732Y-7604826D02*
X21243732Y-7644826D01*
X21243732Y-7604826D02*
X21203732Y-7644826D01*
X21425474Y-11030270D02*
X21465474Y-11070270D01*
X21465474Y-11030270D02*
X21425474Y-11070270D01*
X21471448Y-10780588D02*
X21511448Y-10820588D01*
X21511448Y-10780588D02*
X21471448Y-10820588D01*
X21648994Y-11508044D02*
X21688994Y-11548044D01*
X21688994Y-11508044D02*
X21648994Y-11548044D01*
X21824000Y-6490274D02*
X21864000Y-6530274D01*
X21864000Y-6490274D02*
X21824000Y-6530274D01*
X21980210Y-11555542D02*
X22020210Y-11595542D01*
X22020210Y-11555542D02*
X21980210Y-11595542D01*
X18699000Y-8940800D02*
G75*
G03*
X18699000Y-8940800I-30000J0D01*
G01*
X18826000Y-8813800D02*
G75*
G03*
X18826000Y-8813800I-30000J0D01*
G01*
X18953000Y-8940800D02*
G75*
G03*
X18953000Y-8940800I-30000J0D01*
G01*
X8890000Y-8223000D02*
X8890000Y-8303000D01*
X8850000Y-8263000D02*
X8930000Y-8263000D01*
X8890000Y-8723000D02*
X8890000Y-8803000D01*
X8850000Y-8763000D02*
X8930000Y-8763000D01*
X8890000Y-9493000D02*
X8890000Y-9573000D01*
X8850000Y-9533000D02*
X8930000Y-9533000D01*
X8890000Y-9993000D02*
X8890000Y-10073000D01*
X8850000Y-10033000D02*
X8930000Y-10033000D01*
X12344400Y-12037700D02*
X12344400Y-12117700D01*
X12304400Y-12077700D02*
X12384400Y-12077700D01*
X12344400Y-12527700D02*
X12344400Y-12607700D01*
X12304400Y-12567700D02*
X12384400Y-12567700D01*
X20701000Y-13422000D02*
X20701000Y-13502000D01*
X20661000Y-13462000D02*
X20741000Y-13462000D01*
X21717000Y-13422000D02*
X21717000Y-13502000D01*
X21677000Y-13462000D02*
X21757000Y-13462000D01*
X16881637Y-8753637D02*
X16881637Y-8696163D01*
X16824163Y-8696163D01*
X16824163Y-8753637D01*
X16881637Y-8753637D01*
X16881637Y-9261637D02*
X16881637Y-9204163D01*
X16824163Y-9204163D01*
X16824163Y-9261637D01*
X16881637Y-9261637D01*
X16881637Y-9807737D02*
X16881637Y-9750263D01*
X16824163Y-9750263D01*
X16824163Y-9807737D01*
X16881637Y-9807737D01*
X16881637Y-10315737D02*
X16881637Y-10258263D01*
X16824163Y-10258263D01*
X16824163Y-10315737D01*
X16881637Y-10315737D01*
X16881637Y-10836437D02*
X16881637Y-10778963D01*
X16824163Y-10778963D01*
X16824163Y-10836437D01*
X16881637Y-10836437D01*
X16881637Y-11344437D02*
X16881637Y-11286963D01*
X16824163Y-11286963D01*
X16824163Y-11344437D01*
X16881637Y-11344437D01*
X16894337Y-12004837D02*
X16894337Y-11947363D01*
X16836863Y-11947363D01*
X16836863Y-12004837D01*
X16894337Y-12004837D01*
X16894337Y-12512837D02*
X16894337Y-12455363D01*
X16836863Y-12455363D01*
X16836863Y-12512837D01*
X16894337Y-12512837D01*
X17643637Y-8753637D02*
X17643637Y-8696163D01*
X17586163Y-8696163D01*
X17586163Y-8753637D01*
X17643637Y-8753637D01*
X17643637Y-9261637D02*
X17643637Y-9204163D01*
X17586163Y-9204163D01*
X17586163Y-9261637D01*
X17643637Y-9261637D01*
X17643637Y-9807737D02*
X17643637Y-9750263D01*
X17586163Y-9750263D01*
X17586163Y-9807737D01*
X17643637Y-9807737D01*
X17643637Y-10315737D02*
X17643637Y-10258263D01*
X17586163Y-10258263D01*
X17586163Y-10315737D01*
X17643637Y-10315737D01*
X17643637Y-10836437D02*
X17643637Y-10778963D01*
X17586163Y-10778963D01*
X17586163Y-10836437D01*
X17643637Y-10836437D01*
X17643637Y-11344437D02*
X17643637Y-11286963D01*
X17586163Y-11286963D01*
X17586163Y-11344437D01*
X17643637Y-11344437D01*
X17656337Y-12004837D02*
X17656337Y-11947363D01*
X17598863Y-11947363D01*
X17598863Y-12004837D01*
X17656337Y-12004837D01*
X17656337Y-12512837D02*
X17656337Y-12455363D01*
X17598863Y-12455363D01*
X17598863Y-12512837D01*
X17656337Y-12512837D01*
X7632700Y-10679900D02*
X7682700Y-10629900D01*
X7632700Y-10579900D01*
X7582700Y-10629900D01*
X7632700Y-10679900D01*
X7632700Y-10933900D02*
X7682700Y-10883900D01*
X7632700Y-10833900D01*
X7582700Y-10883900D01*
X7632700Y-10933900D01*
X7632700Y-11187900D02*
X7682700Y-11137900D01*
X7632700Y-11087900D01*
X7582700Y-11137900D01*
X7632700Y-11187900D01*
X7632700Y-11441900D02*
X7682700Y-11391900D01*
X7632700Y-11341900D01*
X7582700Y-11391900D01*
X7632700Y-11441900D01*
X7632700Y-11695900D02*
X7682700Y-11645900D01*
X7632700Y-11595900D01*
X7582700Y-11645900D01*
X7632700Y-11695900D01*
X7632700Y-11949900D02*
X7682700Y-11899900D01*
X7632700Y-11849900D01*
X7582700Y-11899900D01*
X7632700Y-11949900D01*
X7632700Y-12203900D02*
X7682700Y-12153900D01*
X7632700Y-12103900D01*
X7582700Y-12153900D01*
X7632700Y-12203900D01*
X7632700Y-12457900D02*
X7682700Y-12407900D01*
X7632700Y-12357900D01*
X7582700Y-12407900D01*
X7632700Y-12457900D01*
X7632700Y-12711900D02*
X7682700Y-12661900D01*
X7632700Y-12611900D01*
X7582700Y-12661900D01*
X7632700Y-12711900D01*
X7632700Y-12965900D02*
X7682700Y-12915900D01*
X7632700Y-12865900D01*
X7582700Y-12915900D01*
X7632700Y-12965900D01*
X7632700Y-13219900D02*
X7682700Y-13169900D01*
X7632700Y-13119900D01*
X7582700Y-13169900D01*
X7632700Y-13219900D01*
X7632700Y-13473900D02*
X7682700Y-13423900D01*
X7632700Y-13373900D01*
X7582700Y-13423900D01*
X7632700Y-13473900D01*
X7632700Y-13727900D02*
X7682700Y-13677900D01*
X7632700Y-13627900D01*
X7582700Y-13677900D01*
X7632700Y-13727900D01*
X7886700Y-10679900D02*
X7936700Y-10629900D01*
X7886700Y-10579900D01*
X7836700Y-10629900D01*
X7886700Y-10679900D01*
X7886700Y-10933900D02*
X7936700Y-10883900D01*
X7886700Y-10833900D01*
X7836700Y-10883900D01*
X7886700Y-10933900D01*
X7886700Y-11187900D02*
X7936700Y-11137900D01*
X7886700Y-11087900D01*
X7836700Y-11137900D01*
X7886700Y-11187900D01*
X7886700Y-11441900D02*
X7936700Y-11391900D01*
X7886700Y-11341900D01*
X7836700Y-11391900D01*
X7886700Y-11441900D01*
X7886700Y-11695900D02*
X7936700Y-11645900D01*
X7886700Y-11595900D01*
X7836700Y-11645900D01*
X7886700Y-11695900D01*
X7886700Y-11949900D02*
X7936700Y-11899900D01*
X7886700Y-11849900D01*
X7836700Y-11899900D01*
X7886700Y-11949900D01*
X7886700Y-12203900D02*
X7936700Y-12153900D01*
X7886700Y-12103900D01*
X7836700Y-12153900D01*
X7886700Y-12203900D01*
X7886700Y-12457900D02*
X7936700Y-12407900D01*
X7886700Y-12357900D01*
X7836700Y-12407900D01*
X7886700Y-12457900D01*
X7886700Y-12711900D02*
X7936700Y-12661900D01*
X7886700Y-12611900D01*
X7836700Y-12661900D01*
X7886700Y-12711900D01*
X7886700Y-12965900D02*
X7936700Y-12915900D01*
X7886700Y-12865900D01*
X7836700Y-12915900D01*
X7886700Y-12965900D01*
X7886700Y-13219900D02*
X7936700Y-13169900D01*
X7886700Y-13119900D01*
X7836700Y-13169900D01*
X7886700Y-13219900D01*
X7886700Y-13473900D02*
X7936700Y-13423900D01*
X7886700Y-13373900D01*
X7836700Y-13423900D01*
X7886700Y-13473900D01*
X7886700Y-13727900D02*
X7936700Y-13677900D01*
X7886700Y-13627900D01*
X7836700Y-13677900D01*
X7886700Y-13727900D01*
X8343900Y-13473900D02*
X8393900Y-13423900D01*
X8343900Y-13373900D01*
X8293900Y-13423900D01*
X8343900Y-13473900D01*
X8343900Y-13905700D02*
X8393900Y-13855700D01*
X8343900Y-13805700D01*
X8293900Y-13855700D01*
X8343900Y-13905700D01*
X8890000Y-13512000D02*
X8940000Y-13462000D01*
X8890000Y-13412000D01*
X8840000Y-13462000D01*
X8890000Y-13512000D01*
X8953500Y-14147000D02*
X9003500Y-14097000D01*
X8953500Y-14047000D01*
X8903500Y-14097000D01*
X8953500Y-14147000D01*
X9144000Y-13512000D02*
X9194000Y-13462000D01*
X9144000Y-13412000D01*
X9094000Y-13462000D01*
X9144000Y-13512000D01*
X9169400Y-11340300D02*
X9219400Y-11290300D01*
X9169400Y-11240300D01*
X9119400Y-11290300D01*
X9169400Y-11340300D01*
X9423400Y-11340300D02*
X9473400Y-11290300D01*
X9423400Y-11240300D01*
X9373400Y-11290300D01*
X9423400Y-11340300D01*
X9664700Y-9371800D02*
X9714700Y-9321800D01*
X9664700Y-9271800D01*
X9614700Y-9321800D01*
X9664700Y-9371800D01*
X9664700Y-9625800D02*
X9714700Y-9575800D01*
X9664700Y-9525800D01*
X9614700Y-9575800D01*
X9664700Y-9625800D01*
X10045700Y-9625800D02*
X10095700Y-9575800D01*
X10045700Y-9525800D01*
X9995700Y-9575800D01*
X10045700Y-9625800D01*
X10350500Y-8432000D02*
X10400500Y-8382000D01*
X10350500Y-8332000D01*
X10300500Y-8382000D01*
X10350500Y-8432000D01*
X10820400Y-7403300D02*
X10870400Y-7353300D01*
X10820400Y-7303300D01*
X10770400Y-7353300D01*
X10820400Y-7403300D01*
X10820400Y-7657300D02*
X10870400Y-7607300D01*
X10820400Y-7557300D01*
X10770400Y-7607300D01*
X10820400Y-7657300D01*
X10820400Y-7911300D02*
X10870400Y-7861300D01*
X10820400Y-7811300D01*
X10770400Y-7861300D01*
X10820400Y-7911300D01*
X11074400Y-7403300D02*
X11124400Y-7353300D01*
X11074400Y-7303300D01*
X11024400Y-7353300D01*
X11074400Y-7403300D01*
X11074400Y-7657300D02*
X11124400Y-7607300D01*
X11074400Y-7557300D01*
X11024400Y-7607300D01*
X11074400Y-7657300D01*
X11074400Y-7911300D02*
X11124400Y-7861300D01*
X11074400Y-7811300D01*
X11024400Y-7861300D01*
X11074400Y-7911300D01*
X11074400Y-13740600D02*
X11124400Y-13690600D01*
X11074400Y-13640600D01*
X11024400Y-13690600D01*
X11074400Y-13740600D01*
X11074400Y-13994600D02*
X11124400Y-13944600D01*
X11074400Y-13894600D01*
X11024400Y-13944600D01*
X11074400Y-13994600D01*
X11201400Y-10895800D02*
X11251400Y-10845800D01*
X11201400Y-10795800D01*
X11151400Y-10845800D01*
X11201400Y-10895800D01*
X11252200Y-8673300D02*
X11302200Y-8623300D01*
X11252200Y-8573300D01*
X11202200Y-8623300D01*
X11252200Y-8673300D01*
X11252200Y-8927300D02*
X11302200Y-8877300D01*
X11252200Y-8827300D01*
X11202200Y-8877300D01*
X11252200Y-8927300D01*
X11252200Y-9384500D02*
X11302200Y-9334500D01*
X11252200Y-9284500D01*
X11202200Y-9334500D01*
X11252200Y-9384500D01*
X11252200Y-9638500D02*
X11302200Y-9588500D01*
X11252200Y-9538500D01*
X11202200Y-9588500D01*
X11252200Y-9638500D01*
X11252200Y-9892500D02*
X11302200Y-9842500D01*
X11252200Y-9792500D01*
X11202200Y-9842500D01*
X11252200Y-9892500D01*
X11328400Y-7403300D02*
X11378400Y-7353300D01*
X11328400Y-7303300D01*
X11278400Y-7353300D01*
X11328400Y-7403300D01*
X11328400Y-7657300D02*
X11378400Y-7607300D01*
X11328400Y-7557300D01*
X11278400Y-7607300D01*
X11328400Y-7657300D01*
X11328400Y-7911300D02*
X11378400Y-7861300D01*
X11328400Y-7811300D01*
X11278400Y-7861300D01*
X11328400Y-7911300D01*
X11328400Y-13740600D02*
X11378400Y-13690600D01*
X11328400Y-13640600D01*
X11278400Y-13690600D01*
X11328400Y-13740600D01*
X11328400Y-13994600D02*
X11378400Y-13944600D01*
X11328400Y-13894600D01*
X11278400Y-13944600D01*
X11328400Y-13994600D01*
X11455400Y-10895800D02*
X11505400Y-10845800D01*
X11455400Y-10795800D01*
X11405400Y-10845800D01*
X11455400Y-10895800D01*
X11506200Y-8673300D02*
X11556200Y-8623300D01*
X11506200Y-8573300D01*
X11456200Y-8623300D01*
X11506200Y-8673300D01*
X11506200Y-8927300D02*
X11556200Y-8877300D01*
X11506200Y-8827300D01*
X11456200Y-8877300D01*
X11506200Y-8927300D01*
X11506200Y-9384500D02*
X11556200Y-9334500D01*
X11506200Y-9284500D01*
X11456200Y-9334500D01*
X11506200Y-9384500D01*
X11506200Y-9638500D02*
X11556200Y-9588500D01*
X11506200Y-9538500D01*
X11456200Y-9588500D01*
X11506200Y-9638500D01*
X11506200Y-9892500D02*
X11556200Y-9842500D01*
X11506200Y-9792500D01*
X11456200Y-9842500D01*
X11506200Y-9892500D01*
X11582400Y-13740600D02*
X11632400Y-13690600D01*
X11582400Y-13640600D01*
X11532400Y-13690600D01*
X11582400Y-13740600D01*
X11582400Y-13994600D02*
X11632400Y-13944600D01*
X11582400Y-13894600D01*
X11532400Y-13944600D01*
X11582400Y-13994600D01*
X11836400Y-13740600D02*
X11886400Y-13690600D01*
X11836400Y-13640600D01*
X11786400Y-13690600D01*
X11836400Y-13740600D01*
X11836400Y-13994600D02*
X11886400Y-13944600D01*
X11836400Y-13894600D01*
X11786400Y-13944600D01*
X11836400Y-13994600D01*
X12090400Y-13740600D02*
X12140400Y-13690600D01*
X12090400Y-13640600D01*
X12040400Y-13690600D01*
X12090400Y-13740600D01*
X12090400Y-13994600D02*
X12140400Y-13944600D01*
X12090400Y-13894600D01*
X12040400Y-13944600D01*
X12090400Y-13994600D01*
X12344400Y-13740600D02*
X12394400Y-13690600D01*
X12344400Y-13640600D01*
X12294400Y-13690600D01*
X12344400Y-13740600D01*
X12344400Y-13994600D02*
X12394400Y-13944600D01*
X12344400Y-13894600D01*
X12294400Y-13944600D01*
X12344400Y-13994600D01*
X12598400Y-13740600D02*
X12648400Y-13690600D01*
X12598400Y-13640600D01*
X12548400Y-13690600D01*
X12598400Y-13740600D01*
X12598400Y-13994600D02*
X12648400Y-13944600D01*
X12598400Y-13894600D01*
X12548400Y-13944600D01*
X12598400Y-13994600D01*
X12852400Y-13740600D02*
X12902400Y-13690600D01*
X12852400Y-13640600D01*
X12802400Y-13690600D01*
X12852400Y-13740600D01*
X12852400Y-13994600D02*
X12902400Y-13944600D01*
X12852400Y-13894600D01*
X12802400Y-13944600D01*
X12852400Y-13994600D01*
X13106400Y-13740600D02*
X13156400Y-13690600D01*
X13106400Y-13640600D01*
X13056400Y-13690600D01*
X13106400Y-13740600D01*
X13106400Y-13994600D02*
X13156400Y-13944600D01*
X13106400Y-13894600D01*
X13056400Y-13944600D01*
X13106400Y-13994600D01*
X13360400Y-13740600D02*
X13410400Y-13690600D01*
X13360400Y-13640600D01*
X13310400Y-13690600D01*
X13360400Y-13740600D01*
X13360400Y-13994600D02*
X13410400Y-13944600D01*
X13360400Y-13894600D01*
X13310400Y-13944600D01*
X13360400Y-13994600D01*
X13576300Y-7504900D02*
X13626300Y-7454900D01*
X13576300Y-7404900D01*
X13526300Y-7454900D01*
X13576300Y-7504900D01*
X13576300Y-7758900D02*
X13626300Y-7708900D01*
X13576300Y-7658900D01*
X13526300Y-7708900D01*
X13576300Y-7758900D01*
X13576300Y-8012900D02*
X13626300Y-7962900D01*
X13576300Y-7912900D01*
X13526300Y-7962900D01*
X13576300Y-8012900D01*
X13576300Y-8266900D02*
X13626300Y-8216900D01*
X13576300Y-8166900D01*
X13526300Y-8216900D01*
X13576300Y-8266900D01*
X13614400Y-13740600D02*
X13664400Y-13690600D01*
X13614400Y-13640600D01*
X13564400Y-13690600D01*
X13614400Y-13740600D01*
X13614400Y-13994600D02*
X13664400Y-13944600D01*
X13614400Y-13894600D01*
X13564400Y-13944600D01*
X13614400Y-13994600D01*
X13830300Y-7504900D02*
X13880300Y-7454900D01*
X13830300Y-7404900D01*
X13780300Y-7454900D01*
X13830300Y-7504900D01*
X13830300Y-7758900D02*
X13880300Y-7708900D01*
X13830300Y-7658900D01*
X13780300Y-7708900D01*
X13830300Y-7758900D01*
X13830300Y-8012900D02*
X13880300Y-7962900D01*
X13830300Y-7912900D01*
X13780300Y-7962900D01*
X13830300Y-8012900D01*
X13830300Y-8266900D02*
X13880300Y-8216900D01*
X13830300Y-8166900D01*
X13780300Y-8216900D01*
X13830300Y-8266900D01*
X13868400Y-13740600D02*
X13918400Y-13690600D01*
X13868400Y-13640600D01*
X13818400Y-13690600D01*
X13868400Y-13740600D01*
X13868400Y-13994600D02*
X13918400Y-13944600D01*
X13868400Y-13894600D01*
X13818400Y-13944600D01*
X13868400Y-13994600D01*
X14122400Y-13740600D02*
X14172400Y-13690600D01*
X14122400Y-13640600D01*
X14072400Y-13690600D01*
X14122400Y-13740600D01*
X14122400Y-13994600D02*
X14172400Y-13944600D01*
X14122400Y-13894600D01*
X14072400Y-13944600D01*
X14122400Y-13994600D01*
X14376400Y-13740600D02*
X14426400Y-13690600D01*
X14376400Y-13640600D01*
X14326400Y-13690600D01*
X14376400Y-13740600D01*
X14376400Y-13994600D02*
X14426400Y-13944600D01*
X14376400Y-13894600D01*
X14326400Y-13944600D01*
X14376400Y-13994600D01*
X14630400Y-13740600D02*
X14680400Y-13690600D01*
X14630400Y-13640600D01*
X14580400Y-13690600D01*
X14630400Y-13740600D01*
X14630400Y-13994600D02*
X14680400Y-13944600D01*
X14630400Y-13894600D01*
X14580400Y-13944600D01*
X14630400Y-13994600D01*
X14884400Y-13740600D02*
X14934400Y-13690600D01*
X14884400Y-13640600D01*
X14834400Y-13690600D01*
X14884400Y-13740600D01*
X14884400Y-13994600D02*
X14934400Y-13944600D01*
X14884400Y-13894600D01*
X14834400Y-13944600D01*
X14884400Y-13994600D01*
X15138400Y-13740600D02*
X15188400Y-13690600D01*
X15138400Y-13640600D01*
X15088400Y-13690600D01*
X15138400Y-13740600D01*
X15138400Y-13994600D02*
X15188400Y-13944600D01*
X15138400Y-13894600D01*
X15088400Y-13944600D01*
X15138400Y-13994600D01*
X15201900Y-10298900D02*
X15251900Y-10248900D01*
X15201900Y-10198900D01*
X15151900Y-10248900D01*
X15201900Y-10298900D01*
X15392400Y-13740600D02*
X15442400Y-13690600D01*
X15392400Y-13640600D01*
X15342400Y-13690600D01*
X15392400Y-13740600D01*
X15392400Y-13994600D02*
X15442400Y-13944600D01*
X15392400Y-13894600D01*
X15342400Y-13944600D01*
X15392400Y-13994600D01*
X15646400Y-13740600D02*
X15696400Y-13690600D01*
X15646400Y-13640600D01*
X15596400Y-13690600D01*
X15646400Y-13740600D01*
X15646400Y-13994600D02*
X15696400Y-13944600D01*
X15646400Y-13894600D01*
X15596400Y-13944600D01*
X15646400Y-13994600D01*
X15760700Y-11848300D02*
X15810700Y-11798300D01*
X15760700Y-11748300D01*
X15710700Y-11798300D01*
X15760700Y-11848300D01*
X15760700Y-12102300D02*
X15810700Y-12052300D01*
X15760700Y-12002300D01*
X15710700Y-12052300D01*
X15760700Y-12102300D01*
X15900400Y-13740600D02*
X15950400Y-13690600D01*
X15900400Y-13640600D01*
X15850400Y-13690600D01*
X15900400Y-13740600D01*
X15900400Y-13994600D02*
X15950400Y-13944600D01*
X15900400Y-13894600D01*
X15850400Y-13944600D01*
X15900400Y-13994600D01*
X16014700Y-11848300D02*
X16064700Y-11798300D01*
X16014700Y-11748300D01*
X15964700Y-11798300D01*
X16014700Y-11848300D01*
X16014700Y-12102300D02*
X16064700Y-12052300D01*
X16014700Y-12002300D01*
X15964700Y-12052300D01*
X16014700Y-12102300D01*
X16154400Y-13740600D02*
X16204400Y-13690600D01*
X16154400Y-13640600D01*
X16104400Y-13690600D01*
X16154400Y-13740600D01*
X16154400Y-13994600D02*
X16204400Y-13944600D01*
X16154400Y-13894600D01*
X16104400Y-13944600D01*
X16154400Y-13994600D01*
X16268700Y-11848300D02*
X16318700Y-11798300D01*
X16268700Y-11748300D01*
X16218700Y-11798300D01*
X16268700Y-11848300D01*
X16268700Y-12102300D02*
X16318700Y-12052300D01*
X16268700Y-12002300D01*
X16218700Y-12052300D01*
X16268700Y-12102300D01*
X16408400Y-13740600D02*
X16458400Y-13690600D01*
X16408400Y-13640600D01*
X16358400Y-13690600D01*
X16408400Y-13740600D01*
X16408400Y-13994600D02*
X16458400Y-13944600D01*
X16408400Y-13894600D01*
X16358400Y-13944600D01*
X16408400Y-13994600D01*
X16522700Y-11848300D02*
X16572700Y-11798300D01*
X16522700Y-11748300D01*
X16472700Y-11798300D01*
X16522700Y-11848300D01*
X16522700Y-12102300D02*
X16572700Y-12052300D01*
X16522700Y-12002300D01*
X16472700Y-12052300D01*
X16522700Y-12102300D01*
X16662400Y-13740600D02*
X16712400Y-13690600D01*
X16662400Y-13640600D01*
X16612400Y-13690600D01*
X16662400Y-13740600D01*
X16662400Y-13994600D02*
X16712400Y-13944600D01*
X16662400Y-13894600D01*
X16612400Y-13944600D01*
X16662400Y-13994600D01*
X16916400Y-13740600D02*
X16966400Y-13690600D01*
X16916400Y-13640600D01*
X16866400Y-13690600D01*
X16916400Y-13740600D01*
X16916400Y-13994600D02*
X16966400Y-13944600D01*
X16916400Y-13894600D01*
X16866400Y-13944600D01*
X16916400Y-13994600D01*
X16954500Y-7504900D02*
X17004500Y-7454900D01*
X16954500Y-7404900D01*
X16904500Y-7454900D01*
X16954500Y-7504900D01*
X16954500Y-7758900D02*
X17004500Y-7708900D01*
X16954500Y-7658900D01*
X16904500Y-7708900D01*
X16954500Y-7758900D01*
X16954500Y-8012900D02*
X17004500Y-7962900D01*
X16954500Y-7912900D01*
X16904500Y-7962900D01*
X16954500Y-8012900D01*
X16954500Y-8266900D02*
X17004500Y-8216900D01*
X16954500Y-8166900D01*
X16904500Y-8216900D01*
X16954500Y-8266900D01*
X17170400Y-13740600D02*
X17220400Y-13690600D01*
X17170400Y-13640600D01*
X17120400Y-13690600D01*
X17170400Y-13740600D01*
X17170400Y-13994600D02*
X17220400Y-13944600D01*
X17170400Y-13894600D01*
X17120400Y-13944600D01*
X17170400Y-13994600D01*
X17208500Y-7504900D02*
X17258500Y-7454900D01*
X17208500Y-7404900D01*
X17158500Y-7454900D01*
X17208500Y-7504900D01*
X17208500Y-7758900D02*
X17258500Y-7708900D01*
X17208500Y-7658900D01*
X17158500Y-7708900D01*
X17208500Y-7758900D01*
X17208500Y-8012900D02*
X17258500Y-7962900D01*
X17208500Y-7912900D01*
X17158500Y-7962900D01*
X17208500Y-8012900D01*
X17208500Y-8266900D02*
X17258500Y-8216900D01*
X17208500Y-8166900D01*
X17158500Y-8216900D01*
X17208500Y-8266900D01*
X17424400Y-13740600D02*
X17474400Y-13690600D01*
X17424400Y-13640600D01*
X17374400Y-13690600D01*
X17424400Y-13740600D01*
X17424400Y-13994600D02*
X17474400Y-13944600D01*
X17424400Y-13894600D01*
X17374400Y-13944600D01*
X17424400Y-13994600D01*
X17678400Y-13740600D02*
X17728400Y-13690600D01*
X17678400Y-13640600D01*
X17628400Y-13690600D01*
X17678400Y-13740600D01*
X17678400Y-13994600D02*
X17728400Y-13944600D01*
X17678400Y-13894600D01*
X17628400Y-13944600D01*
X17678400Y-13994600D01*
X17932400Y-13740600D02*
X17982400Y-13690600D01*
X17932400Y-13640600D01*
X17882400Y-13690600D01*
X17932400Y-13740600D01*
X17932400Y-13994600D02*
X17982400Y-13944600D01*
X17932400Y-13894600D01*
X17882400Y-13944600D01*
X17932400Y-13994600D01*
X18186400Y-13080200D02*
X18236400Y-13030200D01*
X18186400Y-12980200D01*
X18136400Y-13030200D01*
X18186400Y-13080200D01*
X18186400Y-13740600D02*
X18236400Y-13690600D01*
X18186400Y-13640600D01*
X18136400Y-13690600D01*
X18186400Y-13740600D01*
X18186400Y-13994600D02*
X18236400Y-13944600D01*
X18186400Y-13894600D01*
X18136400Y-13944600D01*
X18186400Y-13994600D01*
X18440400Y-13080200D02*
X18490400Y-13030200D01*
X18440400Y-12980200D01*
X18390400Y-13030200D01*
X18440400Y-13080200D01*
X18440400Y-13740600D02*
X18490400Y-13690600D01*
X18440400Y-13640600D01*
X18390400Y-13690600D01*
X18440400Y-13740600D01*
X18440400Y-13994600D02*
X18490400Y-13944600D01*
X18440400Y-13894600D01*
X18390400Y-13944600D01*
X18440400Y-13994600D01*
X19748500Y-7504900D02*
X19798500Y-7454900D01*
X19748500Y-7404900D01*
X19698500Y-7454900D01*
X19748500Y-7504900D01*
X19748500Y-7758900D02*
X19798500Y-7708900D01*
X19748500Y-7658900D01*
X19698500Y-7708900D01*
X19748500Y-7758900D01*
X19748500Y-8012900D02*
X19798500Y-7962900D01*
X19748500Y-7912900D01*
X19698500Y-7962900D01*
X19748500Y-8012900D01*
X19748500Y-8266900D02*
X19798500Y-8216900D01*
X19748500Y-8166900D01*
X19698500Y-8216900D01*
X19748500Y-8266900D01*
X19748500Y-8749500D02*
X19798500Y-8699500D01*
X19748500Y-8649500D01*
X19698500Y-8699500D01*
X19748500Y-8749500D01*
X19748500Y-9003500D02*
X19798500Y-8953500D01*
X19748500Y-8903500D01*
X19698500Y-8953500D01*
X19748500Y-9003500D01*
X20002500Y-7504900D02*
X20052500Y-7454900D01*
X20002500Y-7404900D01*
X19952500Y-7454900D01*
X20002500Y-7504900D01*
X20002500Y-7758900D02*
X20052500Y-7708900D01*
X20002500Y-7658900D01*
X19952500Y-7708900D01*
X20002500Y-7758900D01*
X20002500Y-8012900D02*
X20052500Y-7962900D01*
X20002500Y-7912900D01*
X19952500Y-7962900D01*
X20002500Y-8012900D01*
X20002500Y-8266900D02*
X20052500Y-8216900D01*
X20002500Y-8166900D01*
X19952500Y-8216900D01*
X20002500Y-8266900D01*
X20002500Y-8749500D02*
X20052500Y-8699500D01*
X20002500Y-8649500D01*
X19952500Y-8699500D01*
X20002500Y-8749500D01*
X20002500Y-9003500D02*
X20052500Y-8953500D01*
X20002500Y-8903500D01*
X19952500Y-8953500D01*
X20002500Y-9003500D01*
X22225000Y-8940000D02*
X22275000Y-8890000D01*
X22225000Y-8840000D01*
X22175000Y-8890000D01*
X22225000Y-8940000D01*
X22225000Y-9194000D02*
X22275000Y-9144000D01*
X22225000Y-9094000D01*
X22175000Y-9144000D01*
X22225000Y-9194000D01*
X22225000Y-9448000D02*
X22275000Y-9398000D01*
X22225000Y-9348000D01*
X22175000Y-9398000D01*
X22225000Y-9448000D01*
X22225000Y-9702000D02*
X22275000Y-9652000D01*
X22225000Y-9602000D01*
X22175000Y-9652000D01*
X22225000Y-9702000D01*
X22225000Y-9956000D02*
X22275000Y-9906000D01*
X22225000Y-9856000D01*
X22175000Y-9906000D01*
X22225000Y-9956000D01*
X22225000Y-10210000D02*
X22275000Y-10160000D01*
X22225000Y-10110000D01*
X22175000Y-10160000D01*
X22225000Y-10210000D01*
X22225000Y-10464000D02*
X22275000Y-10414000D01*
X22225000Y-10364000D01*
X22175000Y-10414000D01*
X22225000Y-10464000D01*
X22225000Y-10718000D02*
X22275000Y-10668000D01*
X22225000Y-10618000D01*
X22175000Y-10668000D01*
X22225000Y-10718000D01*
X22225000Y-10972000D02*
X22275000Y-10922000D01*
X22225000Y-10872000D01*
X22175000Y-10922000D01*
X22225000Y-10972000D01*
X22225000Y-11226000D02*
X22275000Y-11176000D01*
X22225000Y-11126000D01*
X22175000Y-11176000D01*
X22225000Y-11226000D01*
X22225000Y-11480000D02*
X22275000Y-11430000D01*
X22225000Y-11380000D01*
X22175000Y-11430000D01*
X22225000Y-11480000D01*
X22225000Y-11734000D02*
X22275000Y-11684000D01*
X22225000Y-11634000D01*
X22175000Y-11684000D01*
X22225000Y-11734000D01*
X22225000Y-11988000D02*
X22275000Y-11938000D01*
X22225000Y-11888000D01*
X22175000Y-11938000D01*
X22225000Y-11988000D01*
X22225000Y-12242000D02*
X22275000Y-12192000D01*
X22225000Y-12142000D01*
X22175000Y-12192000D01*
X22225000Y-12242000D01*
X22225000Y-12496000D02*
X22275000Y-12446000D01*
X22225000Y-12396000D01*
X22175000Y-12446000D01*
X22225000Y-12496000D01*
X22225000Y-12750000D02*
X22275000Y-12700000D01*
X22225000Y-12650000D01*
X22175000Y-12700000D01*
X22225000Y-12750000D01*
X22225000Y-13004000D02*
X22275000Y-12954000D01*
X22225000Y-12904000D01*
X22175000Y-12954000D01*
X22225000Y-13004000D01*
X22225000Y-13258000D02*
X22275000Y-13208000D01*
X22225000Y-13158000D01*
X22175000Y-13208000D01*
X22225000Y-13258000D01*
X22225000Y-13512000D02*
X22275000Y-13462000D01*
X22225000Y-13412000D01*
X22175000Y-13462000D01*
X22225000Y-13512000D01*
X22225000Y-13766000D02*
X22275000Y-13716000D01*
X22225000Y-13666000D01*
X22175000Y-13716000D01*
X22225000Y-13766000D01*
X22352000Y-6400000D02*
X22402000Y-6350000D01*
X22352000Y-6300000D01*
X22302000Y-6350000D01*
X22352000Y-6400000D01*
X22352000Y-6654000D02*
X22402000Y-6604000D01*
X22352000Y-6554000D01*
X22302000Y-6604000D01*
X22352000Y-6654000D01*
X22352000Y-6908000D02*
X22402000Y-6858000D01*
X22352000Y-6808000D01*
X22302000Y-6858000D01*
X22352000Y-6908000D01*
X22352000Y-7162000D02*
X22402000Y-7112000D01*
X22352000Y-7062000D01*
X22302000Y-7112000D01*
X22352000Y-7162000D01*
X22352000Y-7416000D02*
X22402000Y-7366000D01*
X22352000Y-7316000D01*
X22302000Y-7366000D01*
X22352000Y-7416000D01*
X22352000Y-7670000D02*
X22402000Y-7620000D01*
X22352000Y-7570000D01*
X22302000Y-7620000D01*
X22352000Y-7670000D01*
X22479000Y-8940000D02*
X22529000Y-8890000D01*
X22479000Y-8840000D01*
X22429000Y-8890000D01*
X22479000Y-8940000D01*
X22479000Y-9194000D02*
X22529000Y-9144000D01*
X22479000Y-9094000D01*
X22429000Y-9144000D01*
X22479000Y-9194000D01*
X22479000Y-9448000D02*
X22529000Y-9398000D01*
X22479000Y-9348000D01*
X22429000Y-9398000D01*
X22479000Y-9448000D01*
X22479000Y-9702000D02*
X22529000Y-9652000D01*
X22479000Y-9602000D01*
X22429000Y-9652000D01*
X22479000Y-9702000D01*
X22479000Y-9956000D02*
X22529000Y-9906000D01*
X22479000Y-9856000D01*
X22429000Y-9906000D01*
X22479000Y-9956000D01*
X22479000Y-10210000D02*
X22529000Y-10160000D01*
X22479000Y-10110000D01*
X22429000Y-10160000D01*
X22479000Y-10210000D01*
X22479000Y-10464000D02*
X22529000Y-10414000D01*
X22479000Y-10364000D01*
X22429000Y-10414000D01*
X22479000Y-10464000D01*
X22479000Y-10718000D02*
X22529000Y-10668000D01*
X22479000Y-10618000D01*
X22429000Y-10668000D01*
X22479000Y-10718000D01*
X22479000Y-10972000D02*
X22529000Y-10922000D01*
X22479000Y-10872000D01*
X22429000Y-10922000D01*
X22479000Y-10972000D01*
X22479000Y-11226000D02*
X22529000Y-11176000D01*
X22479000Y-11126000D01*
X22429000Y-11176000D01*
X22479000Y-11226000D01*
X22479000Y-11480000D02*
X22529000Y-11430000D01*
X22479000Y-11380000D01*
X22429000Y-11430000D01*
X22479000Y-11480000D01*
X22479000Y-11734000D02*
X22529000Y-11684000D01*
X22479000Y-11634000D01*
X22429000Y-11684000D01*
X22479000Y-11734000D01*
X22479000Y-11988000D02*
X22529000Y-11938000D01*
X22479000Y-11888000D01*
X22429000Y-11938000D01*
X22479000Y-11988000D01*
X22479000Y-12242000D02*
X22529000Y-12192000D01*
X22479000Y-12142000D01*
X22429000Y-12192000D01*
X22479000Y-12242000D01*
X22479000Y-12496000D02*
X22529000Y-12446000D01*
X22479000Y-12396000D01*
X22429000Y-12446000D01*
X22479000Y-12496000D01*
X22479000Y-12750000D02*
X22529000Y-12700000D01*
X22479000Y-12650000D01*
X22429000Y-12700000D01*
X22479000Y-12750000D01*
X22479000Y-13004000D02*
X22529000Y-12954000D01*
X22479000Y-12904000D01*
X22429000Y-12954000D01*
X22479000Y-13004000D01*
X22479000Y-13258000D02*
X22529000Y-13208000D01*
X22479000Y-13158000D01*
X22429000Y-13208000D01*
X22479000Y-13258000D01*
X22479000Y-13512000D02*
X22529000Y-13462000D01*
X22479000Y-13412000D01*
X22429000Y-13462000D01*
X22479000Y-13512000D01*
X22479000Y-13766000D02*
X22529000Y-13716000D01*
X22479000Y-13666000D01*
X22429000Y-13716000D01*
X22479000Y-13766000D01*
X9425700Y-6342500D02*
X9527300Y-6444100D01*
X9527300Y-6342500D02*
X9425700Y-6444100D01*
X9527300Y-6393300D02*
G75*
G03*
X9527300Y-6393300I-50800J0D01*
G01*
X9435700Y-6317100D02*
X9435700Y-6469500D01*
X9517300Y-6317100D02*
X9517300Y-6469500D01*
X9435700Y-6469500D02*
G75*
G03*
X9517300Y-6469500I40800J0D01*
G01*
X9517300Y-6317100D02*
G75*
G03*
X9435700Y-6317100I-40800J0D01*
G01*
X10035700Y-6822500D02*
X10137300Y-6924100D01*
X10137300Y-6822500D02*
X10035700Y-6924100D01*
X10137300Y-6873300D02*
G75*
G03*
X10137300Y-6873300I-50800J0D01*
G01*
X10162700Y-6832500D02*
X10010300Y-6832500D01*
X10162700Y-6914100D02*
X10010300Y-6914100D01*
X10010300Y-6832500D02*
G75*
G03*
X10010300Y-6914100I0J-40800D01*
G01*
X10162700Y-6914100D02*
G75*
G03*
X10162700Y-6832500I0J40800D01*
G01*
X10045700Y-6032500D02*
X10147300Y-6134100D01*
X10147300Y-6032500D02*
X10045700Y-6134100D01*
X10147300Y-6083300D02*
G75*
G03*
X10147300Y-6083300I-50800J0D01*
G01*
X10172700Y-6042500D02*
X10020300Y-6042500D01*
X10172700Y-6124100D02*
X10020300Y-6124100D01*
X10020300Y-6042500D02*
G75*
G03*
X10020300Y-6124100I0J-40800D01*
G01*
X10172700Y-6124100D02*
G75*
G03*
X10172700Y-6042500I0J40800D01*
G01*
X11607800Y-6807200D02*
X11709400Y-6908800D01*
X11709400Y-6807200D02*
X11607800Y-6908800D01*
X11709400Y-6858000D02*
G75*
G03*
X11709400Y-6858000I-50800J0D01*
G01*
X11747500Y-6553200D02*
X11849100Y-6654800D01*
X11849100Y-6553200D02*
X11747500Y-6654800D01*
X11849100Y-6604000D02*
G75*
G03*
X11849100Y-6604000I-50800J0D01*
G01*
X11887200Y-6807200D02*
X11988800Y-6908800D01*
X11988800Y-6807200D02*
X11887200Y-6908800D01*
X11988800Y-6858000D02*
G75*
G03*
X11988800Y-6858000I-50800J0D01*
G01*
X12026900Y-6553200D02*
X12128500Y-6654800D01*
X12128500Y-6553200D02*
X12026900Y-6654800D01*
X12128500Y-6604000D02*
G75*
G03*
X12128500Y-6604000I-50800J0D01*
G01*
X12153900Y-6807200D02*
X12255500Y-6908800D01*
X12255500Y-6807200D02*
X12153900Y-6908800D01*
X12255500Y-6858000D02*
G75*
G03*
X12255500Y-6858000I-50800J0D01*
G01*
X12293600Y-6553200D02*
X12395200Y-6654800D01*
X12395200Y-6553200D02*
X12293600Y-6654800D01*
X12395200Y-6604000D02*
G75*
G03*
X12395200Y-6604000I-50800J0D01*
G01*
X12433300Y-6807200D02*
X12534900Y-6908800D01*
X12534900Y-6807200D02*
X12433300Y-6908800D01*
X12534900Y-6858000D02*
G75*
G03*
X12534900Y-6858000I-50800J0D01*
G01*
X12573000Y-6553200D02*
X12674600Y-6654800D01*
X12674600Y-6553200D02*
X12573000Y-6654800D01*
X12674600Y-6604000D02*
G75*
G03*
X12674600Y-6604000I-50800J0D01*
G01*
X12712700Y-6807200D02*
X12814300Y-6908800D01*
X12814300Y-6807200D02*
X12712700Y-6908800D01*
X12814300Y-6858000D02*
G75*
G03*
X12814300Y-6858000I-50800J0D01*
G01*
X14960600Y-6807200D02*
X15062200Y-6908800D01*
X15062200Y-6807200D02*
X14960600Y-6908800D01*
X15062200Y-6858000D02*
G75*
G03*
X15062200Y-6858000I-50800J0D01*
G01*
X15100300Y-6553200D02*
X15201900Y-6654800D01*
X15201900Y-6553200D02*
X15100300Y-6654800D01*
X15201900Y-6604000D02*
G75*
G03*
X15201900Y-6604000I-50800J0D01*
G01*
X15240000Y-6807200D02*
X15341600Y-6908800D01*
X15341600Y-6807200D02*
X15240000Y-6908800D01*
X15341600Y-6858000D02*
G75*
G03*
X15341600Y-6858000I-50800J0D01*
G01*
X15379700Y-6553200D02*
X15481300Y-6654800D01*
X15481300Y-6553200D02*
X15379700Y-6654800D01*
X15481300Y-6604000D02*
G75*
G03*
X15481300Y-6604000I-50800J0D01*
G01*
X15506700Y-6807200D02*
X15608300Y-6908800D01*
X15608300Y-6807200D02*
X15506700Y-6908800D01*
X15608300Y-6858000D02*
G75*
G03*
X15608300Y-6858000I-50800J0D01*
G01*
X15646400Y-6553200D02*
X15748000Y-6654800D01*
X15748000Y-6553200D02*
X15646400Y-6654800D01*
X15748000Y-6604000D02*
G75*
G03*
X15748000Y-6604000I-50800J0D01*
G01*
X15786100Y-6807200D02*
X15887700Y-6908800D01*
X15887700Y-6807200D02*
X15786100Y-6908800D01*
X15887700Y-6858000D02*
G75*
G03*
X15887700Y-6858000I-50800J0D01*
G01*
X15925800Y-6553200D02*
X16027400Y-6654800D01*
X16027400Y-6553200D02*
X15925800Y-6654800D01*
X16027400Y-6604000D02*
G75*
G03*
X16027400Y-6604000I-50800J0D01*
G01*
X16065500Y-6807200D02*
X16167100Y-6908800D01*
X16167100Y-6807200D02*
X16065500Y-6908800D01*
X16167100Y-6858000D02*
G75*
G03*
X16167100Y-6858000I-50800J0D01*
G01*
X18313400Y-6807200D02*
X18415000Y-6908800D01*
X18415000Y-6807200D02*
X18313400Y-6908800D01*
X18415000Y-6858000D02*
G75*
G03*
X18415000Y-6858000I-50800J0D01*
G01*
X18453100Y-6553200D02*
X18554700Y-6654800D01*
X18554700Y-6553200D02*
X18453100Y-6654800D01*
X18554700Y-6604000D02*
G75*
G03*
X18554700Y-6604000I-50800J0D01*
G01*
X18592800Y-6807200D02*
X18694400Y-6908800D01*
X18694400Y-6807200D02*
X18592800Y-6908800D01*
X18694400Y-6858000D02*
G75*
G03*
X18694400Y-6858000I-50800J0D01*
G01*
X18732500Y-6553200D02*
X18834100Y-6654800D01*
X18834100Y-6553200D02*
X18732500Y-6654800D01*
X18834100Y-6604000D02*
G75*
G03*
X18834100Y-6604000I-50800J0D01*
G01*
X18859500Y-6807200D02*
X18961100Y-6908800D01*
X18961100Y-6807200D02*
X18859500Y-6908800D01*
X18961100Y-6858000D02*
G75*
G03*
X18961100Y-6858000I-50800J0D01*
G01*
X18999200Y-6553200D02*
X19100800Y-6654800D01*
X19100800Y-6553200D02*
X18999200Y-6654800D01*
X19100800Y-6604000D02*
G75*
G03*
X19100800Y-6604000I-50800J0D01*
G01*
X19138900Y-6807200D02*
X19240500Y-6908800D01*
X19240500Y-6807200D02*
X19138900Y-6908800D01*
X19240500Y-6858000D02*
G75*
G03*
X19240500Y-6858000I-50800J0D01*
G01*
X19278600Y-6553200D02*
X19380200Y-6654800D01*
X19380200Y-6553200D02*
X19278600Y-6654800D01*
X19380200Y-6604000D02*
G75*
G03*
X19380200Y-6604000I-50800J0D01*
G01*
X19418300Y-6807200D02*
X19519900Y-6908800D01*
X19519900Y-6807200D02*
X19418300Y-6908800D01*
X19519900Y-6858000D02*
G75*
G03*
X19519900Y-6858000I-50800J0D01*
G01*
X8017200Y-7648900D02*
X8137200Y-7768900D01*
X8137200Y-7648900D02*
X8017200Y-7768900D01*
X8077200Y-7648900D02*
X8077200Y-7768900D01*
X8017200Y-7708900D02*
X8137200Y-7708900D01*
X9287200Y-7648900D02*
X9407200Y-7768900D01*
X9407200Y-7648900D02*
X9287200Y-7768900D01*
X9347200Y-7648900D02*
X9347200Y-7768900D01*
X9287200Y-7708900D02*
X9407200Y-7708900D01*
X7467600Y-6718300D02*
X7620000Y-6870700D01*
X7620000Y-6718300D02*
X7467600Y-6870700D01*
X7597682Y-6848382D02*
X7597682Y-6740618D01*
X7489918Y-6740618D01*
X7489918Y-6848382D01*
X7597682Y-6848382D01*
X7467600Y-7226300D02*
X7620000Y-7378700D01*
X7620000Y-7226300D02*
X7467600Y-7378700D01*
X7597682Y-7356382D02*
X7597682Y-7248618D01*
X7489918Y-7248618D01*
X7489918Y-7356382D01*
X7597682Y-7356382D01*
X8073400Y-7057400D02*
X8233400Y-7217400D01*
X8233400Y-7057400D02*
X8073400Y-7217400D01*
X8153400Y-7217400D02*
X8233400Y-7137400D01*
X8153400Y-7057400D01*
X8073400Y-7137400D01*
X8153400Y-7217400D01*
X8581400Y-7057400D02*
X8741400Y-7217400D01*
X8741400Y-7057400D02*
X8581400Y-7217400D01*
X8661400Y-7217400D02*
X8741400Y-7137400D01*
X8661400Y-7057400D01*
X8581400Y-7137400D01*
X8661400Y-7217400D01*
X9089400Y-7057400D02*
X9249400Y-7217400D01*
X9249400Y-7057400D02*
X9089400Y-7217400D01*
X9169400Y-7217400D02*
X9249400Y-7137400D01*
X9169400Y-7057400D01*
X9089400Y-7137400D01*
X9169400Y-7217400D01*
X10947400Y-6451600D02*
X10947400Y-6756400D01*
X10795000Y-6604000D02*
X11099800Y-6604000D01*
X11099800Y-6604000D02*
G75*
G03*
X11099800Y-6604000I-152400J0D01*
G01*
X13487400Y-6451600D02*
X13487400Y-6756400D01*
X13335000Y-6604000D02*
X13639800Y-6604000D01*
X13639800Y-6604000D02*
G75*
G03*
X13639800Y-6604000I-152400J0D01*
G01*
X14300200Y-6451600D02*
X14300200Y-6756400D01*
X14147800Y-6604000D02*
X14452600Y-6604000D01*
X14452600Y-6604000D02*
G75*
G03*
X14452600Y-6604000I-152400J0D01*
G01*
X16840200Y-6451600D02*
X16840200Y-6756400D01*
X16687800Y-6604000D02*
X16992600Y-6604000D01*
X16992600Y-6604000D02*
G75*
G03*
X16992600Y-6604000I-152400J0D01*
G01*
X17653000Y-6451600D02*
X17653000Y-6756400D01*
X17500600Y-6604000D02*
X17805400Y-6604000D01*
X17805400Y-6604000D02*
G75*
G03*
X17805400Y-6604000I-152400J0D01*
G01*
X20193000Y-6451600D02*
X20193000Y-6756400D01*
X20040600Y-6604000D02*
X20345400Y-6604000D01*
X20345400Y-6604000D02*
G75*
G03*
X20345400Y-6604000I-152400J0D01*
G01*
D12*
X7379378Y-15216764D02*
X7379378Y-14916764D01*
X7450807Y-14916764D01*
X7493664Y-14931050D01*
X7522236Y-14959621D01*
X7536521Y-14988193D01*
X7550807Y-15045336D01*
X7550807Y-15088193D01*
X7536521Y-15145336D01*
X7522236Y-15173907D01*
X7493664Y-15202479D01*
X7450807Y-15216764D01*
X7379378Y-15216764D01*
X7679378Y-15216764D02*
X7679378Y-15016764D01*
X7679378Y-15073907D02*
X7693664Y-15045336D01*
X7707950Y-15031050D01*
X7736521Y-15016764D01*
X7765093Y-15016764D01*
X7865093Y-15216764D02*
X7865093Y-15016764D01*
X7865093Y-14916764D02*
X7850807Y-14931050D01*
X7865093Y-14945336D01*
X7879378Y-14931050D01*
X7865093Y-14916764D01*
X7865093Y-14945336D01*
X8050807Y-15216764D02*
X8022236Y-15202479D01*
X8007950Y-15173907D01*
X8007950Y-14916764D01*
X8207950Y-15216764D02*
X8179378Y-15202479D01*
X8165093Y-15173907D01*
X8165093Y-14916764D01*
X8550807Y-15216764D02*
X8550807Y-14916764D01*
X8650807Y-15131050D01*
X8750807Y-14916764D01*
X8750807Y-15216764D01*
X9022236Y-15216764D02*
X9022236Y-15059621D01*
X9007950Y-15031050D01*
X8979378Y-15016764D01*
X8922236Y-15016764D01*
X8893664Y-15031050D01*
X9022236Y-15202479D02*
X8993664Y-15216764D01*
X8922236Y-15216764D01*
X8893664Y-15202479D01*
X8879378Y-15173907D01*
X8879378Y-15145336D01*
X8893664Y-15116764D01*
X8922236Y-15102479D01*
X8993664Y-15102479D01*
X9022236Y-15088193D01*
X9165093Y-15016764D02*
X9165093Y-15316764D01*
X9165093Y-15031050D02*
X9193664Y-15016764D01*
X9250807Y-15016764D01*
X9279378Y-15031050D01*
X9293664Y-15045336D01*
X9307950Y-15073907D01*
X9307950Y-15159621D01*
X9293664Y-15188193D01*
X9279378Y-15202479D01*
X9250807Y-15216764D01*
X9193664Y-15216764D01*
X9165093Y-15202479D01*
X9436521Y-15188193D02*
X9450807Y-15202479D01*
X9436521Y-15216764D01*
X9422236Y-15202479D01*
X9436521Y-15188193D01*
X9436521Y-15216764D01*
X9436521Y-15031050D02*
X9450807Y-15045336D01*
X9436521Y-15059621D01*
X9422236Y-15045336D01*
X9436521Y-15031050D01*
X9436521Y-15059621D01*
X7052950Y-15691050D02*
X7092950Y-15731050D01*
X7092950Y-15691050D02*
X7052950Y-15731050D01*
X7436521Y-15546764D02*
X7465093Y-15546764D01*
X7493664Y-15561050D01*
X7507950Y-15575336D01*
X7522236Y-15603907D01*
X7536521Y-15661050D01*
X7536521Y-15732479D01*
X7522236Y-15789621D01*
X7507950Y-15818193D01*
X7493664Y-15832479D01*
X7465093Y-15846764D01*
X7436521Y-15846764D01*
X7407950Y-15832479D01*
X7393664Y-15818193D01*
X7379378Y-15789621D01*
X7365093Y-15732479D01*
X7365093Y-15661050D01*
X7379378Y-15603907D01*
X7393664Y-15575336D01*
X7407950Y-15561050D01*
X7436521Y-15546764D01*
X7665093Y-15818193D02*
X7679378Y-15832479D01*
X7665093Y-15846764D01*
X7650807Y-15832479D01*
X7665093Y-15818193D01*
X7665093Y-15846764D01*
X7936521Y-15646764D02*
X7936521Y-15846764D01*
X7865093Y-15532479D02*
X7793664Y-15746764D01*
X7979378Y-15746764D01*
X8150807Y-15546764D02*
X8179378Y-15546764D01*
X8207950Y-15561050D01*
X8222236Y-15575336D01*
X8236521Y-15603907D01*
X8250807Y-15661050D01*
X8250807Y-15732479D01*
X8236521Y-15789621D01*
X8222236Y-15818193D01*
X8207950Y-15832479D01*
X8179378Y-15846764D01*
X8150807Y-15846764D01*
X8122236Y-15832479D01*
X8107950Y-15818193D01*
X8093664Y-15789621D01*
X8079378Y-15732479D01*
X8079378Y-15661050D01*
X8093664Y-15603907D01*
X8107950Y-15575336D01*
X8122236Y-15561050D01*
X8150807Y-15546764D01*
X8436521Y-15546764D02*
X8465093Y-15546764D01*
X8493664Y-15561050D01*
X8507950Y-15575336D01*
X8522236Y-15603907D01*
X8536521Y-15661050D01*
X8536521Y-15732479D01*
X8522236Y-15789621D01*
X8507950Y-15818193D01*
X8493664Y-15832479D01*
X8465093Y-15846764D01*
X8436521Y-15846764D01*
X8407950Y-15832479D01*
X8393664Y-15818193D01*
X8379378Y-15789621D01*
X8365093Y-15732479D01*
X8365093Y-15661050D01*
X8379378Y-15603907D01*
X8393664Y-15575336D01*
X8407950Y-15561050D01*
X8436521Y-15546764D01*
X8665093Y-15846764D02*
X8665093Y-15646764D01*
X8665093Y-15675336D02*
X8679378Y-15661050D01*
X8707950Y-15646764D01*
X8750807Y-15646764D01*
X8779378Y-15661050D01*
X8793664Y-15689621D01*
X8793664Y-15846764D01*
X8793664Y-15689621D02*
X8807950Y-15661050D01*
X8836521Y-15646764D01*
X8879378Y-15646764D01*
X8907950Y-15661050D01*
X8922236Y-15689621D01*
X8922236Y-15846764D01*
X9065093Y-15846764D02*
X9065093Y-15646764D01*
X9065093Y-15675336D02*
X9079378Y-15661050D01*
X9107950Y-15646764D01*
X9150807Y-15646764D01*
X9179378Y-15661050D01*
X9193664Y-15689621D01*
X9193664Y-15846764D01*
X9193664Y-15689621D02*
X9207950Y-15661050D01*
X9236521Y-15646764D01*
X9279378Y-15646764D01*
X9307950Y-15661050D01*
X9322236Y-15689621D01*
X9322236Y-15846764D01*
X9907950Y-15532479D02*
X9650807Y-15918193D01*
X10293664Y-15546764D02*
X10322236Y-15546764D01*
X10350807Y-15561050D01*
X10365093Y-15575336D01*
X10379378Y-15603907D01*
X10393664Y-15661050D01*
X10393664Y-15732479D01*
X10379378Y-15789621D01*
X10365093Y-15818193D01*
X10350807Y-15832479D01*
X10322236Y-15846764D01*
X10293664Y-15846764D01*
X10265093Y-15832479D01*
X10250807Y-15818193D01*
X10236521Y-15789621D01*
X10222236Y-15732479D01*
X10222236Y-15661050D01*
X10236521Y-15603907D01*
X10250807Y-15575336D01*
X10265093Y-15561050D01*
X10293664Y-15546764D01*
X10522236Y-15818193D02*
X10536521Y-15832479D01*
X10522236Y-15846764D01*
X10507950Y-15832479D01*
X10522236Y-15818193D01*
X10522236Y-15846764D01*
X10722236Y-15546764D02*
X10750807Y-15546764D01*
X10779378Y-15561050D01*
X10793664Y-15575336D01*
X10807950Y-15603907D01*
X10822236Y-15661050D01*
X10822236Y-15732479D01*
X10807950Y-15789621D01*
X10793664Y-15818193D01*
X10779378Y-15832479D01*
X10750807Y-15846764D01*
X10722236Y-15846764D01*
X10693664Y-15832479D01*
X10679378Y-15818193D01*
X10665093Y-15789621D01*
X10650807Y-15732479D01*
X10650807Y-15661050D01*
X10665093Y-15603907D01*
X10679378Y-15575336D01*
X10693664Y-15561050D01*
X10722236Y-15546764D01*
X11107950Y-15846764D02*
X10936521Y-15846764D01*
X11022236Y-15846764D02*
X11022236Y-15546764D01*
X10993664Y-15589621D01*
X10965093Y-15618193D01*
X10936521Y-15632479D01*
X11379378Y-15546764D02*
X11236521Y-15546764D01*
X11222236Y-15689621D01*
X11236521Y-15675336D01*
X11265093Y-15661050D01*
X11336521Y-15661050D01*
X11365093Y-15675336D01*
X11379378Y-15689621D01*
X11393664Y-15718193D01*
X11393664Y-15789621D01*
X11379378Y-15818193D01*
X11365093Y-15832479D01*
X11336521Y-15846764D01*
X11265093Y-15846764D01*
X11236521Y-15832479D01*
X11222236Y-15818193D01*
X11493664Y-15546764D02*
X11693664Y-15546764D01*
X11565093Y-15846764D01*
X11793664Y-15546764D02*
X11793664Y-15603907D01*
X11907950Y-15546764D02*
X11907950Y-15603907D01*
X12350807Y-15961050D02*
X12336521Y-15946764D01*
X12307950Y-15903907D01*
X12293664Y-15875336D01*
X12279378Y-15832479D01*
X12265093Y-15761050D01*
X12265093Y-15703907D01*
X12279378Y-15632479D01*
X12293664Y-15589621D01*
X12307950Y-15561050D01*
X12336521Y-15518193D01*
X12350807Y-15503907D01*
X12450807Y-15575336D02*
X12465093Y-15561050D01*
X12493664Y-15546764D01*
X12565093Y-15546764D01*
X12593664Y-15561050D01*
X12607950Y-15575336D01*
X12622236Y-15603907D01*
X12622236Y-15632479D01*
X12607950Y-15675336D01*
X12436521Y-15846764D01*
X12622236Y-15846764D01*
X12893664Y-15546764D02*
X12750807Y-15546764D01*
X12736521Y-15689621D01*
X12750807Y-15675336D01*
X12779378Y-15661050D01*
X12850807Y-15661050D01*
X12879378Y-15675336D01*
X12893664Y-15689621D01*
X12907950Y-15718193D01*
X12907950Y-15789621D01*
X12893664Y-15818193D01*
X12879378Y-15832479D01*
X12850807Y-15846764D01*
X12779378Y-15846764D01*
X12750807Y-15832479D01*
X12736521Y-15818193D01*
X13007950Y-15546764D02*
X13193664Y-15546764D01*
X13093664Y-15661050D01*
X13136521Y-15661050D01*
X13165093Y-15675336D01*
X13179378Y-15689621D01*
X13193664Y-15718193D01*
X13193664Y-15789621D01*
X13179378Y-15818193D01*
X13165093Y-15832479D01*
X13136521Y-15846764D01*
X13050807Y-15846764D01*
X13022236Y-15832479D01*
X13007950Y-15818193D01*
X13550807Y-15846764D02*
X13550807Y-15546764D01*
X13679378Y-15846764D02*
X13679378Y-15689621D01*
X13665093Y-15661050D01*
X13636521Y-15646764D01*
X13593664Y-15646764D01*
X13565093Y-15661050D01*
X13550807Y-15675336D01*
X13865093Y-15846764D02*
X13836521Y-15832479D01*
X13822236Y-15818193D01*
X13807950Y-15789621D01*
X13807950Y-15703907D01*
X13822236Y-15675336D01*
X13836521Y-15661050D01*
X13865093Y-15646764D01*
X13907950Y-15646764D01*
X13936521Y-15661050D01*
X13950807Y-15675336D01*
X13965093Y-15703907D01*
X13965093Y-15789621D01*
X13950807Y-15818193D01*
X13936521Y-15832479D01*
X13907950Y-15846764D01*
X13865093Y-15846764D01*
X14136521Y-15846764D02*
X14107950Y-15832479D01*
X14093664Y-15803907D01*
X14093664Y-15546764D01*
X14365093Y-15832479D02*
X14336521Y-15846764D01*
X14279378Y-15846764D01*
X14250807Y-15832479D01*
X14236521Y-15803907D01*
X14236521Y-15689621D01*
X14250807Y-15661050D01*
X14279378Y-15646764D01*
X14336521Y-15646764D01*
X14365093Y-15661050D01*
X14379378Y-15689621D01*
X14379378Y-15718193D01*
X14236521Y-15746764D01*
X14493664Y-15832479D02*
X14522236Y-15846764D01*
X14579378Y-15846764D01*
X14607950Y-15832479D01*
X14622236Y-15803907D01*
X14622236Y-15789621D01*
X14607950Y-15761050D01*
X14579378Y-15746764D01*
X14536521Y-15746764D01*
X14507950Y-15732479D01*
X14493664Y-15703907D01*
X14493664Y-15689621D01*
X14507950Y-15661050D01*
X14536521Y-15646764D01*
X14579378Y-15646764D01*
X14607950Y-15661050D01*
X14722236Y-15961050D02*
X14736521Y-15946764D01*
X14765093Y-15903907D01*
X14779378Y-15875336D01*
X14793664Y-15832479D01*
X14807950Y-15761050D01*
X14807950Y-15703907D01*
X14793664Y-15632479D01*
X14779378Y-15589621D01*
X14765093Y-15561050D01*
X14736521Y-15518193D01*
X14722236Y-15503907D01*
X7092950Y-16107050D02*
G75*
G03*
X7092950Y-16107050I-30000J0D01*
G01*
X7436521Y-15942764D02*
X7465093Y-15942764D01*
X7493664Y-15957050D01*
X7507950Y-15971336D01*
X7522236Y-15999907D01*
X7536521Y-16057050D01*
X7536521Y-16128479D01*
X7522236Y-16185621D01*
X7507950Y-16214193D01*
X7493664Y-16228479D01*
X7465093Y-16242764D01*
X7436521Y-16242764D01*
X7407950Y-16228479D01*
X7393664Y-16214193D01*
X7379378Y-16185621D01*
X7365093Y-16128479D01*
X7365093Y-16057050D01*
X7379378Y-15999907D01*
X7393664Y-15971336D01*
X7407950Y-15957050D01*
X7436521Y-15942764D01*
X7665093Y-16214193D02*
X7679378Y-16228479D01*
X7665093Y-16242764D01*
X7650807Y-16228479D01*
X7665093Y-16214193D01*
X7665093Y-16242764D01*
X7936521Y-15942764D02*
X7879378Y-15942764D01*
X7850807Y-15957050D01*
X7836521Y-15971336D01*
X7807950Y-16014193D01*
X7793664Y-16071336D01*
X7793664Y-16185621D01*
X7807950Y-16214193D01*
X7822236Y-16228479D01*
X7850807Y-16242764D01*
X7907950Y-16242764D01*
X7936521Y-16228479D01*
X7950807Y-16214193D01*
X7965093Y-16185621D01*
X7965093Y-16114193D01*
X7950807Y-16085621D01*
X7936521Y-16071336D01*
X7907950Y-16057050D01*
X7850807Y-16057050D01*
X7822236Y-16071336D01*
X7807950Y-16085621D01*
X7793664Y-16114193D01*
X8150807Y-15942764D02*
X8179378Y-15942764D01*
X8207950Y-15957050D01*
X8222236Y-15971336D01*
X8236521Y-15999907D01*
X8250807Y-16057050D01*
X8250807Y-16128479D01*
X8236521Y-16185621D01*
X8222236Y-16214193D01*
X8207950Y-16228479D01*
X8179378Y-16242764D01*
X8150807Y-16242764D01*
X8122236Y-16228479D01*
X8107950Y-16214193D01*
X8093664Y-16185621D01*
X8079378Y-16128479D01*
X8079378Y-16057050D01*
X8093664Y-15999907D01*
X8107950Y-15971336D01*
X8122236Y-15957050D01*
X8150807Y-15942764D01*
X8436521Y-15942764D02*
X8465093Y-15942764D01*
X8493664Y-15957050D01*
X8507950Y-15971336D01*
X8522236Y-15999907D01*
X8536521Y-16057050D01*
X8536521Y-16128479D01*
X8522236Y-16185621D01*
X8507950Y-16214193D01*
X8493664Y-16228479D01*
X8465093Y-16242764D01*
X8436521Y-16242764D01*
X8407950Y-16228479D01*
X8393664Y-16214193D01*
X8379378Y-16185621D01*
X8365093Y-16128479D01*
X8365093Y-16057050D01*
X8379378Y-15999907D01*
X8393664Y-15971336D01*
X8407950Y-15957050D01*
X8436521Y-15942764D01*
X8665093Y-16242764D02*
X8665093Y-16042764D01*
X8665093Y-16071336D02*
X8679378Y-16057050D01*
X8707950Y-16042764D01*
X8750807Y-16042764D01*
X8779378Y-16057050D01*
X8793664Y-16085621D01*
X8793664Y-16242764D01*
X8793664Y-16085621D02*
X8807950Y-16057050D01*
X8836521Y-16042764D01*
X8879378Y-16042764D01*
X8907950Y-16057050D01*
X8922236Y-16085621D01*
X8922236Y-16242764D01*
X9065093Y-16242764D02*
X9065093Y-16042764D01*
X9065093Y-16071336D02*
X9079378Y-16057050D01*
X9107950Y-16042764D01*
X9150807Y-16042764D01*
X9179378Y-16057050D01*
X9193664Y-16085621D01*
X9193664Y-16242764D01*
X9193664Y-16085621D02*
X9207950Y-16057050D01*
X9236521Y-16042764D01*
X9279378Y-16042764D01*
X9307950Y-16057050D01*
X9322236Y-16085621D01*
X9322236Y-16242764D01*
X9907950Y-15928479D02*
X9650807Y-16314193D01*
X10293664Y-15942764D02*
X10322236Y-15942764D01*
X10350807Y-15957050D01*
X10365093Y-15971336D01*
X10379378Y-15999907D01*
X10393664Y-16057050D01*
X10393664Y-16128479D01*
X10379378Y-16185621D01*
X10365093Y-16214193D01*
X10350807Y-16228479D01*
X10322236Y-16242764D01*
X10293664Y-16242764D01*
X10265093Y-16228479D01*
X10250807Y-16214193D01*
X10236521Y-16185621D01*
X10222236Y-16128479D01*
X10222236Y-16057050D01*
X10236521Y-15999907D01*
X10250807Y-15971336D01*
X10265093Y-15957050D01*
X10293664Y-15942764D01*
X10522236Y-16214193D02*
X10536521Y-16228479D01*
X10522236Y-16242764D01*
X10507950Y-16228479D01*
X10522236Y-16214193D01*
X10522236Y-16242764D01*
X10722236Y-15942764D02*
X10750807Y-15942764D01*
X10779378Y-15957050D01*
X10793664Y-15971336D01*
X10807950Y-15999907D01*
X10822236Y-16057050D01*
X10822236Y-16128479D01*
X10807950Y-16185621D01*
X10793664Y-16214193D01*
X10779378Y-16228479D01*
X10750807Y-16242764D01*
X10722236Y-16242764D01*
X10693664Y-16228479D01*
X10679378Y-16214193D01*
X10665093Y-16185621D01*
X10650807Y-16128479D01*
X10650807Y-16057050D01*
X10665093Y-15999907D01*
X10679378Y-15971336D01*
X10693664Y-15957050D01*
X10722236Y-15942764D01*
X10936521Y-15971336D02*
X10950807Y-15957050D01*
X10979378Y-15942764D01*
X11050807Y-15942764D01*
X11079378Y-15957050D01*
X11093664Y-15971336D01*
X11107950Y-15999907D01*
X11107950Y-16028479D01*
X11093664Y-16071336D01*
X10922236Y-16242764D01*
X11107950Y-16242764D01*
X11207950Y-15942764D02*
X11393664Y-15942764D01*
X11293664Y-16057050D01*
X11336521Y-16057050D01*
X11365093Y-16071336D01*
X11379378Y-16085621D01*
X11393664Y-16114193D01*
X11393664Y-16185621D01*
X11379378Y-16214193D01*
X11365093Y-16228479D01*
X11336521Y-16242764D01*
X11250807Y-16242764D01*
X11222236Y-16228479D01*
X11207950Y-16214193D01*
X11650807Y-15942764D02*
X11593664Y-15942764D01*
X11565093Y-15957050D01*
X11550807Y-15971336D01*
X11522236Y-16014193D01*
X11507950Y-16071336D01*
X11507950Y-16185621D01*
X11522236Y-16214193D01*
X11536521Y-16228479D01*
X11565093Y-16242764D01*
X11622236Y-16242764D01*
X11650807Y-16228479D01*
X11665093Y-16214193D01*
X11679378Y-16185621D01*
X11679378Y-16114193D01*
X11665093Y-16085621D01*
X11650807Y-16071336D01*
X11622236Y-16057050D01*
X11565093Y-16057050D01*
X11536521Y-16071336D01*
X11522236Y-16085621D01*
X11507950Y-16114193D01*
X11793664Y-15942764D02*
X11793664Y-15999907D01*
X11907950Y-15942764D02*
X11907950Y-15999907D01*
X12350807Y-16357050D02*
X12336521Y-16342764D01*
X12307950Y-16299907D01*
X12293664Y-16271336D01*
X12279378Y-16228479D01*
X12265093Y-16157050D01*
X12265093Y-16099907D01*
X12279378Y-16028479D01*
X12293664Y-15985621D01*
X12307950Y-15957050D01*
X12336521Y-15914193D01*
X12350807Y-15899907D01*
X12436521Y-15942764D02*
X12622236Y-15942764D01*
X12522236Y-16057050D01*
X12565093Y-16057050D01*
X12593664Y-16071336D01*
X12607950Y-16085621D01*
X12622236Y-16114193D01*
X12622236Y-16185621D01*
X12607950Y-16214193D01*
X12593664Y-16228479D01*
X12565093Y-16242764D01*
X12479378Y-16242764D01*
X12450807Y-16228479D01*
X12436521Y-16214193D01*
X12979378Y-16242764D02*
X12979378Y-15942764D01*
X13107950Y-16242764D02*
X13107950Y-16085621D01*
X13093664Y-16057050D01*
X13065093Y-16042764D01*
X13022236Y-16042764D01*
X12993664Y-16057050D01*
X12979378Y-16071336D01*
X13293664Y-16242764D02*
X13265093Y-16228479D01*
X13250807Y-16214193D01*
X13236521Y-16185621D01*
X13236521Y-16099907D01*
X13250807Y-16071336D01*
X13265093Y-16057050D01*
X13293664Y-16042764D01*
X13336521Y-16042764D01*
X13365093Y-16057050D01*
X13379378Y-16071336D01*
X13393664Y-16099907D01*
X13393664Y-16185621D01*
X13379378Y-16214193D01*
X13365093Y-16228479D01*
X13336521Y-16242764D01*
X13293664Y-16242764D01*
X13565093Y-16242764D02*
X13536521Y-16228479D01*
X13522236Y-16199907D01*
X13522236Y-15942764D01*
X13793664Y-16228479D02*
X13765093Y-16242764D01*
X13707950Y-16242764D01*
X13679378Y-16228479D01*
X13665093Y-16199907D01*
X13665093Y-16085621D01*
X13679378Y-16057050D01*
X13707950Y-16042764D01*
X13765093Y-16042764D01*
X13793664Y-16057050D01*
X13807950Y-16085621D01*
X13807950Y-16114193D01*
X13665093Y-16142764D01*
X13922236Y-16228479D02*
X13950807Y-16242764D01*
X14007950Y-16242764D01*
X14036521Y-16228479D01*
X14050807Y-16199907D01*
X14050807Y-16185621D01*
X14036521Y-16157050D01*
X14007950Y-16142764D01*
X13965093Y-16142764D01*
X13936521Y-16128479D01*
X13922236Y-16099907D01*
X13922236Y-16085621D01*
X13936521Y-16057050D01*
X13965093Y-16042764D01*
X14007950Y-16042764D01*
X14036521Y-16057050D01*
X14150807Y-16357050D02*
X14165093Y-16342764D01*
X14193664Y-16299907D01*
X14207950Y-16271336D01*
X14222236Y-16228479D01*
X14236521Y-16157050D01*
X14236521Y-16099907D01*
X14222236Y-16028479D01*
X14207950Y-15985621D01*
X14193664Y-15957050D01*
X14165093Y-15914193D01*
X14150807Y-15899907D01*
X7052950Y-16463050D02*
X7052950Y-16543050D01*
X7012950Y-16503050D02*
X7092950Y-16503050D01*
X7436521Y-16338764D02*
X7465093Y-16338764D01*
X7493664Y-16353050D01*
X7507950Y-16367336D01*
X7522236Y-16395907D01*
X7536521Y-16453050D01*
X7536521Y-16524479D01*
X7522236Y-16581621D01*
X7507950Y-16610193D01*
X7493664Y-16624479D01*
X7465093Y-16638764D01*
X7436521Y-16638764D01*
X7407950Y-16624479D01*
X7393664Y-16610193D01*
X7379378Y-16581621D01*
X7365093Y-16524479D01*
X7365093Y-16453050D01*
X7379378Y-16395907D01*
X7393664Y-16367336D01*
X7407950Y-16353050D01*
X7436521Y-16338764D01*
X7665093Y-16610193D02*
X7679378Y-16624479D01*
X7665093Y-16638764D01*
X7650807Y-16624479D01*
X7665093Y-16610193D01*
X7665093Y-16638764D01*
X7850807Y-16467336D02*
X7822236Y-16453050D01*
X7807950Y-16438764D01*
X7793664Y-16410193D01*
X7793664Y-16395907D01*
X7807950Y-16367336D01*
X7822236Y-16353050D01*
X7850807Y-16338764D01*
X7907950Y-16338764D01*
X7936521Y-16353050D01*
X7950807Y-16367336D01*
X7965093Y-16395907D01*
X7965093Y-16410193D01*
X7950807Y-16438764D01*
X7936521Y-16453050D01*
X7907950Y-16467336D01*
X7850807Y-16467336D01*
X7822236Y-16481621D01*
X7807950Y-16495907D01*
X7793664Y-16524479D01*
X7793664Y-16581621D01*
X7807950Y-16610193D01*
X7822236Y-16624479D01*
X7850807Y-16638764D01*
X7907950Y-16638764D01*
X7936521Y-16624479D01*
X7950807Y-16610193D01*
X7965093Y-16581621D01*
X7965093Y-16524479D01*
X7950807Y-16495907D01*
X7936521Y-16481621D01*
X7907950Y-16467336D01*
X8150807Y-16338764D02*
X8179378Y-16338764D01*
X8207950Y-16353050D01*
X8222236Y-16367336D01*
X8236521Y-16395907D01*
X8250807Y-16453050D01*
X8250807Y-16524479D01*
X8236521Y-16581621D01*
X8222236Y-16610193D01*
X8207950Y-16624479D01*
X8179378Y-16638764D01*
X8150807Y-16638764D01*
X8122236Y-16624479D01*
X8107950Y-16610193D01*
X8093664Y-16581621D01*
X8079378Y-16524479D01*
X8079378Y-16453050D01*
X8093664Y-16395907D01*
X8107950Y-16367336D01*
X8122236Y-16353050D01*
X8150807Y-16338764D01*
X8436521Y-16338764D02*
X8465093Y-16338764D01*
X8493664Y-16353050D01*
X8507950Y-16367336D01*
X8522236Y-16395907D01*
X8536521Y-16453050D01*
X8536521Y-16524479D01*
X8522236Y-16581621D01*
X8507950Y-16610193D01*
X8493664Y-16624479D01*
X8465093Y-16638764D01*
X8436521Y-16638764D01*
X8407950Y-16624479D01*
X8393664Y-16610193D01*
X8379378Y-16581621D01*
X8365093Y-16524479D01*
X8365093Y-16453050D01*
X8379378Y-16395907D01*
X8393664Y-16367336D01*
X8407950Y-16353050D01*
X8436521Y-16338764D01*
X8665093Y-16638764D02*
X8665093Y-16438764D01*
X8665093Y-16467336D02*
X8679378Y-16453050D01*
X8707950Y-16438764D01*
X8750807Y-16438764D01*
X8779378Y-16453050D01*
X8793664Y-16481621D01*
X8793664Y-16638764D01*
X8793664Y-16481621D02*
X8807950Y-16453050D01*
X8836521Y-16438764D01*
X8879378Y-16438764D01*
X8907950Y-16453050D01*
X8922236Y-16481621D01*
X8922236Y-16638764D01*
X9065093Y-16638764D02*
X9065093Y-16438764D01*
X9065093Y-16467336D02*
X9079378Y-16453050D01*
X9107950Y-16438764D01*
X9150807Y-16438764D01*
X9179378Y-16453050D01*
X9193664Y-16481621D01*
X9193664Y-16638764D01*
X9193664Y-16481621D02*
X9207950Y-16453050D01*
X9236521Y-16438764D01*
X9279378Y-16438764D01*
X9307950Y-16453050D01*
X9322236Y-16481621D01*
X9322236Y-16638764D01*
X9907950Y-16324479D02*
X9650807Y-16710193D01*
X10293664Y-16338764D02*
X10322236Y-16338764D01*
X10350807Y-16353050D01*
X10365093Y-16367336D01*
X10379378Y-16395907D01*
X10393664Y-16453050D01*
X10393664Y-16524479D01*
X10379378Y-16581621D01*
X10365093Y-16610193D01*
X10350807Y-16624479D01*
X10322236Y-16638764D01*
X10293664Y-16638764D01*
X10265093Y-16624479D01*
X10250807Y-16610193D01*
X10236521Y-16581621D01*
X10222236Y-16524479D01*
X10222236Y-16453050D01*
X10236521Y-16395907D01*
X10250807Y-16367336D01*
X10265093Y-16353050D01*
X10293664Y-16338764D01*
X10522236Y-16610193D02*
X10536521Y-16624479D01*
X10522236Y-16638764D01*
X10507950Y-16624479D01*
X10522236Y-16610193D01*
X10522236Y-16638764D01*
X10722236Y-16338764D02*
X10750807Y-16338764D01*
X10779378Y-16353050D01*
X10793664Y-16367336D01*
X10807950Y-16395907D01*
X10822236Y-16453050D01*
X10822236Y-16524479D01*
X10807950Y-16581621D01*
X10793664Y-16610193D01*
X10779378Y-16624479D01*
X10750807Y-16638764D01*
X10722236Y-16638764D01*
X10693664Y-16624479D01*
X10679378Y-16610193D01*
X10665093Y-16581621D01*
X10650807Y-16524479D01*
X10650807Y-16453050D01*
X10665093Y-16395907D01*
X10679378Y-16367336D01*
X10693664Y-16353050D01*
X10722236Y-16338764D01*
X10922236Y-16338764D02*
X11107950Y-16338764D01*
X11007950Y-16453050D01*
X11050807Y-16453050D01*
X11079378Y-16467336D01*
X11093664Y-16481621D01*
X11107950Y-16510193D01*
X11107950Y-16581621D01*
X11093664Y-16610193D01*
X11079378Y-16624479D01*
X11050807Y-16638764D01*
X10965093Y-16638764D01*
X10936521Y-16624479D01*
X10922236Y-16610193D01*
X11393664Y-16638764D02*
X11222236Y-16638764D01*
X11307950Y-16638764D02*
X11307950Y-16338764D01*
X11279378Y-16381621D01*
X11250807Y-16410193D01*
X11222236Y-16424479D01*
X11665093Y-16338764D02*
X11522236Y-16338764D01*
X11507950Y-16481621D01*
X11522236Y-16467336D01*
X11550807Y-16453050D01*
X11622236Y-16453050D01*
X11650807Y-16467336D01*
X11665093Y-16481621D01*
X11679378Y-16510193D01*
X11679378Y-16581621D01*
X11665093Y-16610193D01*
X11650807Y-16624479D01*
X11622236Y-16638764D01*
X11550807Y-16638764D01*
X11522236Y-16624479D01*
X11507950Y-16610193D01*
X11793664Y-16338764D02*
X11793664Y-16395907D01*
X11907950Y-16338764D02*
X11907950Y-16395907D01*
X12350807Y-16753050D02*
X12336521Y-16738764D01*
X12307950Y-16695907D01*
X12293664Y-16667336D01*
X12279378Y-16624479D01*
X12265093Y-16553050D01*
X12265093Y-16495907D01*
X12279378Y-16424479D01*
X12293664Y-16381621D01*
X12307950Y-16353050D01*
X12336521Y-16310193D01*
X12350807Y-16295907D01*
X12507950Y-16467336D02*
X12479378Y-16453050D01*
X12465093Y-16438764D01*
X12450807Y-16410193D01*
X12450807Y-16395907D01*
X12465093Y-16367336D01*
X12479378Y-16353050D01*
X12507950Y-16338764D01*
X12565093Y-16338764D01*
X12593664Y-16353050D01*
X12607950Y-16367336D01*
X12622236Y-16395907D01*
X12622236Y-16410193D01*
X12607950Y-16438764D01*
X12593664Y-16453050D01*
X12565093Y-16467336D01*
X12507950Y-16467336D01*
X12479378Y-16481621D01*
X12465093Y-16495907D01*
X12450807Y-16524479D01*
X12450807Y-16581621D01*
X12465093Y-16610193D01*
X12479378Y-16624479D01*
X12507950Y-16638764D01*
X12565093Y-16638764D01*
X12593664Y-16624479D01*
X12607950Y-16610193D01*
X12622236Y-16581621D01*
X12622236Y-16524479D01*
X12607950Y-16495907D01*
X12593664Y-16481621D01*
X12565093Y-16467336D01*
X12979378Y-16638764D02*
X12979378Y-16338764D01*
X13107950Y-16638764D02*
X13107950Y-16481621D01*
X13093664Y-16453050D01*
X13065093Y-16438764D01*
X13022236Y-16438764D01*
X12993664Y-16453050D01*
X12979378Y-16467336D01*
X13293664Y-16638764D02*
X13265093Y-16624479D01*
X13250807Y-16610193D01*
X13236521Y-16581621D01*
X13236521Y-16495907D01*
X13250807Y-16467336D01*
X13265093Y-16453050D01*
X13293664Y-16438764D01*
X13336521Y-16438764D01*
X13365093Y-16453050D01*
X13379378Y-16467336D01*
X13393664Y-16495907D01*
X13393664Y-16581621D01*
X13379378Y-16610193D01*
X13365093Y-16624479D01*
X13336521Y-16638764D01*
X13293664Y-16638764D01*
X13565093Y-16638764D02*
X13536521Y-16624479D01*
X13522236Y-16595907D01*
X13522236Y-16338764D01*
X13793664Y-16624479D02*
X13765093Y-16638764D01*
X13707950Y-16638764D01*
X13679378Y-16624479D01*
X13665093Y-16595907D01*
X13665093Y-16481621D01*
X13679378Y-16453050D01*
X13707950Y-16438764D01*
X13765093Y-16438764D01*
X13793664Y-16453050D01*
X13807950Y-16481621D01*
X13807950Y-16510193D01*
X13665093Y-16538764D01*
X13922236Y-16624479D02*
X13950807Y-16638764D01*
X14007950Y-16638764D01*
X14036521Y-16624479D01*
X14050807Y-16595907D01*
X14050807Y-16581621D01*
X14036521Y-16553050D01*
X14007950Y-16538764D01*
X13965093Y-16538764D01*
X13936521Y-16524479D01*
X13922236Y-16495907D01*
X13922236Y-16481621D01*
X13936521Y-16453050D01*
X13965093Y-16438764D01*
X14007950Y-16438764D01*
X14036521Y-16453050D01*
X14150807Y-16753050D02*
X14165093Y-16738764D01*
X14193664Y-16695907D01*
X14207950Y-16667336D01*
X14222236Y-16624479D01*
X14236521Y-16553050D01*
X14236521Y-16495907D01*
X14222236Y-16424479D01*
X14207950Y-16381621D01*
X14193664Y-16353050D01*
X14165093Y-16310193D01*
X14150807Y-16295907D01*
X7081047Y-16927787D02*
X7081047Y-16870313D01*
X7023573Y-16870313D01*
X7023573Y-16927787D01*
X7081047Y-16927787D01*
X7436521Y-16734764D02*
X7465093Y-16734764D01*
X7493664Y-16749050D01*
X7507950Y-16763336D01*
X7522236Y-16791907D01*
X7536521Y-16849050D01*
X7536521Y-16920479D01*
X7522236Y-16977622D01*
X7507950Y-17006193D01*
X7493664Y-17020479D01*
X7465093Y-17034764D01*
X7436521Y-17034764D01*
X7407950Y-17020479D01*
X7393664Y-17006193D01*
X7379378Y-16977622D01*
X7365093Y-16920479D01*
X7365093Y-16849050D01*
X7379378Y-16791907D01*
X7393664Y-16763336D01*
X7407950Y-16749050D01*
X7436521Y-16734764D01*
X7665093Y-17006193D02*
X7679378Y-17020479D01*
X7665093Y-17034764D01*
X7650807Y-17020479D01*
X7665093Y-17006193D01*
X7665093Y-17034764D01*
X7850807Y-16863336D02*
X7822236Y-16849050D01*
X7807950Y-16834764D01*
X7793664Y-16806193D01*
X7793664Y-16791907D01*
X7807950Y-16763336D01*
X7822236Y-16749050D01*
X7850807Y-16734764D01*
X7907950Y-16734764D01*
X7936521Y-16749050D01*
X7950807Y-16763336D01*
X7965093Y-16791907D01*
X7965093Y-16806193D01*
X7950807Y-16834764D01*
X7936521Y-16849050D01*
X7907950Y-16863336D01*
X7850807Y-16863336D01*
X7822236Y-16877622D01*
X7807950Y-16891907D01*
X7793664Y-16920479D01*
X7793664Y-16977622D01*
X7807950Y-17006193D01*
X7822236Y-17020479D01*
X7850807Y-17034764D01*
X7907950Y-17034764D01*
X7936521Y-17020479D01*
X7950807Y-17006193D01*
X7965093Y-16977622D01*
X7965093Y-16920479D01*
X7950807Y-16891907D01*
X7936521Y-16877622D01*
X7907950Y-16863336D01*
X8250807Y-17034764D02*
X8079378Y-17034764D01*
X8165093Y-17034764D02*
X8165093Y-16734764D01*
X8136521Y-16777622D01*
X8107950Y-16806193D01*
X8079378Y-16820479D01*
X8350807Y-16734764D02*
X8536521Y-16734764D01*
X8436521Y-16849050D01*
X8479378Y-16849050D01*
X8507950Y-16863336D01*
X8522236Y-16877622D01*
X8536521Y-16906193D01*
X8536521Y-16977622D01*
X8522236Y-17006193D01*
X8507950Y-17020479D01*
X8479378Y-17034764D01*
X8393664Y-17034764D01*
X8365093Y-17020479D01*
X8350807Y-17006193D01*
X8665093Y-17034764D02*
X8665093Y-16834764D01*
X8665093Y-16863336D02*
X8679378Y-16849050D01*
X8707950Y-16834764D01*
X8750807Y-16834764D01*
X8779378Y-16849050D01*
X8793664Y-16877622D01*
X8793664Y-17034764D01*
X8793664Y-16877622D02*
X8807950Y-16849050D01*
X8836521Y-16834764D01*
X8879378Y-16834764D01*
X8907950Y-16849050D01*
X8922236Y-16877622D01*
X8922236Y-17034764D01*
X9065093Y-17034764D02*
X9065093Y-16834764D01*
X9065093Y-16863336D02*
X9079378Y-16849050D01*
X9107950Y-16834764D01*
X9150807Y-16834764D01*
X9179378Y-16849050D01*
X9193664Y-16877622D01*
X9193664Y-17034764D01*
X9193664Y-16877622D02*
X9207950Y-16849050D01*
X9236521Y-16834764D01*
X9279378Y-16834764D01*
X9307950Y-16849050D01*
X9322236Y-16877622D01*
X9322236Y-17034764D01*
X9907950Y-16720479D02*
X9650807Y-17106193D01*
X10293664Y-16734764D02*
X10322236Y-16734764D01*
X10350807Y-16749050D01*
X10365093Y-16763336D01*
X10379378Y-16791907D01*
X10393664Y-16849050D01*
X10393664Y-16920479D01*
X10379378Y-16977622D01*
X10365093Y-17006193D01*
X10350807Y-17020479D01*
X10322236Y-17034764D01*
X10293664Y-17034764D01*
X10265093Y-17020479D01*
X10250807Y-17006193D01*
X10236521Y-16977622D01*
X10222236Y-16920479D01*
X10222236Y-16849050D01*
X10236521Y-16791907D01*
X10250807Y-16763336D01*
X10265093Y-16749050D01*
X10293664Y-16734764D01*
X10522236Y-17006193D02*
X10536521Y-17020479D01*
X10522236Y-17034764D01*
X10507950Y-17020479D01*
X10522236Y-17006193D01*
X10522236Y-17034764D01*
X10722236Y-16734764D02*
X10750807Y-16734764D01*
X10779378Y-16749050D01*
X10793664Y-16763336D01*
X10807950Y-16791907D01*
X10822236Y-16849050D01*
X10822236Y-16920479D01*
X10807950Y-16977622D01*
X10793664Y-17006193D01*
X10779378Y-17020479D01*
X10750807Y-17034764D01*
X10722236Y-17034764D01*
X10693664Y-17020479D01*
X10679378Y-17006193D01*
X10665093Y-16977622D01*
X10650807Y-16920479D01*
X10650807Y-16849050D01*
X10665093Y-16791907D01*
X10679378Y-16763336D01*
X10693664Y-16749050D01*
X10722236Y-16734764D01*
X10922236Y-16734764D02*
X11107950Y-16734764D01*
X11007950Y-16849050D01*
X11050807Y-16849050D01*
X11079378Y-16863336D01*
X11093664Y-16877622D01*
X11107950Y-16906193D01*
X11107950Y-16977622D01*
X11093664Y-17006193D01*
X11079378Y-17020479D01*
X11050807Y-17034764D01*
X10965093Y-17034764D01*
X10936521Y-17020479D01*
X10922236Y-17006193D01*
X11222236Y-16763336D02*
X11236521Y-16749050D01*
X11265093Y-16734764D01*
X11336521Y-16734764D01*
X11365093Y-16749050D01*
X11379378Y-16763336D01*
X11393664Y-16791907D01*
X11393664Y-16820479D01*
X11379378Y-16863336D01*
X11207950Y-17034764D01*
X11393664Y-17034764D01*
X11579378Y-16734764D02*
X11607950Y-16734764D01*
X11636521Y-16749050D01*
X11650807Y-16763336D01*
X11665093Y-16791907D01*
X11679378Y-16849050D01*
X11679378Y-16920479D01*
X11665093Y-16977622D01*
X11650807Y-17006193D01*
X11636521Y-17020479D01*
X11607950Y-17034764D01*
X11579378Y-17034764D01*
X11550807Y-17020479D01*
X11536521Y-17006193D01*
X11522236Y-16977622D01*
X11507950Y-16920479D01*
X11507950Y-16849050D01*
X11522236Y-16791907D01*
X11536521Y-16763336D01*
X11550807Y-16749050D01*
X11579378Y-16734764D01*
X11793664Y-16734764D02*
X11793664Y-16791907D01*
X11907950Y-16734764D02*
X11907950Y-16791907D01*
X12350807Y-17149050D02*
X12336521Y-17134764D01*
X12307950Y-17091907D01*
X12293664Y-17063336D01*
X12279378Y-17020479D01*
X12265093Y-16949050D01*
X12265093Y-16891907D01*
X12279378Y-16820479D01*
X12293664Y-16777622D01*
X12307950Y-16749050D01*
X12336521Y-16706193D01*
X12350807Y-16691907D01*
X12622236Y-17034764D02*
X12450807Y-17034764D01*
X12536521Y-17034764D02*
X12536521Y-16734764D01*
X12507950Y-16777622D01*
X12479378Y-16806193D01*
X12450807Y-16820479D01*
X12879378Y-16734764D02*
X12822236Y-16734764D01*
X12793664Y-16749050D01*
X12779378Y-16763336D01*
X12750807Y-16806193D01*
X12736521Y-16863336D01*
X12736521Y-16977622D01*
X12750807Y-17006193D01*
X12765093Y-17020479D01*
X12793664Y-17034764D01*
X12850807Y-17034764D01*
X12879378Y-17020479D01*
X12893664Y-17006193D01*
X12907950Y-16977622D01*
X12907950Y-16906193D01*
X12893664Y-16877622D01*
X12879378Y-16863336D01*
X12850807Y-16849050D01*
X12793664Y-16849050D01*
X12765093Y-16863336D01*
X12750807Y-16877622D01*
X12736521Y-16906193D01*
X13265093Y-17034764D02*
X13265093Y-16734764D01*
X13393664Y-17034764D02*
X13393664Y-16877622D01*
X13379378Y-16849050D01*
X13350807Y-16834764D01*
X13307950Y-16834764D01*
X13279378Y-16849050D01*
X13265093Y-16863336D01*
X13579378Y-17034764D02*
X13550807Y-17020479D01*
X13536521Y-17006193D01*
X13522236Y-16977622D01*
X13522236Y-16891907D01*
X13536521Y-16863336D01*
X13550807Y-16849050D01*
X13579378Y-16834764D01*
X13622236Y-16834764D01*
X13650807Y-16849050D01*
X13665093Y-16863336D01*
X13679378Y-16891907D01*
X13679378Y-16977622D01*
X13665093Y-17006193D01*
X13650807Y-17020479D01*
X13622236Y-17034764D01*
X13579378Y-17034764D01*
X13850807Y-17034764D02*
X13822236Y-17020479D01*
X13807950Y-16991907D01*
X13807950Y-16734764D01*
X14079378Y-17020479D02*
X14050807Y-17034764D01*
X13993664Y-17034764D01*
X13965093Y-17020479D01*
X13950807Y-16991907D01*
X13950807Y-16877622D01*
X13965093Y-16849050D01*
X13993664Y-16834764D01*
X14050807Y-16834764D01*
X14079378Y-16849050D01*
X14093664Y-16877622D01*
X14093664Y-16906193D01*
X13950807Y-16934764D01*
X14207950Y-17020479D02*
X14236521Y-17034764D01*
X14293664Y-17034764D01*
X14322236Y-17020479D01*
X14336521Y-16991907D01*
X14336521Y-16977622D01*
X14322236Y-16949050D01*
X14293664Y-16934764D01*
X14250807Y-16934764D01*
X14222236Y-16920479D01*
X14207950Y-16891907D01*
X14207950Y-16877622D01*
X14222236Y-16849050D01*
X14250807Y-16834764D01*
X14293664Y-16834764D01*
X14322236Y-16849050D01*
X14436521Y-17149050D02*
X14450807Y-17134764D01*
X14479378Y-17091907D01*
X14493664Y-17063336D01*
X14507950Y-17020479D01*
X14522236Y-16949050D01*
X14522236Y-16891907D01*
X14507950Y-16820479D01*
X14493664Y-16777622D01*
X14479378Y-16749050D01*
X14450807Y-16706193D01*
X14436521Y-16691907D01*
X7042950Y-17345050D02*
X7092950Y-17295050D01*
X7042950Y-17245050D01*
X6992950Y-17295050D01*
X7042950Y-17345050D01*
X7536521Y-17430764D02*
X7365093Y-17430764D01*
X7450807Y-17430764D02*
X7450807Y-17130764D01*
X7422236Y-17173622D01*
X7393664Y-17202193D01*
X7365093Y-17216479D01*
X7665093Y-17402193D02*
X7679378Y-17416479D01*
X7665093Y-17430764D01*
X7650807Y-17416479D01*
X7665093Y-17402193D01*
X7665093Y-17430764D01*
X7865093Y-17130764D02*
X7893664Y-17130764D01*
X7922236Y-17145050D01*
X7936521Y-17159336D01*
X7950807Y-17187907D01*
X7965093Y-17245050D01*
X7965093Y-17316479D01*
X7950807Y-17373622D01*
X7936521Y-17402193D01*
X7922236Y-17416479D01*
X7893664Y-17430764D01*
X7865093Y-17430764D01*
X7836521Y-17416479D01*
X7822236Y-17402193D01*
X7807950Y-17373622D01*
X7793664Y-17316479D01*
X7793664Y-17245050D01*
X7807950Y-17187907D01*
X7822236Y-17159336D01*
X7836521Y-17145050D01*
X7865093Y-17130764D01*
X8150807Y-17130764D02*
X8179378Y-17130764D01*
X8207950Y-17145050D01*
X8222236Y-17159336D01*
X8236521Y-17187907D01*
X8250807Y-17245050D01*
X8250807Y-17316479D01*
X8236521Y-17373622D01*
X8222236Y-17402193D01*
X8207950Y-17416479D01*
X8179378Y-17430764D01*
X8150807Y-17430764D01*
X8122236Y-17416479D01*
X8107950Y-17402193D01*
X8093664Y-17373622D01*
X8079378Y-17316479D01*
X8079378Y-17245050D01*
X8093664Y-17187907D01*
X8107950Y-17159336D01*
X8122236Y-17145050D01*
X8150807Y-17130764D01*
X8436521Y-17130764D02*
X8465093Y-17130764D01*
X8493664Y-17145050D01*
X8507950Y-17159336D01*
X8522236Y-17187907D01*
X8536521Y-17245050D01*
X8536521Y-17316479D01*
X8522236Y-17373622D01*
X8507950Y-17402193D01*
X8493664Y-17416479D01*
X8465093Y-17430764D01*
X8436521Y-17430764D01*
X8407950Y-17416479D01*
X8393664Y-17402193D01*
X8379378Y-17373622D01*
X8365093Y-17316479D01*
X8365093Y-17245050D01*
X8379378Y-17187907D01*
X8393664Y-17159336D01*
X8407950Y-17145050D01*
X8436521Y-17130764D01*
X8665093Y-17430764D02*
X8665093Y-17230764D01*
X8665093Y-17259336D02*
X8679378Y-17245050D01*
X8707950Y-17230764D01*
X8750807Y-17230764D01*
X8779378Y-17245050D01*
X8793664Y-17273622D01*
X8793664Y-17430764D01*
X8793664Y-17273622D02*
X8807950Y-17245050D01*
X8836521Y-17230764D01*
X8879378Y-17230764D01*
X8907950Y-17245050D01*
X8922236Y-17273622D01*
X8922236Y-17430764D01*
X9065093Y-17430764D02*
X9065093Y-17230764D01*
X9065093Y-17259336D02*
X9079378Y-17245050D01*
X9107950Y-17230764D01*
X9150807Y-17230764D01*
X9179378Y-17245050D01*
X9193664Y-17273622D01*
X9193664Y-17430764D01*
X9193664Y-17273622D02*
X9207950Y-17245050D01*
X9236521Y-17230764D01*
X9279378Y-17230764D01*
X9307950Y-17245050D01*
X9322236Y-17273622D01*
X9322236Y-17430764D01*
X9907950Y-17116479D02*
X9650807Y-17502193D01*
X10293664Y-17130764D02*
X10322236Y-17130764D01*
X10350807Y-17145050D01*
X10365093Y-17159336D01*
X10379378Y-17187907D01*
X10393664Y-17245050D01*
X10393664Y-17316479D01*
X10379378Y-17373622D01*
X10365093Y-17402193D01*
X10350807Y-17416479D01*
X10322236Y-17430764D01*
X10293664Y-17430764D01*
X10265093Y-17416479D01*
X10250807Y-17402193D01*
X10236521Y-17373622D01*
X10222236Y-17316479D01*
X10222236Y-17245050D01*
X10236521Y-17187907D01*
X10250807Y-17159336D01*
X10265093Y-17145050D01*
X10293664Y-17130764D01*
X10522236Y-17402193D02*
X10536521Y-17416479D01*
X10522236Y-17430764D01*
X10507950Y-17416479D01*
X10522236Y-17402193D01*
X10522236Y-17430764D01*
X10722236Y-17130764D02*
X10750807Y-17130764D01*
X10779378Y-17145050D01*
X10793664Y-17159336D01*
X10807950Y-17187907D01*
X10822236Y-17245050D01*
X10822236Y-17316479D01*
X10807950Y-17373622D01*
X10793664Y-17402193D01*
X10779378Y-17416479D01*
X10750807Y-17430764D01*
X10722236Y-17430764D01*
X10693664Y-17416479D01*
X10679378Y-17402193D01*
X10665093Y-17373622D01*
X10650807Y-17316479D01*
X10650807Y-17245050D01*
X10665093Y-17187907D01*
X10679378Y-17159336D01*
X10693664Y-17145050D01*
X10722236Y-17130764D01*
X10922236Y-17130764D02*
X11107950Y-17130764D01*
X11007950Y-17245050D01*
X11050807Y-17245050D01*
X11079378Y-17259336D01*
X11093664Y-17273622D01*
X11107950Y-17302193D01*
X11107950Y-17373622D01*
X11093664Y-17402193D01*
X11079378Y-17416479D01*
X11050807Y-17430764D01*
X10965093Y-17430764D01*
X10936521Y-17416479D01*
X10922236Y-17402193D01*
X11250807Y-17430764D02*
X11307950Y-17430764D01*
X11336521Y-17416479D01*
X11350807Y-17402193D01*
X11379378Y-17359336D01*
X11393664Y-17302193D01*
X11393664Y-17187907D01*
X11379378Y-17159336D01*
X11365093Y-17145050D01*
X11336521Y-17130764D01*
X11279378Y-17130764D01*
X11250807Y-17145050D01*
X11236521Y-17159336D01*
X11222236Y-17187907D01*
X11222236Y-17259336D01*
X11236521Y-17287907D01*
X11250807Y-17302193D01*
X11279378Y-17316479D01*
X11336521Y-17316479D01*
X11365093Y-17302193D01*
X11379378Y-17287907D01*
X11393664Y-17259336D01*
X11650807Y-17230764D02*
X11650807Y-17430764D01*
X11579378Y-17116479D02*
X11507950Y-17330764D01*
X11693664Y-17330764D01*
X11793664Y-17130764D02*
X11793664Y-17187907D01*
X11907950Y-17130764D02*
X11907950Y-17187907D01*
X12350807Y-17545050D02*
X12336521Y-17530764D01*
X12307950Y-17487907D01*
X12293664Y-17459336D01*
X12279378Y-17416479D01*
X12265093Y-17345050D01*
X12265093Y-17287907D01*
X12279378Y-17216479D01*
X12293664Y-17173622D01*
X12307950Y-17145050D01*
X12336521Y-17102193D01*
X12350807Y-17087907D01*
X12450807Y-17159336D02*
X12465093Y-17145050D01*
X12493664Y-17130764D01*
X12565093Y-17130764D01*
X12593664Y-17145050D01*
X12607950Y-17159336D01*
X12622236Y-17187907D01*
X12622236Y-17216479D01*
X12607950Y-17259336D01*
X12436521Y-17430764D01*
X12622236Y-17430764D01*
X12807950Y-17130764D02*
X12836521Y-17130764D01*
X12865093Y-17145050D01*
X12879378Y-17159336D01*
X12893664Y-17187907D01*
X12907950Y-17245050D01*
X12907950Y-17316479D01*
X12893664Y-17373622D01*
X12879378Y-17402193D01*
X12865093Y-17416479D01*
X12836521Y-17430764D01*
X12807950Y-17430764D01*
X12779378Y-17416479D01*
X12765093Y-17402193D01*
X12750807Y-17373622D01*
X12736521Y-17316479D01*
X12736521Y-17245050D01*
X12750807Y-17187907D01*
X12765093Y-17159336D01*
X12779378Y-17145050D01*
X12807950Y-17130764D01*
X13007950Y-17130764D02*
X13193664Y-17130764D01*
X13093664Y-17245050D01*
X13136521Y-17245050D01*
X13165093Y-17259336D01*
X13179378Y-17273622D01*
X13193664Y-17302193D01*
X13193664Y-17373622D01*
X13179378Y-17402193D01*
X13165093Y-17416479D01*
X13136521Y-17430764D01*
X13050807Y-17430764D01*
X13022236Y-17416479D01*
X13007950Y-17402193D01*
X13550807Y-17430764D02*
X13550807Y-17130764D01*
X13679378Y-17430764D02*
X13679378Y-17273622D01*
X13665093Y-17245050D01*
X13636521Y-17230764D01*
X13593664Y-17230764D01*
X13565093Y-17245050D01*
X13550807Y-17259336D01*
X13865093Y-17430764D02*
X13836521Y-17416479D01*
X13822236Y-17402193D01*
X13807950Y-17373622D01*
X13807950Y-17287907D01*
X13822236Y-17259336D01*
X13836521Y-17245050D01*
X13865093Y-17230764D01*
X13907950Y-17230764D01*
X13936521Y-17245050D01*
X13950807Y-17259336D01*
X13965093Y-17287907D01*
X13965093Y-17373622D01*
X13950807Y-17402193D01*
X13936521Y-17416479D01*
X13907950Y-17430764D01*
X13865093Y-17430764D01*
X14136521Y-17430764D02*
X14107950Y-17416479D01*
X14093664Y-17387907D01*
X14093664Y-17130764D01*
X14365093Y-17416479D02*
X14336521Y-17430764D01*
X14279378Y-17430764D01*
X14250807Y-17416479D01*
X14236521Y-17387907D01*
X14236521Y-17273622D01*
X14250807Y-17245050D01*
X14279378Y-17230764D01*
X14336521Y-17230764D01*
X14365093Y-17245050D01*
X14379378Y-17273622D01*
X14379378Y-17302193D01*
X14236521Y-17330764D01*
X14493664Y-17416479D02*
X14522236Y-17430764D01*
X14579378Y-17430764D01*
X14607950Y-17416479D01*
X14622236Y-17387907D01*
X14622236Y-17373622D01*
X14607950Y-17345050D01*
X14579378Y-17330764D01*
X14536521Y-17330764D01*
X14507950Y-17316479D01*
X14493664Y-17287907D01*
X14493664Y-17273622D01*
X14507950Y-17245050D01*
X14536521Y-17230764D01*
X14579378Y-17230764D01*
X14607950Y-17245050D01*
X14722236Y-17545050D02*
X14736521Y-17530764D01*
X14765093Y-17487907D01*
X14779378Y-17459336D01*
X14793664Y-17416479D01*
X14807950Y-17345050D01*
X14807950Y-17287907D01*
X14793664Y-17216479D01*
X14779378Y-17173622D01*
X14765093Y-17145050D01*
X14736521Y-17102193D01*
X14722236Y-17087907D01*
X6991350Y-17640250D02*
X7092950Y-17741850D01*
X7092950Y-17640250D02*
X6991350Y-17741850D01*
X7092950Y-17691050D02*
G75*
G03*
X7092950Y-17691050I-50800J0D01*
G01*
X7536521Y-17826764D02*
X7365093Y-17826764D01*
X7450807Y-17826764D02*
X7450807Y-17526764D01*
X7422236Y-17569622D01*
X7393664Y-17598193D01*
X7365093Y-17612479D01*
X7665093Y-17798193D02*
X7679378Y-17812479D01*
X7665093Y-17826764D01*
X7650807Y-17812479D01*
X7665093Y-17798193D01*
X7665093Y-17826764D01*
X7865093Y-17526764D02*
X7893664Y-17526764D01*
X7922236Y-17541050D01*
X7936521Y-17555336D01*
X7950807Y-17583907D01*
X7965093Y-17641050D01*
X7965093Y-17712479D01*
X7950807Y-17769622D01*
X7936521Y-17798193D01*
X7922236Y-17812479D01*
X7893664Y-17826764D01*
X7865093Y-17826764D01*
X7836521Y-17812479D01*
X7822236Y-17798193D01*
X7807950Y-17769622D01*
X7793664Y-17712479D01*
X7793664Y-17641050D01*
X7807950Y-17583907D01*
X7822236Y-17555336D01*
X7836521Y-17541050D01*
X7865093Y-17526764D01*
X8250807Y-17826764D02*
X8079378Y-17826764D01*
X8165093Y-17826764D02*
X8165093Y-17526764D01*
X8136521Y-17569622D01*
X8107950Y-17598193D01*
X8079378Y-17612479D01*
X8507950Y-17526764D02*
X8450807Y-17526764D01*
X8422236Y-17541050D01*
X8407950Y-17555336D01*
X8379378Y-17598193D01*
X8365093Y-17655336D01*
X8365093Y-17769622D01*
X8379378Y-17798193D01*
X8393664Y-17812479D01*
X8422236Y-17826764D01*
X8479378Y-17826764D01*
X8507950Y-17812479D01*
X8522236Y-17798193D01*
X8536521Y-17769622D01*
X8536521Y-17698193D01*
X8522236Y-17669622D01*
X8507950Y-17655336D01*
X8479378Y-17641050D01*
X8422236Y-17641050D01*
X8393664Y-17655336D01*
X8379378Y-17669622D01*
X8365093Y-17698193D01*
X8665093Y-17826764D02*
X8665093Y-17626764D01*
X8665093Y-17655336D02*
X8679378Y-17641050D01*
X8707950Y-17626764D01*
X8750807Y-17626764D01*
X8779378Y-17641050D01*
X8793664Y-17669622D01*
X8793664Y-17826764D01*
X8793664Y-17669622D02*
X8807950Y-17641050D01*
X8836521Y-17626764D01*
X8879378Y-17626764D01*
X8907950Y-17641050D01*
X8922236Y-17669622D01*
X8922236Y-17826764D01*
X9065093Y-17826764D02*
X9065093Y-17626764D01*
X9065093Y-17655336D02*
X9079378Y-17641050D01*
X9107950Y-17626764D01*
X9150807Y-17626764D01*
X9179378Y-17641050D01*
X9193664Y-17669622D01*
X9193664Y-17826764D01*
X9193664Y-17669622D02*
X9207950Y-17641050D01*
X9236521Y-17626764D01*
X9279378Y-17626764D01*
X9307950Y-17641050D01*
X9322236Y-17669622D01*
X9322236Y-17826764D01*
X9907950Y-17512479D02*
X9650807Y-17898193D01*
X10293664Y-17526764D02*
X10322236Y-17526764D01*
X10350807Y-17541050D01*
X10365093Y-17555336D01*
X10379378Y-17583907D01*
X10393664Y-17641050D01*
X10393664Y-17712479D01*
X10379378Y-17769622D01*
X10365093Y-17798193D01*
X10350807Y-17812479D01*
X10322236Y-17826764D01*
X10293664Y-17826764D01*
X10265093Y-17812479D01*
X10250807Y-17798193D01*
X10236521Y-17769622D01*
X10222236Y-17712479D01*
X10222236Y-17641050D01*
X10236521Y-17583907D01*
X10250807Y-17555336D01*
X10265093Y-17541050D01*
X10293664Y-17526764D01*
X10522236Y-17798193D02*
X10536521Y-17812479D01*
X10522236Y-17826764D01*
X10507950Y-17812479D01*
X10522236Y-17798193D01*
X10522236Y-17826764D01*
X10722236Y-17526764D02*
X10750807Y-17526764D01*
X10779378Y-17541050D01*
X10793664Y-17555336D01*
X10807950Y-17583907D01*
X10822236Y-17641050D01*
X10822236Y-17712479D01*
X10807950Y-17769622D01*
X10793664Y-17798193D01*
X10779378Y-17812479D01*
X10750807Y-17826764D01*
X10722236Y-17826764D01*
X10693664Y-17812479D01*
X10679378Y-17798193D01*
X10665093Y-17769622D01*
X10650807Y-17712479D01*
X10650807Y-17641050D01*
X10665093Y-17583907D01*
X10679378Y-17555336D01*
X10693664Y-17541050D01*
X10722236Y-17526764D01*
X11079378Y-17626764D02*
X11079378Y-17826764D01*
X11007950Y-17512479D02*
X10936521Y-17726764D01*
X11122236Y-17726764D01*
X11293664Y-17526764D02*
X11322236Y-17526764D01*
X11350807Y-17541050D01*
X11365093Y-17555336D01*
X11379378Y-17583907D01*
X11393664Y-17641050D01*
X11393664Y-17712479D01*
X11379378Y-17769622D01*
X11365093Y-17798193D01*
X11350807Y-17812479D01*
X11322236Y-17826764D01*
X11293664Y-17826764D01*
X11265093Y-17812479D01*
X11250807Y-17798193D01*
X11236521Y-17769622D01*
X11222236Y-17712479D01*
X11222236Y-17641050D01*
X11236521Y-17583907D01*
X11250807Y-17555336D01*
X11265093Y-17541050D01*
X11293664Y-17526764D01*
X11579378Y-17526764D02*
X11607950Y-17526764D01*
X11636521Y-17541050D01*
X11650807Y-17555336D01*
X11665093Y-17583907D01*
X11679378Y-17641050D01*
X11679378Y-17712479D01*
X11665093Y-17769622D01*
X11650807Y-17798193D01*
X11636521Y-17812479D01*
X11607950Y-17826764D01*
X11579378Y-17826764D01*
X11550807Y-17812479D01*
X11536521Y-17798193D01*
X11522236Y-17769622D01*
X11507950Y-17712479D01*
X11507950Y-17641050D01*
X11522236Y-17583907D01*
X11536521Y-17555336D01*
X11550807Y-17541050D01*
X11579378Y-17526764D01*
X11793664Y-17526764D02*
X11793664Y-17583907D01*
X11907950Y-17526764D02*
X11907950Y-17583907D01*
X12350807Y-17941050D02*
X12336521Y-17926764D01*
X12307950Y-17883907D01*
X12293664Y-17855336D01*
X12279378Y-17812479D01*
X12265093Y-17741050D01*
X12265093Y-17683907D01*
X12279378Y-17612479D01*
X12293664Y-17569622D01*
X12307950Y-17541050D01*
X12336521Y-17498193D01*
X12350807Y-17483907D01*
X12450807Y-17555336D02*
X12465093Y-17541050D01*
X12493664Y-17526764D01*
X12565093Y-17526764D01*
X12593664Y-17541050D01*
X12607950Y-17555336D01*
X12622236Y-17583907D01*
X12622236Y-17612479D01*
X12607950Y-17655336D01*
X12436521Y-17826764D01*
X12622236Y-17826764D01*
X12722236Y-17526764D02*
X12922236Y-17526764D01*
X12793664Y-17826764D01*
X13265093Y-17826764D02*
X13265093Y-17526764D01*
X13393664Y-17826764D02*
X13393664Y-17669622D01*
X13379378Y-17641050D01*
X13350807Y-17626764D01*
X13307950Y-17626764D01*
X13279378Y-17641050D01*
X13265093Y-17655336D01*
X13579378Y-17826764D02*
X13550807Y-17812479D01*
X13536521Y-17798193D01*
X13522236Y-17769622D01*
X13522236Y-17683907D01*
X13536521Y-17655336D01*
X13550807Y-17641050D01*
X13579378Y-17626764D01*
X13622236Y-17626764D01*
X13650807Y-17641050D01*
X13665093Y-17655336D01*
X13679378Y-17683907D01*
X13679378Y-17769622D01*
X13665093Y-17798193D01*
X13650807Y-17812479D01*
X13622236Y-17826764D01*
X13579378Y-17826764D01*
X13850807Y-17826764D02*
X13822236Y-17812479D01*
X13807950Y-17783907D01*
X13807950Y-17526764D01*
X14079378Y-17812479D02*
X14050807Y-17826764D01*
X13993664Y-17826764D01*
X13965093Y-17812479D01*
X13950807Y-17783907D01*
X13950807Y-17669622D01*
X13965093Y-17641050D01*
X13993664Y-17626764D01*
X14050807Y-17626764D01*
X14079378Y-17641050D01*
X14093664Y-17669622D01*
X14093664Y-17698193D01*
X13950807Y-17726764D01*
X14207950Y-17812479D02*
X14236521Y-17826764D01*
X14293664Y-17826764D01*
X14322236Y-17812479D01*
X14336521Y-17783907D01*
X14336521Y-17769622D01*
X14322236Y-17741050D01*
X14293664Y-17726764D01*
X14250807Y-17726764D01*
X14222236Y-17712479D01*
X14207950Y-17683907D01*
X14207950Y-17669622D01*
X14222236Y-17641050D01*
X14250807Y-17626764D01*
X14293664Y-17626764D01*
X14322236Y-17641050D01*
X14693664Y-17712479D02*
X14922236Y-17712479D01*
X14807950Y-17826764D02*
X14807950Y-17598193D01*
X15265093Y-17526764D02*
X15450807Y-17526764D01*
X15350807Y-17641050D01*
X15393664Y-17641050D01*
X15422236Y-17655336D01*
X15436521Y-17669622D01*
X15450807Y-17698193D01*
X15450807Y-17769622D01*
X15436521Y-17798193D01*
X15422236Y-17812479D01*
X15393664Y-17826764D01*
X15307950Y-17826764D01*
X15279378Y-17812479D01*
X15265093Y-17798193D01*
X15793664Y-17812479D02*
X15822236Y-17826764D01*
X15879378Y-17826764D01*
X15907950Y-17812479D01*
X15922236Y-17783907D01*
X15922236Y-17769622D01*
X15907950Y-17741050D01*
X15879378Y-17726764D01*
X15836521Y-17726764D01*
X15807950Y-17712479D01*
X15793664Y-17683907D01*
X15793664Y-17669622D01*
X15807950Y-17641050D01*
X15836521Y-17626764D01*
X15879378Y-17626764D01*
X15907950Y-17641050D01*
X16093664Y-17826764D02*
X16065093Y-17812479D01*
X16050807Y-17783907D01*
X16050807Y-17526764D01*
X16250807Y-17826764D02*
X16222236Y-17812479D01*
X16207950Y-17798193D01*
X16193664Y-17769622D01*
X16193664Y-17683907D01*
X16207950Y-17655336D01*
X16222236Y-17641050D01*
X16250807Y-17626764D01*
X16293664Y-17626764D01*
X16322236Y-17641050D01*
X16336521Y-17655336D01*
X16350807Y-17683907D01*
X16350807Y-17769622D01*
X16336521Y-17798193D01*
X16322236Y-17812479D01*
X16293664Y-17826764D01*
X16250807Y-17826764D01*
X16436521Y-17626764D02*
X16550807Y-17626764D01*
X16479378Y-17526764D02*
X16479378Y-17783907D01*
X16493664Y-17812479D01*
X16522236Y-17826764D01*
X16550807Y-17826764D01*
X16636521Y-17812479D02*
X16665093Y-17826764D01*
X16722236Y-17826764D01*
X16750807Y-17812479D01*
X16765093Y-17783907D01*
X16765093Y-17769622D01*
X16750807Y-17741050D01*
X16722236Y-17726764D01*
X16679378Y-17726764D01*
X16650807Y-17712479D01*
X16636521Y-17683907D01*
X16636521Y-17669622D01*
X16650807Y-17641050D01*
X16679378Y-17626764D01*
X16722236Y-17626764D01*
X16750807Y-17641050D01*
X16865093Y-17941050D02*
X16879378Y-17926764D01*
X16907950Y-17883907D01*
X16922236Y-17855336D01*
X16936521Y-17812479D01*
X16950807Y-17741050D01*
X16950807Y-17683907D01*
X16936521Y-17612479D01*
X16922236Y-17569622D01*
X16907950Y-17541050D01*
X16879378Y-17498193D01*
X16865093Y-17483907D01*
X6972950Y-18027050D02*
X7092950Y-18147050D01*
X7092950Y-18027050D02*
X6972950Y-18147050D01*
X7032950Y-18027050D02*
X7032950Y-18147050D01*
X6972950Y-18087050D02*
X7092950Y-18087050D01*
X7536521Y-18222764D02*
X7365093Y-18222764D01*
X7450807Y-18222764D02*
X7450807Y-17922764D01*
X7422236Y-17965622D01*
X7393664Y-17994193D01*
X7365093Y-18008479D01*
X7665093Y-18194193D02*
X7679378Y-18208479D01*
X7665093Y-18222764D01*
X7650807Y-18208479D01*
X7665093Y-18194193D01*
X7665093Y-18222764D01*
X7793664Y-17951336D02*
X7807950Y-17937050D01*
X7836521Y-17922764D01*
X7907950Y-17922764D01*
X7936521Y-17937050D01*
X7950807Y-17951336D01*
X7965093Y-17979907D01*
X7965093Y-18008479D01*
X7950807Y-18051336D01*
X7779378Y-18222764D01*
X7965093Y-18222764D01*
X8150807Y-17922764D02*
X8179378Y-17922764D01*
X8207950Y-17937050D01*
X8222236Y-17951336D01*
X8236521Y-17979907D01*
X8250807Y-18037050D01*
X8250807Y-18108479D01*
X8236521Y-18165622D01*
X8222236Y-18194193D01*
X8207950Y-18208479D01*
X8179378Y-18222764D01*
X8150807Y-18222764D01*
X8122236Y-18208479D01*
X8107950Y-18194193D01*
X8093664Y-18165622D01*
X8079378Y-18108479D01*
X8079378Y-18037050D01*
X8093664Y-17979907D01*
X8107950Y-17951336D01*
X8122236Y-17937050D01*
X8150807Y-17922764D01*
X8436521Y-17922764D02*
X8465093Y-17922764D01*
X8493664Y-17937050D01*
X8507950Y-17951336D01*
X8522236Y-17979907D01*
X8536521Y-18037050D01*
X8536521Y-18108479D01*
X8522236Y-18165622D01*
X8507950Y-18194193D01*
X8493664Y-18208479D01*
X8465093Y-18222764D01*
X8436521Y-18222764D01*
X8407950Y-18208479D01*
X8393664Y-18194193D01*
X8379378Y-18165622D01*
X8365093Y-18108479D01*
X8365093Y-18037050D01*
X8379378Y-17979907D01*
X8393664Y-17951336D01*
X8407950Y-17937050D01*
X8436521Y-17922764D01*
X8665093Y-18222764D02*
X8665093Y-18022764D01*
X8665093Y-18051336D02*
X8679378Y-18037050D01*
X8707950Y-18022764D01*
X8750807Y-18022764D01*
X8779378Y-18037050D01*
X8793664Y-18065622D01*
X8793664Y-18222764D01*
X8793664Y-18065622D02*
X8807950Y-18037050D01*
X8836521Y-18022764D01*
X8879378Y-18022764D01*
X8907950Y-18037050D01*
X8922236Y-18065622D01*
X8922236Y-18222764D01*
X9065093Y-18222764D02*
X9065093Y-18022764D01*
X9065093Y-18051336D02*
X9079378Y-18037050D01*
X9107950Y-18022764D01*
X9150807Y-18022764D01*
X9179378Y-18037050D01*
X9193664Y-18065622D01*
X9193664Y-18222764D01*
X9193664Y-18065622D02*
X9207950Y-18037050D01*
X9236521Y-18022764D01*
X9279378Y-18022764D01*
X9307950Y-18037050D01*
X9322236Y-18065622D01*
X9322236Y-18222764D01*
X9907950Y-17908479D02*
X9650807Y-18294193D01*
X10293664Y-17922764D02*
X10322236Y-17922764D01*
X10350807Y-17937050D01*
X10365093Y-17951336D01*
X10379378Y-17979907D01*
X10393664Y-18037050D01*
X10393664Y-18108479D01*
X10379378Y-18165622D01*
X10365093Y-18194193D01*
X10350807Y-18208479D01*
X10322236Y-18222764D01*
X10293664Y-18222764D01*
X10265093Y-18208479D01*
X10250807Y-18194193D01*
X10236521Y-18165622D01*
X10222236Y-18108479D01*
X10222236Y-18037050D01*
X10236521Y-17979907D01*
X10250807Y-17951336D01*
X10265093Y-17937050D01*
X10293664Y-17922764D01*
X10522236Y-18194193D02*
X10536521Y-18208479D01*
X10522236Y-18222764D01*
X10507950Y-18208479D01*
X10522236Y-18194193D01*
X10522236Y-18222764D01*
X10722236Y-17922764D02*
X10750807Y-17922764D01*
X10779378Y-17937050D01*
X10793664Y-17951336D01*
X10807950Y-17979907D01*
X10822236Y-18037050D01*
X10822236Y-18108479D01*
X10807950Y-18165622D01*
X10793664Y-18194193D01*
X10779378Y-18208479D01*
X10750807Y-18222764D01*
X10722236Y-18222764D01*
X10693664Y-18208479D01*
X10679378Y-18194193D01*
X10665093Y-18165622D01*
X10650807Y-18108479D01*
X10650807Y-18037050D01*
X10665093Y-17979907D01*
X10679378Y-17951336D01*
X10693664Y-17937050D01*
X10722236Y-17922764D01*
X11079378Y-18022764D02*
X11079378Y-18222764D01*
X11007950Y-17908479D02*
X10936521Y-18122764D01*
X11122236Y-18122764D01*
X11207950Y-17922764D02*
X11407950Y-17922764D01*
X11279378Y-18222764D01*
X11507950Y-17951336D02*
X11522236Y-17937050D01*
X11550807Y-17922764D01*
X11622236Y-17922764D01*
X11650807Y-17937050D01*
X11665093Y-17951336D01*
X11679378Y-17979907D01*
X11679378Y-18008479D01*
X11665093Y-18051336D01*
X11493664Y-18222764D01*
X11679378Y-18222764D01*
X11793664Y-17922764D02*
X11793664Y-17979907D01*
X11907950Y-17922764D02*
X11907950Y-17979907D01*
X12350807Y-18337050D02*
X12336521Y-18322764D01*
X12307950Y-18279907D01*
X12293664Y-18251336D01*
X12279378Y-18208479D01*
X12265093Y-18137050D01*
X12265093Y-18079907D01*
X12279378Y-18008479D01*
X12293664Y-17965622D01*
X12307950Y-17937050D01*
X12336521Y-17894193D01*
X12350807Y-17879907D01*
X12450807Y-17951336D02*
X12465093Y-17937050D01*
X12493664Y-17922764D01*
X12565093Y-17922764D01*
X12593664Y-17937050D01*
X12607950Y-17951336D01*
X12622236Y-17979907D01*
X12622236Y-18008479D01*
X12607950Y-18051336D01*
X12436521Y-18222764D01*
X12622236Y-18222764D01*
X12979378Y-18222764D02*
X12979378Y-17922764D01*
X13107950Y-18222764D02*
X13107950Y-18065622D01*
X13093664Y-18037050D01*
X13065093Y-18022764D01*
X13022236Y-18022764D01*
X12993664Y-18037050D01*
X12979378Y-18051336D01*
X13293664Y-18222764D02*
X13265093Y-18208479D01*
X13250807Y-18194193D01*
X13236521Y-18165622D01*
X13236521Y-18079907D01*
X13250807Y-18051336D01*
X13265093Y-18037050D01*
X13293664Y-18022764D01*
X13336521Y-18022764D01*
X13365093Y-18037050D01*
X13379378Y-18051336D01*
X13393664Y-18079907D01*
X13393664Y-18165622D01*
X13379378Y-18194193D01*
X13365093Y-18208479D01*
X13336521Y-18222764D01*
X13293664Y-18222764D01*
X13565093Y-18222764D02*
X13536521Y-18208479D01*
X13522236Y-18179907D01*
X13522236Y-17922764D01*
X13793664Y-18208479D02*
X13765093Y-18222764D01*
X13707950Y-18222764D01*
X13679378Y-18208479D01*
X13665093Y-18179907D01*
X13665093Y-18065622D01*
X13679378Y-18037050D01*
X13707950Y-18022764D01*
X13765093Y-18022764D01*
X13793664Y-18037050D01*
X13807950Y-18065622D01*
X13807950Y-18094193D01*
X13665093Y-18122764D01*
X13922236Y-18208479D02*
X13950807Y-18222764D01*
X14007950Y-18222764D01*
X14036521Y-18208479D01*
X14050807Y-18179907D01*
X14050807Y-18165622D01*
X14036521Y-18137050D01*
X14007950Y-18122764D01*
X13965093Y-18122764D01*
X13936521Y-18108479D01*
X13922236Y-18079907D01*
X13922236Y-18065622D01*
X13936521Y-18037050D01*
X13965093Y-18022764D01*
X14007950Y-18022764D01*
X14036521Y-18037050D01*
X14150807Y-18337050D02*
X14165093Y-18322764D01*
X14193664Y-18279907D01*
X14207950Y-18251336D01*
X14222236Y-18208479D01*
X14236521Y-18137050D01*
X14236521Y-18079907D01*
X14222236Y-18008479D01*
X14207950Y-17965622D01*
X14193664Y-17937050D01*
X14165093Y-17894193D01*
X14150807Y-17879907D01*
X6940550Y-18406850D02*
X7092950Y-18559250D01*
X7092950Y-18406850D02*
X6940550Y-18559250D01*
X7070632Y-18536932D02*
X7070632Y-18429168D01*
X6962868Y-18429168D01*
X6962868Y-18536932D01*
X7070632Y-18536932D01*
X7536521Y-18618764D02*
X7365093Y-18618764D01*
X7450807Y-18618764D02*
X7450807Y-18318764D01*
X7422236Y-18361622D01*
X7393664Y-18390193D01*
X7365093Y-18404479D01*
X7665093Y-18590193D02*
X7679378Y-18604479D01*
X7665093Y-18618764D01*
X7650807Y-18604479D01*
X7665093Y-18590193D01*
X7665093Y-18618764D01*
X7950807Y-18318764D02*
X7807950Y-18318764D01*
X7793664Y-18461622D01*
X7807950Y-18447336D01*
X7836521Y-18433050D01*
X7907950Y-18433050D01*
X7936521Y-18447336D01*
X7950807Y-18461622D01*
X7965093Y-18490193D01*
X7965093Y-18561622D01*
X7950807Y-18590193D01*
X7936521Y-18604479D01*
X7907950Y-18618764D01*
X7836521Y-18618764D01*
X7807950Y-18604479D01*
X7793664Y-18590193D01*
X8079378Y-18347336D02*
X8093664Y-18333050D01*
X8122236Y-18318764D01*
X8193664Y-18318764D01*
X8222236Y-18333050D01*
X8236521Y-18347336D01*
X8250807Y-18375907D01*
X8250807Y-18404479D01*
X8236521Y-18447336D01*
X8065093Y-18618764D01*
X8250807Y-18618764D01*
X8507950Y-18418764D02*
X8507950Y-18618764D01*
X8436521Y-18304479D02*
X8365093Y-18518764D01*
X8550807Y-18518764D01*
X8665093Y-18618764D02*
X8665093Y-18418764D01*
X8665093Y-18447336D02*
X8679378Y-18433050D01*
X8707950Y-18418764D01*
X8750807Y-18418764D01*
X8779378Y-18433050D01*
X8793664Y-18461622D01*
X8793664Y-18618764D01*
X8793664Y-18461622D02*
X8807950Y-18433050D01*
X8836521Y-18418764D01*
X8879378Y-18418764D01*
X8907950Y-18433050D01*
X8922236Y-18461622D01*
X8922236Y-18618764D01*
X9065093Y-18618764D02*
X9065093Y-18418764D01*
X9065093Y-18447336D02*
X9079378Y-18433050D01*
X9107950Y-18418764D01*
X9150807Y-18418764D01*
X9179378Y-18433050D01*
X9193664Y-18461622D01*
X9193664Y-18618764D01*
X9193664Y-18461622D02*
X9207950Y-18433050D01*
X9236521Y-18418764D01*
X9279378Y-18418764D01*
X9307950Y-18433050D01*
X9322236Y-18461622D01*
X9322236Y-18618764D01*
X9907950Y-18304479D02*
X9650807Y-18690193D01*
X10293664Y-18318764D02*
X10322236Y-18318764D01*
X10350807Y-18333050D01*
X10365093Y-18347336D01*
X10379378Y-18375907D01*
X10393664Y-18433050D01*
X10393664Y-18504479D01*
X10379378Y-18561622D01*
X10365093Y-18590193D01*
X10350807Y-18604479D01*
X10322236Y-18618764D01*
X10293664Y-18618764D01*
X10265093Y-18604479D01*
X10250807Y-18590193D01*
X10236521Y-18561622D01*
X10222236Y-18504479D01*
X10222236Y-18433050D01*
X10236521Y-18375907D01*
X10250807Y-18347336D01*
X10265093Y-18333050D01*
X10293664Y-18318764D01*
X10522236Y-18590193D02*
X10536521Y-18604479D01*
X10522236Y-18618764D01*
X10507950Y-18604479D01*
X10522236Y-18590193D01*
X10522236Y-18618764D01*
X10722236Y-18318764D02*
X10750807Y-18318764D01*
X10779378Y-18333050D01*
X10793664Y-18347336D01*
X10807950Y-18375907D01*
X10822236Y-18433050D01*
X10822236Y-18504479D01*
X10807950Y-18561622D01*
X10793664Y-18590193D01*
X10779378Y-18604479D01*
X10750807Y-18618764D01*
X10722236Y-18618764D01*
X10693664Y-18604479D01*
X10679378Y-18590193D01*
X10665093Y-18561622D01*
X10650807Y-18504479D01*
X10650807Y-18433050D01*
X10665093Y-18375907D01*
X10679378Y-18347336D01*
X10693664Y-18333050D01*
X10722236Y-18318764D01*
X11079378Y-18318764D02*
X11022236Y-18318764D01*
X10993664Y-18333050D01*
X10979378Y-18347336D01*
X10950807Y-18390193D01*
X10936521Y-18447336D01*
X10936521Y-18561622D01*
X10950807Y-18590193D01*
X10965093Y-18604479D01*
X10993664Y-18618764D01*
X11050807Y-18618764D01*
X11079378Y-18604479D01*
X11093664Y-18590193D01*
X11107950Y-18561622D01*
X11107950Y-18490193D01*
X11093664Y-18461622D01*
X11079378Y-18447336D01*
X11050807Y-18433050D01*
X10993664Y-18433050D01*
X10965093Y-18447336D01*
X10950807Y-18461622D01*
X10936521Y-18490193D01*
X11293664Y-18318764D02*
X11322236Y-18318764D01*
X11350807Y-18333050D01*
X11365093Y-18347336D01*
X11379378Y-18375907D01*
X11393664Y-18433050D01*
X11393664Y-18504479D01*
X11379378Y-18561622D01*
X11365093Y-18590193D01*
X11350807Y-18604479D01*
X11322236Y-18618764D01*
X11293664Y-18618764D01*
X11265093Y-18604479D01*
X11250807Y-18590193D01*
X11236521Y-18561622D01*
X11222236Y-18504479D01*
X11222236Y-18433050D01*
X11236521Y-18375907D01*
X11250807Y-18347336D01*
X11265093Y-18333050D01*
X11293664Y-18318764D01*
X11579378Y-18318764D02*
X11607950Y-18318764D01*
X11636521Y-18333050D01*
X11650807Y-18347336D01*
X11665093Y-18375907D01*
X11679378Y-18433050D01*
X11679378Y-18504479D01*
X11665093Y-18561622D01*
X11650807Y-18590193D01*
X11636521Y-18604479D01*
X11607950Y-18618764D01*
X11579378Y-18618764D01*
X11550807Y-18604479D01*
X11536521Y-18590193D01*
X11522236Y-18561622D01*
X11507950Y-18504479D01*
X11507950Y-18433050D01*
X11522236Y-18375907D01*
X11536521Y-18347336D01*
X11550807Y-18333050D01*
X11579378Y-18318764D01*
X11793664Y-18318764D02*
X11793664Y-18375907D01*
X11907950Y-18318764D02*
X11907950Y-18375907D01*
X12350807Y-18733050D02*
X12336521Y-18718764D01*
X12307950Y-18675907D01*
X12293664Y-18647336D01*
X12279378Y-18604479D01*
X12265093Y-18533050D01*
X12265093Y-18475907D01*
X12279378Y-18404479D01*
X12293664Y-18361622D01*
X12307950Y-18333050D01*
X12336521Y-18290193D01*
X12350807Y-18275907D01*
X12450807Y-18347336D02*
X12465093Y-18333050D01*
X12493664Y-18318764D01*
X12565093Y-18318764D01*
X12593664Y-18333050D01*
X12607950Y-18347336D01*
X12622236Y-18375907D01*
X12622236Y-18404479D01*
X12607950Y-18447336D01*
X12436521Y-18618764D01*
X12622236Y-18618764D01*
X12979378Y-18618764D02*
X12979378Y-18318764D01*
X13107950Y-18618764D02*
X13107950Y-18461622D01*
X13093664Y-18433050D01*
X13065093Y-18418764D01*
X13022236Y-18418764D01*
X12993664Y-18433050D01*
X12979378Y-18447336D01*
X13293664Y-18618764D02*
X13265093Y-18604479D01*
X13250807Y-18590193D01*
X13236521Y-18561622D01*
X13236521Y-18475907D01*
X13250807Y-18447336D01*
X13265093Y-18433050D01*
X13293664Y-18418764D01*
X13336521Y-18418764D01*
X13365093Y-18433050D01*
X13379378Y-18447336D01*
X13393664Y-18475907D01*
X13393664Y-18561622D01*
X13379378Y-18590193D01*
X13365093Y-18604479D01*
X13336521Y-18618764D01*
X13293664Y-18618764D01*
X13565093Y-18618764D02*
X13536521Y-18604479D01*
X13522236Y-18575907D01*
X13522236Y-18318764D01*
X13793664Y-18604479D02*
X13765093Y-18618764D01*
X13707950Y-18618764D01*
X13679378Y-18604479D01*
X13665093Y-18575907D01*
X13665093Y-18461622D01*
X13679378Y-18433050D01*
X13707950Y-18418764D01*
X13765093Y-18418764D01*
X13793664Y-18433050D01*
X13807950Y-18461622D01*
X13807950Y-18490193D01*
X13665093Y-18518764D01*
X13922236Y-18604479D02*
X13950807Y-18618764D01*
X14007950Y-18618764D01*
X14036521Y-18604479D01*
X14050807Y-18575907D01*
X14050807Y-18561622D01*
X14036521Y-18533050D01*
X14007950Y-18518764D01*
X13965093Y-18518764D01*
X13936521Y-18504479D01*
X13922236Y-18475907D01*
X13922236Y-18461622D01*
X13936521Y-18433050D01*
X13965093Y-18418764D01*
X14007950Y-18418764D01*
X14036521Y-18433050D01*
X14150807Y-18733050D02*
X14165093Y-18718764D01*
X14193664Y-18675907D01*
X14207950Y-18647336D01*
X14222236Y-18604479D01*
X14236521Y-18533050D01*
X14236521Y-18475907D01*
X14222236Y-18404479D01*
X14207950Y-18361622D01*
X14193664Y-18333050D01*
X14165093Y-18290193D01*
X14150807Y-18275907D01*
X6932950Y-18799050D02*
X7092950Y-18959050D01*
X7092950Y-18799050D02*
X6932950Y-18959050D01*
X7012950Y-18959050D02*
X7092950Y-18879050D01*
X7012950Y-18799050D01*
X6932950Y-18879050D01*
X7012950Y-18959050D01*
X7536521Y-19014764D02*
X7365093Y-19014764D01*
X7450807Y-19014764D02*
X7450807Y-18714764D01*
X7422236Y-18757622D01*
X7393664Y-18786193D01*
X7365093Y-18800479D01*
X7665093Y-18986193D02*
X7679378Y-19000479D01*
X7665093Y-19014764D01*
X7650807Y-19000479D01*
X7665093Y-18986193D01*
X7665093Y-19014764D01*
X7936521Y-18714764D02*
X7879378Y-18714764D01*
X7850807Y-18729050D01*
X7836521Y-18743336D01*
X7807950Y-18786193D01*
X7793664Y-18843336D01*
X7793664Y-18957622D01*
X7807950Y-18986193D01*
X7822236Y-19000479D01*
X7850807Y-19014764D01*
X7907950Y-19014764D01*
X7936521Y-19000479D01*
X7950807Y-18986193D01*
X7965093Y-18957622D01*
X7965093Y-18886193D01*
X7950807Y-18857622D01*
X7936521Y-18843336D01*
X7907950Y-18829050D01*
X7850807Y-18829050D01*
X7822236Y-18843336D01*
X7807950Y-18857622D01*
X7793664Y-18886193D01*
X8150807Y-18714764D02*
X8179378Y-18714764D01*
X8207950Y-18729050D01*
X8222236Y-18743336D01*
X8236521Y-18771907D01*
X8250807Y-18829050D01*
X8250807Y-18900479D01*
X8236521Y-18957622D01*
X8222236Y-18986193D01*
X8207950Y-19000479D01*
X8179378Y-19014764D01*
X8150807Y-19014764D01*
X8122236Y-19000479D01*
X8107950Y-18986193D01*
X8093664Y-18957622D01*
X8079378Y-18900479D01*
X8079378Y-18829050D01*
X8093664Y-18771907D01*
X8107950Y-18743336D01*
X8122236Y-18729050D01*
X8150807Y-18714764D01*
X8436521Y-18714764D02*
X8465093Y-18714764D01*
X8493664Y-18729050D01*
X8507950Y-18743336D01*
X8522236Y-18771907D01*
X8536521Y-18829050D01*
X8536521Y-18900479D01*
X8522236Y-18957622D01*
X8507950Y-18986193D01*
X8493664Y-19000479D01*
X8465093Y-19014764D01*
X8436521Y-19014764D01*
X8407950Y-19000479D01*
X8393664Y-18986193D01*
X8379378Y-18957622D01*
X8365093Y-18900479D01*
X8365093Y-18829050D01*
X8379378Y-18771907D01*
X8393664Y-18743336D01*
X8407950Y-18729050D01*
X8436521Y-18714764D01*
X8665093Y-19014764D02*
X8665093Y-18814764D01*
X8665093Y-18843336D02*
X8679378Y-18829050D01*
X8707950Y-18814764D01*
X8750807Y-18814764D01*
X8779378Y-18829050D01*
X8793664Y-18857622D01*
X8793664Y-19014764D01*
X8793664Y-18857622D02*
X8807950Y-18829050D01*
X8836521Y-18814764D01*
X8879378Y-18814764D01*
X8907950Y-18829050D01*
X8922236Y-18857622D01*
X8922236Y-19014764D01*
X9065093Y-19014764D02*
X9065093Y-18814764D01*
X9065093Y-18843336D02*
X9079378Y-18829050D01*
X9107950Y-18814764D01*
X9150807Y-18814764D01*
X9179378Y-18829050D01*
X9193664Y-18857622D01*
X9193664Y-19014764D01*
X9193664Y-18857622D02*
X9207950Y-18829050D01*
X9236521Y-18814764D01*
X9279378Y-18814764D01*
X9307950Y-18829050D01*
X9322236Y-18857622D01*
X9322236Y-19014764D01*
X9907950Y-18700479D02*
X9650807Y-19086193D01*
X10293664Y-18714764D02*
X10322236Y-18714764D01*
X10350807Y-18729050D01*
X10365093Y-18743336D01*
X10379378Y-18771907D01*
X10393664Y-18829050D01*
X10393664Y-18900479D01*
X10379378Y-18957622D01*
X10365093Y-18986193D01*
X10350807Y-19000479D01*
X10322236Y-19014764D01*
X10293664Y-19014764D01*
X10265093Y-19000479D01*
X10250807Y-18986193D01*
X10236521Y-18957622D01*
X10222236Y-18900479D01*
X10222236Y-18829050D01*
X10236521Y-18771907D01*
X10250807Y-18743336D01*
X10265093Y-18729050D01*
X10293664Y-18714764D01*
X10522236Y-18986193D02*
X10536521Y-19000479D01*
X10522236Y-19014764D01*
X10507950Y-19000479D01*
X10522236Y-18986193D01*
X10522236Y-19014764D01*
X10722236Y-18714764D02*
X10750807Y-18714764D01*
X10779378Y-18729050D01*
X10793664Y-18743336D01*
X10807950Y-18771907D01*
X10822236Y-18829050D01*
X10822236Y-18900479D01*
X10807950Y-18957622D01*
X10793664Y-18986193D01*
X10779378Y-19000479D01*
X10750807Y-19014764D01*
X10722236Y-19014764D01*
X10693664Y-19000479D01*
X10679378Y-18986193D01*
X10665093Y-18957622D01*
X10650807Y-18900479D01*
X10650807Y-18829050D01*
X10665093Y-18771907D01*
X10679378Y-18743336D01*
X10693664Y-18729050D01*
X10722236Y-18714764D01*
X11079378Y-18714764D02*
X11022236Y-18714764D01*
X10993664Y-18729050D01*
X10979378Y-18743336D01*
X10950807Y-18786193D01*
X10936521Y-18843336D01*
X10936521Y-18957622D01*
X10950807Y-18986193D01*
X10965093Y-19000479D01*
X10993664Y-19014764D01*
X11050807Y-19014764D01*
X11079378Y-19000479D01*
X11093664Y-18986193D01*
X11107950Y-18957622D01*
X11107950Y-18886193D01*
X11093664Y-18857622D01*
X11079378Y-18843336D01*
X11050807Y-18829050D01*
X10993664Y-18829050D01*
X10965093Y-18843336D01*
X10950807Y-18857622D01*
X10936521Y-18886193D01*
X11207950Y-18714764D02*
X11393664Y-18714764D01*
X11293664Y-18829050D01*
X11336521Y-18829050D01*
X11365093Y-18843336D01*
X11379378Y-18857622D01*
X11393664Y-18886193D01*
X11393664Y-18957622D01*
X11379378Y-18986193D01*
X11365093Y-19000479D01*
X11336521Y-19014764D01*
X11250807Y-19014764D01*
X11222236Y-19000479D01*
X11207950Y-18986193D01*
X11579378Y-18714764D02*
X11607950Y-18714764D01*
X11636521Y-18729050D01*
X11650807Y-18743336D01*
X11665093Y-18771907D01*
X11679378Y-18829050D01*
X11679378Y-18900479D01*
X11665093Y-18957622D01*
X11650807Y-18986193D01*
X11636521Y-19000479D01*
X11607950Y-19014764D01*
X11579378Y-19014764D01*
X11550807Y-19000479D01*
X11536521Y-18986193D01*
X11522236Y-18957622D01*
X11507950Y-18900479D01*
X11507950Y-18829050D01*
X11522236Y-18771907D01*
X11536521Y-18743336D01*
X11550807Y-18729050D01*
X11579378Y-18714764D01*
X11793664Y-18714764D02*
X11793664Y-18771907D01*
X11907950Y-18714764D02*
X11907950Y-18771907D01*
X12350807Y-19129050D02*
X12336521Y-19114764D01*
X12307950Y-19071907D01*
X12293664Y-19043336D01*
X12279378Y-19000479D01*
X12265093Y-18929050D01*
X12265093Y-18871907D01*
X12279378Y-18800479D01*
X12293664Y-18757622D01*
X12307950Y-18729050D01*
X12336521Y-18686193D01*
X12350807Y-18671907D01*
X12436521Y-18714764D02*
X12622236Y-18714764D01*
X12522236Y-18829050D01*
X12565093Y-18829050D01*
X12593664Y-18843336D01*
X12607950Y-18857622D01*
X12622236Y-18886193D01*
X12622236Y-18957622D01*
X12607950Y-18986193D01*
X12593664Y-19000479D01*
X12565093Y-19014764D01*
X12479378Y-19014764D01*
X12450807Y-19000479D01*
X12436521Y-18986193D01*
X12979378Y-19014764D02*
X12979378Y-18714764D01*
X13107950Y-19014764D02*
X13107950Y-18857622D01*
X13093664Y-18829050D01*
X13065093Y-18814764D01*
X13022236Y-18814764D01*
X12993664Y-18829050D01*
X12979378Y-18843336D01*
X13293664Y-19014764D02*
X13265093Y-19000479D01*
X13250807Y-18986193D01*
X13236521Y-18957622D01*
X13236521Y-18871907D01*
X13250807Y-18843336D01*
X13265093Y-18829050D01*
X13293664Y-18814764D01*
X13336521Y-18814764D01*
X13365093Y-18829050D01*
X13379378Y-18843336D01*
X13393664Y-18871907D01*
X13393664Y-18957622D01*
X13379378Y-18986193D01*
X13365093Y-19000479D01*
X13336521Y-19014764D01*
X13293664Y-19014764D01*
X13565093Y-19014764D02*
X13536521Y-19000479D01*
X13522236Y-18971907D01*
X13522236Y-18714764D01*
X13793664Y-19000479D02*
X13765093Y-19014764D01*
X13707950Y-19014764D01*
X13679378Y-19000479D01*
X13665093Y-18971907D01*
X13665093Y-18857622D01*
X13679378Y-18829050D01*
X13707950Y-18814764D01*
X13765093Y-18814764D01*
X13793664Y-18829050D01*
X13807950Y-18857622D01*
X13807950Y-18886193D01*
X13665093Y-18914764D01*
X13922236Y-19000479D02*
X13950807Y-19014764D01*
X14007950Y-19014764D01*
X14036521Y-19000479D01*
X14050807Y-18971907D01*
X14050807Y-18957622D01*
X14036521Y-18929050D01*
X14007950Y-18914764D01*
X13965093Y-18914764D01*
X13936521Y-18900479D01*
X13922236Y-18871907D01*
X13922236Y-18857622D01*
X13936521Y-18829050D01*
X13965093Y-18814764D01*
X14007950Y-18814764D01*
X14036521Y-18829050D01*
X14150807Y-19129050D02*
X14165093Y-19114764D01*
X14193664Y-19071907D01*
X14207950Y-19043336D01*
X14222236Y-19000479D01*
X14236521Y-18929050D01*
X14236521Y-18871907D01*
X14222236Y-18800479D01*
X14207950Y-18757622D01*
X14193664Y-18729050D01*
X14165093Y-18686193D01*
X14150807Y-18671907D01*
X6940550Y-19122650D02*
X6940550Y-19427450D01*
X6788150Y-19275050D02*
X7092950Y-19275050D01*
X7092950Y-19275050D02*
G75*
G03*
X7092950Y-19275050I-152400J0D01*
G01*
X7350807Y-19110764D02*
X7536521Y-19110764D01*
X7436521Y-19225050D01*
X7479378Y-19225050D01*
X7507950Y-19239336D01*
X7522236Y-19253622D01*
X7536521Y-19282193D01*
X7536521Y-19353622D01*
X7522236Y-19382193D01*
X7507950Y-19396479D01*
X7479378Y-19410764D01*
X7393664Y-19410764D01*
X7365093Y-19396479D01*
X7350807Y-19382193D01*
X7665093Y-19382193D02*
X7679378Y-19396479D01*
X7665093Y-19410764D01*
X7650807Y-19396479D01*
X7665093Y-19382193D01*
X7665093Y-19410764D01*
X7865093Y-19110764D02*
X7893664Y-19110764D01*
X7922236Y-19125050D01*
X7936521Y-19139336D01*
X7950807Y-19167907D01*
X7965093Y-19225050D01*
X7965093Y-19296479D01*
X7950807Y-19353622D01*
X7936521Y-19382193D01*
X7922236Y-19396479D01*
X7893664Y-19410764D01*
X7865093Y-19410764D01*
X7836521Y-19396479D01*
X7822236Y-19382193D01*
X7807950Y-19353622D01*
X7793664Y-19296479D01*
X7793664Y-19225050D01*
X7807950Y-19167907D01*
X7822236Y-19139336D01*
X7836521Y-19125050D01*
X7865093Y-19110764D01*
X8222236Y-19210764D02*
X8222236Y-19410764D01*
X8150807Y-19096479D02*
X8079378Y-19310764D01*
X8265093Y-19310764D01*
X8422236Y-19239336D02*
X8393664Y-19225050D01*
X8379378Y-19210764D01*
X8365093Y-19182193D01*
X8365093Y-19167907D01*
X8379378Y-19139336D01*
X8393664Y-19125050D01*
X8422236Y-19110764D01*
X8479378Y-19110764D01*
X8507950Y-19125050D01*
X8522236Y-19139336D01*
X8536521Y-19167907D01*
X8536521Y-19182193D01*
X8522236Y-19210764D01*
X8507950Y-19225050D01*
X8479378Y-19239336D01*
X8422236Y-19239336D01*
X8393664Y-19253622D01*
X8379378Y-19267907D01*
X8365093Y-19296479D01*
X8365093Y-19353622D01*
X8379378Y-19382193D01*
X8393664Y-19396479D01*
X8422236Y-19410764D01*
X8479378Y-19410764D01*
X8507950Y-19396479D01*
X8522236Y-19382193D01*
X8536521Y-19353622D01*
X8536521Y-19296479D01*
X8522236Y-19267907D01*
X8507950Y-19253622D01*
X8479378Y-19239336D01*
X8665093Y-19410764D02*
X8665093Y-19210764D01*
X8665093Y-19239336D02*
X8679378Y-19225050D01*
X8707950Y-19210764D01*
X8750807Y-19210764D01*
X8779378Y-19225050D01*
X8793664Y-19253622D01*
X8793664Y-19410764D01*
X8793664Y-19253622D02*
X8807950Y-19225050D01*
X8836521Y-19210764D01*
X8879378Y-19210764D01*
X8907950Y-19225050D01*
X8922236Y-19253622D01*
X8922236Y-19410764D01*
X9065093Y-19410764D02*
X9065093Y-19210764D01*
X9065093Y-19239336D02*
X9079378Y-19225050D01*
X9107950Y-19210764D01*
X9150807Y-19210764D01*
X9179378Y-19225050D01*
X9193664Y-19253622D01*
X9193664Y-19410764D01*
X9193664Y-19253622D02*
X9207950Y-19225050D01*
X9236521Y-19210764D01*
X9279378Y-19210764D01*
X9307950Y-19225050D01*
X9322236Y-19253622D01*
X9322236Y-19410764D01*
X9907950Y-19096479D02*
X9650807Y-19482193D01*
X10293664Y-19110764D02*
X10322236Y-19110764D01*
X10350807Y-19125050D01*
X10365093Y-19139336D01*
X10379378Y-19167907D01*
X10393664Y-19225050D01*
X10393664Y-19296479D01*
X10379378Y-19353622D01*
X10365093Y-19382193D01*
X10350807Y-19396479D01*
X10322236Y-19410764D01*
X10293664Y-19410764D01*
X10265093Y-19396479D01*
X10250807Y-19382193D01*
X10236521Y-19353622D01*
X10222236Y-19296479D01*
X10222236Y-19225050D01*
X10236521Y-19167907D01*
X10250807Y-19139336D01*
X10265093Y-19125050D01*
X10293664Y-19110764D01*
X10522236Y-19382193D02*
X10536521Y-19396479D01*
X10522236Y-19410764D01*
X10507950Y-19396479D01*
X10522236Y-19382193D01*
X10522236Y-19410764D01*
X10822236Y-19410764D02*
X10650807Y-19410764D01*
X10736521Y-19410764D02*
X10736521Y-19110764D01*
X10707950Y-19153622D01*
X10679378Y-19182193D01*
X10650807Y-19196479D01*
X10936521Y-19139336D02*
X10950807Y-19125050D01*
X10979378Y-19110764D01*
X11050807Y-19110764D01*
X11079378Y-19125050D01*
X11093664Y-19139336D01*
X11107950Y-19167907D01*
X11107950Y-19196479D01*
X11093664Y-19239336D01*
X10922236Y-19410764D01*
X11107950Y-19410764D01*
X11293664Y-19110764D02*
X11322236Y-19110764D01*
X11350807Y-19125050D01*
X11365093Y-19139336D01*
X11379378Y-19167907D01*
X11393664Y-19225050D01*
X11393664Y-19296479D01*
X11379378Y-19353622D01*
X11365093Y-19382193D01*
X11350807Y-19396479D01*
X11322236Y-19410764D01*
X11293664Y-19410764D01*
X11265093Y-19396479D01*
X11250807Y-19382193D01*
X11236521Y-19353622D01*
X11222236Y-19296479D01*
X11222236Y-19225050D01*
X11236521Y-19167907D01*
X11250807Y-19139336D01*
X11265093Y-19125050D01*
X11293664Y-19110764D01*
X11579378Y-19110764D02*
X11607950Y-19110764D01*
X11636521Y-19125050D01*
X11650807Y-19139336D01*
X11665093Y-19167907D01*
X11679378Y-19225050D01*
X11679378Y-19296479D01*
X11665093Y-19353622D01*
X11650807Y-19382193D01*
X11636521Y-19396479D01*
X11607950Y-19410764D01*
X11579378Y-19410764D01*
X11550807Y-19396479D01*
X11536521Y-19382193D01*
X11522236Y-19353622D01*
X11507950Y-19296479D01*
X11507950Y-19225050D01*
X11522236Y-19167907D01*
X11536521Y-19139336D01*
X11550807Y-19125050D01*
X11579378Y-19110764D01*
X11793664Y-19110764D02*
X11793664Y-19167907D01*
X11907950Y-19110764D02*
X11907950Y-19167907D01*
X12350807Y-19525050D02*
X12336521Y-19510764D01*
X12307950Y-19467907D01*
X12293664Y-19439336D01*
X12279378Y-19396479D01*
X12265093Y-19325050D01*
X12265093Y-19267907D01*
X12279378Y-19196479D01*
X12293664Y-19153622D01*
X12307950Y-19125050D01*
X12336521Y-19082193D01*
X12350807Y-19067907D01*
X12593664Y-19110764D02*
X12536521Y-19110764D01*
X12507950Y-19125050D01*
X12493664Y-19139336D01*
X12465093Y-19182193D01*
X12450807Y-19239336D01*
X12450807Y-19353622D01*
X12465093Y-19382193D01*
X12479378Y-19396479D01*
X12507950Y-19410764D01*
X12565093Y-19410764D01*
X12593664Y-19396479D01*
X12607950Y-19382193D01*
X12622236Y-19353622D01*
X12622236Y-19282193D01*
X12607950Y-19253622D01*
X12593664Y-19239336D01*
X12565093Y-19225050D01*
X12507950Y-19225050D01*
X12479378Y-19239336D01*
X12465093Y-19253622D01*
X12450807Y-19282193D01*
X12979378Y-19410764D02*
X12979378Y-19110764D01*
X13107950Y-19410764D02*
X13107950Y-19253622D01*
X13093664Y-19225050D01*
X13065093Y-19210764D01*
X13022236Y-19210764D01*
X12993664Y-19225050D01*
X12979378Y-19239336D01*
X13293664Y-19410764D02*
X13265093Y-19396479D01*
X13250807Y-19382193D01*
X13236521Y-19353622D01*
X13236521Y-19267907D01*
X13250807Y-19239336D01*
X13265093Y-19225050D01*
X13293664Y-19210764D01*
X13336521Y-19210764D01*
X13365093Y-19225050D01*
X13379378Y-19239336D01*
X13393664Y-19267907D01*
X13393664Y-19353622D01*
X13379378Y-19382193D01*
X13365093Y-19396479D01*
X13336521Y-19410764D01*
X13293664Y-19410764D01*
X13565093Y-19410764D02*
X13536521Y-19396479D01*
X13522236Y-19367907D01*
X13522236Y-19110764D01*
X13793664Y-19396479D02*
X13765093Y-19410764D01*
X13707950Y-19410764D01*
X13679378Y-19396479D01*
X13665093Y-19367907D01*
X13665093Y-19253622D01*
X13679378Y-19225050D01*
X13707950Y-19210764D01*
X13765093Y-19210764D01*
X13793664Y-19225050D01*
X13807950Y-19253622D01*
X13807950Y-19282193D01*
X13665093Y-19310764D01*
X13922236Y-19396479D02*
X13950807Y-19410764D01*
X14007950Y-19410764D01*
X14036521Y-19396479D01*
X14050807Y-19367907D01*
X14050807Y-19353622D01*
X14036521Y-19325050D01*
X14007950Y-19310764D01*
X13965093Y-19310764D01*
X13936521Y-19296479D01*
X13922236Y-19267907D01*
X13922236Y-19253622D01*
X13936521Y-19225050D01*
X13965093Y-19210764D01*
X14007950Y-19210764D01*
X14036521Y-19225050D01*
X14150807Y-19525050D02*
X14165093Y-19510764D01*
X14193664Y-19467907D01*
X14207950Y-19439336D01*
X14222236Y-19396479D01*
X14236521Y-19325050D01*
X14236521Y-19267907D01*
X14222236Y-19196479D01*
X14207950Y-19153622D01*
X14193664Y-19125050D01*
X14165093Y-19082193D01*
X14150807Y-19067907D01*
M02*
